<svg width="107" height="104" viewBox="0 0 107 104" fill="none" xmlns="http://www.w3.org/2000/svg">
<path fill-rule="evenodd" clip-rule="evenodd" d="M53.8074 0.624146C56.0165 0.624146 57.8074 2.41501 57.8074 4.62415V16.4642L64.1182 11.8565C65.9024 10.5538 68.4048 10.9442 69.7075 12.7283C71.0101 14.5125 70.6198 17.0149 68.8356 18.3176L57.8074 26.3697V32.6342L64.1182 28.0265C65.9024 26.7238 68.4048 27.1141 69.7075 28.8983C71.0101 30.6825 70.6198 33.1849 68.8356 34.4876L57.8074 42.5396V51.0403L66.3136 47.9443L69.8319 35.7069C70.4423 33.5838 72.6583 32.3575 74.7814 32.9679C76.9045 33.5783 78.1308 35.7943 77.5204 37.9174L75.6105 44.5605L81.4925 42.4196L85.0195 30.1519C85.63 28.0288 87.8459 26.8025 89.9691 27.4129C92.0922 28.0233 93.3185 30.2393 92.7081 32.3624L90.7895 39.0358L101.582 35.1075C103.658 34.3519 105.954 35.4223 106.709 37.4982C107.465 39.5741 106.395 41.8695 104.319 42.625L92.7819 46.824L99.6879 51.4423C101.524 52.6703 102.017 55.1545 100.789 56.9908C99.5614 58.8272 97.0772 59.3204 95.2408 58.0923L83.4627 50.216L77.5689 52.3611L84.5025 56.9978C86.3389 58.2258 86.832 60.71 85.604 62.5464C84.376 64.3827 81.8918 64.8759 80.0554 63.6478L68.2497 55.753L59.2202 59.0395L66.4077 67.5153L79.1048 66.57C81.3078 66.406 83.2267 68.059 83.3907 70.262C83.5547 72.4651 81.9017 74.3839 79.6987 74.548L72.8065 75.0611L76.8545 79.8346L89.5836 78.8869C91.7866 78.7229 93.7055 80.3759 93.8695 82.5789C94.0335 84.782 92.3806 86.7008 90.1775 86.8649L83.2533 87.3804L90.6819 96.1405C92.1107 97.8254 91.9031 100.35 90.2182 101.778C88.5333 103.207 86.0092 102.999 84.5804 101.315L76.6405 91.9516L74.7052 100.029C74.1904 102.178 72.0316 103.502 69.8833 102.987C67.7349 102.472 66.4106 100.314 66.9254 98.1653L70.2264 84.3877L66.1678 79.6016L64.2241 87.7141C63.7093 89.8624 61.5505 91.1867 59.4022 90.672C57.2538 90.1572 55.9295 87.9984 56.4443 85.8501L59.7536 72.0378L53.6482 64.838L47.5436 72.0367L50.8532 85.8501C51.368 87.9984 50.0437 90.1572 47.8953 90.672C45.747 91.1867 43.5881 89.8624 43.0734 87.7141L41.1295 79.6006L37.0717 84.3856L40.3732 98.1653C40.888 100.314 39.5637 102.472 37.4153 102.987C35.267 103.502 33.1082 102.178 32.5934 100.029L30.6576 91.9495L22.716 101.315C21.2872 102.999 18.763 103.207 17.0781 101.778C15.3933 100.35 15.1856 97.8254 16.6144 96.1405L24.0432 87.3801L17.1222 86.8649C14.9191 86.7008 13.2662 84.782 13.4302 82.5789C13.5942 80.3759 15.5131 78.7229 17.7161 78.8869L30.442 79.8344L34.4899 75.061L27.5988 74.548C25.3957 74.3839 23.7428 72.4651 23.9068 70.262C24.0708 68.059 25.9897 66.406 28.1927 66.57L40.8887 67.5152L48.0761 59.0395L39.0481 55.7536L27.2432 63.6478C25.4068 64.8759 22.9226 64.3827 21.6946 62.5464C20.4666 60.71 20.9597 58.2258 22.7961 56.9978L29.7289 52.3616L23.8351 50.2165L12.0578 58.0923C10.2214 59.3204 7.73724 58.8272 6.50921 56.9908C5.28118 55.1545 5.77434 52.6703 7.6107 51.4423L14.5159 46.8246L2.97773 42.625C0.901824 41.8695 -0.168527 39.5741 0.587043 37.4982C1.34261 35.4223 3.63798 34.3519 5.71389 35.1075L16.5082 39.0363L14.5894 32.3624C13.979 30.2393 15.2053 28.0233 17.3284 27.4129C19.4516 26.8025 21.6675 28.0288 22.2779 30.1519L25.8051 42.4201L31.6859 44.5605L29.7759 37.9174C29.1655 35.7943 30.3918 33.5783 32.515 32.9679C34.6381 32.3575 36.8541 33.5838 37.4645 35.7069L40.9828 47.9443L49.8074 51.1562V42.3171L39.0839 34.4876C37.2997 33.1849 36.9094 30.6825 38.2121 28.8983C39.5147 27.1141 42.0171 26.7238 43.8013 28.0265L49.8074 32.4117V26.1471L39.0839 18.3176C37.2997 17.0149 36.9094 14.5125 38.2121 12.7283C39.5147 10.9442 42.0171 10.5538 43.8013 11.8565L49.8074 16.2417V4.62415C49.8074 2.41501 51.5982 0.624146 53.8074 0.624146Z" fill="#EAE7DF"/>
</svg>
