<svg width="103" height="108" viewBox="0 0 103 108" fill="none" xmlns="http://www.w3.org/2000/svg">
<path d="M100.263 75.9321C100.746 74.9037 100.475 73.6789 99.6027 72.9506C98.7307 72.2222 97.4772 72.1735 96.5513 72.8319C90.2717 77.297 82.6053 79.9201 74.3218 79.9201C53.0636 79.9201 35.8146 62.6202 35.8146 41.2601C35.8146 26.5399 44.0074 13.7415 56.0698 7.20973C57.0672 6.66962 57.576 5.52572 57.3092 4.42329C57.0424 3.32086 56.0668 2.53619 54.9328 2.51192C54.5622 2.50399 54.1906 2.5 53.8181 2.5C25.4672 2.5 2.5 25.5661 2.5 54C2.5 82.4339 25.4672 105.5 53.8181 105.5C74.3524 105.5 92.0598 93.3978 100.263 75.9321Z" fill="#CAB9B1" stroke="#CAB9B1" stroke-width="5" stroke-linejoin="round"/>
</svg>
