<svg width="76" height="116" viewBox="0 0 76 116" fill="none" xmlns="http://www.w3.org/2000/svg">
<path fill-rule="evenodd" clip-rule="evenodd" d="M18 25H16C13.7909 25 12 23.2091 12 21C12 18.7909 13.7909 17 16 17H18.1588C19.3859 7.41114 27.5775 0 37.5 0C47.4225 0 55.6141 7.41114 56.8412 17H59C61.2091 17 63 18.7909 63 21C63 23.2091 61.2091 25 59 25H57V34H59C61.2091 34 63 35.7909 63 38C63 40.2091 61.2091 42 59 42H57V51H59C61.2091 51 63 52.7909 63 55C63 57.2091 61.2091 59 59 59H57V64H71C73.7614 64 76 66.2386 76 69V77C76 79.7614 73.7614 82 71 82H64.6853L61.8793 113.268C61.7405 114.815 60.4443 116 58.8913 116H41.5635H33.251H15.9231C14.3702 116 13.0739 114.815 12.9351 113.268L10.1292 82H5C2.23858 82 0 79.7614 0 77V69C0 66.2386 2.23858 64 5 64H18V59H16C13.7909 59 12 57.2091 12 55C12 52.7909 13.7909 51 16 51H18V42H16C13.7909 42 12 40.2091 12 38C12 35.7909 13.7909 34 16 34H18V25Z" fill="#ECE9E1"/>
<path fill-rule="evenodd" clip-rule="evenodd" d="M18.1588 17C18.054 17.8185 18 18.653 18 19.5V25H16C13.7909 25 12 23.2091 12 21C12 18.7909 13.7909 17 16 17H18.1588ZM56.8412 17C56.946 17.8185 57 18.653 57 19.5V25H59C61.2091 25 63 23.2091 63 21C63 18.7909 61.2091 17 59 17H56.8412ZM18 34H16C13.7909 34 12 35.7909 12 38C12 40.2091 13.7909 42 16 42H18V34ZM57 42V34H59C61.2091 34 63 35.7909 63 38C63 40.2091 61.2091 42 59 42H57ZM18 51H16C13.7909 51 12 52.7909 12 55C12 57.2091 13.7909 59 16 59H18V51ZM57 59V51H59C61.2091 51 63 52.7909 63 55C63 57.2091 61.2091 59 59 59H57Z" fill="#CAB9B1"/>
<path d="M18 19.5C18 8.73045 26.7304 0 37.5 0C48.2696 0 57 8.73045 57 19.5V67H18V19.5Z" fill="#6B7050"/>
<path fill-rule="evenodd" clip-rule="evenodd" d="M5 64C2.23858 64 0 66.2386 0 69V77C0 79.7614 2.23858 82 5 82H10.1292L12.9351 113.268C13.0739 114.815 14.3702 116 15.9231 116H33.251H41.5635H58.8913C60.4443 116 61.7405 114.815 61.8793 113.268L64.6853 82H71C73.7614 82 76 79.7614 76 77V69C76 66.2386 73.7614 64 71 64H5Z" fill="#564842"/>
<circle cx="38" cy="51" r="4" fill="#EAE7DF"/>
<circle cx="38" cy="34" r="4" fill="#EAE7DF"/>
<circle cx="38" cy="17" r="4" fill="#EAE7DF"/>
</svg>
