<svg width="111" height="111" viewBox="0 0 111 111" fill="none" xmlns="http://www.w3.org/2000/svg">
<path fill-rule="evenodd" clip-rule="evenodd" d="M56.0499 0.395996C58.2591 0.395996 60.0499 2.18686 60.0499 4.396V17.5841C60.0499 19.7933 58.2591 21.5841 56.0499 21.5841C53.8408 21.5841 52.0499 19.7933 52.0499 17.5841V4.396C52.0499 2.18686 53.8408 0.395996 56.0499 0.395996ZM110.604 56.0495C110.604 58.2586 108.814 60.0495 106.604 60.0495H93.4163C91.2071 60.0495 89.4163 58.2586 89.4163 56.0495C89.4163 53.8403 91.2071 52.0495 93.4163 52.0495H106.604C108.814 52.0495 110.604 53.8403 110.604 56.0495ZM91.1213 95.6785C92.6834 97.2406 95.216 97.2406 96.7781 95.6785C98.3402 94.1164 98.3402 91.5837 96.7781 90.0216L87.4527 80.6962C85.8906 79.1341 83.358 79.1341 81.7959 80.6962C80.2338 82.2583 80.2338 84.791 81.7959 86.3531L91.1213 95.6785ZM0.396484 56.0495C0.396484 58.2586 2.18735 60.0495 4.39648 60.0495H17.5846C19.7937 60.0495 21.5846 58.2586 21.5846 56.0495C21.5846 53.8403 19.7937 52.0495 17.5846 52.0495H4.39648C2.18735 52.0495 0.396484 53.8403 0.396484 56.0495ZM20.9786 95.6785C19.4165 97.2406 16.8839 97.2406 15.3218 95.6785C13.7597 94.1164 13.7597 91.5837 15.3218 90.0216L24.6472 80.6962C26.2093 79.1341 28.7419 79.1341 30.304 80.6962C31.8661 82.2583 31.8661 84.791 30.304 86.3531L20.9786 95.6785ZM15.9711 14.872C17.5332 13.3099 20.0659 13.3099 21.628 14.872L30.9534 24.1974C32.5155 25.7595 32.5155 28.2922 30.9534 29.8543C29.3913 31.4164 26.8586 31.4164 25.2965 29.8543L15.9711 20.5289C14.409 18.9668 14.409 16.4341 15.9711 14.872ZM90.0222 14.872C91.5844 13.3099 94.117 13.3099 95.6791 14.872C97.2412 16.4341 97.2412 18.9668 95.6791 20.5289L86.3537 29.8543C84.7916 31.4164 82.2589 31.4164 80.6968 29.8543C79.1347 28.2922 79.1347 25.7595 80.6968 24.1974L90.0222 14.872ZM56.0499 89.4158C58.2591 89.4158 60.0499 91.2067 60.0499 93.4158V106.604C60.0499 108.813 58.2591 110.604 56.0499 110.604C53.8408 110.604 52.0499 108.813 52.0499 106.604V93.4158C52.0499 91.2067 53.8408 89.4158 56.0499 89.4158ZM55.5004 83.5247C70.9781 83.5247 83.5252 70.9776 83.5252 55.5C83.5252 40.0223 70.9781 27.4752 55.5004 27.4752C40.0228 27.4752 27.4757 40.0223 27.4757 55.5C27.4757 70.9776 40.0228 83.5247 55.5004 83.5247Z" fill="#FFD2AA"/>
</svg>
