<svg width="69" height="120" viewBox="0 0 69 120" fill="none" xmlns="http://www.w3.org/2000/svg">
<path fill-rule="evenodd" clip-rule="evenodd" d="M52.8694 22.3951C49.4083 23.3225 46.2685 24.8505 43.5322 26.837C45.3758 17.8038 42.7941 8.04721 35.787 1.04015C34.4001 -0.346717 32.1516 -0.346717 30.7647 1.04015C23.8639 7.94101 21.2552 17.5087 22.9388 26.4258C20.3421 24.6391 17.4016 23.2574 14.1833 22.3951C12.2888 21.8874 10.3415 23.0117 9.83386 24.9062C7.72699 32.7691 9.13401 40.7458 13.0923 47.1689C10.5901 46.448 7.94618 46.0618 5.212 46.0618C3.25068 46.0618 1.66071 47.6517 1.66071 49.6131C1.66071 56.2888 3.96321 62.4268 7.8174 67.2762C6.09559 67.41 4.36157 67.7033 2.63303 68.1665C0.738539 68.6741 -0.385741 70.6214 0.121888 72.5159C3.70984 85.9063 16.2882 94.487 29.6224 93.5037L29.6224 115.722C29.6224 117.931 31.4133 119.722 33.6224 119.722C35.8315 119.722 37.6224 117.931 37.6224 115.722L37.6224 93.3972C51.371 94.9686 64.5667 86.2851 68.2561 72.5159C68.7638 70.6214 67.6395 68.6741 65.745 68.1665C63.6534 67.606 61.5538 67.2942 59.4775 67.213C63.3015 62.3735 65.5841 56.2598 65.5841 49.6131C65.5841 47.6517 63.9941 46.0618 62.0328 46.0618C59.213 46.0618 56.4892 46.4726 53.9179 47.2376C57.9086 40.8027 59.3332 32.7972 57.2188 24.9062C56.7112 23.0117 54.7639 21.8874 52.8694 22.3951Z" fill="#95271F"/>
</svg>
