<svg width="88" height="89" viewBox="0 0 88 89" fill="none" xmlns="http://www.w3.org/2000/svg">
<path fill-rule="evenodd" clip-rule="evenodd" d="M65.6173 -1.28047e-05L80.8477 -1.16566e-05V6.70575L87.0842 6.70574L87.0842 21.4669C87.0842 30.4491 83.1367 38.5094 76.8819 44.0074C83.1388 49.5055 87.0879 57.5672 87.0879 66.5512V81.7816H80.3794V88.0181H65.621C56.9092 88.0181 49.0647 84.3047 43.584 78.3744C38.1033 84.3047 30.2588 88.0181 21.5469 88.0181H6.78858L6.78858 81.7816H0.0800594L0.0800589 66.5512C0.0800592 57.5672 4.02914 49.5055 10.2861 44.0074C4.03128 38.5094 0.0837552 30.4491 0.0837552 21.4669L0.0837555 6.70574L6.32022 6.70575L6.32022 -1.16566e-05L21.5506 -1.28047e-05C30.2605 -1.25389e-05 38.1034 3.71173 43.584 9.63973C49.0645 3.71173 56.9075 -1.25389e-05 65.6173 -1.28047e-05Z" fill="#CAB9B1"/>
<circle cx="43.5837" cy="43.503" r="4.75657" fill="#DB6547"/>
</svg>
