<svg width="68" height="122" viewBox="0 0 68 122" fill="none" xmlns="http://www.w3.org/2000/svg">
<path fill-rule="evenodd" clip-rule="evenodd" d="M56.2541 33.0014L56.2544 33.0013C62.5984 31.4751 67.7495 24.9484 67.7597 18.4235C67.77 11.8985 62.6355 7.84621 56.2915 9.37238L56.2909 9.37254C56.3011 2.84767 51.1666 -1.20457 44.8227 0.321592C39.5729 1.58456 35.1399 6.27197 33.7612 11.549C32.0461 6.74836 27.833 2.65274 22.9413 1.52376C16.5835 0.0564302 11.4867 4.15613 11.5575 10.6807L11.5575 10.681L11.5552 10.6805C5.19742 9.2132 0.100706 13.3129 0.17141 19.8375C0.242114 26.362 5.45346 32.8407 11.8113 34.3081L11.8113 34.3081L11.8113 34.3084L12.529 34.474C6.81911 35.5357 1.59287 40.2691 0.296413 45.8995C-1.16771 52.2581 2.93457 57.3527 9.4591 57.2787L9.46022 57.2787C7.9961 63.6373 12.0984 68.7319 18.6229 68.6579C22.8548 68.6099 27.0663 66.3993 29.903 63.1165L29.903 117.427C29.903 119.637 31.6939 121.427 33.903 121.427C36.1122 121.427 37.903 119.637 37.903 117.427L37.903 62.6421C40.7934 66.1728 45.2737 68.5503 49.7353 68.5241C56.2601 68.4858 60.2742 63.3214 58.7009 56.9889L58.7008 56.9888L58.7021 56.9888C65.2269 56.9506 69.2409 51.7861 67.6676 45.4537C66.0943 39.1212 59.5295 34.0188 53.0046 34.0571L53.0024 34.0571L53.0023 34.0569L51.8392 34.0637L56.2541 33.0016L56.2541 33.0014Z" fill="#6B7050"/>
</svg>
