<svg width="270" height="384" viewBox="0 0 270 384" fill="none" xmlns="http://www.w3.org/2000/svg">
<path fill-rule="evenodd" clip-rule="evenodd" d="M70.5482 100.78C77.9679 102.768 84.9681 105.54 91.4834 108.984C83.5885 76.2436 92.42 40.2933 117.978 14.7354L131.062 1.65172C133.014 -0.3009 136.18 -0.300898 138.133 1.65172L151.643 15.1619C177.122 40.6407 185.977 76.4477 178.21 109.106C184.791 105.606 191.869 102.791 199.376 100.78L217.831 95.8348C220.499 95.1201 223.24 96.703 223.955 99.3703L228.744 117.243C236.113 144.744 231.27 172.64 217.539 195.174C226.814 193.365 236.504 192.85 246.39 193.81L265.407 195.656C268.156 195.923 270.167 198.368 269.901 201.116L268.113 219.533C262.776 274.503 213.888 314.739 158.918 309.402L143.925 307.946V374.074C143.925 379.045 139.896 383.074 134.925 383.074C129.955 383.074 125.925 379.045 125.925 374.074V307.954L111.007 309.402C56.0367 314.739 7.14843 274.503 1.81171 219.533L0.0237548 201.116C-0.243081 198.368 1.76871 195.923 4.51721 195.656L23.534 193.81C33.4207 192.85 43.1107 193.365 52.3859 195.174C38.6547 172.64 33.8114 144.744 41.1803 117.243L45.9693 99.3703C46.684 96.703 49.4257 95.1201 52.093 95.8348L70.5482 100.78Z" fill="#95271F"/>
</svg>
