<svg width="165" height="165" viewBox="0 0 165 165" fill="none" xmlns="http://www.w3.org/2000/svg">
<mask id="mask0_151_7" style="mask-type:alpha" maskUnits="userSpaceOnUse" x="0" y="0" width="165" height="165">
<rect width="165" height="165" rx="10" fill="#CAB9B1"/>
</mask>
<g mask="url(#mask0_151_7)">
<rect width="165" height="165" rx="10" fill="#CAB9B1"/>
<path d="M52.9783 34.8666C53.7545 33.4816 55.2159 33.0485 55.2159 33.0485C55.2159 33.0485 54.7964 28.2321 57.8731 26.0558C63.607 22.0001 67.6628 25.2167 67.6628 25.2167C67.6628 25.2167 67.8027 24.6573 68.9214 23.5385C71.7322 20.7273 75.9141 22.4197 77.8721 23.5385C79.1438 24.2652 81.7879 25.7761 85.7038 29.692C93.3756 37.3636 97.7308 48.5721 99.1295 53.8865C102.711 67.493 101.927 88.8497 101.927 88.8497H64.7259C65.2852 80.4585 65.8444 71.9275 62.9077 64.6552C59.9709 57.3828 54.3764 48.712 53.3976 46.6142C52.4188 44.5164 51.0825 38.2493 52.9783 34.8666Z" fill="#816D61"/>
<path d="M55.2159 33.0485C55.2159 33.0485 53.7545 33.4816 52.9783 34.8666C51.0825 38.2492 52.4188 44.5164 53.3976 46.6142C54.3764 48.712 59.9709 57.3828 62.9077 64.6552C65.8444 71.9275 65.2852 80.4585 64.7259 88.8497H101.927C101.927 88.8497 102.711 67.493 99.1295 53.8865C97.7308 48.5721 93.3756 37.3636 85.7038 29.692C81.7879 25.7761 79.1438 24.2652 77.8721 23.5385C75.9141 22.4197 71.7322 20.7273 68.9214 23.5385C67.8027 24.6573 67.6628 25.2167 67.6628 25.2167M55.2159 33.0485C55.2159 33.0485 54.7964 28.2321 57.8731 26.0558C63.607 22.0001 67.6628 25.2167 67.6628 25.2167M55.2159 33.0485C55.2159 33.0485 55.3553 35.0612 55.7753 36.2651C56.2999 37.7685 57.3137 39.0621 57.3137 39.0621M67.6628 25.2167C67.6628 25.2167 66.6839 26.895 66.6839 28.8529C66.6839 32.7688 67.3831 33.468 67.3831 33.468" stroke="#816D61" stroke-width="8" stroke-linecap="round" stroke-linejoin="round"/>
<path d="M69.9004 63.2566C66.3868 61.0478 67.6974 52.4087 67.6974 52.4087C67.6974 52.4087 68.059 50.6065 68.7903 49.7708C70.2519 48.1005 74.5158 48.4322 74.5158 48.4322C74.5158 48.4322 81.7643 49.0324 84.5853 52.0684C87.001 54.6682 86.75 57.8381 84.5853 59.4564C82.8798 60.7313 78.4027 59.4564 78.4027 59.4564C78.4027 59.4564 76.6276 63.1894 74.5158 63.816C72.7077 64.3524 71.5075 64.2668 69.9004 63.2566Z" fill="#564842" stroke="#564842" stroke-width="2" stroke-linecap="round" stroke-linejoin="round"/>
<path d="M59.4059 41.9992C58.4245 39.8182 59.2804 37.5123 60.6646 36.4051C62.0631 35.2862 64.9568 34.587 66.6782 39.7615C67.5263 42.3109 66.3985 44.7515 65 45.0759C63.1905 45.4957 60.6646 44.7965 59.4059 41.9992Z" fill="#564842"/>
<path d="M72.4652 42.2621C70.9047 39.3532 72.4653 35.9687 73.8638 34.9898C76.5976 33.0762 79.2308 36.1086 80.0172 37.9267C81.3581 41.0269 80.8692 44.2593 77.5 44.5C75.5423 44.6399 73.6656 44.5 72.4652 42.2621Z" fill="#564842"/>
<path d="M53.0017 48.5C54.6051 45.9343 56.7465 46.9534 58.7354 49.0594C60.7242 51.1654 61.3263 54.337 58.7354 55.6325C56.218 56.8911 54.6797 55.7777 53.4213 54.2339C51.6256 52.031 52.3025 49.6188 53.0017 48.5Z" fill="#564842"/>
<path d="M59.4059 41.9992C58.4245 39.8182 59.2804 37.5123 60.6646 36.4051C62.0631 35.2862 64.9568 34.587 66.6782 39.7615C67.5263 42.3109 66.3985 44.7515 65 45.0759C63.1905 45.4957 60.6646 44.7965 59.4059 41.9992Z" stroke="#564842" stroke-width="2" stroke-linecap="round" stroke-linejoin="round"/>
<path d="M72.4652 42.2621C70.9047 39.3532 72.4653 35.9687 73.8638 34.9898C76.5976 33.0762 79.2308 36.1086 80.0172 37.9267C81.3581 41.0269 80.8692 44.2593 77.5 44.5C75.5423 44.6399 73.6656 44.5 72.4652 42.2621Z" stroke="#564842" stroke-width="2" stroke-linecap="round" stroke-linejoin="round"/>
<path d="M53.0017 48.5C54.6051 45.9343 56.7465 46.9534 58.7354 49.0594C60.7242 51.1654 61.3263 54.337 58.7354 55.6325C56.218 56.8911 54.6797 55.7777 53.4213 54.2339C51.6256 52.031 52.3025 49.6188 53.0017 48.5Z" stroke="#564842" stroke-width="2" stroke-linecap="round" stroke-linejoin="round"/>
<mask id="mask1_151_7" style="mask-type:alpha" maskUnits="userSpaceOnUse" x="48" y="18" width="58" height="75">
<path d="M52.9588 34.8649C53.735 33.4799 55.1964 33.0468 55.1964 33.0468C55.1964 33.0468 54.7768 28.2304 57.8536 26.0541C63.5874 21.9984 67.6433 25.215 67.6433 25.215C67.6433 25.215 67.7832 24.6556 68.9018 23.5368C71.7127 20.7256 75.8946 22.418 77.8526 23.5368C79.1242 24.2635 81.7683 25.7744 85.6843 29.6903C93.356 37.3619 97.7113 48.5704 99.11 53.8848C102.691 67.4913 101.907 88.848 101.907 88.848H64.7063C65.2656 80.4568 65.8249 71.9258 62.8881 64.6535C59.9514 57.3811 54.3569 48.7103 53.3781 46.6125C52.3992 44.5147 51.0629 38.2475 52.9588 34.8649Z" fill="#816D61"/>
<path d="M55.1964 33.0468C55.1964 33.0468 53.735 33.4799 52.9588 34.8649C51.0629 38.2475 52.3992 44.5147 53.3781 46.6125C54.3569 48.7103 59.9514 57.3811 62.8881 64.6535C65.8249 71.9258 65.2656 80.4568 64.7063 88.848H101.907C101.907 88.848 102.691 67.4913 99.11 53.8848C97.7113 48.5704 93.356 37.3619 85.6843 29.6903C81.7683 25.7744 79.1242 24.2635 77.8526 23.5368C75.8946 22.418 71.7127 20.7256 68.9018 23.5368C67.7832 24.6556 67.6433 25.215 67.6433 25.215M55.1964 33.0468C55.1964 33.0468 54.7768 28.2304 57.8536 26.0541C63.5874 21.9984 67.6433 25.215 67.6433 25.215M55.1964 33.0468C55.1964 33.0468 55.3358 35.0595 55.7558 36.2634C56.2804 37.7668 57.2942 39.0604 57.2942 39.0604M67.6433 25.215C67.6433 25.215 66.6643 26.8933 66.6643 28.8512C66.6643 32.7671 67.3636 33.4663 67.3636 33.4663" stroke="#816D61" stroke-width="8" stroke-linecap="round" stroke-linejoin="round"/>
</mask>
<g mask="url(#mask1_151_7)">
<path d="M50.0225 29.9506C50.0225 29.9506 49.8822 32.6626 50.3022 33.8665C50.8268 35.3699 51.841 36.5237 51.841 36.5237M65.5 19C64.5768 20.1188 64 21 64 21C64 21 62.5 22.5 62.5 24.5C62.5 28.4159 63 29.5 63 29.5" stroke="#564842" stroke-width="3" stroke-linecap="round" stroke-linejoin="round"/>
<path d="M104.901 50C104.761 55.4543 106.44 56.1535 100.566 62.4469C94.6919 68.7403 87 66.2229 87 66.2229" stroke="#564842" stroke-width="3" stroke-linecap="round" stroke-linejoin="round"/>
<path d="M74.1482 28.8784C77.0669 26.3275 82.0241 24.2503 89.1574 24.994C96.2907 25.7376 99.1682 33.5522 99.1682 33.5522" stroke="#CAB9B1" stroke-width="3" stroke-linecap="round" stroke-linejoin="round"/>
<path d="M82.0414 30.0417C85.6863 28.7223 91.0593 28.5833 97.4379 31.8622C103.816 35.141 103.666 43.4672 103.666 43.4672" stroke="#CAB9B1" stroke-width="3" stroke-linecap="round" stroke-linejoin="round"/>
<path d="M107.28 52.7971C107.14 58.2514 108.679 59.5101 102.805 65.8034C96.9309 72.0968 90.7773 70.4186 90.7773 70.4186" stroke="#564842" stroke-width="3" stroke-linecap="round" stroke-linejoin="round"/>
<path d="M84.0337 85.917C77.8804 85.0779 76.5118 85.0832 68.7087 81.9671C60.9056 78.851 58 73 58 73" stroke="#564842" stroke-width="3" stroke-linecap="round" stroke-linejoin="round"/>
<path d="M105.972 79.2888C96.9847 81.4414 91.4296 81.8377 76.3336 78.3456C61.2377 74.8534 56.9985 65.4998 56.9985 65.4998" stroke="#564842" stroke-width="3" stroke-linecap="round" stroke-linejoin="round"/>
</g>
<path d="M-279 80.6783C-279 80.6783 -277.857 73.6663 -274.498 71.5239C-268.174 67.4901 -260.991 85.1805 -260.991 85.1805L-227.825 88.6321C-227.825 88.6321 -232.342 81.1813 -228.426 77.6768C-222.723 72.5744 -209.066 91.1834 -209.066 91.1834C-209.066 91.1834 -211.813 79.6567 -207.115 77.0766C-196.46 71.2237 -190.157 96.4359 -190.157 96.4359C-190.157 96.4359 -186.255 72.2742 -178.601 76.026C-172.606 78.9652 -175.386 90.6691 -176.62 94.8999C-174.956 89.8335 -169.141 74.1375 -161.793 77.0766C-158.042 78.5773 -161.793 87.7317 -161.793 87.7317C-161.793 87.7317 -157.141 79.0275 -147.837 80.6783C-138.532 82.3291 -134.84 87.7317 -134.48 87.7317C-134.12 87.7317 -141.534 80.3781 -125.176 75.5758C-108.818 70.7735 -104.466 91.1834 -104.466 91.1834C-104.466 91.1834 -101.826 73.6994 -91.4094 71.6739C-75.2015 68.5224 -71.2997 84.4301 -71.2997 84.4301C-71.2997 84.4301 -61.1275 65.5534 -51.34 66.4214C-40.1131 67.4171 -41.1351 88.4821 -41.1351 88.4821C-41.1351 88.4821 -25.6312 64.1505 -14.8724 73.4748C-8.11914 79.3276 -19.8248 93.8847 -19.8248 93.8847C-19.8248 93.8847 -4.59116 76.2893 0.585052 83.3796C4.30051 88.469 -3.01666 97.7866 -3.01666 97.7866C-3.01666 97.7866 26.0974 64.7706 36.0022 74.2252C39.188 77.2662 34.0212 84.8359 30.3382 89.4224C35.536 83.8913 46.1893 74.6998 55.5116 80.2281C59.5811 82.6414 55.3602 91.1668 53.5497 94.4155C56.6786 89.2202 69.2268 70.1824 81.3241 77.0766C86.8124 80.2043 79.3731 93.1343 79.3731 93.1343L101.134 78.5773C101.134 78.5773 101.128 48.819 111.639 54.7158C117.289 57.8853 116.141 67.3219 116.141 67.3219C116.141 67.3219 118.773 56.8581 126.946 56.9669C133.661 57.0562 147.506 64.1703 147.506 64.1703L166.115 71.0737C166.115 71.0737 165.965 61.7692 177.971 66.2713C189.977 70.7735 184.574 90.3129 185.174 89.2324C185.775 88.1519 194.629 71.2237 202.583 69.2728C210.536 67.3219 209.786 78.5773 209.786 78.5773C209.786 78.5773 223.743 54.7158 234.998 59.9683C242.699 63.562 228.095 80.8284 228.095 80.8284L241.001 78.1271C241.001 78.1271 259.839 55.1593 268.915 63.42C271.845 66.0868 272.667 71.0737 272.667 71.0737H281.371C281.371 71.0737 289.871 58.9555 296.528 60.1184C303.347 61.3094 301.48 75.2757 301.48 75.2757C301.48 75.2757 303.434 68.3533 307.033 67.7721C308.311 67.5657 310.335 68.0722 310.335 68.0722V200.436H-279V80.6783Z" fill="#495235" stroke="#495235" stroke-width="8" stroke-linecap="round" stroke-linejoin="round"/>
<path d="M154.594 37.2621C159.6 35.8461 162.681 35.8874 165.674 39.617C167.8 42.266 167.993 45.0944 167.177 47.1601C165.629 51.0756 159.914 54.5428 159.914 54.5428C159.914 54.5428 164.082 54.2059 167.38 55.7386C171.204 57.5161 174.225 60.115 173.568 64.7226C172.897 69.4312 167.567 72.3502 165.025 71.4725C160.411 69.88 155.863 66.8845 155.863 66.8845C155.863 66.8845 160.876 71.4549 161.479 75.9797C162.172 81.1774 160.446 84.8957 157.093 87.3091C153.739 89.7225 148.324 88.2857 145.015 84.1687C142.802 81.4165 141.878 74.5923 141.878 74.5923C141.878 74.5923 133.464 79.9464 130.302 80.2659C126.863 80.6136 123.9 79.1579 121.767 76.7318C118.936 73.5115 118.476 69.5754 121.648 65.7868C124.508 62.3694 131.987 62.5077 131.987 62.5077C131.987 62.5077 125.393 61.4122 123.025 58.0769C120.598 54.6585 120.966 53.0901 122.713 49.2259C124.818 44.5717 129.559 43.1307 134.025 44.093C138.164 44.9847 141.768 51.3064 141.768 51.3064C141.768 51.3064 147.827 39.1765 154.594 37.2621Z" fill="#EAE7DB" stroke="#EAE7DB" stroke-width="8" stroke-linecap="round" stroke-linejoin="round"/>
<path d="M105.7 87.3786C107.407 89.1415 108.495 91.4581 106.925 93.4731C105.355 95.4881 102.846 97.6284 98.6633 97.7307C92.0407 97.8928 88.5606 93.0951 88.5606 93.0951C88.5606 93.0951 87.4189 97.4892 85.5458 100.369C83.0842 104.154 78.0249 107.034 75.6392 104.005C73.9527 101.864 74.6439 99.4775 75.7553 96.8846C77.2131 93.4836 81.3433 89.1336 81.3433 89.1336C81.3433 89.1336 77.587 91.9882 75.014 91.6059C72.0488 91.1653 69.7003 89.2883 69.6394 86.275C69.574 83.0335 72.4737 81.2079 75.6129 80.2526C78.7588 79.2953 83.4934 82.0771 84.047 82.4123C83.6133 82.144 80.6644 80.2625 79.8659 78.245C78.6876 75.268 78.884 72.1608 81.4069 70.0137C84.1269 67.6988 88.1492 67.8135 90.3366 70.4572C92.0056 72.4743 90.649 76.8596 90.1819 78.1869C90.6574 76.9486 92.2876 73.1016 94.617 71.8422C97.6602 70.1969 101.307 69.5338 103.3 72.209C105.028 74.5292 104.072 77.1428 102.597 79.7577C101.042 82.5155 95.9833 84.4715 95.9833 84.4715C95.9833 84.4715 102.892 84.4778 105.7 87.3786Z" fill="#CAB9B1" stroke="#CAB9B1" stroke-width="8" stroke-linecap="round" stroke-linejoin="round"/>
<ellipse cx="144.687" cy="61.2879" rx="5.43509" ry="4.48986" transform="rotate(-29.2289 144.687 61.2879)" fill="#FFD2AA"/>
<ellipse cx="87.1271" cy="84.4644" rx="2.8424" ry="1.88816" transform="rotate(-29.2289 87.1271 84.4644)" fill="#EE9575"/>
<path d="M277.797 152.847C282.795 157.844 288 167.631 288 167.631V175.335L-100.762 169.505L-278.172 168.047L-276.298 63.7251L-204.043 84.5479L-170.934 92.877C-170.934 92.877 -164.171 85.0565 -158.857 81.2163C-155.195 78.5693 -153.274 76.362 -148.862 75.3859C-140.973 73.6404 -123.024 84.8699 -116.587 89.7536C-104.831 98.672 -104.913 106.801 -104.925 107.227C-104.909 106.785 -104.579 98.0821 -103.677 92.6688C-102.844 87.6713 -102.5 81.1008 -97.4299 79.7587C-90.3502 77.8846 -86.2526 81.2196 -81.6046 87.4631C-78.4033 91.7632 -74.9413 104.538 -74.9413 104.538C-74.9413 104.538 -73.6919 98.291 -70.7767 92.6688C-67.4383 86.2305 -58.884 75.4136 -53.0773 79.7587C-49.897 82.1384 -49.8504 85.2243 -49.121 89.1289C-47.891 95.7138 -52.2444 105.995 -52.2444 105.995C-52.2444 105.995 -45.7894 92.6688 -36.8355 85.589C-29.6811 79.9321 -19.594 76.9608 -16.6374 85.589C-14.6158 91.4889 -22.676 100.373 -22.676 100.373L-7.89185 91.8359L6.26767 97.2498C6.26767 97.2498 5.58582 108.246 3.14426 114.741C-0.655701 124.849 -13.514 136.813 -13.514 136.813C-13.514 136.813 -3.64355 129.274 3.14426 125.152C8.97464 121.613 20.2313 116.877 26.0493 123.695C29.4559 127.687 28.9645 136.813 28.9645 136.813C28.9645 136.813 35.6083 128.504 40.4171 123.695C44.9981 119.114 56.1869 112.274 60.1987 119.114C61.7002 121.674 61.6461 123.649 61.4481 126.61C61.133 131.322 56.3076 137.186 55.3615 138.294C56.627 136.85 65.2306 127.346 75.6076 123.695C85.0406 120.376 94.7637 121.881 100.387 130.15C103.138 134.196 103.718 142.227 103.718 142.227L141.199 148.474L151.611 143.685C151.611 143.685 171.113 139.697 180.555 145.975C186.034 149.619 192.215 156.387 192.215 156.387C192.215 156.387 195.295 149.807 200.544 148.474C207.518 146.704 214.704 155.554 214.704 155.554C214.704 155.554 217.203 152.014 222.408 147.433C227.605 142.86 238.214 137.852 242.398 143.685C245.638 148.202 240.941 157.844 240.941 157.844C240.941 157.844 245.186 153.517 248.645 153.471C250.4 153.448 251.539 153.567 253.018 154.513C254.43 155.416 255.725 157.844 255.725 157.844C255.725 157.844 255.027 151.61 256.974 148.474C261.469 141.235 273.003 148.053 277.797 152.847Z" fill="#6B7050" stroke="#6B7050" stroke-width="8" stroke-linecap="round" stroke-linejoin="round"/>
<path d="M-19.9494 106.118C-27.076 104.975 -30.9297 103.123 -32.5173 96.6806C-33.645 92.1049 -32.2356 88.4324 -30.0012 86.3097C-25.7659 82.2862 -16.5473 81.2619 -16.5473 81.2619C-16.5473 81.2619 -21.9895 79.2508 -25.2443 75.3952C-29.0191 70.9235 -31.3018 65.8881 -27.7832 60.4731C-24.1874 54.9395 -15.7752 54.3795 -13.088 56.9697C-8.21234 61.6694 -4.23848 68.0966 -4.23848 68.0966C-4.23848 68.0966 -7.87702 59.4158 -5.99239 53.3689C-3.82754 46.4229 0.516931 42.7516 6.14728 41.6736C11.7776 40.5956 17.7533 45.5678 19.5129 52.6827C20.6892 57.439 17.8645 66.5669 17.8645 66.5669C17.8645 66.5669 31.5828 64.7453 35.7478 66.1901C40.2798 67.7622 43.1584 71.3254 44.4251 75.6249C46.1063 81.3317 44.3851 86.5539 38.1804 89.4689C32.5837 92.0984 23.2529 87.555 23.2529 87.555C23.2529 87.555 30.9115 92.7864 31.9428 98.3673C32.9998 104.087 31.6196 105.846 27.1633 109.688C21.7958 114.316 14.9871 113.36 9.92809 109.539C5.24056 105.999 4.39837 95.9369 4.39837 95.9369C4.39837 95.9369 -10.3135 107.663 -19.9494 106.118Z" fill="#EAE7DB" stroke="#EAE7DB" stroke-width="8" stroke-linecap="round" stroke-linejoin="round"/>
<path d="M160.892 152.476C165.362 148.517 168.524 143.211 165.371 138.373C162.218 133.534 156.894 128.319 147.106 127.708C131.609 126.74 122.179 137.618 122.179 137.618C122.179 137.618 120.658 127.269 117.021 120.386C112.242 111.341 101.128 104.175 94.7326 111.025C90.2113 115.867 91.2048 121.494 93.1298 127.64C95.6547 135.701 104.2 146.213 104.2 146.213C104.2 146.213 96.1381 139.221 89.9998 139.883C82.926 140.647 76.9209 144.814 75.9845 151.836C74.9771 159.389 81.3004 163.905 88.4151 166.412C95.5449 168.925 107.387 162.86 108.774 162.127C107.686 162.714 100.271 166.839 97.866 171.473C94.3171 178.31 93.9595 185.573 99.3141 190.805C105.087 196.446 114.556 196.536 120.385 190.566C124.832 186.011 122.804 175.664 122.057 172.527C122.847 175.457 125.659 184.574 130.793 187.718C137.501 191.826 145.883 193.697 151.264 187.636C155.931 182.38 154.376 176.2 151.604 169.971C148.68 163.401 137.325 158.389 137.325 158.389C137.325 158.389 153.539 158.99 160.892 152.476Z" fill="#EAE7DB" stroke="#EAE7DB" stroke-width="8" stroke-linecap="round" stroke-linejoin="round"/>
<ellipse cx="4.97177" cy="79.5084" rx="6.16455" ry="5.09245" transform="rotate(-29.2289 4.97177 79.5084)" fill="#FFD2AA"/>
<ellipse cx="118.652" cy="154.705" rx="7.68592" ry="6.34924" transform="rotate(50.8774 118.652 154.705)" fill="#FFD2AA"/>
</g>
</svg>
