<svg width="412" height="430" viewBox="0 0 412 430" fill="none" xmlns="http://www.w3.org/2000/svg">
    <g class="flower">
        <path d="M173.168 151.206C173.168 151.206 176.139 139.731 183.181 146.107C190.223 152.484 179.77 155.834 179.77 155.834C179.77 155.834 190.944 159.882 184.533 166.217C178.121 172.553 174.806 162.806 174.806 162.806C174.806 162.806 172.1 172.498 165.8 166.793C159.499 161.088 167.463 157.507 167.463 157.507C167.463 157.507 157.805 155.507 162.769 148.535C167.733 141.563 173.168 151.206 173.168 151.206Z" fill="#6B7050" stroke="#6B7050" stroke-width="2" stroke-linejoin="round"/>
        <path d="M170.012 154L171 155.011" stroke="#EAE7DB" stroke-width="2" stroke-linecap="round" stroke-linejoin="round"/>
        <path d="M177 154L176.012 155.011" stroke="#EAE7DB" stroke-width="2" stroke-linecap="round" stroke-linejoin="round"/>
        <path d="M177.225 159.966L176 159.259" stroke="#EAE7DB" stroke-width="2" stroke-linecap="round" stroke-linejoin="round"/>
        <path d="M170 159.993L171.108 159.115" stroke="#EAE7DB" stroke-width="2" stroke-linecap="round" stroke-linejoin="round"/>
    </g>
    <g class="flower">
        <path d="M370.806 122.208C370.806 122.208 367.107 106.55 379.599 109.747C392.091 112.944 381.662 123.585 381.662 123.585C381.662 123.585 397.641 121.369 393.955 133.035C390.268 144.701 380.117 135.098 380.117 135.098C380.117 135.098 383.005 148.447 371.829 145.587C360.652 142.726 367.946 133.385 367.946 133.385C367.946 133.385 355.085 137.098 356.63 125.585C358.176 114.072 370.806 122.208 370.806 122.208Z" fill="#6B7050" stroke="#6B7050" stroke-width="2" stroke-linejoin="round"/>
        <path d="M368.785 127.561L370.612 128.15" stroke="#EAE7DB" stroke-width="2" stroke-linecap="round" stroke-linejoin="round"/>
        <path d="M377.176 123.136L376.629 124.976" stroke="#EAE7DB" stroke-width="2" stroke-linecap="round" stroke-linejoin="round"/>
        <path d="M381.225 130.157L379.306 130.083" stroke="#EAE7DB" stroke-width="2" stroke-linecap="round" stroke-linejoin="round"/>
        <path d="M372.566 134.764L373.341 133.008" stroke="#EAE7DB" stroke-width="2" stroke-linecap="round" stroke-linejoin="round"/>
    </g>
    <g class="flower">
        <path d="M305.587 179.737C305.587 179.737 312.224 154.1 327.957 168.346C343.69 182.592 320.335 190.077 320.335 190.077C320.335 190.077 345.301 199.12 330.976 213.274C316.652 227.429 309.246 205.653 309.246 205.653C309.246 205.653 303.201 227.305 289.126 214.56C275.05 201.815 292.841 193.814 292.841 193.814C292.841 193.814 271.265 189.346 282.355 173.77C293.445 158.194 305.587 179.737 305.587 179.737Z" fill="#6B7050" stroke="#6B7050" stroke-width="2" stroke-linejoin="round"/>
        <path d="M298.535 185.979L300.743 188.239" stroke="#EAE7DB" stroke-width="2" stroke-linecap="round" stroke-linejoin="round"/>
        <path d="M314.148 185.979L311.94 188.239" stroke="#EAE7DB" stroke-width="2" stroke-linecap="round" stroke-linejoin="round"/>
        <path d="M314.648 199.308L311.912 197.728" stroke="#EAE7DB" stroke-width="2" stroke-linecap="round" stroke-linejoin="round"/>
        <path d="M298.508 199.369L300.984 197.407" stroke="#EAE7DB" stroke-width="2" stroke-linecap="round" stroke-linejoin="round"/>
    </g>
    <g class="flower">
        <path d="M116 300.985C116 300.985 131.598 287.899 135.087 303.84C138.577 319.781 120.616 314.042 120.616 314.042C120.616 314.042 132.208 330.847 116.922 333.313C101.637 335.78 106.721 318.842 106.721 318.842C106.721 318.842 93.272 329.698 90.15 315.436C87.0279 301.174 101.737 304.108 101.737 304.108C101.737 304.108 90.2245 291.679 104.12 286.879C118.015 282.079 116 300.985 116 300.985Z" fill="#6B7050" stroke="#6B7050" stroke-width="2" stroke-linejoin="round"/>
        <path d="M108.795 301.745L109.169 304.146" stroke="#EAE7DB" stroke-width="2" stroke-linecap="round" stroke-linejoin="round"/>
        <path d="M118.568 308.715L116.177 309.143" stroke="#EAE7DB" stroke-width="2" stroke-linecap="round" stroke-linejoin="round"/>
        <path d="M112.936 317.282L111.928 315.072" stroke="#EAE7DB" stroke-width="2" stroke-linecap="round" stroke-linejoin="round"/>
        <path d="M102.805 310.116L105.231 309.993" stroke="#EAE7DB" stroke-width="2" stroke-linecap="round" stroke-linejoin="round"/>
    </g>
    <g class="flower">
        <path d="M51.6299 241.896C51.6299 241.896 63.246 217.194 76.4638 234.628C89.6815 252.062 64.5955 255.186 64.5955 255.186C64.5955 255.186 88.1582 269.112 70.9463 280.716C53.7344 292.319 50.3884 268.847 50.3884 268.847C50.3884 268.847 40.1327 289.626 28.3072 274.029C16.4817 258.431 36.0315 253.723 36.0315 253.723C36.0315 253.723 15.0278 245.078 29.2352 231.417C43.4425 217.756 51.6299 241.896 51.6299 241.896Z" fill="#6B7050" stroke="#6B7050" stroke-width="2" stroke-linejoin="round"/>
        <path d="M43.293 246.875L45.0986 249.585" stroke="#EAE7DB" stroke-width="2" stroke-linecap="round" stroke-linejoin="round"/>
        <path d="M59.1074 249.856L56.4391 251.723" stroke="#EAE7DB" stroke-width="2" stroke-linecap="round" stroke-linejoin="round"/>
        <path d="M57.0742 263.451L54.6041 261.329" stroke="#EAE7DB" stroke-width="2" stroke-linecap="round" stroke-linejoin="round"/>
        <path d="M40.7129 260.432L43.5958 258.917" stroke="#EAE7DB" stroke-width="2" stroke-linecap="round" stroke-linejoin="round"/>
    </g>
    <g class="flower">
        <path d="M126.886 120.512C126.886 120.512 121.469 98.8094 138.892 103.035C156.315 107.26 142.003 122.236 142.003 122.236C142.003 122.236 164.178 118.876 159.258 135.159C154.338 151.443 140.056 138.27 140.056 138.27C140.056 138.27 144.305 156.777 128.717 152.997C113.129 149.216 123.106 136.101 123.106 136.101C123.106 136.101 105.29 141.49 107.237 125.456C109.184 109.423 126.886 120.512 126.886 120.512Z" fill="#6B7050" stroke="#6B7050" stroke-width="2" stroke-linejoin="round"/>
        <path d="M133.945 120.053L133.792 122.718" stroke="#EAE7DB" stroke-width="2" stroke-linecap="round" stroke-linejoin="round"/>
        <path d="M141.812 130.326L139.204 129.76" stroke="#EAE7DB" stroke-width="2" stroke-linecap="round" stroke-linejoin="round"/>
        <path d="M133.166 137.345L133.248 134.677" stroke="#EAE7DB" stroke-width="2" stroke-linecap="round" stroke-linejoin="round"/>
        <path d="M124.576 126.032L127.089 126.931" stroke="#EAE7DB" stroke-width="2" stroke-linecap="round" stroke-linejoin="round"/>
    </g>
    <g class="flower">
        <path d="M245.562 26.1152C245.562 26.1152 251.998 4.70552 264.23 15.6941C276.463 26.6826 257.15 33.9354 257.15 33.9354C257.15 33.9354 277.108 40.2099 264.877 52.5295C252.646 64.849 247.495 47.2736 247.495 47.2736C247.495 47.2736 241.702 65.3761 230.758 55.5451C219.814 45.714 234.619 38.2967 234.619 38.2967C234.619 38.2967 217.236 35.6291 226.892 22.291C236.547 8.95299 245.562 26.1152 245.562 26.1152Z" fill="#6B7050" stroke="#6B7050" stroke-width="2" stroke-linejoin="round"/>
        <path d="M251.607 28.6517L250.143 30.9393" stroke="#EAE7DB" stroke-width="2" stroke-linecap="round" stroke-linejoin="round"/>
        <path d="M252.932 40.9946L251.067 39.409" stroke="#EAE7DB" stroke-width="2" stroke-linecap="round" stroke-linejoin="round"/>
        <path d="M242.283 43.5858L243.69 41.2659" stroke="#EAE7DB" stroke-width="2" stroke-linecap="round" stroke-linejoin="round"/>
        <path d="M240.887 30.0241L242.506 31.8644" stroke="#EAE7DB" stroke-width="2" stroke-linecap="round" stroke-linejoin="round"/>
    </g>
    <g class="flower">
        <path d="M243.291 290.025C243.291 290.025 233.062 260.579 257.771 264.268C282.481 267.956 264.487 290.53 264.487 290.53C264.487 290.53 294.845 283.096 290.05 306.311C285.255 329.525 263.788 313.026 263.788 313.026C263.788 313.026 271.997 338.182 249.89 334.882C227.783 331.582 239.991 312.133 239.991 312.133C239.991 312.133 215.938 321.837 216.637 299.341C217.337 276.845 243.291 290.025 243.291 290.025Z" fill="#6B7050" stroke="#6B7050" stroke-width="2" stroke-linejoin="round"/>
        <path d="M253.031 288.506L253.152 292.223" stroke="#EAE7DB" stroke-width="2" stroke-linecap="round" stroke-linejoin="round"/>
        <path d="M265.23 301.781L261.54 301.322" stroke="#EAE7DB" stroke-width="2" stroke-linecap="round" stroke-linejoin="round"/>
        <path d="M254.107 312.602L253.888 308.89" stroke="#EAE7DB" stroke-width="2" stroke-linecap="round" stroke-linejoin="round"/>
        <path d="M240.773 297.975L244.373 298.908" stroke="#EAE7DB" stroke-width="2" stroke-linecap="round" stroke-linejoin="round"/>
    </g>
    <g class="flower">
        <path d="M193.225 198.933C193.225 198.933 182.092 183.162 197.864 179.451C213.635 175.74 209.925 196.15 209.925 196.15C209.925 196.15 230.344 194.295 221.994 210.994C213.645 227.693 202.504 210.066 202.504 210.066C202.504 210.066 194.164 227.693 183.958 215.633C173.753 203.572 193.225 198.933 193.225 198.933Z" fill="#6B7050" stroke="#6B7050" stroke-width="2" stroke-linecap="round" stroke-linejoin="round"/>
        <path d="M201.736 193.367L202.163 195.956" stroke="#EAE7DB" stroke-width="2" stroke-linecap="round" stroke-linejoin="round"/>
        <path d="M208.494 204.437L206.222 203.125" stroke="#EAE7DB" stroke-width="2" stroke-linecap="round" stroke-linejoin="round"/>
        <path d="M196.945 204.437L199.218 203.125" stroke="#EAE7DB" stroke-width="2" stroke-linecap="round" stroke-linejoin="round"/>
    </g>
    <g class="flower">
        <path d="M319.441 297.112C319.441 297.112 295.363 263.001 329.473 254.975C363.584 246.949 355.558 291.092 355.558 291.092C355.558 291.092 399.721 287.079 381.662 323.196C363.604 359.313 339.509 321.19 339.509 321.19C339.509 321.19 321.47 359.313 299.398 333.229C277.327 307.144 319.441 297.112 319.441 297.112Z" fill="#6B7050" stroke="#6B7050" stroke-width="2" stroke-linecap="round" stroke-linejoin="round"/>
        <path d="M337.848 285.073L338.771 290.672" stroke="#EAE7DB" stroke-width="2" stroke-linecap="round" stroke-linejoin="round"/>
        <path d="M352.465 309.014L347.55 306.176" stroke="#EAE7DB" stroke-width="2" stroke-linecap="round" stroke-linejoin="round"/>
        <path d="M327.486 309.014L332.401 306.176" stroke="#EAE7DB" stroke-width="2" stroke-linecap="round" stroke-linejoin="round"/>
    </g>
    <g class="flower">
        <path d="M286.561 57.3728C286.561 57.3728 272.391 37.2976 292.466 32.574C312.541 27.8505 307.818 53.8302 307.818 53.8302C307.818 53.8302 333.809 51.4684 323.181 72.7246C312.553 93.9807 298.372 71.5436 298.372 71.5436C298.372 71.5436 287.756 93.9807 274.766 78.629C261.776 63.2774 286.561 57.3728 286.561 57.3728Z" fill="#6B7050" stroke="#6B7050" stroke-width="2" stroke-linecap="round" stroke-linejoin="round"/>
        <path d="M297.395 50.2874L297.938 53.583" stroke="#EAE7DB" stroke-width="2" stroke-linecap="round" stroke-linejoin="round"/>
        <path d="M305.998 64.3776L303.105 62.7076" stroke="#EAE7DB" stroke-width="2" stroke-linecap="round" stroke-linejoin="round"/>
        <path d="M291.297 64.3776L294.189 62.7076" stroke="#EAE7DB" stroke-width="2" stroke-linecap="round" stroke-linejoin="round"/>
    </g>
    <g class="flower">
        <path d="M302.921 129.96C302.921 129.96 288.423 109.42 308.962 104.587C329.502 99.7545 324.67 126.335 324.67 126.335C324.67 126.335 351.262 123.919 340.388 145.667C329.514 167.414 315.005 144.458 315.005 144.458C315.005 144.458 304.143 167.414 290.853 151.708C277.562 136.001 302.921 129.96 302.921 129.96Z" fill="#6B7050" stroke="#6B7050" stroke-width="2" stroke-linecap="round" stroke-linejoin="round"/>
        <path d="M314.006 122.71L314.562 126.082" stroke="#EAE7DB" stroke-width="2" stroke-linecap="round" stroke-linejoin="round"/>
        <path d="M322.807 137.127L319.847 135.418" stroke="#EAE7DB" stroke-width="2" stroke-linecap="round" stroke-linejoin="round"/>
        <path d="M307.766 137.127L310.725 135.418" stroke="#EAE7DB" stroke-width="2" stroke-linecap="round" stroke-linejoin="round"/>
    </g>
    <g class="flower">
        <path d="M145.221 72.851C145.221 72.851 126.929 61.4578 141.541 50.8002C156.154 40.1425 161.19 62.7451 161.19 62.7451C161.19 62.7451 181.387 51.98 180.042 72.7779C178.697 93.5757 159.593 80.2773 159.593 80.2773C159.593 80.2773 158.66 102.025 142.932 94.0467C127.204 86.068 145.221 72.851 145.221 72.851Z" fill="#6B7050" stroke="#6B7050" stroke-width="2" stroke-linecap="round" stroke-linejoin="round"/>
        <path d="M151.561 63.434L153.123 65.9118" stroke="#EAE7DB" stroke-width="2" stroke-linecap="round" stroke-linejoin="round"/>
        <path d="M163.312 71.8882L160.406 71.5244" stroke="#EAE7DB" stroke-width="2" stroke-linecap="round" stroke-linejoin="round"/>
        <path d="M151.434 76.8978L153.202 74.5626" stroke="#EAE7DB" stroke-width="2" stroke-linecap="round" stroke-linejoin="round"/>
    </g>
    <g class="flower">
        <path d="M192.133 337.65C192.133 337.65 192.699 309.775 214.216 318.971C235.733 328.166 213.935 348.719 213.935 348.719C213.935 348.719 239.267 364.054 215.253 376.318C191.239 388.582 193.385 358.543 193.385 358.543C193.385 358.543 168.588 371.894 167.053 349.129C165.519 326.363 192.133 337.65 192.133 337.65Z" fill="#6B7050" stroke="#6B7050" stroke-width="2" stroke-linecap="round" stroke-linejoin="round"/>
        <path d="M206.799 338.469L205.078 341.845" stroke="#EAE7DB" stroke-width="2" stroke-linecap="round" stroke-linejoin="round"/>
        <path d="M205.174 357.129L203.655 353.657" stroke="#EAE7DB" stroke-width="2" stroke-linecap="round" stroke-linejoin="round"/>
        <path d="M191.744 347.236L195.51 347.657" stroke="#EAE7DB" stroke-width="2" stroke-linecap="round" stroke-linejoin="round"/>
    </g>
    <g class="flower">
        <path d="M162.72 308.715C162.72 308.715 148.252 298.898 160.437 290.72C172.622 282.543 175.988 301.028 175.988 301.028C175.988 301.028 192.704 292.941 190.954 309.76C189.204 326.579 174.137 315.191 174.137 315.191C174.137 315.191 172.691 332.794 160.193 325.826C147.695 318.859 162.72 308.715 162.72 308.715Z" fill="#6B7050" stroke="#6B7050" stroke-width="2" stroke-linecap="round" stroke-linejoin="round"/>
        <path d="M168.158 301.281L169.346 303.339" stroke="#EAE7DB" stroke-width="2" stroke-linecap="round" stroke-linejoin="round"/>
        <path d="M177.42 308.508L175.075 308.121" stroke="#EAE7DB" stroke-width="2" stroke-linecap="round" stroke-linejoin="round"/>
        <path d="M167.629 312.193L169.137 310.355" stroke="#EAE7DB" stroke-width="2" stroke-linecap="round" stroke-linejoin="round"/>
    </g>
    <g class="flower">
        <path d="M41.8802 335.939C41.8802 335.939 20.1322 305.13 50.9415 297.881C81.7509 290.632 74.5024 330.503 74.5024 330.503C74.5024 330.503 114.391 326.878 98.0799 359.5C81.769 392.121 60.0059 357.687 60.0059 357.687C60.0059 357.687 43.7128 392.121 23.7773 368.561C3.84175 345.001 41.8802 335.939 41.8802 335.939Z" fill="#6B7050" stroke="#6B7050" stroke-width="2" stroke-linecap="round" stroke-linejoin="round"/>
        <path d="M58.5059 325.066L59.3402 330.123" stroke="#EAE7DB" stroke-width="2" stroke-linecap="round" stroke-linejoin="round"/>
        <path d="M71.709 346.69L67.2697 344.127" stroke="#EAE7DB" stroke-width="2" stroke-linecap="round" stroke-linejoin="round"/>
        <path d="M49.1465 346.69L53.5857 344.127" stroke="#EAE7DB" stroke-width="2" stroke-linecap="round" stroke-linejoin="round"/>
    </g>
    <g class="flower">
        <path d="M285.383 255.661C285.383 255.661 266.109 256.753 271.313 241.409C276.517 226.066 291.866 240.022 291.866 240.022C291.866 240.022 301.105 221.718 310.849 237.644C320.592 253.57 299.74 253.686 299.74 253.686C299.74 253.686 310.276 270.096 294.641 272.365C279.006 274.635 285.383 255.661 285.383 255.661Z" fill="#6B7050" stroke="#6B7050" stroke-width="2" stroke-linecap="round" stroke-linejoin="round"/>
        <path d="M285.168 245.494L287.59 246.503" stroke="#EAE7DB" stroke-width="2" stroke-linecap="round" stroke-linejoin="round"/>
        <path d="M298.137 245.623L295.82 246.856" stroke="#EAE7DB" stroke-width="2" stroke-linecap="round" stroke-linejoin="round"/>
        <path d="M292.021 255.42L292.112 252.797" stroke="#EAE7DB" stroke-width="2" stroke-linecap="round" stroke-linejoin="round"/>
    </g>
    <g class="flower">
        <path d="M370.63 166.066C370.63 166.066 392.086 155.602 393.492 175.588C394.897 195.574 370.719 187.001 370.719 187.001C370.719 187.001 368.939 212.293 350.21 198.793C331.481 185.293 355.203 175.187 355.203 175.187C355.203 175.187 335.34 161.514 352.082 151.447C368.825 141.38 370.63 166.066 370.63 166.066Z" fill="#6B7050" stroke="#6B7050" stroke-width="2" stroke-linecap="round" stroke-linejoin="round"/>
        <path d="M375.738 177.558L372.493 177.566" stroke="#EAE7DB" stroke-width="2" stroke-linecap="round" stroke-linejoin="round"/>
        <path d="M360.887 183.613L362.938 181.099" stroke="#EAE7DB" stroke-width="2" stroke-linecap="round" stroke-linejoin="round"/>
        <path d="M363.176 169.516L364.327 172.549" stroke="#EAE7DB" stroke-width="2" stroke-linecap="round" stroke-linejoin="round"/>
    </g>
    <g class="flower">
        <path d="M187.076 101.976C187.076 101.976 191.891 75.2114 211.209 87.3654C230.527 99.5194 206.381 115.978 206.381 115.978C206.381 115.978 228.432 134.63 203.422 142.765C178.412 150.9 185.081 122.293 185.081 122.293C185.081 122.293 159.149 131.355 161.158 109.19C163.168 87.0263 187.076 101.976 187.076 101.976Z" fill="#6B7050" stroke="#6B7050" stroke-width="2" stroke-linecap="round" stroke-linejoin="round"/>
        <path d="M201.076 105.011L198.901 107.999" stroke="#EAE7DB" stroke-width="2" stroke-linecap="round" stroke-linejoin="round"/>
        <path d="M196.65 122.737L195.72 119.16" stroke="#EAE7DB" stroke-width="2" stroke-linecap="round" stroke-linejoin="round"/>
        <path d="M185.23 111.15L188.794 112.132" stroke="#EAE7DB" stroke-width="2" stroke-linecap="round" stroke-linejoin="round"/>
    </g>
    <g class="flower">
        <path d="M89.9916 42.5608C89.9916 42.5608 96.2502 7.77354 121.359 23.5709C146.468 39.3682 115.083 60.7607 115.083 60.7607C115.083 60.7607 143.745 85.0033 111.238 95.577C78.7306 106.151 87.3989 68.9685 87.3989 68.9685C87.3989 68.9685 53.6933 80.7464 56.3051 51.9383C58.917 23.1301 89.9916 42.5608 89.9916 42.5608Z" fill="#6B7050" stroke="#6B7050" stroke-width="2" stroke-linecap="round" stroke-linejoin="round"/>
        <path d="M108.189 46.5056L105.362 50.39" stroke="#EAE7DB" stroke-width="2" stroke-linecap="round" stroke-linejoin="round"/>
        <path d="M102.438 69.5457L101.228 64.8961" stroke="#EAE7DB" stroke-width="2" stroke-linecap="round" stroke-linejoin="round"/>
        <path d="M87.5938 54.4846L92.2253 55.7618" stroke="#EAE7DB" stroke-width="2" stroke-linecap="round" stroke-linejoin="round"/>
    </g>
    <g class="flower">
        <path d="M321.768 358.471C321.768 358.471 340.896 326.236 359.976 351.247C379.057 376.259 339.94 385.863 339.94 385.863C339.94 385.863 359.416 420.583 323.199 419.023C286.982 417.462 309.392 383.742 309.392 383.742C309.392 383.742 271.538 382.934 284.824 355.285C298.11 327.636 321.768 358.471 321.768 358.471Z" fill="#6B7050" stroke="#6B7050" stroke-width="2" stroke-linecap="round" stroke-linejoin="round"/>
        <path d="M338.381 369.143L334.131 371.952" stroke="#EAE7DB" stroke-width="2" stroke-linecap="round" stroke-linejoin="round"/>
        <path d="M324.115 389.896L324.639 384.828" stroke="#EAE7DB" stroke-width="2" stroke-linecap="round" stroke-linejoin="round"/>
        <path d="M314.961 369.426L319.088 372.414" stroke="#EAE7DB" stroke-width="2" stroke-linecap="round" stroke-linejoin="round"/>
    </g>
    <g class="flower">
        <path d="M243.604 156.452C243.604 156.452 253.975 125.626 274.709 143.379C295.444 161.132 264 176.39 264 176.39C264 176.39 286.835 202.309 255.823 207.567C224.811 212.825 237.697 180.143 237.697 180.143C237.697 180.143 205.432 186.336 211.679 160.463C217.927 134.59 243.604 156.452 243.604 156.452Z" fill="#6B7050" stroke="#6B7050" stroke-width="2" stroke-linecap="round" stroke-linejoin="round"/>
        <path d="M259.641 162.486L256.545 165.642" stroke="#EAE7DB" stroke-width="2" stroke-linecap="round" stroke-linejoin="round"/>
        <path d="M251.311 182.689L250.834 178.294" stroke="#EAE7DB" stroke-width="2" stroke-linecap="round" stroke-linejoin="round"/>
        <path d="M239.82 166.986L243.865 168.771" stroke="#EAE7DB" stroke-width="2" stroke-linecap="round" stroke-linejoin="round"/>
    </g>
    <g class="flower">
        <path d="M151.466 356.392C151.466 356.392 176.637 365.314 161.787 382.102C146.938 398.89 134.827 372.873 134.827 372.873C134.827 372.873 113.246 391.277 109.339 365.747C105.433 340.216 132.095 351.228 132.095 351.228C132.095 351.228 127.437 324.657 148.596 330.129C169.755 335.6 151.466 356.392 151.466 356.392Z" fill="#6B7050" stroke="#6B7050" stroke-width="2" stroke-linecap="round" stroke-linejoin="round"/>
        <path d="M146.301 369.477L143.751 366.894" stroke="#EAE7DB" stroke-width="2" stroke-linecap="round" stroke-linejoin="round"/>
        <path d="M129.824 362.371L133.439 362.038" stroke="#EAE7DB" stroke-width="2" stroke-linecap="round" stroke-linejoin="round"/>
        <path d="M142.867 353.146L141.348 356.442" stroke="#EAE7DB" stroke-width="2" stroke-linecap="round" stroke-linejoin="round"/>
    </g>
    <g class="flower">
        <path d="M156.698 180.022C156.698 180.022 177.307 167.487 180.589 187.463C183.872 207.44 158.745 201.076 158.745 201.076C158.745 201.076 159.319 226.688 139.213 214.857C119.108 203.026 142.03 190.64 142.03 190.64C142.03 190.64 120.767 178.741 136.671 167.047C152.574 155.353 156.698 180.022 156.698 180.022Z" fill="#6B7050" stroke="#6B7050" stroke-width="2" stroke-linecap="round" stroke-linejoin="round"/>
        <path d="M162.912 191.105L159.648 191.417" stroke="#EAE7DB" stroke-width="2" stroke-linecap="round" stroke-linejoin="round"/>
        <path d="M148.537 198.588L150.366 195.866" stroke="#EAE7DB" stroke-width="2" stroke-linecap="round" stroke-linejoin="round"/>
        <path d="M149.52 184.19L150.962 187.135" stroke="#EAE7DB" stroke-width="2" stroke-linecap="round" stroke-linejoin="round"/>
    </g>
    <g class="flower">
        <path d="M62.9015 172.374C62.9015 172.374 51.3641 132.336 85.582 135.165C119.8 137.993 98.3466 177.739 98.3466 177.739C98.3466 177.739 140.625 187.501 112.401 216.481C84.1775 245.462 73.8974 201.581 73.8974 201.581C73.8974 201.581 45.0557 232.486 32.8357 200.743C20.6157 168.999 62.9015 172.374 62.9015 172.374Z" fill="#6B7050" stroke="#6B7050" stroke-width="2" stroke-linecap="round" stroke-linejoin="round"/>
        <path d="M83.8125 166.526L82.8941 172.166" stroke="#EAE7DB" stroke-width="2" stroke-linecap="round" stroke-linejoin="round"/>
        <path d="M89.791 193.928L86.1275 189.7" stroke="#EAE7DB" stroke-width="2" stroke-linecap="round" stroke-linejoin="round"/>
        <path d="M66.5957 186.237L72.0593 185.037" stroke="#EAE7DB" stroke-width="2" stroke-linecap="round" stroke-linejoin="round"/>
    </g>
    <g class="flower">
        <path d="M187.105 242.283C187.105 242.283 199.979 213.975 218.018 232.177C236.057 250.378 204.609 262.519 204.609 262.519C204.609 262.519 223.857 288.563 193.79 291.313C163.723 294.063 179.175 264.185 179.175 264.185C179.175 264.185 147.824 267.727 156.289 243.793C164.754 219.859 187.105 242.283 187.105 242.283Z" fill="#6B7050" stroke="#6B7050" stroke-width="2" stroke-linecap="round" stroke-linejoin="round"/>
        <path d="M201.803 249.109L198.546 251.863" stroke="#EAE7DB" stroke-width="2" stroke-linecap="round" stroke-linejoin="round"/>
        <path d="M191.904 267.552L191.877 263.377" stroke="#EAE7DB" stroke-width="2" stroke-linecap="round" stroke-linejoin="round"/>
        <path d="M182.477 251.94L186.158 253.909" stroke="#EAE7DB" stroke-width="2" stroke-linecap="round" stroke-linejoin="round"/>
    </g>
    <g class="flower">
        <path d="M240.631 98.2627C240.631 98.2627 222.098 74.842 245.563 67.4195C269.028 59.9971 265.599 92.1896 265.599 92.1896C265.599 92.1896 296.294 87.1756 285.449 114.067C274.604 140.959 255.861 114.647 255.861 114.647C255.861 114.647 245.13 142.984 228.398 125.25C211.667 107.516 240.631 98.2627 240.631 98.2627Z" fill="#6B7050" stroke="#6B7050" stroke-width="2" stroke-linecap="round" stroke-linejoin="round"/>
        <path d="M252.912 88.7018L253.836 92.6921" stroke="#EAE7DB" stroke-width="2" stroke-linecap="round" stroke-linejoin="round"/>
        <path d="M264.322 105.252L260.744 103.444" stroke="#EAE7DB" stroke-width="2" stroke-linecap="round" stroke-linejoin="round"/>
        <path d="M246.852 106.454L250.149 104.173" stroke="#EAE7DB" stroke-width="2" stroke-linecap="round" stroke-linejoin="round"/>
    </g>
    <g class="flower">
        <path d="M344.663 72.0066C344.663 72.0066 317.726 46.7041 345.1 33.3577C372.474 20.0113 374.122 60.0389 374.122 60.0389C374.122 60.0389 410.784 48.3275 402.393 83.2133C394.001 118.099 366.281 89.2964 366.281 89.2964C366.281 89.2964 358.291 125.93 334.59 107.261C310.89 88.5922 344.663 72.0066 344.663 72.0066Z" fill="#6B7050" stroke="#6B7050" stroke-width="2" stroke-linecap="round" stroke-linejoin="round"/>
        <path d="M357.961 58.0726L359.816 62.7892" stroke="#EAE7DB" stroke-width="2" stroke-linecap="round" stroke-linejoin="round"/>
        <path d="M374.932 76.2596L370.223 74.6959" stroke="#EAE7DB" stroke-width="2" stroke-linecap="round" stroke-linejoin="round"/>
        <path d="M353.762 80.9047L357.384 77.514" stroke="#EAE7DB" stroke-width="2" stroke-linecap="round" stroke-linejoin="round"/>
    </g>
    <g class="flower">
        <path d="M253.559 352.5C253.559 352.5 260.328 337.616 269.812 347.186C279.297 356.756 262.762 363.139 262.762 363.139C262.762 363.139 272.882 376.833 257.074 378.279C241.265 379.725 249.39 364.015 249.39 364.015C249.39 364.015 232.906 365.878 237.357 353.293C241.807 340.709 253.559 352.5 253.559 352.5Z" fill="#6B7050" stroke="#6B7050" stroke-width="2" stroke-linecap="round" stroke-linejoin="round"/>
        <path d="M261.287 356.088L259.575 357.536" stroke="#EAE7DB" stroke-width="2" stroke-linecap="round" stroke-linejoin="round"/>
        <path d="M256.082 365.786L256.067 363.591" stroke="#EAE7DB" stroke-width="2" stroke-linecap="round" stroke-linejoin="round"/>
        <path d="M251.125 357.577L253.061 358.612" stroke="#EAE7DB" stroke-width="2" stroke-linecap="round" stroke-linejoin="round"/>
    </g>
    <g class="flower">
        <path d="M248.559 227.5C248.559 227.5 255.328 212.616 264.812 222.186C274.297 231.756 257.762 238.139 257.762 238.139C257.762 238.139 267.882 251.833 252.074 253.279C236.265 254.725 244.39 239.015 244.39 239.015C244.39 239.015 227.906 240.878 232.357 228.294C236.807 215.709 248.559 227.5 248.559 227.5Z" fill="#6B7050" stroke="#6B7050" stroke-width="2" stroke-linecap="round" stroke-linejoin="round"/>
        <path d="M256.287 231.089L254.575 232.536" stroke="#EAE7DB" stroke-width="2" stroke-linecap="round" stroke-linejoin="round"/>
        <path d="M251.082 240.786L251.067 238.591" stroke="#EAE7DB" stroke-width="2" stroke-linecap="round" stroke-linejoin="round"/>
        <path d="M246.125 232.577L248.061 233.612" stroke="#EAE7DB" stroke-width="2" stroke-linecap="round" stroke-linejoin="round"/>
    </g>
    <g class="flower">
        <path d="M384.954 234.366C384.954 234.366 408.111 254.644 385.714 266.549C363.316 278.453 360.78 245.183 360.78 245.183C360.78 245.183 330.605 255.997 336.576 226.715C342.547 197.433 366.457 220.602 366.457 220.602C366.457 220.602 372.043 189.877 392.313 204.728C412.583 219.579 384.954 234.366 384.954 234.366Z" fill="#6B7050" stroke="#6B7050" stroke-width="2" stroke-linecap="round" stroke-linejoin="round"/>
        <path d="M374.291 246.349L372.61 242.477" stroke="#EAE7DB" stroke-width="2" stroke-linecap="round" stroke-linejoin="round"/>
        <path d="M359.637 231.706L363.602 232.87" stroke="#EAE7DB" stroke-width="2" stroke-linecap="round" stroke-linejoin="round"/>
        <path d="M377.123 227.224L374.206 230.152" stroke="#EAE7DB" stroke-width="2" stroke-linecap="round" stroke-linejoin="round"/>
    </g>
    <g class="flower">
        <path d="M77.3808 100.992C77.3808 100.992 99.7731 98.5898 95.0705 116.542C90.3679 134.494 71.2129 119.36 71.2129 119.36C71.2129 119.36 62.0662 140.955 49.2749 123.223C36.4836 105.49 60.8045 104.117 60.8045 104.117C60.8045 104.117 47.0461 85.875 65.0868 82.3351C83.1276 78.7952 77.3808 100.992 77.3808 100.992Z" fill="#6B7050" stroke="#6B7050" stroke-width="2" stroke-linecap="round" stroke-linejoin="round"/>
        <path d="M78.541 112.67L75.6244 111.654" stroke="#EAE7DB" stroke-width="2" stroke-linecap="round" stroke-linejoin="round"/>
        <path d="M63.3945 113.292L65.9873 111.737" stroke="#EAE7DB" stroke-width="2" stroke-linecap="round" stroke-linejoin="round"/>
        <path d="M69.6562 101.663L69.7848 104.684" stroke="#EAE7DB" stroke-width="2" stroke-linecap="round" stroke-linejoin="round"/>
    </g>
    <g class="flower">
        <path d="M209.181 45.0569C209.181 45.0569 226.372 60.6886 209.3 69.3566C192.228 78.0245 190.784 52.8795 190.784 52.8795C190.784 52.8795 167.857 60.614 172.778 38.599C177.698 16.5841 195.416 34.4081 195.416 34.4081C195.416 34.4081 200.067 11.2984 215.155 22.793C230.243 34.2877 209.181 45.0569 209.181 45.0569Z" fill="#6B7050" stroke="#6B7050" stroke-width="2" stroke-linecap="round" stroke-linejoin="round"/>
        <path d="M200.965 53.9506L199.751 51.0045" stroke="#EAE7DB" stroke-width="2" stroke-linecap="round" stroke-linejoin="round"/>
        <path d="M190.111 42.6915L193.087 43.6266" stroke="#EAE7DB" stroke-width="2" stroke-linecap="round" stroke-linejoin="round"/>
        <path d="M203.373 39.5568L201.13 41.7251" stroke="#EAE7DB" stroke-width="2" stroke-linecap="round" stroke-linejoin="round"/>
    </g>
    <g class="flower">
        <path d="M135.698 253.645C135.698 253.645 163.32 261.652 149.069 280.587C134.818 299.523 119.514 272.363 119.514 272.363C119.514 272.363 98.2469 293.45 91.7207 266.302C85.1945 239.154 114.598 249.31 114.598 249.31C114.598 249.31 107.175 221.092 130.207 225.647C153.238 230.201 135.698 253.645 135.698 253.645Z" fill="#6B7050" stroke="#6B7050" stroke-width="2" stroke-linecap="round" stroke-linejoin="round"/>
        <path d="M131.412 268.006L128.458 265.394" stroke="#EAE7DB" stroke-width="2" stroke-linecap="round" stroke-linejoin="round"/>
        <path d="M113.215 261.406L117.032 260.824" stroke="#EAE7DB" stroke-width="2" stroke-linecap="round" stroke-linejoin="round"/>
        <path d="M126.244 250.698L124.933 254.329" stroke="#EAE7DB" stroke-width="2" stroke-linecap="round" stroke-linejoin="round"/>
    </g>
</svg>
