<svg width="1431" height="695" viewBox="0 0 1431 695" fill="none" xmlns="http://www.w3.org/2000/svg">
<path fill-rule="evenodd" clip-rule="evenodd" d="M15 160C6.71573 160 0 166.716 0 175V680C0 688.284 6.71572 695 15 695H405C413.284 695 420 688.284 420 680V175C420 166.716 413.284 160 405 160H15ZM50 205C47.2386 205 45 207.239 45 210V530C45 532.761 47.2386 535 50 535H370C372.761 535 375 532.761 375 530V210C375 207.239 372.761 205 370 205H50Z" fill="#FDFCFB"/>
<path fill-rule="evenodd" clip-rule="evenodd" d="M1026 160C1017.72 160 1011 166.716 1011 175V680C1011 688.284 1017.72 695 1026 695H1416C1424.28 695 1431 688.284 1431 680V175C1431 166.716 1424.28 160 1416 160H1026ZM1061 205C1058.24 205 1056 207.239 1056 210V530C1056 532.761 1058.24 535 1061 535H1381C1383.76 535 1386 532.761 1386 530V210C1386 207.239 1383.76 205 1381 205H1061Z" fill="#FDFCFB"/>
<path fill-rule="evenodd" clip-rule="evenodd" d="M521 0C512.716 0 506 6.71572 506 15V520C506 528.284 512.716 535 521 535H911C919.284 535 926 528.284 926 520V15C926 6.71573 919.284 0 911 0H521ZM556 45C553.239 45 551 47.2386 551 50V370C551 372.761 553.239 375 556 375H876C878.761 375 881 372.761 881 370V50C881 47.2386 878.761 45 876 45H556Z" fill="#FDFCFB"/>
</svg>
