<svg width="240" height="386" viewBox="0 0 240 386" fill="none" xmlns="http://www.w3.org/2000/svg">
<path fill-rule="evenodd" clip-rule="evenodd" d="M128.538 316.783C158.409 331.01 195.256 324.709 218.584 298.909C220.008 297.335 219.885 294.904 218.311 293.48C215.266 290.727 212.062 288.262 208.733 286.082C218.811 280.456 227.772 272.466 234.716 262.28C235.912 260.526 235.459 258.135 233.705 256.939C229.068 253.778 224.209 251.189 219.212 249.158C227.047 242.777 233.744 234.737 238.727 225.219C239.711 223.338 238.984 221.015 237.104 220.031C231.125 216.901 224.924 214.631 218.641 213.178C225.584 206.153 231.279 197.666 235.208 187.935C236.002 185.967 235.05 183.727 233.082 182.932C227.026 180.487 220.842 178.864 214.654 178.011C220.262 169.904 224.393 160.577 226.578 150.334C227.021 148.258 225.696 146.216 223.62 145.773C218.5 144.681 213.391 144.124 208.349 144.063C213.43 134.684 216.629 124.092 217.409 112.756C217.554 110.638 215.955 108.804 213.837 108.658C207.545 108.225 201.376 108.559 195.422 109.58C199.156 100.122 201.063 89.7634 200.721 78.9543C200.654 76.8328 198.879 75.1674 196.757 75.2345C190.765 75.424 184.953 76.2912 179.393 77.7603C182.623 67.1084 183.58 55.5851 181.779 43.8484C181.458 41.7503 179.495 40.3106 177.397 40.6323C171.597 41.522 166.047 43.0353 160.804 45.0936C161.115 35.2482 159.526 25.1792 155.809 15.3966C155.055 13.4125 152.835 12.4155 150.85 13.1694C144.778 15.4767 139.166 18.4671 134.067 22.0199L125.011 3.2262C124.02 1.16958 122.007 0.235604 120.092 0.434363C117.979 -0.117362 115.561 0.774029 114.443 3.09407L105.445 21.7664C100.444 18.3247 94.9553 15.4216 89.0282 13.1695C87.0441 12.4155 84.8236 13.4125 84.0697 15.3966C80.3524 25.1793 78.7637 35.2482 79.0745 45.0936C73.832 43.0353 68.2817 41.522 62.4815 40.6324C60.3835 40.3106 58.421 41.7504 58.0992 43.8484C56.2991 55.5851 57.2556 67.1085 60.4858 77.7604C54.9259 76.2912 49.114 75.424 43.1214 75.2345C40.9999 75.1674 39.2249 76.8328 39.1578 78.9543C38.816 89.7634 40.723 100.122 44.4567 109.58C38.5031 108.559 32.3342 108.225 26.0412 108.658C23.9237 108.804 22.3242 110.638 22.4698 112.756C23.2493 124.092 26.449 134.684 31.5298 144.063C26.4882 144.124 21.3783 144.681 16.2584 145.773C14.1826 146.216 12.8579 148.258 13.3007 150.334C15.4856 160.577 19.6169 169.904 25.2247 178.011C19.0363 178.864 12.8522 180.487 6.79649 182.932C4.82835 183.727 3.87628 185.967 4.67098 187.935C8.60003 197.666 14.2951 206.153 21.2375 213.178C14.9551 214.631 8.75372 216.901 2.77502 220.031C0.894571 221.015 0.167428 223.338 1.15185 225.219C6.13494 234.737 12.8322 242.777 20.6665 249.158C15.6696 251.189 10.8107 253.778 6.17373 256.939C4.41999 258.135 3.96687 260.526 5.16253 262.28C12.1069 272.466 21.0673 280.456 31.1461 286.082C27.8162 288.262 24.6124 290.727 21.5679 293.48C19.9936 294.904 19.8707 297.335 21.2942 298.909C44.4145 324.478 80.8121 330.896 110.538 317.159V376.074C110.538 381.045 114.568 385.074 119.538 385.074C124.509 385.074 128.538 381.045 128.538 376.074V316.783Z" fill="#6B7050"/>
</svg>
