<svg width="423" height="389" viewBox="0 0 423 389" fill="none" xmlns="http://www.w3.org/2000/svg">
    <g class="flower">
        <path d="M207.02 181C207.02 181 202.495 159 216 157C231 158 227.52 178 227.52 178C227.52 178 247.515 174 250.015 187.5C248.015 202 231.02 197.5 231.02 197.5C231.02 197.5 242.98 215 232.5 222C221.495 225 214.5 208 214.5 208C214.5 208 205.494 223 194 220C182.494 211.5 198 196.048 198 196.048C198 196.048 178.015 198 180.02 178.5C193.015 166 207.02 181 207.02 181Z" fill="#DB6547" stroke="#DB6547" stroke-width="8" stroke-linecap="round" stroke-linejoin="round"/>
        <circle cx="215" cy="191" r="5.5" fill="#FFD2AA" stroke="#FFD2AA"/>
    </g>
    <g class="flower">
        <path d="M377.856 131.789C377.856 131.789 374.878 117.316 383.763 116C393.631 116.658 391.342 129.815 391.342 129.815C391.342 129.815 404.496 127.184 406.141 136.065C404.825 145.604 393.645 142.644 393.645 142.644C393.645 142.644 401.512 154.157 394.618 158.762C387.378 160.735 382.776 149.552 382.776 149.552C382.776 149.552 376.852 159.42 369.29 157.446C361.721 151.854 371.921 141.689 371.921 141.689C371.921 141.689 358.774 142.973 360.093 130.144C368.642 121.921 377.856 131.789 377.856 131.789Z" fill="#DB6547" stroke="#DB6547" stroke-width="8" stroke-linecap="round" stroke-linejoin="round"/>
        <circle cx="383.105" cy="138.368" r="3.44724" fill="#FFD2AA" stroke="#FFD2AA"/>
    </g>
    <g class="flower">
        <path d="M262.612 227.603C262.612 227.603 254.206 215.451 261.866 210.761C271.204 207.503 274.249 220.506 274.249 220.506C274.249 220.506 285.323 212.935 290.313 220.463C292.837 229.756 281.39 231.409 281.39 231.409C281.39 231.409 293.137 238.923 288.597 245.859C282.707 250.51 274.094 242.021 274.094 242.021C274.094 242.021 272.506 253.421 264.775 254.565C255.621 252.383 261.027 239.035 261.027 239.035C261.027 239.035 249.432 245.365 245.623 233.044C250.27 222.13 262.612 227.603 262.612 227.603Z" fill="#DB6547" stroke="#DB6547" stroke-width="8" stroke-linecap="round" stroke-linejoin="round"/>
        <circle cx="270.017" cy="231.601" r="3.44724" transform="rotate(-23.0491 270.017 231.601)" fill="#FFD2AA" stroke="#FFD2AA"/>
    </g>
    <g class="flower">
        <path d="M111.141 115C111.141 115 106.616 93 120.121 91C135.121 92 131.641 112 131.641 112C131.641 112 151.636 108 154.136 121.5C152.136 136 135.141 131.5 135.141 131.5C135.141 131.5 147.101 149 136.621 156C125.616 159 118.621 142 118.621 142C118.621 142 109.615 157 98.1211 154C86.6153 145.5 102.121 130.048 102.121 130.048C102.121 130.048 82.1361 132 84.1414 112.5C97.1361 100 111.141 115 111.141 115Z" fill="#DB6547" stroke="#DB6547" stroke-width="8" stroke-linecap="round" stroke-linejoin="round"/>
        <circle cx="119.121" cy="125" r="5.5" fill="#FFD2AA" stroke="#FFD2AA"/>
    </g>
    <g class="flower">
        <path d="M65.1414 185C65.1414 185 60.6157 163 74.1211 161C89.1211 162 85.6414 182 85.6414 182C85.6414 182 105.636 178 108.136 191.5C106.136 206 89.1414 201.5 89.1414 201.5C89.1414 201.5 101.101 219 90.6211 226C79.6157 229 72.6211 212 72.6211 212C72.6211 212 63.6153 227 52.1211 224C40.6153 215.5 56.1211 200.048 56.1211 200.048C56.1211 200.048 36.1361 202 38.1414 182.5C51.1361 170 65.1414 185 65.1414 185Z" fill="#DB6547" stroke="#DB6547" stroke-width="8" stroke-linecap="round" stroke-linejoin="round"/>
        <circle cx="73.1211" cy="195" r="5.5" fill="#FFD2AA" stroke="#FFD2AA"/>
    </g>
    <g class="flower">
        <path d="M116.141 38C116.141 38 111.616 16 125.121 14C140.121 15 136.641 35 136.641 35C136.641 35 156.636 31 159.136 44.5C157.136 59 140.141 54.5 140.141 54.5C140.141 54.5 152.101 72 141.621 79C130.616 82 123.621 65 123.621 65C123.621 65 114.615 80 103.121 77C91.6153 68.5 107.121 53.0479 107.121 53.0479C107.121 53.0479 87.1361 55 89.1414 35.5C102.136 23 116.141 38 116.141 38Z" fill="#DB6547" stroke="#DB6547" stroke-width="8" stroke-linecap="round" stroke-linejoin="round"/>
        <circle cx="124.121" cy="48" r="5.5" fill="#FFD2AA" stroke="#FFD2AA"/>
    </g>
    <g class="flower">
        <path d="M346.141 67C346.141 67 341.616 45 355.121 43C370.121 44 366.641 64 366.641 64C366.641 64 386.636 60 389.136 73.5C387.136 88 370.141 83.5 370.141 83.5C370.141 83.5 382.101 101 371.621 108C360.616 111 353.621 94 353.621 94C353.621 94 344.615 109 333.121 106C321.615 97.5 337.121 82.0479 337.121 82.0479C337.121 82.0479 317.136 84 319.141 64.5C332.136 52 346.141 67 346.141 67Z" fill="#DB6547" stroke="#DB6547" stroke-width="8" stroke-linecap="round" stroke-linejoin="round"/>
        <circle cx="354.121" cy="77" r="5.5" fill="#FFD2AA" stroke="#FFD2AA"/>
    </g>
    <g class="flower">
        <path d="M242.24 123.445C242.24 123.445 235.843 107.966 245.454 104.609C256.58 103.24 256.833 118.376 256.833 118.376C256.833 118.376 270.917 112.645 274.639 122.182C275.205 133.082 262.129 132.167 262.129 132.167C262.129 132.167 273.339 143.308 266.644 149.903C259.005 153.641 251.5 142.171 251.5 142.171C251.5 142.171 247.006 154.418 238.168 153.831C228.55 149.218 237.742 135.729 237.742 135.729C237.742 135.729 223.379 139.958 222.116 125.396C229.881 114.421 242.24 123.445 242.24 123.445Z" fill="#DB6547" stroke="#DB6547" stroke-width="8" stroke-linecap="round" stroke-linejoin="round"/>
        <circle cx="249.485" cy="129.651" r="3.97394" transform="rotate(-10.8288 249.485 129.651)" fill="#FFD2AA" stroke="#FFD2AA"/>
    </g>
    <g class="flower">
        <path d="M143.755 192.813C143.755 192.813 145.855 176.198 155.868 178.036C166.214 182.351 158.945 195.629 158.945 195.629C158.945 195.629 174.019 197.617 172.535 207.747C167.635 217.499 156.723 210.234 156.723 210.234C156.723 210.234 160.953 225.462 151.872 227.881C143.383 227.35 142.537 213.669 142.537 213.669C142.537 213.669 132.572 222.088 125.182 217.205C119.107 208.438 133.768 201.263 133.768 201.263C133.768 201.263 119.194 197.832 125.301 184.552C137.48 178.857 143.755 192.813 143.755 192.813Z" fill="#DB6547" stroke="#DB6547" stroke-width="8" stroke-linecap="round" stroke-linejoin="round"/>
        <circle cx="146.98" cy="201.791" r="3.97394" transform="rotate(18.8265 146.98 201.791)" fill="#FFD2AA" stroke="#FFD2AA"/>
    </g>
    <g class="flower">
        <path d="M309.382 257.404C309.382 257.404 302.321 248.86 307.746 244.865C314.517 241.833 317.625 251.356 317.625 251.356C317.625 251.356 325.416 244.989 329.627 250.296C332.109 257.079 323.659 259.048 323.659 259.048C323.659 259.048 332.92 263.911 329.97 269.386C325.866 273.238 318.886 267.445 318.886 267.445C318.886 267.445 318.428 276.066 312.724 277.417C305.743 276.372 308.929 266.05 308.929 266.05C308.929 266.05 300.668 271.522 297.033 262.558C299.808 254.104 309.382 257.404 309.382 257.404Z" fill="#DB6547" stroke="#DB6547" stroke-width="8" stroke-linecap="round" stroke-linejoin="round"/>
        <circle cx="315.173" cy="259.918" r="2.4608" transform="rotate(-27.9433 315.173 259.918)" fill="#FFD2AA" stroke="#FFD2AA"/>
    </g>
    <g class="flower">
        <path d="M379.829 223.895C379.829 223.895 396.551 208.623 405.252 219.29C412.126 232.799 393.005 240.105 393.005 240.105C393.005 240.105 406.788 255.361 396.383 264.493C382.791 270.242 377.92 253.199 377.92 253.199C377.92 253.199 368.932 272.589 357.46 267.123C349.183 259.137 360.3 244.306 360.3 244.306C360.3 244.306 342.659 244.245 339.327 232.74C340.753 218.388 362.139 223.846 362.139 223.846C362.139 223.846 350.136 207.542 368.062 199.217C385.595 204.023 379.829 223.895 379.829 223.895Z" fill="#DB6547" stroke="#DB6547" stroke-width="8" stroke-linecap="round" stroke-linejoin="round"/>
        <circle cx="375.283" cy="235.97" r="5.54968" transform="rotate(59.2185 375.283 235.97)" fill="#FFD2AA" stroke="#FFD2AA"/>
    </g>
    <g class="flower">
        <path d="M333.06 323.619C333.06 323.619 310.067 304.621 322.377 291.311C338.731 279.861 351.776 303.452 351.776 303.452C351.776 303.452 369.136 282.672 382.959 294.56C392.958 311.229 371.627 320.717 371.627 320.717C371.627 320.717 398.568 328.872 393.55 344.837C384.659 357.101 363.272 345.332 363.272 345.332C363.272 345.332 366.437 368.349 352.047 374.811C333.066 375.592 336.251 346.697 336.251 346.697C336.251 346.697 317.195 365.351 303.041 343.504C306.083 319.754 333.06 323.619 333.06 323.619Z" fill="#DB6547" stroke="#DB6547" stroke-width="8" stroke-linecap="round" stroke-linejoin="round"/>
        <circle cx="349.64" cy="327.325" r="7.46771" transform="rotate(-38.811 349.64 327.325)" fill="#FFD2AA" stroke="#FFD2AA"/>
    </g>
    <g class="flower">
        <path d="M262.456 303.403C262.456 303.403 287.245 286.815 296.471 302.423C302.756 321.371 276.416 327.111 276.416 327.111C276.416 327.111 291.352 349.697 276.002 359.535C257.168 364.34 254.188 341.185 254.188 341.185C254.188 341.185 238.657 364.66 224.798 355.278C215.595 343.247 232.998 326.128 232.998 326.128C232.998 326.128 210.039 322.567 207.97 306.928C212.66 288.52 239.431 299.848 239.431 299.848C239.431 299.848 227.018 276.248 252.005 268.945C273.887 278.664 262.456 303.403 262.456 303.403Z" fill="#DB6547" stroke="#DB6547" stroke-width="8" stroke-linecap="round" stroke-linejoin="round"/>
        <circle cx="254.156" cy="318.227" r="7.46771" transform="rotate(67.8361 254.156 318.227)" fill="#FFD2AA" stroke="#FFD2AA"/>
    </g>
    <g class="flower">
        <path d="M158.171 338.451C158.171 338.451 141.008 323.963 150.383 314.038C162.789 305.547 172.424 323.414 172.424 323.414C172.424 323.414 185.662 307.905 195.976 316.966C203.373 329.597 187.235 336.572 187.235 336.572C187.235 336.572 207.457 342.927 203.551 354.909C196.759 364.073 180.748 355.041 180.748 355.041C180.748 355.041 182.949 372.398 172.062 377.15C157.763 377.587 160.39 355.854 160.39 355.854C160.39 355.854 145.894 369.749 135.409 353.186C137.889 335.326 158.171 338.451 158.171 338.451Z" fill="#DB6547" stroke="#DB6547" stroke-width="8" stroke-linecap="round" stroke-linejoin="round"/>
        <circle cx="170.627" cy="341.373" r="5.5" transform="rotate(-38.2066 170.627 341.373)" fill="#FFD2AA" stroke="#FFD2AA"/>
    </g>
    <g class="flower">
        <path d="M298.004 165.174C298.004 165.174 278.876 145.215 291.638 134.283C307.923 125.499 317.399 148.618 317.399 148.618C317.399 148.618 335.613 131.352 347.062 143.781C354.477 160.2 333.821 166.644 333.821 166.644C333.821 166.644 357.746 177.044 351.412 191.203C341.91 201.539 323.485 188.407 323.485 188.407C323.485 188.407 323.928 209.937 309.986 214.341C292.428 213.022 298.462 186.763 298.462 186.763C298.462 186.763 278.917 201.889 268.232 180.256C273.584 158.719 298.004 165.174 298.004 165.174Z" fill="#DB6547" stroke="#DB6547" stroke-width="8" stroke-linecap="round" stroke-linejoin="round"/>
        <circle cx="312.87" cy="170.366" r="6.88489" transform="rotate(-32.1577 312.87 170.366)" fill="#FFD2AA" stroke="#FFD2AA"/>
    </g>
    <g class="flower">
        <path d="M123.482 259.704C123.482 259.704 112.033 240.38 124.148 234.087C138.655 230.143 141.885 250.185 141.885 250.185C141.885 250.185 159.483 239.887 166.247 251.834C169.083 266.194 151.549 267.48 151.549 267.48C151.549 267.48 168.56 280.126 160.934 290.159C151.508 296.583 139.354 282.791 139.354 282.791C139.354 282.791 135.729 299.907 123.885 300.818C110.237 296.532 119.859 276.87 119.859 276.87C119.859 276.87 101.602 285.229 97.1417 266.141C105.352 250.088 123.482 259.704 123.482 259.704Z" fill="#DB6547" stroke="#DB6547" stroke-width="8" stroke-linecap="round" stroke-linejoin="round"/>
        <circle cx="134.286" cy="266.556" r="5.5" transform="rotate(-19.0233 134.286 266.556)" fill="#FFD2AA" stroke="#FFD2AA"/>
    </g>
    <g class="flower">
        <path d="M71.0805 325.364C71.0805 325.364 62.4398 297.794 79.4656 293.485C98.7926 292.823 96.9288 318.87 96.9288 318.87C96.9288 318.87 122.001 311.162 126.948 328.116C126.266 346.933 103.933 343.374 103.933 343.374C103.933 343.374 121.505 364.223 108.999 374.539C95.3023 379.803 84.1491 358.951 84.1491 358.951C84.1491 358.951 74.5653 379.315 59.4661 376.964C43.64 367.575 61.4843 345.791 61.4843 345.791C61.4843 345.791 36.1593 350.877 36.2011 325.66C51.2137 307.98 71.0805 325.364 71.0805 325.364Z" fill="#DB6547" stroke="#DB6547" stroke-width="8" stroke-linecap="round" stroke-linejoin="round"/>
        <circle cx="82.5887" cy="337.13" r="7.21824" transform="rotate(-5.77678 82.5887 337.13)" fill="#FFD2AA" stroke="#FFD2AA"/>
    </g>
    <g class="flower">
        <path d="M179.071 82.7852C179.071 82.7852 159.921 71.0475 167.695 59.824C178.679 49.5607 190.896 65.7734 190.896 65.7734C190.896 65.7734 201.647 48.4467 213.208 55.8517C222.423 67.2244 207.52 76.5506 207.52 76.5506C207.52 76.5506 228.468 79.7867 226.412 92.2204C221.077 102.303 203.889 95.7855 203.889 95.7855C203.889 95.7855 208.679 112.613 198.631 118.95C184.562 121.536 183.886 99.656 183.886 99.656C183.886 99.656 171.647 115.576 158.787 100.781C158.549 82.7514 179.071 82.7852 179.071 82.7852Z" fill="#DB6547" stroke="#DB6547" stroke-width="8" stroke-linecap="round" stroke-linejoin="round"/>
        <circle cx="191.825" cy="83.7984" r="5.5" transform="rotate(-46.8694 191.825 83.7984)" fill="#FFD2AA" stroke="#FFD2AA"/>
    </g>
    <g class="flower">
        <path d="M31.2804 138.491C31.2804 138.491 17.8593 130.264 23.3074 122.398C31.0062 115.205 39.5686 126.568 39.5686 126.568C39.5686 126.568 47.1031 114.424 55.206 119.614C61.6642 127.585 51.2195 134.121 51.2195 134.121C51.2195 134.121 65.9009 136.389 64.4599 145.103C60.7211 152.17 48.6744 147.602 48.6744 147.602C48.6744 147.602 52.0315 159.396 44.9896 163.837C35.129 165.65 34.6551 150.315 34.6551 150.315C34.6551 150.315 26.0777 161.472 17.0647 151.103C16.8975 138.467 31.2804 138.491 31.2804 138.491Z" fill="#DB6547" stroke="#DB6547" stroke-width="8" stroke-linecap="round" stroke-linejoin="round"/>
        <circle cx="40.2192" cy="139.201" r="3.70515" transform="rotate(-46.8694 40.2192 139.201)" fill="#FFD2AA" stroke="#FFD2AA"/>
    </g>
    <g class="flower">
        <path d="M51.1107 256.99C51.1107 256.99 42.477 243.827 50.7585 239.034C60.789 235.809 63.6906 249.737 63.6906 249.737C63.6906 249.737 75.6829 241.964 80.8003 250.113C83.2445 260.076 71.01 261.537 71.01 261.537C71.01 261.537 83.3237 269.847 78.3054 277.115C71.911 281.914 62.9609 272.646 62.9609 272.646C62.9609 272.646 60.9702 284.746 52.7068 285.762C43.0145 283.198 49.1229 269.124 49.1229 269.124C49.1229 269.124 36.6076 275.56 32.8748 262.338C38.1102 250.837 51.1107 256.99 51.1107 256.99Z" fill="#DB6547" stroke="#DB6547" stroke-width="8" stroke-linecap="round" stroke-linejoin="round"/>
        <circle cx="58.893" cy="261.442" r="3.70515" transform="rotate(-21.6371 58.893 261.442)" fill="#FFD2AA" stroke="#FFD2AA"/>
    </g>
    <g class="flower">
        <path d="M245.28 53.4906C245.28 53.4906 231.859 45.2641 237.307 37.3981C245.006 30.205 253.569 41.5678 253.569 41.5678C253.569 41.5678 261.103 29.4242 269.206 34.614C275.664 42.5847 265.22 49.121 265.22 49.121C265.22 49.121 279.901 51.3891 278.46 60.1034C274.721 67.1699 262.674 62.602 262.674 62.602C262.674 62.602 266.032 74.3956 258.99 78.8372C249.129 80.6495 248.655 65.3146 248.655 65.3146C248.655 65.3146 240.078 76.472 231.065 66.1028C230.898 53.4669 245.28 53.4906 245.28 53.4906Z" fill="#DB6547" stroke="#DB6547" stroke-width="8" stroke-linecap="round" stroke-linejoin="round"/>
        <circle cx="254.219" cy="54.2007" r="3.70515" transform="rotate(-46.8694 254.219 54.2007)" fill="#FFD2AA" stroke="#FFD2AA"/>
    </g>
    <g class="flower">
        <path d="M202.446 250.798C202.446 250.798 208.967 236.47 217.441 240.914C225.523 247.673 215.295 257.563 215.295 257.563C215.295 257.563 228.27 263.553 224.112 272.231C216.992 279.617 209.225 270.052 209.225 270.052C209.225 270.052 208.773 284.9 199.948 284.538C192.477 281.693 195.534 269.177 195.534 269.177C195.534 269.177 184.241 273.954 178.97 267.509C175.963 257.945 191.125 255.596 191.125 255.596C191.125 255.596 179.001 248.45 188.187 238.234C200.708 236.521 202.446 250.798 202.446 250.798Z" fill="#DB6547" stroke="#DB6547" stroke-width="8" stroke-linecap="round" stroke-linejoin="round"/>
        <circle cx="202.837" cy="259.756" r="3.70515" transform="rotate(36.094 202.837 259.756)" fill="#FFD2AA" stroke="#FFD2AA"/>
    </g>
    <g class="flower">
        <path d="M47.7041 51.4597C47.7041 51.4597 57.2907 30.3941 69.7501 36.9271C81.6328 46.8654 66.5945 61.4061 66.5945 61.4061C66.5945 61.4061 85.6712 70.2132 79.5578 82.9715C69.0903 93.8309 57.6714 79.7674 57.6714 79.7674C57.6714 79.7674 57.0061 101.599 44.0309 101.066C33.0461 96.8828 37.5418 78.4817 37.5418 78.4817C37.5418 78.4817 20.9374 85.5045 13.1879 76.0291C8.76749 61.967 31.0585 58.5136 31.0585 58.5136C31.0585 58.5136 13.233 48.0072 26.7401 32.9878C45.1482 30.468 47.7041 51.4597 47.7041 51.4597Z" fill="#DB6547" stroke="#DB6547" stroke-width="8" stroke-linecap="round" stroke-linejoin="round"/>
        <circle cx="48.2775" cy="64.6306" r="5.68265" transform="rotate(36.094 48.2775 64.6306)" fill="#FFD2AA" stroke="#FFD2AA"/>
    </g>
    <g class="flower">
        <path d="M168.151 142.308C168.151 142.308 161.604 132.285 167.909 128.652C175.542 126.214 177.728 136.811 177.728 136.811C177.728 136.811 186.859 130.918 190.739 137.122C192.583 144.703 183.277 145.795 183.277 145.795C183.277 145.795 192.629 152.133 188.802 157.653C183.932 161.293 177.139 154.232 177.139 154.232C177.139 154.232 175.607 163.43 169.322 164.191C161.955 162.226 166.621 151.533 166.621 151.533C166.621 151.533 157.094 156.409 154.275 146.348C158.273 137.609 168.151 142.308 168.151 142.308Z" fill="#DB6547" stroke="#DB6547" stroke-width="8" stroke-linecap="round" stroke-linejoin="round"/>
        <circle cx="174.062" cy="145.705" r="2.69793" transform="rotate(-21.5254 174.062 145.705)" fill="#FFD2AA" stroke="#FFD2AA"/>
    </g>
    <g class="flower">
        <path d="M290.548 87.311C290.548 87.311 294.322 75.9501 301.089 78.6261C307.746 83.085 300.81 91.3894 300.81 91.3894C300.81 91.3894 311.105 94.8715 308.661 101.769C303.874 107.929 297.229 101.323 297.229 101.323C297.229 101.323 298.086 112.588 291.383 113.026C285.503 111.478 286.805 101.767 286.805 101.767C286.805 101.767 278.651 106.291 274.145 101.843C271.099 94.8531 282.374 91.853 282.374 91.853C282.374 91.853 272.629 87.4281 278.752 78.9617C288.081 76.6549 290.548 87.311 290.548 87.311Z" fill="#DB6547" stroke="#DB6547" stroke-width="8" stroke-linecap="round" stroke-linejoin="round"/>
        <circle cx="291.567" cy="94.0535" r="2.69793" transform="rotate(30 291.567 94.0535)" fill="#FFD2AA" stroke="#FFD2AA"/>
    </g>
    <g class="flower">
        <path d="M191.548 18.311C191.548 18.311 195.322 6.95012 202.089 9.62605C208.746 14.085 201.81 22.3894 201.81 22.3894C201.81 22.3894 212.105 25.8715 209.661 32.7691C204.874 38.929 198.229 32.3229 198.229 32.3229C198.229 32.3229 199.086 43.5877 192.383 44.026C186.503 42.4779 187.805 32.767 187.805 32.767C187.805 32.767 179.651 37.2907 175.145 32.8428C172.099 25.8531 183.374 22.853 183.374 22.853C183.374 22.853 173.629 18.4281 179.752 9.96168C189.081 7.65491 191.548 18.311 191.548 18.311Z" fill="#DB6547" stroke="#DB6547" stroke-width="8" stroke-linecap="round" stroke-linejoin="round"/>
        <circle cx="192.567" cy="25.0535" r="2.69793" transform="rotate(30 192.567 25.0535)" fill="#FFD2AA" stroke="#FFD2AA"/>
    </g>
    <g class="flower">
        <path d="M305.548 33.311C305.548 33.311 309.322 21.9501 316.089 24.6261C322.746 29.085 315.81 37.3894 315.81 37.3894C315.81 37.3894 326.105 40.8715 323.661 47.7691C318.874 53.929 312.229 47.3229 312.229 47.3229C312.229 47.3229 313.086 58.5877 306.383 59.026C300.503 57.4779 301.805 47.767 301.805 47.767C301.805 47.767 293.651 52.2907 289.145 47.8428C286.099 40.8531 297.374 37.853 297.374 37.853C297.374 37.853 287.629 33.4281 293.752 24.9617C303.081 22.6549 305.548 33.311 305.548 33.311Z" fill="#DB6547" stroke="#DB6547" stroke-width="8" stroke-linecap="round" stroke-linejoin="round"/>
        <circle cx="306.567" cy="40.0535" r="2.69793" transform="rotate(30 306.567 40.0535)" fill="#FFD2AA" stroke="#FFD2AA"/>
    </g>
</svg>
