<svg width="1920" height="574" viewBox="0 0 1920 574" fill="none" xmlns="http://www.w3.org/2000/svg">
<path d="M-4.5 170.5C25.6403 143.303 70 243 70 243C70 243 61.1372 198.211 80.5 192C107 183.5 126.5 247.5 126.5 247.5C126.5 247.5 149.141 172.996 184.5 183.5C215.482 192.704 194 254 194 254C194 254 247 150 280.5 178C292.954 188.409 287.559 210.336 280.389 227.634C289.551 212.547 303.23 195.417 319.5 192C339.627 187.773 371 203 371 203C371 203 384.455 173.512 398.5 167.5C414.222 160.771 435.629 178.881 444.679 187.606C432.511 174.795 400.107 137.357 420 121C442.5 102.5 512 165.5 512 165.5L607 148.5C607 148.5 627.716 140.685 641.5 141C663.163 141.495 686.892 163.973 700.306 178.97C692.398 168.117 684.192 152.759 691 141C702 122 763 161.5 763 161.5C763 161.5 734.289 115.523 757 102C778.452 89.227 807.5 134.5 807.5 134.5C807.5 134.5 817.404 116.155 828.5 110.5C856.565 96.1971 887.5 165.5 887.5 165.5L948.5 125C948.5 125 963.193 100.958 978.5 99.5001C1020.5 95.5 1060 177 1060 177C1060 177 1048.66 101.021 1080 95.5C1113.31 89.632 1111.5 166 1111.5 166C1111.5 166 1157.5 51 1189.5 72.0001C1214.83 88.6258 1188 137.5 1188 137.5C1188 137.5 1254.74 23.04 1298.5 51C1316.5 62.5 1292.5 99.5001 1292.5 99.5001C1292.5 99.5001 1354.19 41.6766 1378.5 66.5C1402 90.5 1349.5 127.5 1349.5 127.5C1349.5 127.5 1431.93 73.5667 1455 108.5C1472.5 135 1440.5 159.5 1440.5 159.5C1440.5 159.5 1503.68 116.425 1526.5 142C1545.97 163.82 1519 216.5 1519 216.5L1548.5 219.5C1548.5 219.5 1635.5 123 1671.5 162C1687.96 179.828 1656.5 216.5 1656.5 216.5C1656.5 216.5 1752.5 148 1772.5 178C1787.8 200.944 1739.64 230.674 1729.03 236.847C1744.29 228.274 1840.98 176.006 1851 221.5C1855.16 240.397 1828.14 258.062 1808.18 268.32C1826.98 260.722 1855.22 251.802 1876.5 256C1896.13 259.872 1923 277.5 1923 277.5H1945V585.5H-20V196C-20 196 -13.1521 178.307 -4.5 170.5Z" fill="#6B7050"/>
<path d="M-4.5 170.5C25.6403 143.303 70 243 70 243C70 243 61.1372 198.211 80.5 192C107 183.5 126.5 247.5 126.5 247.5C126.5 247.5 149.141 172.996 184.5 183.5C215.482 192.704 194 254 194 254C194 254 247 150 280.5 178C302.759 196.604 268 252 268 252C268 252 289.28 198.347 319.5 192C339.627 187.773 371 203 371 203C371 203 384.455 173.512 398.5 167.5C418.944 158.749 449 192 449 192C449 192 395.798 140.899 420 121C442.5 102.5 512 165.5 512 165.5L607 148.5C607 148.5 627.716 140.685 641.5 141C675.156 141.769 713.8 195.6 711 192C708.2 188.4 680 160 691 141C702 122 763 161.5 763 161.5C763 161.5 734.289 115.523 757 102C778.452 89.227 807.5 134.5 807.5 134.5C807.5 134.5 817.404 116.155 828.5 110.5C856.565 96.1971 887.5 165.5 887.5 165.5L948.5 125C948.5 125 963.193 100.958 978.5 99.5001C1020.5 95.5 1060 177 1060 177C1060 177 1048.66 101.021 1080 95.5C1113.31 89.632 1111.5 166 1111.5 166C1111.5 166 1157.5 51 1189.5 72.0001C1214.83 88.6258 1188 137.5 1188 137.5C1188 137.5 1254.74 23.04 1298.5 51C1316.5 62.5 1292.5 99.5001 1292.5 99.5001C1292.5 99.5001 1354.19 41.6766 1378.5 66.5C1402 90.5 1349.5 127.5 1349.5 127.5C1349.5 127.5 1431.93 73.5667 1455 108.5C1472.5 135 1440.5 159.5 1440.5 159.5C1440.5 159.5 1503.68 116.425 1526.5 142C1545.97 163.82 1519 216.5 1519 216.5L1548.5 219.5C1548.5 219.5 1635.5 123 1671.5 162C1687.96 179.828 1656.5 216.5 1656.5 216.5C1656.5 216.5 1752.5 148 1772.5 178C1789.65 203.732 1727 238 1727 238C1727 238 1840.11 172.089 1851 221.5C1857.5 251 1788 277.5 1788 277.5C1788 277.5 1841.61 249.116 1876.5 256C1896.13 259.872 1923 277.5 1923 277.5H1945V585.5H-20V196C-20 196 -13.1521 178.307 -4.5 170.5Z" stroke="#6B7050" stroke-width="8" stroke-linecap="round" stroke-linejoin="round"/>
<path d="M1890.63 221.022C1902.67 206.714 1912.3 200.347 1930.63 204.022C1943.65 206.632 1951.13 213.785 1953.63 221.022C1958.37 234.74 1949.13 256.022 1949.13 256.022C1949.13 256.022 1961.2 246.359 1975.13 243.522C1991.28 240.232 2006.95 240.827 2016.13 254.522C2025.51 268.517 2016.13 287.522 2006.13 290.522C1987.99 295.965 1966.63 297.522 1966.63 297.522C1966.63 297.522 1993.25 299.197 2006.13 310.022C2020.92 322.456 2024.63 336.022 2020.13 349.522C2015.63 363.022 1995.38 370.567 1975.13 366.522C1961.59 363.818 1942.13 347.522 1942.13 347.522C1942.13 347.522 1929.13 379.522 1920.13 387.022C1910.34 395.183 1897.63 397.522 1885.13 395.522C1868.54 392.867 1857.54 383.314 1858.13 366.522C1858.66 351.375 1882.13 336.022 1882.13 336.022C1882.13 336.022 1859.07 346.957 1843.63 343.022C1827.81 338.988 1825.13 334.022 1821.13 320.022C1816.31 303.16 1827.47 289.341 1843.63 282.522C1858.6 276.204 1885.13 285.522 1885.13 285.522C1885.13 285.522 1874.35 240.367 1890.63 221.022Z" fill="#EAE7DB" stroke="#EAE7DB" stroke-width="8" stroke-linecap="round" stroke-linejoin="round"/>
<path d="M1580.27 199.005C1568.84 205.095 1559.19 223.183 1557.11 227.281C1559.33 222.716 1569.56 200.42 1564.37 186.669C1558.46 170.991 1547.08 161.469 1530.3 160.533C1509.72 159.386 1493.8 174.499 1490.04 194.728C1486.91 211.54 1505.88 235.483 1505.88 235.483C1505.88 235.483 1484.66 219.294 1468.8 219.079C1450.46 218.83 1431.83 222.228 1426.59 239.777C1421.76 255.937 1430.57 270.772 1445.56 278.477C1460.15 285.971 1487.22 272.504 1487.22 272.504C1487.22 272.504 1465.71 292.552 1465.59 309.178C1465.48 324.824 1469.69 338.916 1484.26 344.629C1501.5 351.389 1516.1 337.337 1525.63 321.462C1532.48 310.054 1531.58 287.915 1531.58 287.915C1531.58 287.915 1535.26 313.519 1547.53 320.822C1563.07 330.066 1581.35 324.274 1592.56 310.098C1600.28 300.349 1603.45 290.984 1599.81 279.099C1596.33 267.759 1578.05 257.907 1578.05 257.907C1578.05 257.907 1605.25 252.671 1614.82 239.873C1625.02 226.239 1632.74 208.667 1620.64 196.758C1609.43 185.715 1594.21 191.571 1580.27 199.005Z" fill="#CAB9B1"/>
<path d="M1556.7 228.113C1556.7 228.113 1567.35 205.891 1580.27 199.005C1594.21 191.571 1609.43 185.715 1620.64 196.758C1632.74 208.667 1625.02 226.239 1614.82 239.873C1605.25 252.671 1578.05 257.907 1578.05 257.907C1578.05 257.907 1596.33 267.759 1599.81 279.099C1603.45 290.984 1600.28 300.349 1592.56 310.098C1581.35 324.274 1563.07 330.066 1547.53 320.822C1535.26 313.519 1531.58 287.915 1531.58 287.915C1531.58 287.915 1532.48 310.054 1525.63 321.462C1516.1 337.337 1501.5 351.389 1484.26 344.629C1469.69 338.916 1465.48 324.824 1465.59 309.178C1465.71 292.552 1487.22 272.504 1487.22 272.504C1487.22 272.504 1460.15 285.971 1445.56 278.477C1430.57 270.772 1421.76 255.937 1426.59 239.777C1431.83 222.228 1450.46 218.83 1468.8 219.079C1484.66 219.294 1505.88 235.483 1505.88 235.483C1505.88 235.483 1486.91 211.54 1490.04 194.728C1493.8 174.499 1509.72 159.386 1530.3 160.533C1547.08 161.469 1558.46 170.991 1564.37 186.669C1570.17 202.048 1556.7 228.113 1556.7 228.113Z" stroke="#CAB9B1" stroke-width="8" stroke-linecap="round" stroke-linejoin="round"/>
<path d="M552.689 81.3183C562.455 91.1892 565.731 113.77 566.357 118.856C565.759 113.217 563.499 85.8483 574.282 72.1557C586.577 56.5437 602.294 49.2217 620.442 52.8483C642.694 57.2951 653.751 78.3392 649.959 101.641C646.807 121.009 617.501 142.093 617.501 142.093C617.501 142.093 646.213 130.166 663.102 134.327C682.636 139.141 701.067 148.046 699.877 168.812C698.782 187.933 683.738 201.812 664.883 206.131C646.547 210.331 623.034 188.003 623.034 188.003C623.034 188.003 631.543 212.022 626.352 227.056C620.818 243.086 612.535 257.003 596.122 259.295C577.66 261.872 567.161 246.138 563.218 228.441C560.241 215.077 560.763 191.192 560.763 191.192C560.763 191.192 548.889 203.282 539.321 206.032C522.126 210.973 503.004 206.284 499.42 189.475C496.889 177.611 499.115 167.013 508.075 157.623C514.763 150.614 532.393 146.747 532.393 146.747C532.393 146.747 505.574 133.439 500.351 116.701C494.787 98.8707 493.367 77.3959 510.767 67.6473C526.901 58.6077 540.771 69.2715 552.689 81.3183Z" fill="#EAE7DB"/>
<path d="M566.476 119.886C566.476 119.886 563.731 92.4787 552.689 81.3183C540.771 69.2715 526.901 58.6077 510.767 67.6473C493.367 77.3959 494.787 98.8707 500.351 116.701C505.574 133.439 532.393 146.747 532.393 146.747C532.393 146.747 514.763 150.614 508.075 157.623C499.115 167.013 496.889 177.611 499.42 189.475C503.004 206.284 522.126 210.973 539.321 206.032C548.889 203.282 560.763 191.192 560.763 191.192C560.763 191.192 560.241 215.077 563.218 228.441C567.161 246.138 577.66 261.872 596.122 259.295C612.535 257.003 620.818 243.086 626.352 227.056C631.543 212.022 623.034 188.003 623.034 188.003C623.034 188.003 646.547 210.331 664.883 206.131C683.738 201.812 698.782 187.933 699.877 168.812C701.067 148.046 682.636 139.141 663.102 134.327C646.213 130.166 617.501 142.093 617.501 142.093C617.501 142.093 646.807 121.009 649.959 101.641C653.751 78.3392 642.694 57.2951 620.442 52.8483C602.294 49.2217 586.577 56.5437 574.282 72.1557C562.223 87.4687 566.476 119.886 566.476 119.886Z" stroke="#EAE7DB" stroke-width="8" stroke-linecap="round" stroke-linejoin="round"/>
<path d="M345.5 193.5C345.708 182.805 349.386 172.327 360 171C370.614 169.673 384.369 170.869 397 183.5C417 203.5 413.001 229 413.001 229C413.001 229 429.422 219.044 443.5 216C462.001 212 485.468 218.818 483.501 235.5C482.11 247.292 472.981 252.48 462.001 257C447.599 262.929 422.501 263.5 422.501 263.5C422.501 263.5 442.053 266.363 448.501 275.5C455.931 286.03 457.275 299.061 448.501 308.5C439.062 318.654 425.091 315.284 413.001 308.5C400.884 301.702 395.196 278.508 394.561 275.766C395.042 277.932 398.142 292.835 394.501 301.5C389.128 314.286 379.316 323.217 365.501 322C350.606 320.688 339.092 307.886 340.501 293C341.575 281.642 358.603 272.378 363.924 269.749C358.843 272.079 342.608 278.843 332.001 275.5C318.143 271.132 305.425 261.881 307.501 247.5C309.301 235.028 319.884 229.962 332.001 226.5C344.78 222.848 365.501 232.5 365.501 232.5C365.501 232.5 345.157 211.097 345.5 193.5Z" fill="#CAB9B1"/>
<path d="M360 171C349.386 172.327 345.708 182.805 345.5 193.5C345.157 211.097 365.501 232.5 365.501 232.5C365.501 232.5 344.78 222.848 332.001 226.5C319.884 229.962 309.301 235.028 307.501 247.5C305.425 261.881 318.143 271.132 332.001 275.5C344.711 279.506 365.501 269 365.501 269C365.501 269 341.776 279.526 340.501 293C339.092 307.886 350.606 320.688 365.501 322C379.316 323.217 389.128 314.286 394.501 301.5C398.434 292.139 394.501 275.5 394.501 275.5C394.501 275.5 400.116 301.271 413.001 308.5C425.091 315.284 439.062 318.654 448.501 308.5C457.275 299.061 455.931 286.03 448.501 275.5C442.053 266.363 422.501 263.5 422.501 263.5C422.501 263.5 447.599 262.929 462.001 257C472.981 252.48 482.11 247.292 483.501 235.5C485.468 218.818 462.001 212 443.5 216C429.422 219.044 413.001 229 413.001 229C413.001 229 417 203.5 397 183.5C384.369 170.869 370.614 169.673 360 171Z" stroke="#CAB9B1" stroke-width="8" stroke-linecap="round" stroke-linejoin="round"/>
<path d="M978.919 110.656C982.777 98.1797 982.591 84.6457 970.983 79.1051C959.374 73.5645 943.214 69.7637 923.958 79.6431C893.468 95.2859 888.269 126.355 888.269 126.355C888.269 126.355 873.335 108.621 858.43 99.7834C838.843 88.1698 809.442 87.2246 805.3 107.304C802.372 121.499 810.807 130.955 821.61 140.336C835.78 152.64 864.213 162.766 864.213 162.766C864.213 162.766 840.796 158.711 829.937 166.873C817.423 176.278 810.898 190.877 817.3 205.128C824.187 220.458 841.425 221.819 857.825 218.514C874.26 215.203 889.635 190.46 891.41 187.521C890.032 189.851 880.786 205.958 881.624 217.376C882.862 234.224 890.642 248.277 906.879 252.076C924.385 256.172 942.431 245.674 946.523 227.886C949.646 214.314 933.755 197.154 928.687 192.1C933.596 196.716 949.539 210.68 962.928 210.804C980.42 210.967 998.481 205.038 1001.62 187.584C1004.34 172.447 994.198 162.584 981.692 154.001C968.502 144.949 941.152 148.324 941.152 148.324C941.152 148.324 972.571 131.185 978.919 110.656Z" fill="#EAE7DB"/>
<path d="M970.983 79.1051C982.591 84.6457 982.777 98.1797 978.919 110.656C972.571 131.185 941.152 148.324 941.152 148.324C941.152 148.324 968.502 144.949 981.692 154.001C994.198 162.584 1004.34 172.447 1001.62 187.584C998.481 205.038 980.42 210.967 962.928 210.804C946.885 210.655 927.175 190.637 927.175 190.637C927.175 190.637 950.228 211.786 946.523 227.886C942.431 245.674 924.385 256.172 906.879 252.076C890.642 248.277 882.862 234.224 881.624 217.376C880.719 205.041 891.581 187.236 891.581 187.236C891.581 187.236 875.302 214.993 857.825 218.514C841.425 221.819 824.187 220.458 817.3 205.128C810.898 190.877 817.423 176.278 829.937 166.873C840.796 158.711 864.213 162.766 864.213 162.766C864.213 162.766 835.78 152.64 821.61 140.336C810.807 130.955 802.372 121.499 805.3 107.304C809.442 87.2246 838.843 88.1698 858.43 99.7834C873.335 108.621 888.269 126.355 888.269 126.355C888.269 126.355 893.468 95.2859 923.958 79.6431C943.214 69.7637 959.374 73.5645 970.983 79.1051Z" stroke="#EAE7DB" stroke-width="8" stroke-linecap="round" stroke-linejoin="round"/>
<path d="M1273.22 133.897C1263.25 132.437 1252.97 134.041 1250.21 143.106C1247.45 152.171 1246.58 164.367 1256.5 177.336C1272.22 197.871 1296.51 198.293 1296.51 198.293C1296.51 198.293 1284.88 211.105 1280.02 222.931C1273.64 238.474 1276.6 260.014 1292.39 260.856C1303.56 261.451 1309.7 254.275 1315.49 245.381C1323.07 233.714 1327.22 211.884 1327.22 211.884C1327.22 211.884 1327.07 229.398 1334.64 236.431C1343.36 244.536 1355.28 247.71 1365.32 241.496C1376.13 234.812 1375.01 222.095 1370.44 210.495C1365.87 198.871 1345.12 190.344 1342.66 189.368C1344.6 190.12 1358.01 195.115 1366.6 193.265C1379.26 190.535 1388.98 183.338 1389.84 171.087C1390.77 157.878 1380.52 145.858 1366.48 144.804C1355.76 143.999 1344.69 157.447 1341.48 161.69C1344.38 157.611 1353.01 144.471 1351.43 134.695C1349.36 121.923 1342.59 109.397 1328.92 109.002C1317.06 108.659 1310.82 117.124 1305.86 127.174C1300.62 137.773 1306.61 157.349 1306.61 157.349C1306.61 157.349 1289.64 136.299 1273.22 133.897Z" fill="#EAE7DB"/>
<path d="M1250.21 143.106C1252.97 134.041 1263.25 132.437 1273.22 133.897C1289.64 136.299 1306.61 157.349 1306.61 157.349C1306.61 157.349 1300.62 137.773 1305.86 127.174C1310.82 117.124 1317.06 108.659 1328.92 109.002C1342.59 109.397 1349.36 121.923 1351.43 134.695C1353.32 146.409 1340.55 162.952 1340.55 162.952C1340.55 162.952 1353.76 143.849 1366.48 144.804C1380.52 145.858 1390.77 157.878 1389.84 171.087C1388.98 183.338 1379.26 190.535 1366.6 193.265C1357.33 195.263 1342.42 189.274 1342.42 189.274C1342.42 189.274 1365.58 198.134 1370.44 210.495C1375.01 222.095 1376.13 234.812 1365.32 241.496C1355.28 247.71 1343.36 244.536 1334.64 236.431C1327.07 229.398 1327.22 211.884 1327.22 211.884C1327.22 211.884 1323.07 233.714 1315.49 245.381C1309.7 254.275 1303.56 261.451 1292.39 260.856C1276.6 260.014 1273.64 238.474 1280.02 222.931C1284.88 211.105 1296.51 198.293 1296.51 198.293C1296.51 198.293 1272.22 197.871 1256.5 177.336C1246.58 164.367 1247.45 152.171 1250.21 143.106Z" stroke="#EAE7DB" stroke-width="8" stroke-linecap="round" stroke-linejoin="round"/>
<ellipse cx="901.804" cy="163.274" rx="15.2311" ry="12.7139" transform="rotate(36.4246 901.804 163.274)" fill="#FFD2AA"/>
<ellipse cx="1327.5" cy="181.09" rx="8.63407" ry="10.1685" transform="rotate(-29.2289 1327.5 181.09)" fill="#FFD2AA"/>
<ellipse cx="1528.5" cy="252.406" rx="14.078" ry="8.63095" transform="rotate(-29.2289 1528.5 252.406)" fill="#EE9575"/>
<ellipse cx="1917.11" cy="299.897" rx="18.1082" ry="14.959" transform="rotate(-29.2289 1917.11 299.897)" fill="#FFD2AA"/>
<ellipse cx="583.107" cy="148.897" rx="18.1082" ry="14.959" transform="rotate(-29.2289 583.107 148.897)" fill="#FFD2AA"/>
<ellipse cx="391.336" cy="252.78" rx="12.2601" ry="10.1279" transform="rotate(13.9218 391.336 252.78)" fill="#EE9575"/>
</svg>
