<svg width="165" height="165" viewBox="0 0 165 165" fill="none" xmlns="http://www.w3.org/2000/svg">
<rect width="165" height="165" rx="10" fill="#CAB9B1"/>
<path d="M67.1734 128.621C78.1972 133.909 91.7952 131.567 100.405 121.979C100.93 121.394 100.885 120.49 100.304 119.961C99.18 118.938 97.9976 118.022 96.7688 117.212C100.488 115.122 103.795 112.152 106.358 108.367C106.799 107.715 106.632 106.826 105.985 106.382C104.273 105.207 102.48 104.245 100.636 103.491C103.527 101.119 105.999 98.1313 107.838 94.5939C108.201 93.8951 107.933 93.0319 107.239 92.666C105.033 91.5029 102.744 90.6594 100.425 90.1193C102.988 87.5088 105.089 84.3546 106.539 80.7386C106.833 80.0071 106.481 79.1747 105.755 78.8793C103.52 77.9706 101.238 77.3675 98.954 77.0504C101.024 74.0376 102.548 70.5714 103.355 66.765C103.518 65.9935 103.029 65.2347 102.263 65.0702C100.374 64.6643 98.4878 64.4571 96.6272 64.4347C98.5022 60.9493 99.6831 57.0129 99.9707 52.8001C100.024 52.0132 99.4342 51.3314 98.6527 51.2772C96.3303 51.1165 94.0537 51.2405 91.8565 51.6197C93.2344 48.105 93.9382 44.2556 93.8121 40.2387C93.7873 39.4503 93.1322 38.8314 92.3493 38.8563C90.1378 38.9267 87.9929 39.249 85.9411 39.795C87.1332 35.8365 87.4862 31.5541 86.8218 27.1925C86.7031 26.4128 85.9788 25.8778 85.2046 25.9973C83.064 26.3279 81.0157 26.8903 79.081 27.6552C79.1957 23.9964 78.6094 20.2546 77.2375 16.6191C76.9593 15.8818 76.1398 15.5113 75.4076 15.7915C73.1668 16.6489 71.0955 17.7602 69.2139 19.0805L65.8718 12.0963C65.5061 11.332 64.7632 10.985 64.0562 11.0588C63.2766 10.8538 62.3841 11.1851 61.9715 12.0472L58.651 18.9863C56.8055 17.7073 54.7797 16.6284 52.5924 15.7915C51.8602 15.5113 51.0407 15.8818 50.7625 16.6191C49.3906 20.2546 48.8043 23.9965 48.919 27.6552C46.9843 26.8903 44.936 26.3279 42.7954 25.9973C42.0212 25.8778 41.2969 26.4128 41.1782 27.1925C40.5138 31.5541 40.8668 35.8365 42.0589 39.795C40.0071 39.249 37.8622 38.9267 35.6507 38.8563C34.8678 38.8314 34.2127 39.4503 34.1879 40.2387C34.0618 44.2556 34.7656 48.105 36.1435 51.6197C33.9463 51.2405 31.6697 51.1165 29.3473 51.2772C28.5658 51.3314 27.9756 52.0132 28.0293 52.8001C28.3169 57.0129 29.4978 60.9493 31.3728 64.4347C29.5122 64.4571 27.6265 64.6643 25.737 65.0702C24.9709 65.2347 24.4821 65.9935 24.6455 66.765C25.4518 70.5714 26.9764 74.0376 29.046 77.0504C26.7622 77.3675 24.48 77.9706 22.2451 78.8793C21.5188 79.1747 21.1674 80.0072 21.4607 80.7386C22.9107 84.3546 25.0124 87.5088 27.5745 90.1193C25.256 90.6595 22.9674 91.5029 20.761 92.666C20.0671 93.0319 19.7987 93.8951 20.162 94.5939C22.001 98.1313 24.4726 101.119 27.3638 103.491C25.5197 104.245 23.7266 105.207 22.0153 106.382C21.3681 106.826 21.2009 107.715 21.6421 108.367C24.2049 112.152 27.5117 115.122 31.2312 117.212C30.0024 118.022 28.82 118.938 27.6965 119.961C27.1154 120.49 27.0701 121.394 27.5955 121.979C36.1279 131.481 49.5603 133.866 60.5306 128.761V150.655C60.5306 152.503 62.0176 154 63.852 154C65.6864 154 67.1734 152.503 67.1734 150.655V128.621Z" fill="#6B7050"/>
<path d="M64.1363 48.5691C66.8851 49.3117 69.4785 50.3471 71.8922 51.6331C68.9674 39.4054 72.2392 25.9787 81.7078 16.4334L86.5549 11.5469C87.2783 10.8177 88.4512 10.8177 89.1746 11.5469L94.1798 16.5927C103.619 26.1085 106.9 39.4816 104.022 51.6788C106.46 50.3716 109.082 49.3204 111.864 48.5691L118.701 46.7223C119.689 46.4553 120.705 47.0465 120.97 48.0427L122.744 54.7178C125.474 64.9888 123.679 75.4074 118.592 83.8233C122.029 83.1476 125.618 82.9555 129.281 83.314L136.327 84.0035C137.345 84.1032 138.09 85.0161 137.991 86.0426L137.329 92.9208C135.352 113.451 117.24 128.478 96.8749 126.485L91.3205 125.941V150.639C91.3205 152.495 89.8277 154 87.9863 154C86.1448 154 84.652 152.495 84.652 150.639V125.944L79.1251 126.485C58.7602 128.478 40.6483 113.451 38.6712 92.9208L38.0088 86.0426C37.9099 85.0161 38.6553 84.1032 39.6735 84.0035L46.7187 83.314C50.3815 82.9555 53.9714 83.1476 57.4076 83.8233C52.3206 75.4074 50.5263 64.9888 53.2562 54.7178L55.0304 48.0427C55.2952 47.0465 56.3109 46.4553 57.2991 46.7223L64.1363 48.5691Z" fill="#95271F"/>
<path d="M139.691 63.7692C140.849 66.1491 141.711 68.6196 142.287 71.131C144.032 76.1001 145 81.5896 145 87.361C145 108.314 132.238 125.551 115.874 127.655V150.658C115.874 152.504 114.364 154 112.5 154C110.636 154 109.126 152.504 109.126 150.658V127.655C92.762 125.551 80 108.314 80 87.361C80 81.1657 81.1157 75.2953 83.1104 70.0448C83.6747 67.8905 84.4535 65.7717 85.4516 63.7202L110.59 12.0465C111.009 11.1849 111.916 10.8539 112.708 11.0588C113.426 10.9849 114.181 11.3317 114.553 12.0955L139.691 63.7692Z" fill="#EE9575"/>
</svg>
