<svg width="1360" height="325" viewBox="0 0 1360 325" fill="none" xmlns="http://www.w3.org/2000/svg">
<path d="M1331 295C1343 307 1355.5 330.5 1355.5 330.5V349L422 335L-4 331.5L0.5 81L174 131L253.5 151C253.5 151 269.741 132.221 282.5 123C291.294 116.644 295.906 111.344 306.5 109C325.445 104.809 368.542 131.773 384 143.5C412.229 164.915 412.032 184.435 412.002 185.458C412.041 184.396 412.834 163.498 415 150.5C417 138.5 417.825 122.723 430 119.5C447 115 456.839 123.008 468 138C475.687 148.325 484 179 484 179C484 179 487 164 494 150.5C502.016 135.04 522.557 109.067 536.5 119.5C544.137 125.214 544.249 132.624 546 142C548.954 157.812 538.5 182.5 538.5 182.5C538.5 182.5 554 150.5 575.5 133.5C592.679 119.916 616.901 112.782 624 133.5C628.854 147.667 609.5 169 609.5 169L645 148.5L679 161.5C679 161.5 677.363 187.904 671.5 203.5C662.376 227.773 631.5 256.5 631.5 256.5C631.5 256.5 655.201 238.396 671.5 228.5C685.5 220 712.53 208.628 726.5 225C734.68 234.586 733.5 256.5 733.5 256.5C733.5 256.5 749.453 236.547 761 225C772 214 798.867 197.576 808.5 214C812.105 220.147 811.976 224.889 811.5 232C810.743 243.315 799.157 257.395 796.885 260.055C799.924 256.587 820.583 233.767 845.5 225C868.151 217.03 891.498 220.644 905 240.5C911.606 250.215 913 269.5 913 269.5L1003 284.5L1028 273C1028 273 1074.83 263.425 1097.5 278.5C1110.66 287.249 1125.5 303.5 1125.5 303.5C1125.5 303.5 1132.89 287.7 1145.5 284.5C1162.25 280.249 1179.5 301.5 1179.5 301.5C1179.5 301.5 1185.5 293 1198 282C1210.48 271.02 1235.95 258.994 1246 273C1253.78 283.846 1242.5 307 1242.5 307C1242.5 307 1252.69 296.611 1261 296.5C1265.21 296.444 1267.95 296.729 1271.5 299C1274.89 301.169 1278 307 1278 307C1278 307 1276.32 292.031 1281 284.5C1291.79 267.118 1319.49 283.489 1331 295Z" fill="#6B7050" stroke="#6B7050" stroke-width="8" stroke-linecap="round" stroke-linejoin="round"/>
<path d="M-6.5 6.00001C-11.146 7.8198 -15.5 25 -15.5 25L-18.5 166L-3 154C-3 154 9.40627 175.361 23 178.5C35.5987 181.409 46.5819 179.814 55 170C65.5888 157.655 63.5114 139.466 51.5 128.5C43.0361 120.773 23 121.5 23 121.5C23 121.5 51.3566 114.835 68 105C79 98.5 90.7916 76.0922 81.5 62.9999C74.4209 53.0251 63.535 51.816 51.5 53.9999C40.8427 55.9339 28.5 69.5 28.5 69.5C28.5 69.5 22.5775 -5.38932 -6.5 6.00001Z" fill="#EAE7DB" stroke="#EAE7DB" stroke-width="8" stroke-linecap="round" stroke-linejoin="round"/>
<path d="M165 58.5C177.037 44.1925 186.667 37.8249 205 41.5C218.02 44.1102 225.5 51.2629 228.001 58.5C232.741 72.2179 223.5 93.5 223.5 93.5C223.5 93.5 235.572 83.8371 249.501 81C265.656 77.7096 281.321 78.3053 290.501 92C299.882 105.995 290.501 125 280.501 128C262.356 133.443 241 135 241 135C241 135 267.626 136.675 280.501 147.5C295.291 159.934 299 173.5 294.5 187C290 200.5 269.755 208.045 249.501 204C235.961 201.296 216.5 185 216.5 185C216.5 185 203.5 217 194.5 224.5C184.707 232.661 172 235 159.5 233C142.908 230.345 131.909 220.792 132.5 204C133.033 188.853 156.5 173.5 156.5 173.5C156.5 173.5 133.439 184.435 118 180.5C102.176 176.467 99.4995 171.5 95.5009 157.5C90.6849 140.638 101.843 126.819 118 120C132.97 113.682 159.5 123 159.5 123C159.5 123 148.725 77.8449 165 58.5Z" fill="#EAE7DB" stroke="#EAE7DB" stroke-width="8" stroke-linecap="round" stroke-linejoin="round"/>
<path d="M300.5 251.5C314.4 251.973 332.265 264.908 336.208 267.891C331.906 264.524 311.503 247.783 310 232C308.287 214.005 314.755 199.378 330.5 190.5C349.806 179.614 372.305 186.692 385.5 204.5C396.467 219.301 389.5 251.5 389.5 251.5C389.5 251.5 402.308 225.741 417.5 218C435.072 209.047 454.641 203.492 468 218C480.301 231.359 478.818 249.914 468 264.5C464.088 269.775 457.14 273.062 449.954 275.111C459.36 274.994 469.278 276.489 475.5 282C492.362 296.933 493.048 321.14 480 339.5C463.924 362.121 431.081 359.311 409 342.5C398.398 334.428 389.5 314.5 389.5 314.5C389.5 314.5 391.347 333.128 385.5 342.5C375.22 358.978 337 353.5 337 353.5C337 353.5 307.355 341.175 310 326.5C311.937 315.758 330.5 307.5 330.5 307.5C330.5 307.5 301.785 315.351 286.5 307.5C270.218 299.137 254.466 285.781 260.5 268.5C266.096 252.476 283.537 250.923 300.5 251.5Z" fill="#CAB9B1" stroke="#CAB9B1" stroke-width="8" stroke-linecap="round" stroke-linejoin="round"/>
<path d="M147.005 287C135.591 295.394 124 312 124 312C124 312 105.441 289.602 81 287C60.9107 284.862 46.3129 292.382 41.5073 301.5C36.5004 311 38.3964 320.886 49.505 330.5C57.4681 337.392 61.0049 339.5 61.0049 339.5V358.5L163.505 361L147.005 339.5C147.005 339.5 181.563 344.444 194.005 330.5C205.422 317.704 207.819 304.559 198 290.5C186.148 273.531 163.679 274.738 147.005 287Z" fill="#CAB9B1" stroke="#CAB9B1" stroke-width="8" stroke-linecap="round" stroke-linejoin="round"/>
<path d="M616.047 182.794C598.934 180.051 589.681 175.603 585.869 160.133C583.161 149.146 586.545 140.328 591.91 135.231C602.08 125.569 624.216 123.11 624.216 123.11C624.216 123.11 611.148 118.281 603.333 109.023C594.269 98.2852 588.787 86.1941 597.236 73.1917C605.871 59.9043 626.07 58.5597 632.523 64.7792C644.23 76.0641 653.772 91.4973 653.772 91.4973C653.772 91.4973 645.035 70.6529 649.561 56.133C654.759 39.4541 665.191 30.6386 678.711 28.0501C692.23 25.4616 706.579 37.4009 710.804 54.4851C713.629 65.9061 706.846 87.8242 706.846 87.8242C706.846 87.8242 739.787 83.4501 749.788 86.9194C760.67 90.6942 767.582 99.2504 770.624 109.574C774.661 123.278 770.528 135.817 755.629 142.817C742.19 149.131 719.785 138.221 719.785 138.221C719.785 138.221 738.175 150.783 740.651 164.184C743.189 177.918 739.875 182.141 729.175 191.368C716.286 202.48 699.937 200.183 687.789 191.009C676.533 182.508 674.511 158.348 674.511 158.348C674.511 158.348 639.185 186.504 616.047 182.794Z" fill="#EAE7DB" stroke="#EAE7DB" stroke-width="8" stroke-linecap="round" stroke-linejoin="round"/>
<path d="M1050.29 294.109C1061.02 284.603 1068.61 271.864 1061.04 260.245C1053.47 248.626 1040.69 236.105 1017.19 234.637C979.973 232.312 957.33 258.432 957.33 258.432C957.33 258.432 953.676 233.583 944.944 217.056C933.467 195.337 906.782 178.13 891.424 194.577C880.568 206.204 882.953 219.717 887.576 234.473C893.639 253.829 914.159 279.071 914.159 279.071C914.159 279.071 894.799 262.283 880.06 263.873C863.074 265.705 848.655 275.713 846.406 292.573C843.987 310.71 859.171 321.553 876.255 327.574C893.375 333.607 921.811 319.043 925.142 317.285C922.529 318.695 904.724 328.599 898.949 339.725C890.427 356.143 889.568 373.584 902.426 386.146C916.288 399.69 939.024 399.908 953.02 385.573C963.7 374.636 958.83 349.791 957.037 342.258C958.934 349.294 965.686 371.183 978.014 378.734C994.12 388.598 1014.25 393.091 1027.17 378.538C1038.37 365.916 1034.64 351.076 1027.98 336.119C1020.96 320.343 993.699 308.308 993.699 308.308C993.699 308.308 1032.63 309.751 1050.29 294.109Z" fill="#EAE7DB" stroke="#EAE7DB" stroke-width="8" stroke-linecap="round" stroke-linejoin="round"/>
<ellipse cx="376.876" cy="278.234" rx="14.8024" ry="12.2281" transform="rotate(18.169 376.876 278.234)" fill="#EE9575"/>
<ellipse cx="-11.1113" cy="104.899" rx="14.8024" ry="12.2281" transform="rotate(-29.2289 -11.1113 104.899)" fill="#FFD2AA"/>
<ellipse cx="194.107" cy="146.897" rx="18.1082" ry="14.959" transform="rotate(-29.2289 194.107 146.897)" fill="#FFD2AA"/>
<ellipse cx="675.889" cy="118.899" rx="14.8024" ry="12.2281" transform="rotate(-29.2289 675.889 118.899)" fill="#FFD2AA"/>
<ellipse cx="948.862" cy="299.461" rx="18.4555" ry="15.2459" transform="rotate(50.8774 948.862 299.461)" fill="#FFD2AA"/>
</svg>
