<svg width="523" height="445" viewBox="0 0 523 445" fill="none" xmlns="http://www.w3.org/2000/svg">
<path d="M182.246 60.5938C189.848 56.2707 204.975 65.0077 221.981 83.9525C237.66 101.42 266.462 135.94 270.858 141.217C271.251 141.688 271.661 142.099 272.127 142.495C278.861 148.225 276.338 159.578 267.683 162.487L141.007 205.068C132.075 208.07 123.549 200.934 125.062 191.553C128.388 170.928 134.246 139.045 141.286 119.791C151.736 91.2155 160.459 72.9867 182.246 60.5938Z" fill="#564842"/>
<path d="M401.325 106.489C396.098 99.4788 378.736 101.409 355.556 111.936C334.184 121.641 293.948 141.698 287.805 144.767C287.256 145.041 286.715 145.253 286.129 145.429C277.661 147.973 275.416 159.384 282.175 165.522L381.109 255.368C388.084 261.703 398.758 258.588 401.138 249.389C406.369 229.163 413.801 197.61 415.081 177.149C416.979 146.782 416.307 126.585 401.325 106.489Z" fill="#564842"/>
<path fill-rule="evenodd" clip-rule="evenodd" d="M403.967 110.263C403.41 109.919 402.817 109.599 402.183 109.306C383.585 100.703 350.169 129.654 350.169 129.654L296.848 173.283L342.359 220.181L347.212 224.589L399.942 252.429C400.445 251.507 400.849 250.492 401.134 249.389C406.366 229.163 413.798 197.611 415.077 177.149C416.857 148.682 416.377 129.151 403.967 110.263Z" fill="#EDEAE4"/>
<path fill-rule="evenodd" clip-rule="evenodd" d="M124.93 194.779C124.844 193.744 124.882 192.664 125.061 191.553C128.388 170.928 134.245 139.045 141.286 119.791C151.097 92.9617 159.386 75.2533 178.395 62.9322C178.976 62.8575 179.577 62.8129 180.198 62.8003C200.685 62.3853 219.671 102.315 219.671 102.315L250.997 163.677L189.512 188.763L184.542 190.434L124.93 194.779Z" fill="#EDEAE4"/>
<path d="M411.12 296.725C396.522 366.409 296.032 404.325 226.596 389.779C157.161 375.232 81.0201 300.313 95.6183 230.629C110.217 160.946 210.026 122.887 279.461 137.433C348.897 151.979 425.719 227.042 411.12 296.725Z" fill="#564842"/>
<path fill-rule="evenodd" clip-rule="evenodd" d="M122.406 322.228C134.053 330.246 162.365 347.13 186.733 341.049C222.942 332.014 233.013 306.42 241.996 283.594C245.923 273.616 249.642 264.166 255.245 256.86C257.809 265.796 257.845 276.214 257.883 287.233C257.971 312.794 258.07 341.59 289.763 362.633C308.611 375.148 338.739 371.384 350.55 369.255C312.928 389.817 265.01 397.826 226.596 389.779C188.529 381.804 148.447 355.683 122.406 322.228Z" fill="#EDEAE4"/>
<path d="M103.45 327.447L105.463 330.904L103.45 327.447ZM57.8336 360.413C56.2959 361.999 56.3352 364.531 57.9213 366.069C59.5075 367.607 62.0398 367.567 63.5775 365.981L57.8336 360.413ZM155.175 308.48C154.229 304.594 154.229 304.594 154.228 304.594C154.228 304.594 154.227 304.594 154.226 304.594C154.225 304.595 154.223 304.595 154.22 304.596C154.215 304.597 154.209 304.599 154.2 304.601C154.182 304.605 154.156 304.612 154.123 304.62C154.056 304.636 153.959 304.66 153.832 304.692C153.578 304.755 153.207 304.849 152.73 304.971C151.776 305.216 150.398 305.577 148.687 306.044C145.267 306.977 140.51 308.336 135.156 310.043C124.524 313.432 111.245 318.28 101.438 323.991L105.463 330.904C114.477 325.655 127.06 321.02 137.585 317.665C142.809 316 147.455 314.672 150.793 313.762C152.461 313.306 153.8 312.956 154.719 312.72C155.178 312.602 155.532 312.513 155.77 312.454C155.889 312.424 155.978 312.402 156.037 312.387C156.067 312.38 156.089 312.375 156.103 312.371C156.11 312.37 156.115 312.368 156.118 312.368C156.119 312.367 156.12 312.367 156.121 312.367C156.121 312.367 156.121 312.367 156.121 312.367C156.121 312.367 156.121 312.367 155.175 308.48ZM101.438 323.991C91.7684 329.621 80.8239 338.799 72.4266 346.415C68.1971 350.25 64.5566 353.742 61.9723 356.276C60.6796 357.543 59.6496 358.573 58.9406 359.288C58.5861 359.645 58.3117 359.924 58.1248 360.115C58.0314 360.21 57.9598 360.283 57.9109 360.333C57.8865 360.358 57.8678 360.378 57.8548 360.391C57.8484 360.398 57.8434 360.403 57.8398 360.407C57.838 360.408 57.8366 360.41 57.8356 360.411C57.8351 360.411 57.8346 360.412 57.8343 360.412C57.8339 360.413 57.8336 360.413 60.7055 363.197C63.5775 365.981 63.5774 365.981 63.5773 365.982C63.5774 365.981 63.5775 365.981 63.5777 365.981C63.5781 365.981 63.5789 365.98 63.5801 365.979C63.5824 365.976 63.5862 365.972 63.5914 365.967C63.6019 365.956 63.6181 365.94 63.64 365.917C63.6837 365.872 63.7501 365.804 63.8383 365.714C64.0145 365.534 64.2776 365.267 64.6204 364.921C65.306 364.23 66.3096 363.227 67.5733 361.988C70.1019 359.509 73.6654 356.091 77.8007 352.341C86.133 344.785 96.5609 336.088 105.463 330.904L101.438 323.991Z" fill="#564842"/>
<path d="M76.3835 293.332L77.6589 297.185L76.3835 293.332ZM25.7357 315.82C23.935 317.048 23.4785 319.555 24.716 321.421C25.9535 323.286 28.4164 323.804 30.2171 322.576L25.7357 315.82ZM130.323 285.961C130.164 281.919 130.163 281.919 130.162 281.919C130.162 281.919 130.161 281.919 130.161 281.919C130.159 281.919 130.157 281.919 130.155 281.919C130.15 281.919 130.143 281.919 130.133 281.919C130.115 281.92 130.089 281.92 130.055 281.921C129.987 281.923 129.888 281.925 129.758 281.929C129.5 281.936 129.121 281.947 128.633 281.963C127.659 281.995 126.249 282.049 124.496 282.135C120.991 282.306 116.104 282.605 110.57 283.115C99.5805 284.128 85.738 285.999 75.1082 289.479L77.6589 297.185C87.4308 293.986 100.558 292.172 111.438 291.169C116.838 290.671 121.611 290.38 125.032 290.213C126.742 290.129 128.112 290.077 129.051 290.045C129.52 290.03 129.882 290.019 130.124 290.013C130.246 290.01 130.337 290.007 130.397 290.006C130.427 290.005 130.45 290.005 130.464 290.004C130.471 290.004 130.476 290.004 130.479 290.004C130.481 290.004 130.482 290.004 130.482 290.004C130.483 290.004 130.483 290.004 130.483 290.004C130.483 290.004 130.483 290.004 130.323 285.961ZM75.1082 289.479C64.6271 292.911 52.2279 299.558 42.6048 305.223C37.758 308.076 33.5497 310.719 30.5519 312.65C29.0523 313.616 27.8537 314.405 27.0276 314.954C26.6144 315.229 26.2943 315.443 26.076 315.59C25.9669 315.664 25.8832 315.72 25.8261 315.759C25.7976 315.778 25.7757 315.793 25.7606 315.804C25.753 315.809 25.7471 315.813 25.743 315.816C25.7409 315.817 25.7393 315.818 25.738 315.819C25.7374 315.819 25.7368 315.82 25.7365 315.82C25.736 315.82 25.7357 315.82 27.9764 319.198C30.2171 322.576 30.2169 322.576 30.2168 322.576C30.217 322.576 30.217 322.576 30.2173 322.576C30.2178 322.576 30.2187 322.575 30.2201 322.574C30.2228 322.572 30.2272 322.569 30.2333 322.565C30.2455 322.557 30.2645 322.544 30.29 322.527C30.3412 322.492 30.4187 322.44 30.5216 322.37C30.7274 322.232 31.0344 322.026 31.4338 321.76C32.2326 321.23 33.4004 320.461 34.8662 319.517C37.7992 317.628 41.9181 315.04 46.6568 312.251C56.2045 306.63 68.0088 300.345 77.6589 297.185L75.1082 289.479Z" fill="#564842"/>
<path d="M66.533 256.404L67.308 260.42L66.533 256.404ZM13.8807 272.024C11.9544 273.008 11.1928 275.448 12.1795 277.476C13.1662 279.503 15.5277 280.349 17.454 279.365L13.8807 272.024ZM120.71 256.273C121.053 252.218 121.053 252.218 121.052 252.218C121.052 252.218 121.051 252.218 121.05 252.218C121.049 252.217 121.047 252.217 121.044 252.217C121.039 252.216 121.032 252.215 121.023 252.214C121.005 252.212 120.98 252.21 120.946 252.206C120.878 252.198 120.78 252.187 120.652 252.174C120.395 252.146 120.019 252.106 119.536 252.057C118.569 251.959 117.169 251.825 115.426 251.676C111.943 251.378 107.078 251.022 101.549 250.79C90.5688 250.33 76.6695 250.344 65.7579 252.389L67.308 260.42C77.3418 258.54 90.5308 258.487 101.403 258.943C106.799 259.169 111.552 259.517 114.953 259.807C116.653 259.953 118.014 260.084 118.946 260.178C119.412 260.225 119.77 260.263 120.011 260.289C120.131 260.302 120.222 260.312 120.281 260.319C120.311 260.322 120.333 260.324 120.347 260.326C120.355 260.327 120.36 260.327 120.363 260.328C120.364 260.328 120.365 260.328 120.366 260.328C120.366 260.328 120.366 260.328 120.366 260.328C120.366 260.328 120.366 260.328 120.71 256.273ZM65.7579 252.389C54.9978 254.406 41.9659 259.369 31.7924 263.724C26.6686 265.918 22.2003 267.988 19.0117 269.511C17.4166 270.272 16.1398 270.898 15.259 271.334C14.8186 271.552 14.4771 271.723 14.2441 271.841C14.1277 271.899 14.0384 271.944 13.9774 271.975C13.9469 271.991 13.9235 272.003 13.9074 272.011C13.8993 272.015 13.893 272.018 13.8886 272.021C13.8863 272.022 13.8846 272.023 13.8833 272.023C13.8826 272.024 13.882 272.024 13.8817 272.024C13.8811 272.024 13.8807 272.024 15.6674 275.695C17.454 279.365 17.4538 279.365 17.4537 279.365C17.4539 279.365 17.4539 279.365 17.4542 279.365C17.4547 279.365 17.4557 279.364 17.4572 279.364C17.4601 279.362 17.4648 279.36 17.4713 279.356C17.4843 279.35 17.5046 279.34 17.5318 279.326C17.5864 279.298 17.6692 279.256 17.7789 279.201C17.9985 279.09 18.3259 278.926 18.7516 278.716C19.603 278.294 20.8469 277.684 22.4058 276.94C25.5252 275.451 29.8982 273.425 34.9072 271.28C44.9997 266.959 57.4006 262.277 67.308 260.42L65.7579 252.389Z" fill="#564842"/>
<path d="M363.378 381.9L360.147 384.258L363.378 381.9ZM391.928 430.403C392.7 432.473 391.647 434.777 389.578 435.549C387.508 436.32 385.204 435.268 384.432 433.198L391.928 430.403ZM323.616 343.767C326.042 340.587 326.043 340.587 326.043 340.588C326.043 340.588 326.044 340.588 326.045 340.589C326.046 340.59 326.047 340.591 326.049 340.593C326.053 340.596 326.059 340.6 326.066 340.606C326.081 340.617 326.102 340.633 326.129 340.654C326.184 340.695 326.263 340.757 326.367 340.837C326.574 340.996 326.876 341.231 327.264 341.535C328.039 342.142 329.157 343.026 330.537 344.14C333.294 346.367 337.105 349.521 341.325 353.233C349.703 360.605 359.919 370.375 366.609 379.542L360.147 384.258C353.998 375.833 344.334 366.537 336.04 359.24C331.924 355.618 328.202 352.537 325.51 350.363C324.165 349.277 323.079 348.419 322.332 347.834C321.959 347.541 321.67 347.317 321.476 347.168C321.379 347.093 321.306 347.037 321.258 347C321.234 346.981 321.216 346.968 321.205 346.959C321.199 346.954 321.195 346.951 321.192 346.949C321.191 346.948 321.19 346.948 321.19 346.947C321.19 346.947 321.19 346.947 321.189 346.947C321.19 346.947 321.19 346.947 323.616 343.767ZM366.609 379.542C373.206 388.58 379.546 401.38 384.181 411.725C386.515 416.935 388.448 421.595 389.798 424.953C390.473 426.633 391.003 427.989 391.366 428.928C391.547 429.398 391.686 429.763 391.781 430.013C391.828 430.138 391.865 430.234 391.889 430.299C391.902 430.332 391.911 430.357 391.917 430.375C391.921 430.383 391.923 430.39 391.925 430.395C391.926 430.397 391.927 430.399 391.927 430.401C391.927 430.401 391.928 430.402 391.928 430.402C391.928 430.403 391.928 430.403 388.18 431.801C384.432 433.198 384.432 433.198 384.432 433.198C384.432 433.198 384.432 433.198 384.432 433.198C384.432 433.197 384.431 433.196 384.431 433.195C384.43 433.191 384.428 433.186 384.425 433.179C384.42 433.165 384.412 433.143 384.401 433.114C384.379 433.055 384.345 432.967 384.301 432.849C384.211 432.613 384.078 432.263 383.902 431.809C383.552 430.9 383.035 429.579 382.375 427.937C381.054 424.651 379.162 420.09 376.88 414.996C372.281 404.73 366.221 392.58 360.147 384.258L366.609 379.542Z" fill="#564842"/>
<path d="M401.864 361.519L399.149 364.536L401.864 361.519ZM439.227 402.444C440.384 404.291 439.795 406.771 437.913 407.983C436.031 409.195 433.567 408.68 432.411 406.833L439.227 402.444ZM355.418 333.118C357.187 329.479 357.188 329.479 357.188 329.479C357.188 329.479 357.189 329.48 357.19 329.48C357.191 329.481 357.193 329.482 357.195 329.483C357.2 329.485 357.206 329.488 357.214 329.492C357.231 329.499 357.255 329.51 357.285 329.525C357.347 329.553 357.437 329.595 357.554 329.651C357.789 329.761 358.131 329.923 358.571 330.133C359.451 330.554 360.72 331.17 362.292 331.952C365.433 333.515 369.789 335.75 374.653 338.439C384.312 343.777 396.239 351.047 404.579 358.501L399.149 364.536C391.483 357.683 380.188 350.753 370.625 345.467C365.879 342.844 361.624 340.661 358.558 339.135C357.026 338.372 355.792 337.774 354.944 337.369C354.521 337.166 354.194 337.011 353.974 336.908C353.865 336.856 353.782 336.818 353.727 336.792C353.7 336.78 353.68 336.77 353.667 336.764C353.66 336.761 353.656 336.759 353.653 336.758C353.651 336.757 353.65 336.757 353.65 336.756C353.65 336.756 353.65 336.756 353.65 336.756C353.65 336.756 353.65 336.756 355.418 333.118ZM404.579 358.501C412.801 365.851 421.49 376.916 428.03 385.967C431.324 390.526 434.117 394.636 436.088 397.608C437.074 399.094 437.855 400.298 438.391 401.132C438.66 401.55 438.867 401.875 439.008 402.097C439.078 402.208 439.132 402.294 439.169 402.352C439.187 402.381 439.201 402.404 439.211 402.419C439.216 402.427 439.22 402.433 439.222 402.437C439.224 402.439 439.225 402.441 439.225 402.442C439.226 402.443 439.226 402.443 439.226 402.444C439.227 402.444 439.227 402.444 435.819 404.639C432.411 406.833 432.411 406.834 432.411 406.834C432.411 406.834 432.411 406.833 432.411 406.833C432.41 406.833 432.41 406.832 432.409 406.83C432.407 406.828 432.404 406.823 432.4 406.817C432.393 406.804 432.38 406.785 432.364 406.759C432.331 406.706 432.281 406.627 432.215 406.523C432.082 406.313 431.883 406.001 431.624 405.598C431.105 404.791 430.344 403.618 429.381 402.165C427.452 399.258 424.718 395.235 421.498 390.778C415.009 381.798 406.72 371.303 399.149 364.536L404.579 358.501Z" fill="#564842"/>
<path d="M425.707 331.649L423.385 335.016L425.707 331.649ZM467.662 367.089C469.032 368.763 468.75 371.304 467.033 372.765C465.315 374.225 462.813 374.052 461.443 372.379L467.662 367.089ZM376.138 309.784C377.451 305.932 377.452 305.932 377.452 305.932C377.453 305.932 377.453 305.933 377.454 305.933C377.456 305.933 377.457 305.934 377.46 305.935C377.465 305.936 377.471 305.938 377.48 305.941C377.497 305.946 377.522 305.954 377.554 305.964C377.619 305.984 377.714 306.014 377.837 306.053C378.083 306.13 378.443 306.245 378.905 306.394C379.831 306.692 381.166 307.131 382.823 307.694C386.133 308.819 390.731 310.446 395.889 312.453C406.13 316.439 418.855 322.03 428.028 328.283L423.385 335.016C414.95 329.267 402.891 323.925 392.75 319.979C387.716 318.02 383.224 316.43 379.992 315.332C378.377 314.782 377.078 314.356 376.187 314.069C375.741 313.925 375.397 313.816 375.166 313.743C375.051 313.706 374.964 313.679 374.907 313.661C374.878 313.652 374.857 313.646 374.843 313.642C374.836 313.639 374.831 313.638 374.828 313.637C374.827 313.637 374.826 313.636 374.825 313.636C374.825 313.636 374.825 313.636 374.825 313.636C374.825 313.636 374.825 313.636 376.138 309.784ZM428.028 328.283C437.074 334.448 447.018 344.225 454.588 352.298C458.401 356.364 461.662 360.053 463.972 362.728C465.127 364.065 466.045 365.151 466.677 365.904C466.993 366.28 467.237 366.574 467.403 366.775C467.486 366.875 467.55 366.953 467.593 367.005C467.615 367.032 467.632 367.052 467.643 367.066C467.649 367.073 467.653 367.079 467.657 367.082C467.658 367.084 467.659 367.086 467.66 367.087C467.661 367.088 467.661 367.088 467.662 367.088C467.662 367.089 467.662 367.089 464.553 369.734C461.443 372.379 461.443 372.379 461.443 372.379C461.443 372.379 461.443 372.379 461.443 372.378C461.442 372.378 461.442 372.377 461.441 372.376C461.439 372.373 461.435 372.369 461.431 372.364C461.421 372.352 461.407 372.335 461.388 372.311C461.349 372.264 461.29 372.192 461.211 372.098C461.055 371.908 460.821 371.627 460.515 371.263C459.905 370.535 459.01 369.477 457.881 368.17C455.622 365.554 452.43 361.943 448.703 357.968C441.193 349.959 431.714 340.693 423.385 335.016L428.028 328.283Z" fill="#564842"/>
<path d="M389.215 274.731C390.443 270.487 388.011 266.01 383.782 264.73L371.514 261.017C334.511 249.82 295.798 270.846 285.046 307.981L279.559 326.93C278.33 331.174 280.762 335.652 284.991 336.932L297.26 340.644C334.263 351.842 372.976 330.815 383.728 293.68L389.215 274.731Z" fill="#EDEAE4"/>
<path d="M126.206 219.633C126.783 215.253 130.808 212.127 135.195 212.653L147.922 214.177C186.308 218.773 213.327 253.57 208.27 291.897L205.689 311.455C205.111 315.836 201.086 318.961 196.699 318.435L183.972 316.912C145.587 312.315 118.568 277.519 123.625 239.191L126.206 219.633Z" fill="#EDEAE4"/>
<ellipse cx="230.739" cy="373.823" rx="26.2074" ry="20.2307" transform="rotate(11.832 230.739 373.823)" fill="#564842"/>
<path fill-rule="evenodd" clip-rule="evenodd" d="M228.164 383.973C223.035 386.742 217.083 387.787 211.115 386.536C196.949 383.569 188.056 368.793 191.253 353.534C194.45 338.275 208.525 328.31 222.692 331.278C228.659 332.528 233.691 335.874 237.278 340.469C242.407 337.7 248.359 336.655 254.326 337.906C268.493 340.873 277.386 355.649 274.189 370.908C270.992 386.167 256.917 396.132 242.75 393.164C236.782 391.914 231.75 388.568 228.164 383.973Z" fill="#EDEAE4"/>
<path fill-rule="evenodd" clip-rule="evenodd" d="M233.023 367.091C235.703 367.419 238.529 366.675 240.789 364.711L243.047 362.748C249.285 357.326 246.626 347.108 238.537 345.413L234.999 344.672C226.91 342.977 220.374 351.27 223.911 358.739L225.191 361.443C226.473 364.15 228.762 365.965 231.349 366.74L228.767 366.199L226.344 377.763L226.263 377.809C225.338 378.329 224.054 379.012 222.615 379.672C221.165 380.337 219.626 380.946 218.18 381.349C216.684 381.766 215.558 381.885 214.835 381.806L214.535 381.773C206.931 380.942 202.684 380.479 198.663 376.349C195.341 372.936 194.004 371.167 193.613 367.716C193.488 366.619 193.793 364.834 194.336 362.959C194.585 362.098 194.849 361.337 195.05 360.793C195.15 360.522 195.233 360.31 195.288 360.17C195.316 360.1 195.337 360.048 195.35 360.017L195.363 359.986L193.235 354.745C191.2 353.885 188.854 354.837 187.994 356.872L191.678 358.429C187.994 356.872 187.993 356.873 187.993 356.873L187.993 356.875L187.991 356.878L187.988 356.885L187.979 356.907L187.951 356.975C187.928 357.032 187.896 357.11 187.857 357.208C187.779 357.404 187.671 357.68 187.546 358.02C187.295 358.697 186.967 359.645 186.651 360.734C186.064 362.761 185.349 365.845 185.664 368.618C186.37 374.845 189.35 378.251 192.931 381.929C198.995 388.158 205.945 388.9 212.832 389.636L212.836 389.637C213.213 389.677 213.589 389.717 213.965 389.758C216.14 389.996 218.391 389.595 220.329 389.055C222.317 388.501 224.27 387.714 225.949 386.944C226.862 386.526 227.714 386.103 228.472 385.709C229.007 386.374 229.618 387.104 230.286 387.853C231.515 389.233 232.989 390.737 234.587 392.043C236.145 393.315 238.046 394.586 240.133 395.241C240.495 395.355 240.858 395.469 241.22 395.584C247.823 397.674 254.487 399.784 262.541 396.513C267.298 394.581 271.394 392.657 274.54 387.238C275.941 384.824 276.524 381.712 276.8 379.62C276.948 378.496 277.027 377.496 277.07 376.776C277.092 376.414 277.104 376.118 277.111 375.907C277.115 375.802 277.117 375.717 277.118 375.656L277.12 375.582L277.12 375.558L277.12 375.55L277.12 375.547L277.12 375.546C277.12 375.545 277.12 375.544 273.121 375.491L277.12 375.544C277.15 373.335 275.383 371.521 273.174 371.492L269.121 375.439L269.12 375.472C269.12 375.505 269.118 375.561 269.116 375.636C269.111 375.787 269.101 376.015 269.084 376.303C269.05 376.882 268.986 377.685 268.869 378.574C268.613 380.509 268.176 382.266 267.621 383.221C265.878 386.224 263.944 387.309 259.531 389.101C254.19 391.269 250.115 389.99 242.817 387.698L242.529 387.608C241.834 387.39 240.851 386.83 239.648 385.847C238.485 384.897 237.32 383.722 236.259 382.531C235.412 381.581 234.664 380.658 234.072 379.892L236.597 367.839L233.023 367.091Z" fill="#564842"/>
<ellipse cx="233.836" cy="324.96" rx="3.49432" ry="3.76385" transform="rotate(11.832 233.836 324.96)" fill="#564842"/>
<mask id="mask0_132_3282" style="mask-type:alpha" maskUnits="userSpaceOnUse" x="123" y="212" width="86" height="107">
<path d="M126.204 219.633C126.781 215.252 130.806 212.127 135.193 212.653L147.92 214.177C186.306 218.773 213.325 253.569 208.268 291.897L205.687 311.455C205.109 315.836 201.084 318.961 196.698 318.435L183.97 316.911C145.585 312.315 118.566 277.519 123.623 239.191L126.204 219.633Z" fill="#EDEAE4"/>
</mask>
<g mask="url(#mask0_132_3282)">
<ellipse cx="166.613" cy="251.751" rx="34.5064" ry="40.9318" transform="rotate(11.832 166.613 251.751)" fill="#6B7050"/>
</g>
<mask id="mask1_132_3282" style="mask-type:alpha" maskUnits="userSpaceOnUse" x="279" y="258" width="111" height="86">
<path d="M389.215 274.732C390.443 270.488 388.011 266.01 383.782 264.73L371.514 261.018C334.511 249.82 295.798 270.847 285.046 307.982L279.559 326.931C278.33 331.175 280.762 335.652 284.991 336.932L297.26 340.645C334.263 351.842 372.976 330.816 383.728 293.681L389.215 274.732Z" fill="#EDEAE4"/>
</mask>
<g mask="url(#mask1_132_3282)">
<ellipse cx="323.552" cy="286.552" rx="34.5064" ry="40.9318" transform="rotate(11.832 323.552 286.552)" fill="#6B7050"/>
</g>
</svg>
