<svg width="1382" height="290" viewBox="0 0 1382 290" fill="none" xmlns="http://www.w3.org/2000/svg">
<path d="M1397.49 82.5001C1411.09 87.3582 1411.99 116.5 1411.99 116.5L1397.49 356.5L4.49414 322L11.9941 141.5C11.9941 141.5 81.2824 65.025 140.494 60.0001C168.78 57.5996 212.494 70.0001 212.494 70.0001C212.494 70.0001 212.251 33.8099 223.994 15.5001C256.821 -35.6828 342.494 116.5 342.494 116.5C342.494 116.5 332.757 44.659 363.994 37.0001C397.448 28.7976 413.494 110 413.494 110C413.494 110 430.123 34.8549 453.994 50.0001C471.164 60.8939 464.494 101 464.494 101C464.494 101 547.168 -31.763 573.494 15.5001C578.77 24.9714 579.948 31.3781 581.88 41.877L581.994 42.5001C587.626 73.0923 568.494 121 568.494 121L662.994 132.5C662.994 132.5 647.307 68.1334 674.994 55.5001C697.409 45.2725 719.017 56.2449 734.994 75.0001C749.844 92.4322 746.494 132.5 746.494 132.5C746.494 132.5 769.499 71.7131 799.994 75.0001C837.851 79.0806 799.994 172.5 799.994 172.5C799.994 172.5 864.994 70.0001 898.494 85.5001C927.994 103.5 875.994 150.5 875.994 150.5C875.994 150.5 938.994 102 962.494 132.5C970.97 143.5 954.494 159.5 946.994 164C934.189 171.683 920.494 172.5 920.494 172.5L954.494 198L1002.49 164C1002.49 164 984.896 124.419 999.994 108.5C1018.96 88.5076 1063.24 129.06 1074.73 140.249C1066.41 131.697 1042.26 104.815 1043.99 82.5001C1044.85 71.479 1045.61 64.1471 1052.49 55.5001C1068.94 34.8492 1091.92 47.0155 1113.99 61.5001C1157.11 89.7925 1159.48 119.295 1159.52 125.01C1159.78 117.307 1163.18 67.3845 1207.49 72.0001C1240.49 75.4376 1219.49 137.5 1219.49 137.5C1219.49 137.5 1275.28 61.1115 1298.49 84.5001C1310.77 96.8711 1296.99 126 1296.99 126C1296.99 126 1324.3 92.7583 1346.49 96.5001C1353.75 97.724 1363.99 103.5 1363.99 103.5C1363.99 103.5 1382.95 77.3035 1397.49 82.5001Z" fill="#495235" stroke="#495235" stroke-width="8" stroke-linecap="round" stroke-linejoin="round"/>
<path d="M1109.96 332.621C1122.5 326.577 1132.98 305.818 1135.24 301.102C1132.83 306.366 1121.76 332.148 1127.61 349.378C1134.28 369.023 1146.92 381.855 1165.44 384.927C1188.15 388.694 1205.56 372.258 1209.52 348.228C1212.82 328.256 1191.67 297.107 1191.67 297.107C1191.67 297.107 1215.23 319.14 1232.72 321.234C1252.96 323.656 1273.47 321.7 1279.09 301.083C1284.26 282.098 1274.41 263.138 1257.79 252.085C1241.64 241.336 1211.9 254.492 1211.9 254.492C1211.9 254.492 1235.44 232.734 1235.41 212.639C1235.39 193.73 1230.61 176.201 1214.49 167.607C1195.41 157.437 1179.44 172.743 1169.08 190.841C1161.63 203.846 1162.82 230.724 1162.82 230.724C1162.82 230.724 1158.53 199.333 1144.92 189.082C1127.7 176.106 1107.59 180.997 1095.35 196.844C1086.94 207.743 1083.52 218.702 1087.66 233.497C1091.6 247.614 1111.86 261.643 1111.86 261.643C1111.86 261.643 1081.9 264.829 1071.46 279.2C1060.34 294.51 1051.99 314.868 1065.45 330.67C1077.92 345.322 1094.65 339.999 1109.96 332.621Z" fill="#CAB9B1" stroke="#CAB9B1" stroke-width="8" stroke-linecap="round" stroke-linejoin="round"/>
<path d="M526.027 104.963C537.655 106.876 551.088 121.569 554.037 124.939C550.834 121.151 535.734 102.416 536.406 86.5967C537.172 68.5596 544.403 54.7152 558.73 47.5396C576.296 38.7413 594.342 48.1034 603.252 67.1475C610.658 82.9756 600.851 114.208 600.851 114.208C600.851 114.208 614.778 89.974 628.5 83.8699C644.371 76.8096 661.504 73.3299 670.956 89.1161C679.659 103.652 676.137 121.913 665.254 135.265C654.67 148.25 627.386 144.692 627.386 144.692C627.386 144.692 645.145 157.602 648.999 171.374C653.107 186.058 654.273 200.688 644.072 211.241C632.599 223.111 617.564 217.318 606.086 206.547C597.418 198.413 585.962 180.714 585.962 180.714C585.962 180.714 583.743 195.955 578.496 203.138C569.067 216.046 553.542 222.973 542.751 212.657C535.134 205.374 531.428 196.442 532.97 184.746C534.12 176.016 544.382 163.656 544.382 163.656C544.382 163.656 519.277 168.465 507.39 159.086C494.726 149.094 483.121 134.203 490.314 117.679C496.983 102.357 511.837 102.628 526.027 104.963Z" fill="#CAB9B1" stroke="#CAB9B1" stroke-width="8" stroke-linecap="round" stroke-linejoin="round"/>
<path d="M1007.1 129.56C1024.8 125.645 1035.88 126.425 1047.41 140.074C1055.59 149.767 1056.87 159.69 1054.36 166.739C1049.61 180.101 1029.78 191.036 1029.78 191.036C1029.78 191.036 1044.69 190.719 1056.86 196.754C1070.97 203.754 1082.36 213.457 1080.95 229.421C1079.51 245.734 1060.96 254.834 1051.64 251.243C1034.73 244.727 1017.77 233.322 1017.77 233.322C1017.77 233.322 1036.73 250.325 1039.83 266.259C1043.39 284.563 1037.96 297.199 1026.4 304.94C1014.85 312.68 995.09 306.543 982.346 291.475C973.827 281.403 969.1 257.368 969.1 257.368C969.1 257.368 939.962 274.34 928.667 274.804C916.377 275.309 905.427 269.612 897.261 260.695C886.423 248.859 883.959 235.012 894.575 222.429C904.15 211.078 931.056 213.104 931.056 213.104C931.056 213.104 907.131 207.916 897.933 195.774C888.506 183.33 889.507 177.926 894.988 164.785C901.591 148.957 918.333 144.9 934.584 149.184C949.642 153.153 963.9 175.985 963.9 175.985C963.9 175.985 983.172 134.853 1007.1 129.56Z" fill="#EAE7DB" stroke="#EAE7DB" stroke-width="8" stroke-linecap="round" stroke-linejoin="round"/>
<ellipse cx="579.994" cy="136.676" rx="13.3299" ry="15.0878" transform="rotate(-29.2289 579.994 136.676)" fill="#EE9575"/>
<ellipse cx="982.101" cy="211.897" rx="18.1082" ry="14.959" transform="rotate(-29.2289 982.101 211.897)" fill="#FFD2AA"/>
<ellipse cx="1159.49" cy="270.963" rx="16.696" ry="10.0959" transform="rotate(-29.2289 1159.49 270.963)" fill="#EE9575"/>
</svg>
