<svg width="408" height="400" viewBox="0 0 408 400" fill="none" xmlns="http://www.w3.org/2000/svg">
    <g class="flower">
        <path d="M137.601 198.743C137.049 192.68 139.937 182.303 139.937 182.303C139.937 182.303 136.181 189.454 132.266 192.665C128.353 195.875 120.047 198.618 120.047 198.618C120.047 198.618 120.173 190.439 122.312 185.893C124.62 180.989 131.573 174.721 131.573 174.721C131.573 174.721 124.632 179.361 119.78 179.619C114.993 179.873 107.427 176.073 107.427 176.073C107.427 176.073 112.457 170.433 116.557 168.168C120.536 165.97 127.968 164.641 127.968 164.641C127.968 164.641 118.886 165.016 114.076 162.275C108.91 159.332 102.82 149.975 102.82 149.975C102.82 149.975 112.556 149.112 117.598 150.492C120.245 151.216 123.9 153.003 126.363 154.294C123.314 152.526 118.498 149.379 116.45 146.119C113.163 140.887 110.943 130.258 110.943 130.258C110.943 130.258 121.047 133.279 125.975 136.93C128.953 139.137 132.003 143.151 133.794 145.724C132.191 143.16 129.858 138.976 129.162 135.374C128.053 129.628 129.817 119.048 129.817 119.048C129.817 119.048 138.385 125.644 141.577 130.893C143.461 133.991 144.601 138.684 145.17 141.61C144.723 138.577 144.19 133.567 144.838 129.893C145.928 123.717 151.252 114.33 151.252 114.33C151.252 114.33 155.806 123.016 156.585 128.894C157.26 133.982 155.731 141.862 155.328 143.797C155.718 142.048 157.329 135.503 160.365 131.785C164.079 127.236 173.756 121.893 173.756 121.893C173.756 121.893 174.133 131.339 172.296 136.419C170.619 141.058 162.585 148.461 162.585 148.461C162.585 148.461 170.802 141.927 175.594 139.94C180.094 138.074 188.736 136.67 188.736 136.67C188.736 136.67 185.166 144.586 181.225 148.242C177.07 152.096 168.059 155.575 168.059 155.575C168.059 155.575 177.683 152.795 183.623 153.502C189.404 154.19 198.122 160.423 198.122 160.423C198.122 160.423 190.077 163.997 184.632 165.325C179.313 166.623 170.552 165.803 170.552 165.803C170.552 165.803 178.205 166.536 182.852 168.957C187.527 171.392 194.263 178.175 194.263 178.175C194.263 178.175 185.235 180.085 179.738 179.555C174.452 179.044 166.769 175.624 166.769 175.624C166.769 175.624 174.477 180.51 176.513 185.076C178.264 189.002 179.883 197.638 179.883 197.638C179.883 197.638 169.527 195.617 166.184 192.474C162.953 189.438 160.275 181.359 160.118 180.881C160.28 181.379 163.114 190.166 163.171 195.338C163.23 200.756 159.389 209.419 159.389 209.419C159.389 209.419 155.396 202.831 153.387 198.338C151.194 193.433 149.794 184.097 149.794 184.097C149.794 184.097 150.155 194.064 148.459 199.56C146.952 204.441 142.009 210.602 142.009 210.602C142.009 210.602 138.058 203.764 137.601 198.743Z" fill="#FFD2AA"/>
        <path d="M151.252 114.33C151.252 114.33 145.928 123.717 144.838 129.893C143.845 135.52 145.622 144.275 145.622 144.275C145.622 144.275 144.488 135.68 141.577 130.893C138.385 125.644 129.817 119.048 129.817 119.048C129.817 119.048 128.053 129.628 129.162 135.374C130.254 141.031 135.386 148.123 135.386 148.123C135.386 148.123 130.594 140.352 125.975 136.93C121.047 133.279 110.943 130.258 110.943 130.258C110.943 130.258 113.163 140.887 116.45 146.119C119.56 151.068 129.048 155.756 129.048 155.756C129.048 155.756 121.955 151.684 117.598 150.492C112.556 149.112 102.82 149.975 102.82 149.975C102.82 149.975 108.91 159.332 114.076 162.275C118.886 165.016 127.968 164.641 127.968 164.641C127.968 164.641 120.536 165.97 116.557 168.168C112.457 170.433 107.427 176.073 107.427 176.073C107.427 176.073 114.993 179.873 119.78 179.619C124.632 179.361 131.573 174.721 131.573 174.721C131.573 174.721 124.62 180.989 122.312 185.893C120.173 190.439 120.047 198.618 120.047 198.618C120.047 198.618 128.353 195.875 132.266 192.665C136.181 189.454 139.937 182.303 139.937 182.303C139.937 182.303 137.049 192.68 137.601 198.743C138.058 203.764 142.009 210.602 142.009 210.602C142.009 210.602 146.952 204.441 148.459 199.56C150.155 194.064 149.794 184.097 149.794 184.097C149.794 184.097 151.194 193.433 153.387 198.338C155.396 202.831 159.389 209.419 159.389 209.419C159.389 209.419 163.23 200.756 163.171 195.338C163.112 190.014 160.111 180.859 160.111 180.859C160.111 180.859 162.854 189.345 166.184 192.474C169.527 195.617 179.883 197.638 179.883 197.638C179.883 197.638 178.264 189.002 176.513 185.076C174.477 180.51 166.769 175.624 166.769 175.624C166.769 175.624 174.452 179.044 179.738 179.555C185.235 180.085 194.263 178.175 194.263 178.175C194.263 178.175 187.527 171.392 182.852 168.957C178.205 166.536 170.552 165.803 170.552 165.803C170.552 165.803 179.313 166.623 184.632 165.325C190.077 163.997 198.122 160.423 198.122 160.423C198.122 160.423 189.404 154.19 183.623 153.502C177.683 152.795 168.059 155.575 168.059 155.575C168.059 155.575 177.07 152.096 181.225 148.242C185.166 144.586 188.736 136.67 188.736 136.67C188.736 136.67 180.094 138.074 175.594 139.94C170.802 141.927 162.585 148.461 162.585 148.461C162.585 148.461 170.619 141.058 172.296 136.419C174.133 131.339 173.756 121.893 173.756 121.893C173.756 121.893 164.079 127.236 160.365 131.785C156.838 136.104 155.234 144.237 155.234 144.237C155.234 144.237 157.359 134.729 156.585 128.894C155.806 123.016 151.252 114.33 151.252 114.33Z" stroke="#FFD2AA" stroke-width="2" stroke-linejoin="round"/>
        <ellipse cx="148.019" cy="162.281" rx="17.384" ry="16.8232" transform="rotate(-7.58544 148.019 162.281)" fill="#816D61"/>
    </g>
    <g class="flower">
        <path d="M24.1928 200.723C24.4023 195.691 27.9036 187.498 27.9036 187.498C27.9036 187.498 24.0425 192.951 20.4819 195.157C16.9229 197.361 9.81325 198.704 9.81325 198.704C9.81325 198.704 10.81 192.011 13.0602 188.517C15.4879 184.748 21.8735 180.368 21.8735 180.368C21.8735 180.368 15.6753 183.415 11.6687 183.096C7.71593 182.782 1.92771 178.84 1.92771 178.84C1.92771 178.84 6.66802 174.765 10.2771 173.355C13.7793 171.987 20.0181 171.709 20.0181 171.709C20.0181 171.709 12.5302 171.025 8.88554 168.253C4.97129 165.276 1 156.938 1 156.938C1 156.938 9.07648 157.294 13.0602 158.976C15.1513 159.859 17.9537 161.723 19.8318 163.05C17.5251 161.268 13.92 158.162 12.5964 155.265C10.4723 150.616 9.81325 141.659 9.81325 141.659C9.81325 141.659 17.7674 145.239 21.4096 148.771C23.6104 150.905 25.6727 154.529 26.8604 156.835C25.8258 154.557 24.3698 150.872 24.1928 147.843C23.9104 143.01 26.512 134.528 26.512 134.528C26.512 134.528 32.8172 140.872 34.8614 145.524C36.068 148.27 36.49 152.243 36.6375 154.704C36.6016 152.168 36.7117 148.003 37.6446 145.06C39.2123 140.115 44.6024 133 44.6024 133C44.6024 133 47.3882 140.62 47.3855 145.524C47.3833 149.769 45.269 156.064 44.7275 157.607C45.2379 156.215 47.2735 151.024 50.1687 148.307C53.7108 144.983 62.2289 141.659 62.2289 141.659C62.2289 141.659 61.5064 149.445 59.4458 153.41C57.5643 157.03 50.1687 162.223 50.1687 162.223C50.1687 162.223 57.6188 157.762 61.7651 156.657C65.6586 155.618 72.8976 155.41 72.8976 155.41C72.8976 155.41 69.1062 161.511 65.4759 164.078C61.6482 166.785 53.8795 168.653 53.8795 168.653C53.8795 168.653 62.0742 167.425 66.8675 168.653C71.5324 169.848 78 175.911 78 175.911C78 175.911 71.0138 177.963 66.4036 178.458C61.9008 178.94 54.8072 177.312 54.8072 177.312C54.8072 177.312 61.002 178.748 64.5482 181.241C68.1154 183.748 72.8976 190.045 72.8976 190.045C72.8976 190.045 65.2863 190.626 60.8373 189.59C56.5588 188.595 50.6325 184.952 50.6325 184.952C50.6325 184.952 56.4192 189.8 57.5904 193.765C58.5976 197.175 58.9819 204.434 58.9819 204.434C58.9819 204.434 50.7115 201.646 48.3133 198.704C45.9947 195.86 44.6806 188.937 44.6058 188.535C44.683 188.955 46.0486 196.474 45.5301 200.723C44.9873 205.171 40.8916 211.855 40.8916 211.855C40.8916 211.855 38.3373 206.017 37.1807 202.114C35.918 197.853 35.7892 190.045 35.7892 190.045C35.7892 190.045 34.9975 198.257 33.006 202.578C31.2377 206.415 26.512 210.928 26.512 210.928C26.512 210.928 24.0193 204.889 24.1928 200.723Z" fill="#FFD2AA"/>
        <path d="M44.6024 133C44.6024 133 39.2123 140.115 37.6446 145.06C36.2162 149.565 36.7169 156.938 36.7169 156.938C36.7169 156.938 36.7258 149.767 34.8614 145.524C32.8172 140.872 26.512 134.528 26.512 134.528C26.512 134.528 23.9104 143.01 24.1928 147.843C24.4707 152.6 27.9036 158.976 27.9036 158.976C27.9036 158.976 24.8231 152.081 21.4096 148.771C17.7674 145.239 9.81325 141.659 9.81325 141.659C9.81325 141.659 10.4723 150.616 12.5964 155.265C14.6058 159.663 21.8735 164.542 21.8735 164.542C21.8735 164.542 16.5029 160.429 13.0602 158.976C9.07648 157.294 1 156.938 1 156.938C1 156.938 4.97129 165.276 8.88554 168.253C12.5302 171.025 20.0181 171.709 20.0181 171.709C20.0181 171.709 13.7793 171.987 10.2771 173.355C6.66802 174.765 1.92771 178.84 1.92771 178.84C1.92771 178.84 7.71593 182.782 11.6687 183.096C15.6753 183.415 21.8735 180.368 21.8735 180.368C21.8735 180.368 15.4879 184.748 13.0602 188.517C10.81 192.011 9.81325 198.704 9.81325 198.704C9.81325 198.704 16.9229 197.361 20.4819 195.157C24.0425 192.951 27.9036 187.498 27.9036 187.498C27.9036 187.498 24.4023 195.691 24.1928 200.723C24.0193 204.889 26.512 210.928 26.512 210.928C26.512 210.928 31.2377 206.415 33.006 202.578C34.9975 198.257 35.7892 190.045 35.7892 190.045C35.7892 190.045 35.918 197.853 37.1807 202.114C38.3373 206.017 40.8916 211.855 40.8916 211.855C40.8916 211.855 44.9873 205.171 45.5301 200.723C46.0636 196.351 44.6024 188.517 44.6024 188.517C44.6024 188.517 45.925 195.774 48.3133 198.704C50.7115 201.646 58.9819 204.434 58.9819 204.434C58.9819 204.434 58.5976 197.176 57.5904 193.765C56.4192 189.8 50.6325 184.952 50.6325 184.952C50.6325 184.952 56.5588 188.595 60.8373 189.59C65.2863 190.626 72.8976 190.045 72.8976 190.045C72.8976 190.045 68.1154 183.748 64.5482 181.241C61.002 178.748 54.8072 177.312 54.8072 177.312C54.8072 177.312 61.9008 178.94 66.4036 178.458C71.0138 177.963 78 175.911 78 175.911C78 175.911 71.5324 169.848 66.8675 168.653C62.0743 167.425 53.8795 168.653 53.8795 168.653C53.8795 168.653 61.6482 166.785 65.4759 164.078C69.1062 161.511 72.8976 155.41 72.8976 155.41C72.8976 155.41 65.6586 155.618 61.7651 156.657C57.6188 157.762 50.1687 162.223 50.1687 162.223C50.1687 162.223 57.5643 157.03 59.4458 153.41C61.5064 149.445 62.2289 141.659 62.2289 141.659C62.2289 141.659 53.7108 144.983 50.1687 148.307C46.8057 151.463 44.6024 157.957 44.6024 157.957C44.6024 157.957 47.3829 150.393 47.3855 145.524C47.3882 140.62 44.6024 133 44.6024 133Z" stroke="#FFD2AA" stroke-width="2" stroke-linejoin="round"/>
        <ellipse cx="36.7155" cy="171.964" rx="14.3795" ry="13.9157" fill="#816D61"/>
    </g>
    <g class="flower">
        <path d="M128.182 349.459C127.981 344.296 130.886 335.629 130.886 335.629C130.886 335.629 127.387 341.524 123.928 344.073C120.47 346.62 113.31 348.58 113.31 348.58C113.31 348.58 113.777 341.654 115.79 337.895C117.962 333.84 124.131 328.834 124.131 328.834C124.131 328.834 118.043 332.462 113.92 332.466C109.852 332.471 103.607 328.917 103.607 328.917C103.607 328.917 108.119 324.359 111.693 322.62C115.162 320.932 121.519 320.132 121.519 320.132C121.519 320.132 113.805 320.051 109.849 317.516C105.601 314.794 100.852 306.596 100.852 306.596C100.852 306.596 109.14 306.293 113.353 307.685C115.564 308.415 118.584 310.09 120.614 311.293C118.108 309.66 114.165 306.781 112.573 303.928C110.017 299.349 108.604 290.243 108.604 290.243C108.604 290.243 117.034 293.248 121.05 296.56C123.477 298.561 125.885 302.097 127.289 304.357C126.043 302.113 124.25 298.465 123.82 295.382C123.132 290.463 125.093 281.573 125.093 281.573C125.093 281.573 132.064 287.541 134.539 292.13C135.999 294.838 136.758 298.866 137.112 301.371C136.866 298.781 136.635 294.512 137.346 291.426C138.542 286.24 143.467 278.518 143.467 278.518C143.467 278.518 146.944 286.081 147.346 291.097C147.694 295.438 146.051 302.05 145.625 303.672C146.032 302.207 147.686 296.731 150.422 293.713C153.77 290.022 162.207 285.919 162.207 285.919C162.207 285.919 162.111 293.941 160.33 298.166C158.705 302.023 151.57 307.944 151.57 307.944C151.57 307.944 158.821 302.768 162.97 301.295C166.866 299.912 174.252 299.103 174.252 299.103C174.252 299.103 170.878 305.654 167.377 308.579C163.686 311.662 155.895 314.214 155.895 314.214C155.895 314.214 164.174 312.282 169.178 313.143C174.047 313.98 181.161 319.647 181.161 319.647C181.161 319.647 174.186 322.322 169.512 323.208C164.947 324.073 157.558 322.992 157.558 322.992C157.558 322.992 164.012 323.95 167.844 326.207C171.699 328.477 177.109 334.522 177.109 334.522C177.109 334.522 169.373 335.743 164.738 335.051C160.28 334.386 153.919 331.15 153.919 331.15C153.919 331.15 160.237 335.63 161.762 339.589C163.073 342.993 164.065 350.384 164.065 350.384C164.065 350.384 155.377 348.215 152.682 345.404C150.076 342.687 148.161 335.717 148.052 335.312C148.165 335.734 150.182 343.311 150.002 347.699C149.814 352.293 146.177 359.466 146.177 359.466C146.177 359.466 143.083 353.707 141.579 349.811C139.936 345.557 139.16 337.583 139.16 337.583C139.16 337.583 139.028 346.046 137.348 350.629C135.856 354.699 131.395 359.704 131.395 359.704C131.395 359.704 128.348 353.734 128.182 349.459Z" fill="#FFD2AA"/>
        <path d="M143.467 278.518C143.467 278.518 138.542 286.24 137.346 291.426C136.257 296.151 137.378 303.65 137.378 303.65C137.378 303.65 136.795 296.315 134.539 292.13C132.064 287.541 125.093 281.573 125.093 281.573C125.093 281.573 123.132 290.463 123.82 295.382C124.496 300.224 128.533 306.46 128.533 306.46C128.533 306.46 124.814 299.664 121.05 296.56C117.034 293.248 108.604 290.243 108.604 290.243C108.604 290.243 110.017 299.349 112.573 303.928C114.99 308.26 122.825 312.65 122.825 312.65C122.825 312.65 116.994 308.887 113.353 307.685C109.14 306.293 100.852 306.596 100.852 306.596C100.852 306.596 105.601 314.794 109.849 317.516C113.805 320.051 121.519 320.132 121.519 320.132C121.519 320.132 115.162 320.932 111.693 322.62C108.119 324.359 103.607 328.917 103.607 328.917C103.607 328.917 109.852 332.471 113.92 332.466C118.043 332.462 124.131 328.834 124.131 328.834C124.131 328.834 117.962 333.84 115.79 337.895C113.777 341.654 113.31 348.58 113.31 348.58C113.31 348.58 120.47 346.62 123.928 344.073C127.387 341.524 130.886 335.629 130.886 335.629C130.886 335.629 127.981 344.296 128.182 349.459C128.348 353.734 131.395 359.704 131.395 359.704C131.395 359.704 135.856 354.699 137.348 350.629C139.028 346.046 139.16 337.583 139.16 337.583C139.16 337.583 139.936 345.557 141.579 349.811C143.083 353.707 146.177 359.466 146.177 359.466C146.177 359.466 149.814 352.293 150.002 347.699C150.187 343.184 148.047 335.293 148.047 335.293C148.047 335.293 149.998 342.605 152.682 345.404C155.377 348.215 164.065 350.384 164.065 350.384C164.065 350.384 163.073 342.993 161.762 339.589C160.237 335.63 153.919 331.15 153.919 331.15C153.919 331.15 160.28 334.386 164.738 335.051C169.373 335.743 177.109 334.522 177.109 334.522C177.109 334.522 171.699 328.477 167.844 326.207C164.012 323.95 157.558 322.992 157.558 322.992C157.558 322.992 164.947 324.073 169.512 323.208C174.186 322.322 181.161 319.647 181.161 319.647C181.161 319.647 174.047 313.98 169.178 313.143C164.174 312.282 155.895 314.214 155.895 314.214C155.895 314.214 163.686 311.662 167.377 308.579C170.878 305.654 174.252 299.103 174.252 299.103C174.252 299.103 166.866 299.912 162.97 301.295C158.821 302.768 151.57 307.944 151.57 307.944C151.57 307.944 158.705 302.023 160.33 298.166C162.111 293.941 162.207 285.919 162.207 285.919C162.207 285.919 153.77 290.022 150.422 293.713C147.243 297.218 145.526 304.041 145.526 304.041C145.526 304.041 147.745 296.076 147.346 291.097C146.944 286.081 143.467 278.518 143.467 278.518Z" stroke="#FFD2AA" stroke-width="2" stroke-linejoin="round"/>
        <ellipse cx="138.619" cy="319.015" rx="14.753" ry="14.2771" transform="rotate(-4.61171 138.619 319.015)" fill="#816D61"/>
    </g>
    <g class="flower">
        <path d="M219.22 189.167C220.957 185.138 226.358 179.561 226.358 179.561C226.358 179.561 221.518 182.796 217.933 183.482C214.351 184.167 208.146 183.046 208.146 183.046C208.146 183.046 211.042 177.91 213.961 175.767C217.111 173.456 223.671 171.88 223.671 171.88C223.671 171.88 217.678 172.429 214.517 170.922C211.398 169.436 207.915 164.425 207.915 164.425C207.915 164.425 213.042 162.585 216.418 162.562C219.694 162.539 224.858 164.255 224.858 164.255C224.858 164.255 218.977 161.367 216.874 157.976C214.616 154.334 213.981 146.312 213.981 146.312C213.981 146.312 220.443 149.117 223.161 151.726C224.588 153.096 226.288 155.485 227.403 157.151C226.081 154.982 224.114 151.331 223.939 148.562C223.658 144.117 225.911 136.622 225.911 136.622C225.911 136.622 231.27 142.013 233.134 146.021C234.26 148.444 234.81 152.035 235.058 154.281C234.926 152.106 234.888 148.653 235.688 146.133C236.963 142.112 241.722 136.019 241.722 136.019C241.722 136.019 244.878 143.145 245.092 147.568C245.219 150.179 244.325 153.543 243.679 155.592C244.439 153.517 245.826 150.161 247.502 148.057C250.317 144.521 256.92 140.409 256.92 140.409C256.92 140.409 256.814 147.478 255.285 151.468C253.961 154.923 250.28 159.387 249.359 160.474C250.208 159.5 253.481 155.909 256.683 154.6C260.601 152.998 268.568 152.945 268.568 152.945C268.568 152.945 265.556 159.057 262.644 161.642C259.985 164.002 252.349 165.925 252.349 165.925C252.349 165.925 259.801 164.615 263.52 165.006C267.012 165.374 272.968 167.459 272.968 167.459C272.968 167.459 267.983 171.243 264.229 172.202C260.271 173.212 253.367 172.314 253.367 172.314C253.367 172.314 260.418 173.866 263.937 176.358C267.361 178.784 270.736 185.732 270.736 185.732C270.736 185.732 264.411 185.226 260.506 184.193C256.691 183.184 251.425 179.649 251.425 179.649C251.425 179.649 256.019 182.747 258.129 185.88C260.251 189.032 262.182 195.645 262.182 195.645C262.182 195.645 255.807 193.747 252.509 191.519C249.337 189.377 245.649 184.566 245.649 184.566C245.649 184.566 248.848 190.314 248.566 193.906C248.324 196.995 246.376 203.021 246.376 203.021C246.376 203.021 240.514 198.177 239.478 195.036C238.478 192.002 239.562 185.966 239.628 185.607C239.558 185.982 238.329 192.518 236.585 195.812C234.758 199.263 229.343 203.428 229.343 203.428C229.343 203.428 229.082 197.881 229.356 194.345C229.656 190.484 231.983 184.089 231.983 184.089C231.983 184.089 228.781 190.525 225.815 193.422C223.18 195.994 217.929 198.195 217.929 198.195C217.929 198.195 217.781 192.504 219.22 189.167Z" fill="#FFD2AA"/>
        <path d="M256.92 140.409C256.92 140.409 250.317 144.521 247.502 148.057C244.936 151.279 243.048 157.435 243.048 157.435C243.048 157.435 245.288 151.602 245.092 147.568C244.878 143.145 241.722 136.019 241.722 136.019C241.722 136.019 236.963 142.112 235.688 146.133C234.432 150.091 235.241 156.349 235.241 156.349C235.241 156.349 234.881 149.778 233.134 146.021C231.27 142.013 225.911 136.622 225.911 136.622C225.911 136.622 223.658 144.117 223.939 148.562C224.205 152.766 228.6 159.001 228.6 159.001C228.6 159.001 225.51 153.981 223.161 151.726C220.443 149.117 213.981 146.312 213.981 146.312C213.981 146.312 214.616 154.334 216.874 157.976C218.977 161.367 224.858 164.255 224.858 164.255C224.858 164.255 219.694 162.539 216.418 162.562C213.042 162.585 207.915 164.425 207.915 164.425C207.915 164.425 211.398 169.436 214.517 170.922C217.678 172.429 223.671 171.88 223.671 171.88C223.671 171.88 217.111 173.456 213.961 175.767C211.042 177.91 208.146 183.046 208.146 183.046C208.146 183.046 214.351 184.167 217.933 183.482C221.518 182.796 226.358 179.561 226.358 179.561C226.358 179.561 220.957 185.138 219.22 189.167C217.781 192.504 217.929 198.195 217.929 198.195C217.929 198.195 223.18 195.994 225.815 193.422C228.781 190.525 231.983 184.089 231.983 184.089C231.983 184.089 229.656 190.484 229.356 194.345C229.082 197.881 229.343 203.428 229.343 203.428C229.343 203.428 234.758 199.263 236.585 195.812C238.38 192.42 239.631 185.59 239.631 185.59C239.631 185.59 238.447 191.908 239.478 195.036C240.514 198.177 246.376 203.021 246.376 203.021C246.376 203.021 248.324 196.995 248.566 193.906C248.848 190.314 245.649 184.566 245.649 184.566C245.649 184.566 249.337 189.377 252.509 191.519C255.807 193.747 262.182 195.645 262.182 195.645C262.182 195.645 260.251 189.032 258.129 185.88C256.019 182.747 251.425 179.649 251.425 179.649C251.425 179.649 256.691 183.184 260.506 184.193C264.411 185.226 270.736 185.732 270.736 185.732C270.736 185.732 267.361 178.784 263.937 176.358C260.418 173.866 253.367 172.314 253.367 172.314C253.367 172.314 260.271 173.212 264.229 172.202C267.983 171.243 272.968 167.459 272.968 167.459C272.968 167.459 267.012 165.374 263.52 165.006C259.801 164.615 252.349 165.925 252.349 165.925C252.349 165.925 259.985 164.002 262.644 161.642C265.556 159.057 268.568 152.945 268.568 152.945C268.568 152.945 260.601 152.998 256.683 154.6C252.963 156.121 249.148 160.72 249.148 160.72C249.148 160.72 253.766 155.43 255.285 151.468C256.814 147.478 256.92 140.409 256.92 140.409Z" stroke="#FFD2AA" stroke-width="2" stroke-linejoin="round"/>
        <ellipse cx="238.369" cy="169.663" rx="12.5299" ry="12.1257" transform="rotate(20.9401 238.369 169.663)" fill="#816D61"/>
    </g>
    <g class="flower">
        <path d="M186.895 366.356C189.431 362.775 195.872 358.44 195.872 358.44C195.872 358.44 190.465 360.6 186.817 360.527C183.17 360.454 177.333 358.07 177.333 358.07C177.333 358.07 181.232 353.646 184.532 352.156C188.093 350.548 194.838 350.368 194.838 350.368C194.838 350.368 188.861 349.662 186.081 347.532C183.339 345.43 180.972 339.806 180.972 339.806C180.972 339.806 186.369 339.07 189.676 339.748C192.885 340.406 197.581 343.156 197.581 343.156C197.581 343.156 192.427 339.11 191.074 335.357C189.621 331.325 190.664 323.346 190.664 323.346C190.664 323.346 196.404 327.431 198.521 330.548C199.633 332.184 200.8 334.874 201.545 336.734C200.702 334.338 199.535 330.359 199.939 327.614C200.587 323.207 204.346 316.343 204.346 316.343C204.346 316.343 208.469 322.729 209.461 327.037C210.06 329.64 209.852 333.268 209.629 335.517C209.951 333.361 210.631 329.976 211.936 327.676C214.018 324.007 219.938 319.035 219.938 319.035C219.938 319.035 221.546 326.661 220.838 331.032C220.42 333.612 218.847 336.717 217.79 338.588C218.965 336.716 221.018 333.721 223.093 332.01C226.581 329.136 233.894 326.484 233.894 326.484C233.894 326.484 232.323 333.376 229.999 336.962C227.987 340.067 223.459 343.67 222.333 344.542C223.365 343.765 227.312 340.932 230.717 340.316C234.882 339.562 242.687 341.164 242.687 341.164C242.687 341.164 238.471 346.517 235.086 348.441C231.996 350.198 224.127 350.495 224.127 350.495C224.127 350.495 231.689 350.76 235.245 351.915C238.585 352.999 243.978 356.275 243.978 356.275C243.978 356.275 238.316 358.942 234.445 359.101C230.364 359.268 223.796 356.956 223.796 356.956C223.796 356.956 230.372 359.938 233.297 363.106C236.143 366.189 238.003 373.687 238.003 373.687C238.003 373.687 231.921 371.88 228.314 370.058C224.792 368.279 220.375 363.729 220.375 363.729C220.375 363.729 224.226 367.713 225.639 371.215C227.061 374.739 227.578 381.609 227.578 381.609C227.578 381.609 221.735 378.429 218.971 375.565C216.313 372.811 213.703 367.34 213.703 367.34C213.703 367.34 215.64 373.626 214.619 377.081C213.741 380.053 210.585 385.544 210.585 385.544C210.585 385.544 205.856 379.588 205.495 376.301C205.146 373.125 207.458 367.446 207.598 367.108C207.452 367.46 204.892 373.6 202.503 376.46C199.999 379.457 193.838 382.406 193.838 382.406C193.838 382.406 194.734 376.927 195.737 373.524C196.831 369.809 200.434 364.037 200.434 364.037C200.434 364.037 195.966 369.668 192.463 371.886C189.353 373.856 183.759 374.919 183.759 374.919C183.759 374.919 184.795 369.321 186.895 366.356Z" fill="#FFD2AA"/>
        <path d="M233.894 326.484C233.894 326.484 226.581 329.136 223.093 332.01C219.915 334.629 216.79 340.26 216.79 340.26C216.79 340.26 220.192 335.018 220.838 331.032C221.546 326.661 219.938 319.035 219.938 319.035C219.938 319.035 214.018 324.007 211.936 327.676C209.886 331.287 209.378 337.576 209.378 337.576C209.378 337.576 210.39 331.075 209.461 327.037C208.469 322.729 204.346 316.343 204.346 316.343C204.346 316.343 200.587 323.207 199.939 327.614C199.326 331.782 202.332 338.793 202.332 338.793C202.332 338.793 200.351 333.241 198.521 330.548C196.404 327.431 190.664 323.346 190.664 323.346C190.664 323.346 189.621 331.325 191.074 335.357C192.427 339.11 197.581 343.156 197.581 343.156C197.581 343.156 192.885 340.406 189.676 339.748C186.369 339.07 180.972 339.806 180.972 339.806C180.972 339.806 183.339 345.43 186.081 347.532C188.861 349.662 194.838 350.368 194.838 350.368C194.838 350.368 188.093 350.548 184.532 352.156C181.232 353.646 177.333 358.07 177.333 358.07C177.333 358.07 183.17 360.454 186.817 360.527C190.465 360.6 195.872 358.44 195.872 358.44C195.872 358.44 189.431 362.775 186.895 366.356C184.795 369.321 183.759 374.919 183.759 374.919C183.759 374.919 189.353 373.856 192.463 371.886C195.966 369.668 200.434 364.037 200.434 364.037C200.434 364.037 196.831 369.809 195.737 373.524C194.734 376.927 193.838 382.406 193.838 382.406C193.838 382.406 199.999 379.457 202.503 376.46C204.963 373.515 207.604 367.092 207.604 367.092C207.604 367.092 205.135 373.027 205.495 376.301C205.856 379.588 210.585 385.544 210.585 385.544C210.585 385.544 213.741 380.053 214.619 377.081C215.64 373.626 213.703 367.34 213.703 367.34C213.703 367.34 216.313 372.811 218.971 375.565C221.735 378.429 227.578 381.609 227.578 381.609C227.578 381.609 227.061 374.739 225.639 371.215C224.226 367.713 220.375 363.729 220.375 363.729C220.375 363.729 224.792 368.279 228.314 370.058C231.921 371.88 238.003 373.687 238.003 373.687C238.003 373.687 236.143 366.189 233.297 363.106C230.372 359.938 223.796 356.956 223.796 356.956C223.796 356.956 230.364 359.268 234.445 359.101C238.316 358.942 243.978 356.275 243.978 356.275C243.978 356.275 238.585 352.999 235.245 351.915C231.689 350.76 224.127 350.495 224.127 350.495C224.127 350.495 231.996 350.198 235.086 348.441C238.471 346.517 242.687 341.164 242.687 341.164C242.687 341.164 234.882 339.562 230.717 340.316C226.762 341.032 222.075 344.739 222.075 344.739C222.075 344.739 227.691 340.523 229.999 336.962C232.323 333.376 233.894 326.484 233.894 326.484Z" stroke="#FFD2AA" stroke-width="2" stroke-linejoin="round"/>
        <ellipse cx="209.675" cy="351.25" rx="12.5299" ry="12.1257" transform="rotate(32.9184 209.675 351.25)" fill="#816D61"/>
    </g>
    <g class="flower">
        <path d="M151.158 93.9156C153.896 90.4867 160.576 86.5303 160.576 86.5303C160.576 86.5303 155.054 88.3753 151.416 88.092C147.779 87.8089 142.09 85.092 142.09 85.092C142.09 85.092 146.237 80.9005 149.617 79.6032C153.265 78.2037 160.009 78.4128 160.009 78.4128C160.009 78.4128 154.083 77.3631 151.431 75.0761C148.814 72.8199 146.775 67.0682 146.775 67.0682C146.775 67.0682 152.205 66.6447 155.468 67.5122C158.634 68.354 163.163 71.3708 163.163 71.3708C163.163 71.3708 158.252 67.0344 157.117 63.2089C155.899 59.1004 157.4 51.195 157.4 51.195C157.4 51.195 162.895 55.6035 164.829 58.8372C165.844 60.5345 166.854 63.2878 167.491 65.188C166.787 62.7472 165.852 58.7077 166.414 55.9898C167.314 51.6281 171.463 44.992 171.463 44.992C171.463 44.992 175.211 51.6046 175.953 55.9629C176.401 58.5964 175.984 62.2059 175.632 64.4382C176.078 62.3044 176.952 58.9643 178.387 56.7439C180.677 53.2012 186.873 48.5781 186.873 48.5781C186.873 48.5781 188.039 56.284 187.081 60.6071C186.515 63.1587 184.766 66.1685 183.602 67.9747C184.883 66.1736 187.105 63.3021 189.276 61.7141C192.924 59.0454 200.377 56.819 200.377 56.819C200.377 56.819 198.412 63.6098 195.884 67.056C193.697 70.0391 188.969 73.3753 187.794 74.1808C188.87 73.4653 192.974 70.8646 196.408 70.4455C200.609 69.9327 208.309 71.9819 208.309 71.9819C208.309 71.9819 203.792 77.0832 200.302 78.8092C197.115 80.3851 189.242 80.2275 189.242 80.2275C189.242 80.2275 196.776 80.9281 200.26 82.2859C203.532 83.5609 208.727 87.1423 208.727 87.1423C208.727 87.1423 202.921 89.4786 199.047 89.4137C194.963 89.3454 188.54 86.6585 188.54 86.6585C188.54 86.6585 194.933 90.0148 197.67 93.3462C200.333 96.5885 201.758 104.181 201.758 104.181C201.758 104.181 195.79 102.026 192.295 99.9995C188.881 98.0203 184.733 93.2228 184.733 93.2228C184.733 93.2228 188.348 97.4224 189.558 101.001C190.774 104.6 190.893 111.489 190.893 111.489C190.893 111.489 185.244 107.978 182.65 104.959C180.155 102.056 177.865 96.4437 177.865 96.4437C177.865 96.4437 179.436 102.831 178.218 106.222C177.17 109.138 173.702 114.438 173.702 114.438C173.702 114.438 169.324 108.219 169.153 104.916C168.988 101.726 171.624 96.1897 171.783 95.8603C171.617 96.2034 168.708 102.185 166.157 104.903C163.485 107.75 157.164 110.34 157.164 110.34C157.164 110.34 158.375 104.921 159.571 101.582C160.878 97.936 164.808 92.3809 164.808 92.3809C164.808 92.3809 160.023 97.7457 156.398 99.758C153.179 101.545 147.534 102.283 147.534 102.283C147.534 102.283 148.891 96.7553 151.158 93.9156Z" fill="#FFD2AA"/>
        <path d="M200.377 56.819C200.377 56.819 192.924 59.0454 189.276 61.7141C185.952 64.1456 182.507 69.5863 182.507 69.5863C182.507 69.5863 186.206 64.5496 187.081 60.6071C188.039 56.284 186.873 48.5781 186.873 48.5781C186.873 48.5781 180.677 53.2012 178.387 56.7439C176.133 60.231 175.263 66.4803 175.263 66.4803C175.263 66.4803 176.648 60.0475 175.953 55.9629C175.211 51.6046 171.463 44.992 171.463 44.992C171.463 44.992 167.314 51.6281 166.414 55.9898C165.562 60.1159 168.158 67.2881 168.158 67.2881C168.158 67.2881 166.5 61.6316 164.829 58.8372C162.895 55.6035 157.4 51.195 157.4 51.195C157.4 51.195 155.899 59.1004 157.117 63.2089C158.252 67.0344 163.163 71.3708 163.163 71.3708C163.163 71.3708 158.634 68.354 155.468 67.5122C152.205 66.6447 146.775 67.0682 146.775 67.0682C146.775 67.0682 148.814 72.8199 151.431 75.0761C154.083 77.3631 160.009 78.4128 160.009 78.4128C160.009 78.4128 153.265 78.2037 149.617 79.6032C146.237 80.9005 142.09 85.092 142.09 85.092C142.09 85.092 147.779 87.8089 151.416 88.092C155.054 88.3753 160.576 86.5303 160.576 86.5303C160.576 86.5303 153.896 90.4867 151.158 93.9156C148.891 96.7553 147.534 102.283 147.534 102.283C147.534 102.283 153.179 101.545 156.398 99.758C160.023 97.7457 164.808 92.3809 164.808 92.3809C164.808 92.3809 160.878 97.936 159.571 101.582C158.375 104.921 157.164 110.34 157.164 110.34C157.164 110.34 163.485 107.75 166.157 104.903C168.783 102.104 171.79 95.8449 171.79 95.8449C171.79 95.8449 168.983 101.627 169.153 104.916C169.324 108.219 173.702 114.438 173.702 114.438C173.702 114.438 177.17 109.138 178.218 106.222C179.436 102.831 177.865 96.4437 177.865 96.4437C177.865 96.4437 180.155 102.056 182.65 104.959C185.244 107.978 190.893 111.489 190.893 111.489C190.893 111.489 190.774 104.6 189.558 101.001C188.348 97.4224 184.733 93.2228 184.733 93.2228C184.733 93.2228 188.881 98.0203 192.295 99.9995C195.79 102.026 201.758 104.181 201.758 104.181C201.758 104.181 200.333 96.5885 197.67 93.3462C194.933 90.0148 188.54 86.6585 188.54 86.6585C188.54 86.6585 194.963 89.3454 199.047 89.4137C202.921 89.4786 208.727 87.1423 208.727 87.1423C208.727 87.1423 203.532 83.5609 200.26 82.2859C196.776 80.9281 189.242 80.2275 189.242 80.2275C189.242 80.2275 197.115 80.3851 200.302 78.8092C203.792 77.0832 208.309 71.9819 208.309 71.9819C208.309 71.9819 200.609 69.9327 196.408 70.4455C192.419 70.9323 187.526 74.3628 187.526 74.3628C187.526 74.3628 193.375 70.4772 195.884 67.056C198.412 63.6098 200.377 56.819 200.377 56.819Z" stroke="#FFD2AA" stroke-width="2" stroke-linejoin="round"/>
        <ellipse cx="174.771" cy="80.1482" rx="12.5299" ry="12.1257" transform="rotate(36.2232 174.771 80.1482)" fill="#816D61"/>
    </g>
    <g class="flower">
        <path d="M59.5197 120.47C58.7407 112.882 62.2098 99.8386 62.2098 99.8386C62.2098 99.8386 57.606 108.852 52.7473 112.932C47.8906 117.009 37.5239 120.567 37.5239 120.567C37.5239 120.567 37.5641 110.317 40.1785 104.59C42.999 98.4125 51.6206 90.4587 51.6206 90.4587C51.6206 90.4587 42.9905 96.3732 36.9147 96.7662C30.9206 97.154 21.3867 92.5012 21.3867 92.5012C21.3867 92.5012 27.6079 85.3626 32.7123 82.4653C37.6654 79.6538 46.9579 77.8811 46.9579 77.8811C46.9579 77.8811 35.5838 78.4826 29.5176 75.1183C23.0027 71.5052 15.2378 59.8693 15.2378 59.8693C15.2378 59.8693 27.4229 58.6474 33.7607 60.3035C37.0873 61.1728 41.6935 63.3583 44.7974 64.9404C40.9521 62.7692 34.8727 58.8964 32.2591 54.8411C28.0647 48.3332 25.1307 35.0475 25.1307 35.0475C25.1307 35.0475 37.8331 38.6871 44.0607 43.1909C47.8236 45.9122 51.7028 50.8973 53.9841 54.096C51.9384 50.9062 48.9549 45.698 48.0315 41.1955C46.5582 34.0116 48.6157 20.7297 48.6157 20.7297C48.6157 20.7297 59.4463 28.8701 63.5217 35.4007C65.9271 39.2553 67.4228 45.1193 68.1787 48.7772C67.574 44.9832 66.834 38.7145 67.5933 34.1007C68.8693 26.3472 75.4041 14.5089 75.4041 14.5089C75.4041 14.5089 81.2358 25.3268 82.2973 32.6798C83.2162 39.0449 81.4141 48.9409 80.9375 51.371C81.4003 49.1737 83.3243 40.9497 87.0743 36.2476C91.6624 30.4946 103.71 23.6601 103.71 23.6601C103.71 23.6601 104.319 35.4899 102.091 41.8814C100.056 47.7174 90.0975 57.1093 90.0975 57.1093C90.0975 57.1093 100.297 48.8037 106.273 46.2453C111.885 43.8428 122.692 41.9587 122.692 41.9587C122.692 41.9587 118.333 51.9284 113.449 56.5654C108.298 61.4545 97.0577 65.9432 97.0577 65.9432C97.0577 65.9432 109.076 62.3218 116.529 63.1216C123.782 63.8999 134.795 71.5839 134.795 71.5839C134.795 71.5839 124.767 76.1784 117.963 77.921C111.318 79.6231 100.33 78.7223 100.33 78.7223C100.33 78.7223 109.929 79.5302 115.786 82.4965C121.679 85.4803 130.216 93.8814 130.216 93.8814C130.216 93.8814 118.932 96.4053 112.037 95.8198C105.407 95.2566 95.7308 91.0828 95.7308 91.0828C95.7308 91.0828 105.459 97.0933 108.076 102.784C110.327 107.678 112.48 118.475 112.48 118.475C112.48 118.475 99.4761 116.092 95.2415 112.203C91.1499 108.445 87.6774 98.3616 87.4746 97.7655C87.6847 98.3871 91.362 109.355 91.5078 115.835C91.6605 122.621 86.9724 133.532 86.9724 133.532C86.9724 133.532 81.8749 125.335 79.293 119.735C76.4742 113.621 74.5848 101.943 74.5848 101.943C74.5848 101.943 75.182 114.426 73.1353 121.337C71.3179 127.474 65.2137 135.265 65.2137 135.265C65.2137 135.265 60.1648 126.755 59.5197 120.47Z" fill="#FFD2AA"/>
        <path d="M75.4041 14.5089C75.4041 14.5089 68.8693 26.3472 67.5933 34.1007C66.4307 41.1653 68.7831 52.1097 68.7831 52.1097C68.7831 52.1097 67.2384 41.3566 63.5217 35.4007C59.4463 28.8701 48.6157 20.7297 48.6157 20.7297C48.6157 20.7297 46.5582 34.0116 48.0315 41.1955C49.4817 48.2668 56.0132 57.0787 56.0132 57.0787C56.0132 57.0787 49.8972 47.4118 44.0607 43.1909C37.8331 38.6871 25.1307 35.0475 25.1307 35.0475C25.1307 35.0475 28.0647 48.3332 32.2591 54.8411C36.2269 60.9976 48.1824 66.7335 48.1824 66.7335C48.1824 66.7335 39.2376 61.7347 33.7607 60.3035C27.4229 58.6474 15.2378 59.8693 15.2378 59.8693C15.2378 59.8693 23.0027 71.5052 29.5176 75.1183C35.5838 78.4826 46.9579 77.8811 46.9579 77.8811C46.9579 77.8811 37.6654 79.6538 32.7123 82.4653C27.6079 85.3626 21.3867 92.5012 21.3867 92.5012C21.3867 92.5012 30.9206 97.154 36.9147 96.7662C42.9905 96.3732 51.6206 90.4587 51.6206 90.4587C51.6206 90.4587 42.999 98.4125 40.1785 104.59C37.5641 110.317 37.5239 120.567 37.5239 120.567C37.5239 120.567 47.8906 117.009 52.7473 112.932C57.606 108.852 62.2098 99.8386 62.2098 99.8386C62.2098 99.8386 58.7407 112.882 59.5197 120.47C60.1648 126.755 65.2137 135.265 65.2137 135.265C65.2137 135.265 71.3179 127.474 73.1353 121.337C75.182 114.426 74.5848 101.943 74.5848 101.943C74.5848 101.943 76.4742 113.621 79.293 119.735C81.8749 125.335 86.9724 133.532 86.9724 133.532C86.9724 133.532 91.6605 122.621 91.5078 115.835C91.3577 109.165 87.4653 97.7379 87.4653 97.7379C87.4653 97.7379 91.0246 108.33 95.2415 112.203C99.4761 116.092 112.48 118.475 112.48 118.475C112.48 118.475 110.327 107.678 108.076 102.784C105.459 97.0933 95.7308 91.0828 95.7308 91.0828C95.7308 91.0828 105.407 95.2566 112.037 95.8198C118.932 96.4053 130.216 93.8814 130.216 93.8814C130.216 93.8814 121.679 85.4803 115.786 82.4965C109.929 79.5302 100.33 78.7223 100.33 78.7223C100.33 78.7223 111.318 79.6231 117.963 77.921C124.767 76.1784 134.795 71.5839 134.795 71.5839C134.795 71.5839 123.782 63.8999 116.529 63.1216C109.076 62.3218 97.0577 65.9432 97.0577 65.9432C97.0577 65.9432 108.298 61.4545 113.449 56.5654C118.333 51.9284 122.692 41.9587 122.692 41.9587C122.692 41.9587 111.885 43.8428 106.273 46.2453C100.297 48.8037 90.0975 57.1093 90.0975 57.1093C90.0975 57.1093 100.056 47.7174 102.091 41.8814C104.319 35.4899 103.71 23.6601 103.71 23.6601C103.71 23.6601 91.6624 30.4946 87.0743 36.2476C82.7183 41.7095 80.8261 51.9237 80.8261 51.9237C80.8261 51.9237 83.3512 39.9797 82.2973 32.6798C81.2358 25.3268 75.4041 14.5089 75.4041 14.5089Z" stroke="#FFD2AA" stroke-width="2" stroke-linejoin="round"/>
        <ellipse cx="72.0472" cy="74.6352" rx="21.7824" ry="21.0797" transform="rotate(-8.24567 72.0472 74.6352)" fill="#816D61"/>
    </g>
    <g class="flower">
        <path d="M87.7851 275.332C86.2462 269.442 87.3933 258.731 87.3933 258.731C87.3933 258.731 84.8604 266.402 81.5251 270.211C78.1913 274.019 70.4483 278.088 70.4483 278.088C70.4483 278.088 69.2313 269.999 70.5957 265.163C72.0676 259.947 77.8986 252.623 77.8986 252.623C77.8986 252.623 71.8124 258.34 67.0682 259.39C62.3878 260.426 54.3013 257.918 54.3013 257.918C54.3013 257.918 58.3384 251.529 62.0114 248.622C65.5755 245.801 72.6887 243.271 72.6887 243.271C72.6887 243.271 63.791 245.131 58.5966 243.217C53.0179 241.161 45.476 232.929 45.476 232.929C45.476 232.929 54.9378 230.481 60.1383 231.015C62.868 231.295 66.7673 232.458 69.4082 233.328C66.1108 232.084 60.844 229.77 58.2885 226.89C54.1875 222.268 50.2548 212.146 50.2548 212.146C50.2548 212.146 60.7169 213.47 66.1774 216.263C69.4768 217.951 73.1437 221.41 75.3328 223.655C73.3306 221.389 70.343 217.644 69.0662 214.206C67.029 208.719 67.0336 197.993 67.0336 197.993C67.0336 197.993 76.5677 203.094 80.5777 207.748C82.9445 210.495 84.8386 214.938 85.8804 217.731C84.9412 214.812 83.5939 209.958 83.6307 206.227C83.6925 199.956 87.4044 189.822 87.4044 189.822C87.4044 189.822 93.3219 197.644 95.055 203.315C96.5552 208.223 96.3394 216.248 96.2595 218.222C96.3569 216.433 96.8725 209.712 99.2573 205.546C102.175 200.45 110.845 193.592 110.845 193.592C110.845 193.592 112.766 202.848 111.787 208.161C110.894 213.011 104.183 221.632 104.183 221.632C104.183 221.632 111.216 213.839 115.618 211.093C119.751 208.514 128.045 205.712 128.045 205.712C128.045 205.712 125.822 214.106 122.535 218.358C119.068 222.842 110.749 227.752 110.749 227.752C110.749 227.752 119.787 223.431 125.763 223.154C131.578 222.885 141.201 227.603 141.201 227.603C141.201 227.603 133.851 232.449 128.697 234.652C123.663 236.804 114.887 237.432 114.887 237.432C114.887 237.432 122.556 236.9 127.538 238.526C132.549 240.162 140.306 245.748 140.306 245.748C140.306 245.748 131.713 249.113 126.204 249.491C120.905 249.855 112.765 247.742 112.765 247.742C112.765 247.742 121.171 251.297 123.928 255.466C126.3 259.052 129.313 267.306 129.313 267.306C129.313 267.306 118.766 267.011 114.953 264.459C111.268 261.994 107.3 254.464 107.068 254.018C107.309 254.483 111.546 262.686 112.45 267.779C113.397 273.113 111.029 282.289 111.029 282.289C111.029 282.289 106.01 276.445 103.291 272.343C100.323 267.864 97.4101 258.884 97.4101 258.884C97.4101 258.884 99.4019 268.656 98.6296 274.357C97.9438 279.418 94.0785 286.307 94.0785 286.307C94.0785 286.307 89.0595 280.21 87.7851 275.332Z" fill="#FFD2AA"/>
        <path d="M87.4044 189.822C87.4044 189.822 83.6925 199.956 83.6307 206.227C83.5743 211.94 86.7631 220.286 86.7631 220.286C86.7631 220.286 84.2347 211.993 80.5777 207.748C76.5677 203.094 67.0336 197.993 67.0336 197.993C67.0336 197.993 67.029 208.719 69.0662 214.206C71.0715 219.606 77.2966 225.761 77.2966 225.761C77.2966 225.761 71.295 218.881 66.1774 216.263C60.7169 213.47 50.2548 212.146 50.2548 212.146C50.2548 212.146 54.1875 222.268 58.2885 226.89C62.1681 231.262 72.2964 234.33 72.2964 234.33C72.2964 234.33 64.6324 231.477 60.1383 231.015C54.9378 230.481 45.476 232.929 45.476 232.929C45.476 232.929 53.0179 241.161 58.5966 243.217C63.791 245.131 72.6887 243.271 72.6887 243.271C72.6887 243.271 65.5755 245.801 62.0114 248.622C58.3384 251.529 54.3013 257.918 54.3013 257.918C54.3013 257.918 62.3878 260.426 67.0682 259.39C71.8124 258.34 77.8986 252.623 77.8986 252.623C77.8986 252.623 72.0676 259.947 70.5957 265.163C69.2313 269.999 70.4483 278.088 70.4483 278.088C70.4483 278.088 78.1914 274.019 81.5251 270.211C84.8604 266.402 87.3933 258.731 87.3933 258.731C87.3933 258.731 86.2462 269.442 87.7851 275.332C89.0595 280.21 94.0785 286.307 94.0785 286.307C94.0785 286.307 97.9438 279.418 98.6296 274.357C99.402 268.656 97.4101 258.884 97.4101 258.884C97.4101 258.884 100.323 267.864 103.291 272.343C106.01 276.445 111.029 282.289 111.029 282.289C111.029 282.289 113.397 273.113 112.45 267.779C111.519 262.536 107.057 253.998 107.057 253.998C107.057 253.998 111.155 261.918 114.953 264.459C118.766 267.011 129.313 267.306 129.313 267.306C129.313 267.306 126.3 259.052 123.928 255.466C121.171 251.297 112.765 247.742 112.765 247.742C112.765 247.742 120.905 249.855 126.204 249.491C131.713 249.113 140.306 245.748 140.306 245.748C140.306 245.748 132.549 240.162 127.538 238.526C122.556 236.9 114.887 237.432 114.887 237.432C114.887 237.432 123.663 236.804 128.697 234.652C133.851 232.449 141.201 227.603 141.201 227.603C141.201 227.603 131.578 222.885 125.763 223.154C119.787 223.431 110.749 227.752 110.749 227.752C110.749 227.752 119.068 222.842 122.535 218.358C125.822 214.106 128.045 205.712 128.045 205.712C128.045 205.712 119.751 208.514 115.618 211.093C111.216 213.839 104.183 221.632 104.183 221.632C104.183 221.632 110.894 213.011 111.787 208.161C112.766 202.848 110.845 193.592 110.845 193.592C110.845 193.592 102.175 200.45 99.2573 205.546C96.4871 210.385 96.239 218.672 96.239 218.672C96.239 218.672 96.7755 208.944 95.055 203.315C93.3219 197.644 87.4044 189.822 87.4044 189.822Z" stroke="#FFD2AA" stroke-width="2" stroke-linejoin="round"/>
        <ellipse cx="92.0813" cy="237.654" rx="17.384" ry="16.8232" transform="rotate(-17.0263 92.0813 237.654)" fill="#816D61"/>
    </g>
    <g class="flower">
        <path d="M191.156 296.325C192.704 289.354 199.636 278.79 199.636 278.79C199.636 278.79 192.886 285.439 187.365 287.629C181.847 289.817 171.587 289.918 171.587 289.918C171.587 289.918 174.649 280.824 178.662 276.508C182.991 271.852 192.998 267.332 192.998 267.332C192.998 267.332 183.586 270.038 178.072 268.594C172.633 267.169 165.537 260.221 165.537 260.221C165.537 260.221 173.171 255.716 178.561 254.649C183.791 253.613 192.569 254.782 192.569 254.782C192.569 254.782 182.287 251.958 177.891 247.179C173.17 242.046 169.707 229.417 169.707 229.417C169.707 229.417 180.893 231.928 186.034 235.27C188.733 237.025 192.18 240.326 194.47 242.648C191.695 239.584 187.438 234.349 186.313 229.975C184.508 222.955 185.823 210.286 185.823 210.286C185.823 210.286 196.033 217.269 200.236 223.109C202.776 226.637 204.75 232.211 205.833 235.726C204.957 232.288 203.844 226.781 204.353 222.508C205.165 215.692 210.914 204.5 210.914 204.5C210.914 204.5 218.132 214.929 219.824 221.933C220.823 226.068 220.421 231.719 220.013 235.191C220.596 231.642 221.789 225.855 223.825 221.98C227.248 215.469 236.548 206.882 236.548 206.882C236.548 206.882 238.535 218.213 237.307 225.059C236.245 230.985 231.722 239.244 230.581 241.262C231.641 239.447 235.778 232.709 240.498 229.639C246.272 225.882 258.992 223.367 258.992 223.367C258.992 223.367 256.041 234.056 252.175 239.077C248.645 243.66 237.025 249.064 237.025 249.064C237.025 249.064 248.538 244.697 254.602 244.188C260.296 243.71 270.453 245.227 270.453 245.227C270.453 245.227 263.638 252.797 257.93 255.474C251.911 258.297 240.6 258.966 240.6 258.966C240.6 258.966 252.346 259.297 258.731 262.208C264.944 265.04 272.46 275.118 272.46 275.118C272.46 275.118 262.195 276.239 255.636 275.779C249.23 275.329 239.734 271.285 239.734 271.285C239.734 271.285 248.023 274.836 252.352 279.201C256.705 283.591 261.81 293.574 261.81 293.574C261.81 293.574 251.04 292.485 245.088 289.93C239.364 287.472 232 280.908 232 280.908C232 280.908 238.868 289.119 239.513 294.947C240.068 299.959 238.793 310.187 238.793 310.187C238.793 310.187 227.944 304.231 225.33 299.526C222.805 294.979 222.697 284.997 222.693 284.407C222.696 285.021 222.725 295.851 220.942 301.65C219.074 307.724 211.688 316.033 211.688 316.033C211.688 316.033 209.579 307.246 208.939 301.509C208.24 295.245 210.009 284.313 210.009 284.313C210.009 284.313 206.854 295.579 202.996 301.114C199.57 306.03 191.847 311.149 191.847 311.149C191.847 311.149 189.874 302.098 191.156 296.325Z" fill="#FFD2AA"/>
        <path d="M236.548 206.882C236.548 206.882 227.248 215.469 223.825 221.98C220.707 227.913 219.566 238.33 219.566 238.33C219.566 238.33 221.368 228.322 219.824 221.933C218.132 214.929 210.914 204.5 210.914 204.5C210.914 204.5 205.165 215.692 204.353 222.508C203.554 229.218 206.755 238.975 206.755 238.975C206.755 238.975 204.175 228.582 200.236 223.109C196.033 217.269 185.823 210.286 185.823 210.286C185.823 210.286 184.508 222.955 186.313 229.975C188.02 236.615 196.948 245.24 196.948 245.24C196.948 245.24 190.477 238.159 186.034 235.27C180.893 231.928 169.707 229.417 169.707 229.417C169.707 229.417 173.17 242.046 177.891 247.179C182.287 251.958 192.569 254.782 192.569 254.782C192.569 254.782 183.791 253.613 178.561 254.649C173.171 255.716 165.537 260.221 165.537 260.221C165.537 260.221 172.633 267.169 178.072 268.594C183.586 270.038 192.998 267.332 192.998 267.332C192.998 267.332 182.991 271.852 178.662 276.508C174.649 280.824 171.587 289.918 171.587 289.918C171.587 289.918 181.847 289.817 187.365 287.629C192.886 285.439 199.636 278.79 199.636 278.79C199.636 278.79 192.704 289.354 191.156 296.325C189.874 302.098 191.847 311.149 191.847 311.149C191.847 311.149 199.57 306.03 202.996 301.114C206.854 295.579 210.009 284.313 210.009 284.313C210.009 284.313 208.24 295.245 208.939 301.509C209.579 307.246 211.688 316.033 211.688 316.033C211.688 316.033 219.074 307.724 220.942 301.65C222.777 295.68 222.693 284.38 222.693 284.38C222.693 284.38 222.728 294.84 225.33 299.526C227.944 304.231 238.793 310.187 238.793 310.187C238.793 310.187 240.068 299.959 239.513 294.947C238.868 289.119 232 280.908 232 280.908C232 280.908 239.364 287.472 245.088 289.93C251.04 292.485 261.81 293.574 261.81 293.574C261.81 293.574 256.705 283.591 252.352 279.201C248.023 274.836 239.734 271.285 239.734 271.285C239.734 271.285 249.23 275.329 255.636 275.779C262.195 276.239 272.46 275.118 272.46 275.118C272.46 275.118 264.944 265.04 258.731 262.208C252.346 259.297 240.6 258.966 240.6 258.966C240.6 258.966 251.911 258.297 257.93 255.474C263.638 252.797 270.453 245.227 270.453 245.227C270.453 245.227 260.296 243.71 254.602 244.188C248.538 244.697 237.025 249.064 237.025 249.064C237.025 249.064 248.645 243.66 252.175 239.077C256.041 234.056 258.992 223.367 258.992 223.367C258.992 223.367 246.272 225.882 240.498 229.639C235.016 233.205 230.319 241.72 230.319 241.72C230.319 241.72 236.089 231.855 237.307 225.059C238.535 218.213 236.548 206.882 236.548 206.882Z" stroke="#FFD2AA" stroke-width="2" stroke-linejoin="round"/>
        <ellipse cx="219.926" cy="260.511" rx="20.3912" ry="19.7334" transform="rotate(10.1363 219.926 260.511)" fill="#816D61"/>
    </g>
    <g class="flower">
        <path d="M337.718 97.9179C341.521 96.235 348.868 95.835 348.868 95.835C348.868 95.835 343.419 94.9675 340.485 93.136C337.552 91.3054 333.961 86.5305 333.961 86.5305C333.961 86.5305 339.281 84.8236 342.691 85.2138C346.37 85.6348 351.946 88.764 351.946 88.764C351.946 88.764 347.425 85.2866 346.197 82.2029C344.986 79.1606 345.791 73.4335 345.791 73.4335C345.791 73.4335 350.541 75.4556 352.903 77.6136C355.196 79.7077 357.681 84.2266 357.681 84.2266C357.681 84.2266 355.452 78.4311 356.174 74.719C356.949 70.7323 361.673 64.7453 361.673 64.7453C361.673 64.7453 364.36 70.8568 364.57 74.4217C364.68 76.2929 364.323 79.0494 364.026 80.9253C364.504 78.5657 365.487 74.7611 367.149 72.7225C369.816 69.451 376.209 65.6905 376.209 65.6905C376.209 65.6905 376.463 72.8895 375.178 76.8774C374.401 79.2869 372.471 82.1383 371.197 83.8602C372.506 82.262 374.703 79.8373 376.882 78.5997C380.358 76.625 387.591 75.453 387.591 75.453C387.591 75.453 385.196 82.4402 382.497 85.6538C380.904 87.5506 378.116 89.3145 376.347 90.323C378.212 89.3699 381.337 87.9296 383.857 87.5456C388.092 86.9003 395.331 88.2928 395.331 88.2928C395.331 88.2928 390.706 93.1397 387.073 94.9294C383.927 96.4787 378.493 97.2124 377.153 97.3749C378.37 97.2445 382.958 96.8558 386.028 98.0074C389.784 99.4164 395.358 104.511 395.358 104.511C395.358 104.511 389.327 106.82 385.638 106.742C382.27 106.671 375.722 103.091 375.722 103.091C375.722 103.091 381.747 106.979 384.081 109.646C386.272 112.151 389.071 117.436 389.071 117.436C389.071 117.436 383.167 116.857 379.94 115.106C376.537 113.26 372.315 108.189 372.315 108.189C372.315 108.189 376.218 113.809 377.06 117.808C377.879 121.699 375.751 128.704 375.751 128.704C375.751 128.704 371.679 124.28 369.629 121.046C367.626 117.888 366.241 112.039 366.241 112.039C366.241 112.039 367.44 117.152 366.89 120.689C366.336 124.247 363.42 130.089 363.42 130.089C363.42 130.089 360.209 124.664 359.35 120.991C358.525 117.458 359.058 111.738 359.058 111.738C359.058 111.738 357.581 117.795 355.072 120.111C352.914 122.103 347.679 125.039 347.679 125.039C347.679 125.039 346.723 117.895 348.025 115.044C349.284 112.29 353.924 108.792 354.201 108.584C353.912 108.8 348.847 112.553 345.513 113.721C342.021 114.944 335.574 114.352 335.574 114.352C335.574 114.352 338.964 110.328 341.432 108.045C344.127 105.553 349.863 102.606 349.863 102.606C349.863 102.606 343.492 105.019 339.564 105.123C336.076 105.215 331.008 103.364 331.008 103.364C331.008 103.364 334.569 99.3116 337.718 97.9179Z" fill="#FFD2AA"/>
        <path d="M395.331 88.2928C395.331 88.2928 388.092 86.9003 383.857 87.5456C379.999 88.1336 374.721 91.198 374.721 91.198C374.721 91.198 380.036 88.5846 382.497 85.6538C385.196 82.4402 387.591 75.453 387.591 75.453C387.591 75.453 380.358 76.625 376.882 78.5997C373.46 80.5434 369.993 85.415 369.993 85.415C369.993 85.415 373.974 80.6147 375.178 76.8774C376.463 72.8895 376.209 65.6905 376.209 65.6905C376.209 65.6905 369.816 69.451 367.149 72.7225C364.626 75.8173 363.667 82.9825 363.667 82.9825C363.667 82.9825 364.751 77.5024 364.57 74.4217C364.36 70.8568 361.673 64.7453 361.673 64.7453C361.673 64.7453 356.949 70.7323 356.174 74.719C355.452 78.4311 357.681 84.2266 357.681 84.2266C357.681 84.2266 355.196 79.7077 352.903 77.6136C350.541 75.4556 345.791 73.4335 345.791 73.4335C345.791 73.4335 344.986 79.1606 346.197 82.2029C347.425 85.2866 351.946 88.764 351.946 88.764C351.946 88.764 346.37 85.6348 342.691 85.2138C339.281 84.8236 333.961 86.5305 333.961 86.5305C333.961 86.5305 337.552 91.3054 340.485 93.136C343.419 94.9675 348.868 95.835 348.868 95.835C348.868 95.835 341.521 96.235 337.718 97.9179C334.569 99.3116 331.008 103.364 331.008 103.364C331.008 103.364 336.076 105.215 339.564 105.123C343.492 105.019 349.863 102.606 349.863 102.606C349.863 102.606 344.127 105.553 341.432 108.045C338.964 110.328 335.574 114.352 335.574 114.352C335.574 114.352 342.021 114.944 345.513 113.721C348.946 112.519 354.214 108.575 354.214 108.575C354.214 108.575 349.323 112.205 348.025 115.044C346.723 117.895 347.679 125.039 347.679 125.039C347.679 125.039 352.914 122.103 355.072 120.111C357.581 117.795 359.058 111.738 359.058 111.738C359.058 111.738 358.525 117.458 359.35 120.991C360.209 124.664 363.42 130.089 363.42 130.089C363.42 130.089 366.336 124.247 366.89 120.689C367.44 117.152 366.241 112.039 366.241 112.039C366.241 112.039 367.626 117.888 369.629 121.046C371.679 124.28 375.751 128.704 375.751 128.704C375.751 128.704 377.879 121.699 377.06 117.808C376.218 113.809 372.315 108.189 372.315 108.189C372.315 108.189 376.537 113.26 379.94 115.106C383.167 116.857 389.071 117.436 389.071 117.436C389.071 117.436 386.272 112.151 384.081 109.646C381.747 106.979 375.722 103.091 375.722 103.091C375.722 103.091 382.27 106.671 385.638 106.742C389.327 106.82 395.358 104.511 395.358 104.511C395.358 104.511 389.784 99.4164 386.028 98.0074C382.462 96.6697 376.848 97.4103 376.848 97.4103C376.848 97.4103 383.466 96.7062 387.073 94.9294C390.706 93.1397 395.331 88.2928 395.331 88.2928Z" stroke="#FFD2AA" stroke-width="2" stroke-linejoin="round"/>
        <ellipse cx="363.593" cy="96.6871" rx="11.8749" ry="11.4918" transform="rotate(63.7443 363.593 96.6871)" fill="#816D61"/>
    </g>
    <g class="flower">
        <path d="M245.385 38.4342C251.554 42.6839 259.095 53.583 259.095 53.583C259.095 53.583 255.289 44.4017 255.333 38.1718C255.377 31.9446 259.319 21.9293 259.319 21.9293C259.319 21.9293 266.956 28.4865 269.572 34.0875C272.395 40.13 272.851 51.6399 272.851 51.6399C272.851 51.6399 273.925 41.4222 277.5 36.6299C281.027 31.9021 290.576 27.7377 290.576 27.7377C290.576 27.7377 291.951 36.9342 290.866 42.5949C289.814 48.0879 285.222 56.1634 285.222 56.1634C285.222 56.1634 292.015 47.2777 298.393 44.8851C305.243 42.3156 318.886 43.9205 318.886 43.9205C318.886 43.9205 312.04 53.8077 306.766 57.4909C303.998 59.4242 299.431 61.4758 296.272 62.7888C300.343 61.2967 307.11 59.2182 311.806 59.8467C319.342 60.8553 331.142 67.122 331.142 67.122C331.142 67.122 320.332 74.3001 313 76.0877C308.569 77.1678 302.373 76.8933 298.529 76.5619C302.216 77.0637 308.009 78.1499 311.963 80.3267C318.271 83.7999 326.89 93.7956 326.89 93.7956C326.89 93.7956 313.908 96.7085 306.431 95.5965C302.018 94.9402 296.682 92.3242 293.466 90.56C296.687 92.5239 301.845 95.9625 304.81 99.4681C309.794 105.359 314.482 117.783 314.482 117.783C314.482 117.783 302.682 115.254 296.509 111.365C291.166 107.999 284.915 100.35 283.402 98.4462C284.75 100.191 289.673 106.867 290.8 112.664C292.179 119.757 289.617 133.116 289.617 133.116C289.617 133.116 280.386 126.038 277.026 120.302C273.959 115.065 273.28 101.64 273.28 101.64C273.28 101.64 272.994 114.554 271.101 120.65C269.324 126.375 263.85 135.653 263.85 135.653C263.85 135.653 259.173 126.047 258.817 119.442C258.441 112.479 262.244 101.218 262.244 101.218C262.244 101.218 257.298 112.508 251.954 117.57C246.754 122.497 233.997 125.837 233.997 125.837C233.997 125.837 236.947 115.415 239.977 109.219C242.937 103.167 250.607 95.5261 250.607 95.5261C250.607 95.5261 243.891 102.187 237.943 104.678C231.96 107.183 220.244 108.215 220.244 108.215C220.244 108.215 225.543 98.1721 230.371 93.3909C235.014 88.7928 244.295 84.2173 244.295 84.2173C244.295 84.2173 233.607 87.6625 227.687 85.9955C222.595 84.5617 213.152 79.2955 213.152 79.2955C213.152 79.2955 223.214 71.0915 228.818 70.4026C234.233 69.737 243.982 73.5621 244.557 73.79C243.959 73.5512 233.418 69.3159 228.481 65.2989C223.31 61.0914 218.139 50.6392 218.139 50.6392C218.139 50.6392 227.513 52.0483 233.344 53.6842C239.709 55.4701 249.642 61.4938 249.642 61.4938C249.642 61.4938 239.93 53.9915 236.067 48.0605C232.637 42.7942 230.699 33.2697 230.699 33.2697C230.699 33.2697 240.276 34.9147 245.385 38.4342Z" fill="#FFD2AA"/>
        <path d="M314.482 117.783C314.482 117.783 309.794 105.359 304.81 99.4681C300.269 94.1004 290.59 88.8897 290.59 88.8897C290.59 88.8897 299.612 94.5824 306.431 95.5965C313.908 96.7085 326.89 93.7956 326.89 93.7956C326.89 93.7956 318.271 83.7999 311.963 80.3267C305.753 76.908 295.007 76.1794 295.007 76.1794C295.007 76.1794 306.128 77.763 313 76.0877C320.332 74.3001 331.142 67.122 331.142 67.122C331.142 67.122 319.342 60.8553 311.806 59.8467C304.677 58.8925 292.776 64.1774 292.776 64.1774C292.776 64.1774 302.209 60.6738 306.766 57.4909C312.04 53.8077 318.886 43.9205 318.886 43.9205C318.886 43.9205 305.243 42.3156 298.393 44.8851C292.015 47.2777 285.222 56.1634 285.222 56.1634C285.222 56.1634 289.814 48.0879 290.866 42.5949C291.951 36.9342 290.576 27.7377 290.576 27.7377C290.576 27.7377 281.027 31.9021 277.5 36.6299C273.925 41.4222 272.851 51.6399 272.851 51.6399C272.851 51.6399 272.395 40.13 269.572 34.0875C266.956 28.4865 259.319 21.9293 259.319 21.9293C259.319 21.9293 255.377 31.9446 255.333 38.1718C255.289 44.4017 259.095 53.583 259.095 53.583C259.095 53.583 251.554 42.6839 245.385 38.4341C240.276 34.9147 230.699 33.2697 230.699 33.2697C230.699 33.2697 232.637 42.7942 236.067 48.0605C239.93 53.9915 249.642 61.4938 249.642 61.4938C249.642 61.4938 239.709 55.4701 233.344 53.6842C227.513 52.0483 218.14 50.6392 218.14 50.6392C218.14 50.6392 223.31 61.0914 228.481 65.2989C233.563 69.4341 244.584 73.8006 244.584 73.8006C244.584 73.8006 234.399 69.7166 228.818 70.4026C223.214 71.0915 213.152 79.2955 213.152 79.2955C213.152 79.2955 222.595 84.5617 227.687 85.9955C233.607 87.6625 244.295 84.2173 244.295 84.2173C244.295 84.2173 235.014 88.7928 230.371 93.3909C225.543 98.1721 220.244 108.215 220.244 108.215C220.244 108.215 231.96 107.183 237.943 104.678C243.891 102.187 250.607 95.5261 250.607 95.5261C250.607 95.5261 242.937 103.167 239.977 109.219C236.947 115.415 233.997 125.837 233.997 125.837C233.997 125.837 246.754 122.497 251.954 117.57C257.298 112.508 262.244 101.218 262.244 101.218C262.244 101.218 258.441 112.479 258.817 119.442C259.173 126.047 263.85 135.653 263.85 135.653C263.85 135.653 269.324 126.375 271.101 120.65C272.994 114.554 273.28 101.64 273.28 101.64C273.28 101.64 273.959 115.065 277.026 120.302C280.386 126.038 289.617 133.116 289.617 133.116C289.617 133.116 292.179 119.757 290.8 112.664C289.491 105.93 283.06 98.011 283.06 98.011C283.06 98.011 290.381 107.504 296.509 111.365C302.682 115.254 314.482 117.783 314.482 117.783Z" stroke="#FFD2AA" stroke-width="2" stroke-linejoin="round"/>
        <ellipse cx="271.672" cy="76.987" rx="21.3903" ry="20.7003" transform="rotate(122.179 271.672 76.987)" fill="#816D61"/>
    </g>
    <g class="flower">
        <path d="M343.221 208.323C338.329 205.672 331.895 198.219 331.895 198.219C331.895 198.219 335.434 204.699 335.894 209.304C336.355 213.907 334.236 221.617 334.236 221.617C334.236 221.617 328.076 217.378 325.7 213.448C323.137 209.208 321.889 200.743 321.889 200.743C321.889 200.743 321.905 208.375 319.644 212.198C317.413 215.969 310.689 219.801 310.689 219.801C310.689 219.801 308.945 213.117 309.298 208.85C309.641 204.709 312.393 198.381 312.393 198.381C312.393 198.381 308.079 205.482 303.558 207.754C298.702 210.194 288.498 210.089 288.498 210.089C288.498 210.089 292.772 202.244 296.375 199.106C298.267 197.459 301.478 195.582 303.707 194.362C300.818 195.786 295.985 197.857 292.466 197.765C286.82 197.616 277.608 193.922 277.608 193.922C277.608 193.922 285.024 187.764 290.299 185.863C293.486 184.715 298.085 184.427 300.95 184.367C298.187 184.289 293.822 183.945 290.729 182.65C285.794 180.584 278.637 173.883 278.637 173.883C278.637 173.883 287.995 170.704 293.606 170.934C296.918 171.069 301.066 172.579 303.581 173.627C301.047 172.432 296.965 170.3 294.497 167.946C290.35 163.989 285.903 155.184 285.903 155.184C285.903 155.184 294.819 156.117 299.687 158.501C303.9 160.565 309.122 165.719 310.39 167.006C309.257 165.823 305.092 161.283 303.801 157.09C302.22 151.959 303.056 141.89 303.056 141.89C303.056 141.89 310.434 146.387 313.37 150.358C316.05 153.983 317.614 163.845 317.614 163.845C317.614 163.845 316.803 154.284 317.719 149.632C318.578 145.262 321.887 137.976 321.887 137.976C321.887 137.976 326.102 144.701 326.888 149.551C327.716 154.665 325.799 163.284 325.799 163.284C325.799 163.284 328.559 154.553 332.105 150.391C335.556 146.34 344.714 142.863 344.714 142.863C344.714 142.863 343.36 150.795 341.612 155.611C339.906 160.316 334.845 166.566 334.845 166.566C334.845 166.566 339.278 161.115 343.474 158.804C347.695 156.48 356.268 154.79 356.268 154.79C356.268 154.79 353.149 162.628 349.961 166.542C346.895 170.305 340.402 174.42 340.402 174.42C340.402 174.42 348.024 171.029 352.529 171.792C356.403 172.448 363.795 175.59 363.795 175.59C363.795 175.59 357.012 182.446 352.927 183.398C348.981 184.319 341.477 182.265 341.034 182.142C341.495 182.271 349.616 184.565 353.581 187.142C357.733 189.84 362.38 197.151 362.38 197.151C362.38 197.151 355.344 196.852 350.908 196.105C346.065 195.29 338.252 191.627 338.252 191.627C338.252 191.627 346.019 196.4 349.342 200.475C352.293 204.093 354.478 210.975 354.478 210.975C354.478 210.975 347.273 210.518 343.221 208.323Z" fill="#FFD2AA"/>
        <path d="M285.903 155.184C285.903 155.184 290.35 163.989 294.497 167.946C298.276 171.551 305.838 174.633 305.838 174.633C305.838 174.633 298.723 171.143 293.606 170.934C287.995 170.704 278.637 173.883 278.637 173.883C278.637 173.883 285.794 180.584 290.729 182.65C295.586 184.684 303.582 184.371 303.582 184.371C303.582 184.371 295.242 184.082 290.299 185.863C285.024 187.764 277.608 193.922 277.608 193.922C277.608 193.922 286.82 197.616 292.466 197.765C297.808 197.905 306.18 193.06 306.18 193.06C306.18 193.06 299.49 196.394 296.375 199.106C292.772 202.244 288.498 210.089 288.498 210.089C288.498 210.089 298.702 210.194 303.558 207.754C308.079 205.482 312.393 198.381 312.393 198.381C312.393 198.381 309.641 204.709 309.298 208.85C308.945 213.117 310.689 219.801 310.689 219.801C310.689 219.801 317.413 215.969 319.644 212.198C321.905 208.375 321.889 200.743 321.889 200.743C321.889 200.743 323.137 209.208 325.7 213.448C328.076 217.378 334.236 221.617 334.236 221.617C334.236 221.617 336.355 213.907 335.894 209.304C335.434 204.699 331.895 198.219 331.895 198.219C331.895 198.219 338.329 205.672 343.221 208.323C347.273 210.518 354.478 210.975 354.478 210.975C354.478 210.975 352.293 204.093 349.342 200.475C346.019 196.4 338.252 191.627 338.252 191.627C338.252 191.627 346.065 195.29 350.908 196.105C355.344 196.852 362.38 197.151 362.38 197.151C362.38 197.151 357.733 189.84 353.581 187.142C349.5 184.489 341.014 182.137 341.014 182.137C341.014 182.137 348.86 184.347 352.927 183.398C357.012 182.446 363.795 175.59 363.795 175.59C363.795 175.59 356.403 172.448 352.529 171.792C348.024 171.029 340.402 174.42 340.402 174.42C340.402 174.42 346.895 170.305 349.961 166.542C353.149 162.628 356.268 154.79 356.268 154.79C356.268 154.79 347.695 156.48 343.474 158.804C339.278 161.115 334.845 166.566 334.845 166.566C334.845 166.566 339.906 160.316 341.612 155.611C343.36 150.795 344.714 142.863 344.714 142.863C344.714 142.863 335.556 146.34 332.105 150.391C328.559 154.553 325.799 163.284 325.799 163.284C325.799 163.284 327.716 154.665 326.888 149.551C326.102 144.701 321.887 137.976 321.887 137.976C321.887 137.976 318.578 145.262 317.719 149.632C316.803 154.284 317.614 163.845 317.614 163.845C317.614 163.845 316.05 153.983 313.37 150.358C310.434 146.387 303.056 141.89 303.056 141.89C303.056 141.89 302.22 151.959 303.801 157.09C305.301 161.96 310.678 167.3 310.678 167.3C310.678 167.3 304.519 160.868 299.687 158.501C294.819 156.117 285.903 155.184 285.903 155.184Z" stroke="#FFD2AA" stroke-width="2" stroke-linejoin="round"/>
        <ellipse cx="320.754" cy="181.927" rx="15.89" ry="15.3774" transform="rotate(-63.9381 320.754 181.927)" fill="#816D61"/>
    </g>
    <g class="flower">
        <path d="M341.118 304.661C338.21 299.312 336.753 288.64 336.753 288.64C336.753 288.64 336.135 296.693 333.812 301.192C331.489 305.689 324.949 311.497 324.949 311.497C324.949 311.497 321.826 303.936 321.99 298.915C322.167 293.497 326.07 284.988 326.07 284.988C326.07 284.988 321.534 291.998 317.18 294.156C312.885 296.285 304.433 295.791 304.433 295.791C304.433 295.791 306.819 288.62 309.687 284.917C312.47 281.323 318.768 277.16 318.768 277.16C318.768 277.16 310.577 281.101 305.075 280.489C299.166 279.832 289.869 273.651 289.869 273.651C289.869 273.651 298.467 269.003 303.644 268.274C306.361 267.891 310.425 268.084 313.198 268.294C309.698 267.878 304.03 266.895 300.858 264.713C295.767 261.21 289.521 252.328 289.521 252.328C289.521 252.328 299.995 251.102 305.966 252.504C309.574 253.35 313.964 255.829 316.628 257.483C314.14 255.763 310.341 252.845 308.277 249.813C304.982 244.976 302.413 234.561 302.413 234.561C302.413 234.561 312.892 237.225 317.902 240.781C320.859 242.88 323.764 246.739 325.446 249.2C323.833 246.592 321.36 242.203 320.501 238.572C319.056 232.47 320.227 221.742 320.227 221.742C320.227 221.742 327.849 227.915 330.892 233.003C333.527 237.408 335.243 245.25 335.639 247.186C335.304 245.426 334.192 238.778 335.508 234.162C337.117 228.514 343.888 219.775 343.888 219.775C343.888 219.775 347.974 228.3 348.299 233.692C348.596 238.616 344.15 248.595 344.15 248.595C344.15 248.595 349.107 239.342 352.721 235.62C356.115 232.125 363.494 227.414 363.494 227.414C363.494 227.414 363.35 236.096 361.179 241.013C358.89 246.198 351.992 252.96 351.992 252.96C351.992 252.96 359.729 246.597 365.464 244.894C371.045 243.237 381.518 245.508 381.518 245.508C381.518 245.508 375.547 251.976 371.072 255.352C366.701 258.649 358.332 261.365 358.332 261.365C358.332 261.365 365.65 259.008 370.876 259.391C376.133 259.776 385.004 263.337 385.004 263.337C385.004 263.337 377.47 268.667 372.212 270.356C367.156 271.98 358.747 271.882 358.747 271.882C358.747 271.882 367.76 273.317 371.437 276.702C374.6 279.614 379.506 286.904 379.506 286.904C379.506 286.904 369.197 289.148 364.882 287.586C360.713 286.077 355.055 279.719 354.722 279.343C355.068 279.736 361.149 286.682 363.249 291.409C365.449 296.36 365.352 305.837 365.352 305.837C365.352 305.837 359.077 301.368 355.453 298.038C351.497 294.402 346.514 286.384 346.514 286.384C346.514 286.384 350.793 295.393 351.411 301.112C351.96 306.19 349.861 313.805 349.861 313.805C349.861 313.805 343.525 309.09 341.118 304.661Z" fill="#FFD2AA"/>
        <path d="M320.227 221.742C320.227 221.742 319.056 232.47 320.501 238.572C321.817 244.132 326.915 251.469 326.915 251.469C326.915 251.469 322.471 244.025 317.902 240.781C312.892 237.225 302.413 234.561 302.413 234.561C302.413 234.561 304.982 244.976 308.277 249.813C311.519 254.574 319.039 259.055 319.039 259.055C319.039 259.055 311.562 253.817 305.966 252.504C299.995 251.102 289.521 252.328 289.521 252.328C289.521 252.328 295.767 261.21 300.858 264.713C305.673 268.026 316.242 268.574 316.242 268.574C316.242 268.574 308.117 267.643 303.644 268.274C298.467 269.003 289.869 273.651 289.869 273.651C289.869 273.651 299.166 279.832 305.075 280.489C310.577 281.101 318.768 277.16 318.768 277.16C318.768 277.16 312.47 281.323 309.687 284.917C306.819 288.62 304.433 295.791 304.433 295.791C304.433 295.791 312.885 296.285 317.18 294.156C321.534 291.998 326.07 284.988 326.07 284.988C326.07 284.988 322.167 293.497 321.99 298.915C321.826 303.936 324.949 311.497 324.949 311.497C324.949 311.497 331.489 305.689 333.812 301.192C336.135 296.693 336.753 288.639 336.753 288.639C336.753 288.639 338.21 299.312 341.118 304.661C343.525 309.09 349.861 313.805 349.861 313.805C349.861 313.805 351.96 306.19 351.411 301.112C350.793 295.393 346.514 286.384 346.514 286.384C346.514 286.384 351.497 294.402 355.453 298.038C359.077 301.368 365.352 305.837 365.352 305.837C365.352 305.837 365.449 296.36 363.249 291.409C361.087 286.543 354.707 279.325 354.707 279.325C354.707 279.325 360.585 286.031 364.882 287.586C369.197 289.148 379.506 286.904 379.506 286.904C379.506 286.904 374.6 279.614 371.437 276.702C367.76 273.317 358.747 271.882 358.747 271.882C358.747 271.882 367.156 271.98 372.212 270.356C377.47 268.666 385.004 263.337 385.004 263.337C385.004 263.337 376.133 259.776 370.876 259.391C365.65 259.008 358.332 261.365 358.332 261.365C358.332 261.365 366.701 258.649 371.072 255.352C375.547 251.976 381.518 245.508 381.518 245.508C381.518 245.508 371.045 243.237 365.464 244.894C359.729 246.597 351.992 252.96 351.992 252.96C351.992 252.96 358.89 246.198 361.179 241.013C363.35 236.096 363.494 227.414 363.494 227.414C363.494 227.414 356.115 232.125 352.721 235.62C349.107 239.342 344.15 248.595 344.15 248.595C344.15 248.595 348.596 238.616 348.299 233.692C347.974 228.3 343.888 219.775 343.888 219.775C343.888 219.775 337.117 228.514 335.508 234.162C333.979 239.524 335.727 247.628 335.727 247.628C335.727 247.628 333.913 238.055 330.892 233.003C327.849 227.915 320.227 221.742 320.227 221.742Z" stroke="#FFD2AA" stroke-width="2" stroke-linejoin="round"/>
        <ellipse cx="336.247" cy="267.053" rx="17.384" ry="16.8232" transform="rotate(-30.9117 336.247 267.053)" fill="#816D61"/>
    </g>
    <g class="flower">
        <path d="M274.973 371.001C275.189 365.8 278.809 357.331 278.809 357.331C278.809 357.331 274.818 362.968 271.137 365.247C267.458 367.526 260.11 368.914 260.11 368.914C260.11 368.914 261.14 361.996 263.466 358.384C265.975 354.488 272.576 349.961 272.576 349.961C272.576 349.961 266.169 353.111 262.028 352.781C257.942 352.457 251.959 348.382 251.959 348.382C251.959 348.382 256.859 344.17 260.589 342.713C264.209 341.299 270.658 341.011 270.658 341.011C270.658 341.011 262.918 340.304 259.151 337.439C255.105 334.361 251 325.744 251 325.744C251 325.744 259.348 326.111 263.466 327.85C265.627 328.762 268.524 330.689 270.465 332.061C268.081 330.218 264.355 327.008 262.986 324.014C260.791 319.209 260.11 309.95 260.11 309.95C260.11 309.95 268.331 313.651 272.096 317.302C274.371 319.507 276.503 323.253 277.73 325.637C276.661 323.283 275.156 319.473 274.973 316.343C274.681 311.347 277.37 302.579 277.37 302.579C277.37 302.579 283.887 309.136 286 313.945C287.248 316.784 287.684 320.89 287.836 323.434C287.799 320.813 287.913 316.507 288.877 313.466C290.498 308.355 296.069 301 296.069 301C296.069 301 298.948 308.876 298.946 313.945C298.943 318.334 296.758 324.84 296.198 326.434C296.726 324.996 298.83 319.63 301.822 316.822C305.484 313.386 314.288 309.95 314.288 309.95C314.288 309.95 313.542 317.998 311.412 322.096C309.467 325.838 301.822 331.206 301.822 331.206C301.822 331.206 309.523 326.595 313.809 325.452C317.833 324.379 325.316 324.164 325.316 324.164C325.316 324.164 321.397 330.47 317.645 333.124C313.688 335.921 305.658 337.852 305.658 337.852C305.658 337.852 314.128 336.583 319.083 337.852C323.905 339.088 330.59 345.354 330.59 345.354C330.59 345.354 323.369 347.476 318.603 347.987C313.949 348.486 306.617 346.802 306.617 346.802C306.617 346.802 313.02 348.287 316.686 350.864C320.373 353.455 325.316 359.964 325.316 359.964C325.316 359.964 317.449 360.564 312.85 359.494C308.427 358.465 302.302 354.699 302.302 354.699C302.302 354.699 308.283 359.71 309.494 363.809C310.535 367.334 310.932 374.836 310.932 374.836C310.932 374.836 302.384 371.955 299.905 368.914C297.508 365.974 296.15 358.819 296.072 358.403C296.152 358.837 297.564 366.609 297.028 371.001C296.467 375.599 292.233 382.508 292.233 382.508C292.233 382.508 289.593 376.473 288.398 372.439C287.092 368.035 286.959 359.964 286.959 359.964C286.959 359.964 286.141 368.452 284.083 372.919C282.255 376.885 277.37 381.549 277.37 381.549C277.37 381.549 274.794 375.308 274.973 371.001Z" fill="#FFD2AA"/>
        <path d="M296.069 301C296.069 301 290.498 308.355 288.877 313.466C287.401 318.123 287.918 325.744 287.918 325.744C287.918 325.744 287.927 318.331 286 313.945C283.887 309.136 277.37 302.579 277.37 302.579C277.37 302.579 274.681 311.347 274.973 316.343C275.26 321.26 278.809 327.85 278.809 327.85C278.809 327.85 275.624 320.723 272.096 317.302C268.331 313.651 260.11 309.95 260.11 309.95C260.11 309.95 260.791 319.209 262.986 324.014C265.063 328.56 272.576 333.603 272.576 333.603C272.576 333.603 267.024 329.352 263.466 327.85C259.348 326.111 251 325.744 251 325.744C251 325.744 255.105 334.361 259.151 337.439C262.918 340.304 270.658 341.011 270.658 341.011C270.658 341.011 264.209 341.299 260.589 342.713C256.859 344.17 251.959 348.382 251.959 348.382C251.959 348.382 257.942 352.457 262.028 352.781C266.169 353.111 272.576 349.961 272.576 349.961C272.576 349.961 265.975 354.488 263.466 358.384C261.14 361.996 260.11 368.914 260.11 368.914C260.11 368.914 267.458 367.526 271.137 365.247C274.818 362.968 278.809 357.331 278.809 357.331C278.809 357.331 275.189 365.8 274.973 371.001C274.794 375.308 277.37 381.549 277.37 381.549C277.37 381.549 282.255 376.885 284.083 372.919C286.141 368.452 286.959 359.964 286.959 359.964C286.959 359.964 287.092 368.035 288.398 372.439C289.593 376.473 292.233 382.508 292.233 382.508C292.233 382.508 296.467 375.599 297.028 371.001C297.579 366.482 296.069 358.384 296.069 358.384C296.069 358.384 297.436 365.885 299.905 368.914C302.384 371.955 310.932 374.836 310.932 374.836C310.932 374.836 310.535 367.334 309.494 363.809C308.283 359.71 302.302 354.699 302.302 354.699C302.302 354.699 308.427 358.465 312.85 359.494C317.449 360.564 325.316 359.964 325.316 359.964C325.316 359.964 320.373 353.455 316.686 350.864C313.02 348.287 306.617 346.802 306.617 346.802C306.617 346.802 313.949 348.486 318.603 347.987C323.369 347.476 330.59 345.354 330.59 345.354C330.59 345.354 323.905 339.088 319.083 337.852C314.128 336.583 305.658 337.852 305.658 337.852C305.658 337.852 313.688 335.921 317.645 333.124C321.397 330.47 325.316 324.164 325.316 324.164C325.316 324.164 317.833 324.379 313.809 325.452C309.523 326.595 301.822 331.206 301.822 331.206C301.822 331.206 309.467 325.838 311.412 322.096C313.542 317.998 314.288 309.95 314.288 309.95C314.288 309.95 305.484 313.386 301.822 316.822C298.346 320.084 296.069 326.797 296.069 326.797C296.069 326.797 298.943 318.978 298.946 313.945C298.948 308.876 296.069 301 296.069 301Z" stroke="#FFD2AA" stroke-width="2" stroke-linejoin="round"/>
        <ellipse cx="287.918" cy="341.274" rx="14.8632" ry="14.3837" fill="#816D61"/>
    </g>
    <g class="flower">
        <path d="M33.0446 352.99C33.2979 346.907 37.5308 337.002 37.5308 337.002C37.5308 337.002 32.8629 343.594 28.5584 346.26C24.2558 348.925 15.6606 350.548 15.6606 350.548C15.6606 350.548 16.8656 342.457 19.586 338.233C22.5208 333.677 30.2407 328.381 30.2407 328.381C30.2407 328.381 22.7475 332.065 17.9037 331.68C13.125 331.3 6.12741 326.534 6.12741 326.534C6.12741 326.534 11.8582 321.608 16.2213 319.904C20.4553 318.25 27.9976 317.914 27.9976 317.914C27.9976 317.914 18.9452 317.087 14.539 313.735C9.80692 310.136 5.00586 300.057 5.00586 300.057C5.00586 300.057 14.7699 300.486 19.586 302.52C22.114 303.587 25.5019 305.841 27.7724 307.445C24.9838 305.29 20.6254 301.536 19.0252 298.034C16.4573 292.413 15.6606 281.584 15.6606 281.584C15.6606 281.584 25.2767 285.913 29.6799 290.183C32.3405 292.763 34.8338 297.144 36.2695 299.932C35.0188 297.178 33.2585 292.723 33.0446 289.061C32.7032 283.219 35.8485 272.964 35.8485 272.964C35.8485 272.964 43.471 280.633 45.9424 286.257C47.4011 289.577 47.9112 294.38 48.0896 297.356C48.0462 294.29 48.1792 289.254 49.307 285.697C51.2023 279.719 57.7187 271.116 57.7187 271.116C57.7187 271.116 61.0865 280.328 61.0833 286.257C61.0805 291.39 58.5245 299 57.8699 300.864C58.4869 299.182 60.9479 292.907 64.448 289.622C68.7302 285.603 79.0281 281.584 79.0281 281.584C79.0281 281.584 78.1546 290.997 75.6634 295.791C73.3888 300.167 64.448 306.445 64.448 306.445C64.448 306.445 73.4547 301.053 78.4673 299.716C83.1744 298.461 91.9259 298.21 91.9259 298.21C91.9259 298.21 87.3423 305.585 82.9535 308.688C78.3261 311.96 68.9341 314.219 68.9341 314.219C68.9341 314.219 78.8411 312.734 84.6358 314.219C90.2754 315.664 98.0944 322.994 98.0944 322.994C98.0944 322.994 89.6485 325.475 84.0751 326.072C78.6314 326.656 70.0557 324.687 70.0557 324.687C70.0557 324.687 77.5448 326.424 81.832 329.437C86.1445 332.468 91.9259 340.081 91.9259 340.081C91.9259 340.081 82.7243 340.783 77.3458 339.531C72.1732 338.327 65.0087 333.923 65.0087 333.923C65.0087 333.923 72.0045 339.784 73.4203 344.578C74.6381 348.701 75.1027 357.476 75.1027 357.476C75.1027 357.476 65.1042 354.105 62.2049 350.548C59.4033 347.112 57.8148 338.75 57.7229 338.256C57.8176 338.771 59.4667 347.855 58.8402 352.99C58.184 358.367 53.2325 366.448 53.2325 366.448C53.2325 366.448 50.1445 359.39 48.7463 354.672C47.2197 349.52 47.0639 340.081 47.0639 340.081C47.0639 340.081 46.1069 350.008 43.6993 355.233C41.5615 359.872 35.8485 365.327 35.8485 365.327C35.8485 365.327 32.8348 358.027 33.0446 352.99Z" fill="#FFD2AA"/>
        <path d="M57.7187 271.116C57.7187 271.116 51.2023 279.719 49.307 285.697C47.5802 291.143 48.1855 300.057 48.1855 300.057C48.1855 300.057 48.1963 291.387 45.9424 286.257C43.471 280.633 35.8485 272.964 35.8485 272.964C35.8485 272.964 32.7032 283.219 33.0446 289.061C33.3806 294.812 37.5308 302.52 37.5308 302.52C37.5308 302.52 33.8066 294.185 29.6799 290.183C25.2767 285.913 15.6606 281.584 15.6606 281.584C15.6606 281.584 16.4573 292.413 19.0252 298.034C21.4545 303.35 30.2407 309.249 30.2407 309.249C30.2407 309.249 23.748 304.277 19.586 302.52C14.7699 300.486 5.00586 300.057 5.00586 300.057C5.00586 300.057 9.80692 310.136 14.539 313.735C18.9452 317.087 27.9976 317.914 27.9976 317.914C27.9976 317.914 20.4553 318.25 16.2213 319.904C11.8582 321.608 6.12741 326.534 6.12741 326.534C6.12741 326.534 13.125 331.3 17.9037 331.68C22.7475 332.065 30.2407 328.381 30.2407 328.381C30.2407 328.381 22.5208 333.677 19.586 338.233C16.8656 342.457 15.6606 350.548 15.6606 350.548C15.6606 350.548 24.2558 348.925 28.5584 346.26C32.8629 343.594 37.5308 337.002 37.5308 337.002C37.5308 337.002 33.2979 346.907 33.0446 352.99C32.8348 358.027 35.8485 365.327 35.8485 365.327C35.8485 365.327 41.5615 359.872 43.6993 355.233C46.1069 350.008 47.0639 340.081 47.0639 340.081C47.0639 340.081 47.2197 349.52 48.7463 354.672C50.1445 359.39 53.2325 366.448 53.2325 366.448C53.2325 366.448 58.184 358.367 58.8402 352.99C59.4851 347.704 57.7187 338.233 57.7187 338.233C57.7187 338.233 59.3175 347.007 62.2049 350.548C65.1042 354.105 75.1027 357.476 75.1027 357.476C75.1027 357.476 74.6381 348.701 73.4203 344.578C72.0045 339.784 65.0087 333.923 65.0087 333.923C65.0087 333.923 72.1732 338.327 77.3458 339.531C82.7243 340.783 91.9259 340.081 91.9259 340.081C91.9259 340.081 86.1445 332.468 81.832 329.437C77.5448 326.424 70.0557 324.687 70.0557 324.687C70.0557 324.687 78.6314 326.656 84.0751 326.072C89.6485 325.475 98.0944 322.994 98.0944 322.994C98.0944 322.994 90.2754 315.664 84.6358 314.219C78.8411 312.734 68.9341 314.219 68.9341 314.219C68.9341 314.219 78.3261 311.96 82.9535 308.688C87.3423 305.585 91.9259 298.21 91.9259 298.21C91.9259 298.21 83.1744 298.461 78.4673 299.716C73.4547 301.053 64.448 306.445 64.448 306.445C64.448 306.445 73.3888 300.167 75.6634 295.791C78.1546 290.997 79.0281 281.584 79.0281 281.584C79.0281 281.584 68.7302 285.603 64.448 289.622C60.3823 293.437 57.7187 301.288 57.7187 301.288C57.7187 301.288 61.0801 292.144 61.0833 286.257C61.0865 280.328 57.7187 271.116 57.7187 271.116Z" stroke="#FFD2AA" stroke-width="2" stroke-linejoin="round"/>
        <ellipse cx="48.1848" cy="318.222" rx="17.384" ry="16.8232" fill="#816D61"/>
    </g>
</svg>
