<svg width="187" height="247" viewBox="0 0 187 247" fill="none" xmlns="http://www.w3.org/2000/svg">
<path d="M7.50003 50C10.2751 45.0485 15.4999 43.5 15.4999 43.5C15.4999 43.5 14 26.2805 24.9999 18.5C45.4995 3.99997 60 15.5 60 15.5C60 15.5 60.5 13.5 64.4995 9.49999C74.5488 -0.550499 89.5 5.50001 96.5 9.49999C101.047 12.098 110.5 17.5 124.5 31.5C151.928 58.9273 167.499 99 172.499 118C185.302 166.646 182.5 243 182.5 243H49.4998C51.4994 213 53.4989 182.5 42.9994 156.5C32.4998 130.5 12.4986 99.5 8.99914 92C5.49963 84.5 0.722088 62.0937 7.50003 50Z" fill="#816D61"/>
<path d="M15.4999 43.5C15.4999 43.5 10.2751 45.0485 7.50003 50C0.722088 62.0937 5.49963 84.5 8.99914 92C12.4986 99.5 32.4998 130.5 42.9994 156.5C53.4989 182.5 51.4994 213 49.4998 243H182.5C182.5 243 185.302 166.646 172.499 118C167.499 99 151.928 58.9273 124.5 31.5C110.5 17.5 101.047 12.098 96.5 9.49999C89.5 5.50001 74.5488 -0.550499 64.4995 9.49999C60.5 13.5 60 15.5 60 15.5M15.4999 43.5C15.4999 43.5 14 26.2805 24.9999 18.5C45.4995 3.99997 60 15.5 60 15.5M15.4999 43.5C15.4999 43.5 15.9983 50.696 17.5 55C19.3754 60.375 23 65 23 65M60 15.5C60 15.5 56.5 21.5 56.5 28.5C56.5 42.5 59 45 59 45" stroke="#816D61" stroke-width="8" stroke-linecap="round" stroke-linejoin="round"/>
<path d="M67.9995 151.5C55.4377 143.603 60.1233 112.717 60.1233 112.717C60.1233 112.717 61.4158 106.274 64.0304 103.286C69.2561 97.3141 84.5002 98.4999 84.5002 98.4999C84.5002 98.4999 110.415 100.646 120.501 111.5C129.137 120.795 128.24 132.128 120.501 137.914C114.403 142.472 98.3966 137.914 98.3966 137.914C98.3966 137.914 92.0505 151.26 84.5002 153.5C78.0359 155.418 73.7449 155.112 67.9995 151.5Z" fill="#564842" stroke="#564842" stroke-width="8" stroke-linecap="round" stroke-linejoin="round"/>
<path d="M36.5 76.5C32.9914 68.7025 36.0515 60.4587 41 56.5C46 52.5 56.3455 50 62.5 68.5C65.5322 77.6145 61.5 86.34 56.5 87.5C50.0307 89.0008 41 86.5008 36.5 76.5Z" fill="#564842"/>
<path d="M83.5 78.5C77.9213 68.1002 83.5005 55.9999 88.5005 52.5C98.2742 45.6586 107.689 56.4999 110.5 63C115.294 74.0839 113.546 85.6403 101.501 86.5008C94.5014 87.0008 87.7919 86.5009 83.5 78.5Z" fill="#564842"/>
<path d="M14.5 93C20.2326 83.8272 27.8886 87.4706 34.9992 95C42.1097 102.529 44.2621 113.869 34.9992 118.5C25.9989 123 20.4993 119.019 16.0003 113.5C9.58027 105.624 12.0002 97 14.5 93Z" fill="#564842"/>
<path d="M36.5 76.5C32.9914 68.7025 36.0515 60.4587 41 56.5C46 52.5 56.3455 50 62.5 68.5C65.5322 77.6145 61.5 86.34 56.5 87.5C50.0307 89.0008 41 86.5008 36.5 76.5Z" stroke="#564842" stroke-width="8" stroke-linecap="round" stroke-linejoin="round"/>
<path d="M83.5 78.5C77.9213 68.1002 83.5005 55.9999 88.5005 52.5C98.2742 45.6586 107.689 56.4999 110.5 63C115.294 74.0839 113.546 85.6403 101.501 86.5008C94.5014 87.0008 87.7919 86.5009 83.5 78.5Z" stroke="#564842" stroke-width="8" stroke-linecap="round" stroke-linejoin="round"/>
<path d="M14.5 93C20.2326 83.8272 27.8886 87.4706 34.9992 95C42.1097 102.529 44.2621 113.869 34.9992 118.5C25.9989 123 20.4993 119.019 16.0003 113.5C9.58027 105.624 12.0002 97 14.5 93Z" stroke="#564842" stroke-width="8" stroke-linecap="round" stroke-linejoin="round"/>
<mask id="mask0_117_1912" style="mask-type:alpha" maskUnits="userSpaceOnUse" x="0" y="0" width="187" height="247">
<path d="M7.42776 49.9942C10.2028 45.0428 15.4276 43.4943 15.4276 43.4943C15.4276 43.4943 13.9277 26.2748 24.9276 18.4942C45.4273 3.99423 59.9277 15.4942 59.9277 15.4942C59.9277 15.4942 60.4277 13.4943 64.4273 9.49426C74.4765 -0.556237 89.4277 5.49427 96.4277 9.49426C100.974 12.0923 110.427 17.4942 124.428 31.4943C151.856 58.9215 167.427 98.9942 172.427 117.994C185.23 166.64 182.427 242.994 182.427 242.994H49.4276C51.4271 212.994 53.4266 182.494 42.9271 156.494C32.4276 130.494 12.4264 99.4942 8.92687 91.9943C5.42737 84.4943 0.649822 62.088 7.42776 49.9942Z" fill="#816D61"/>
<path d="M15.4276 43.4943C15.4276 43.4943 10.2028 45.0428 7.42776 49.9942C0.649822 62.088 5.42737 84.4943 8.92687 91.9943C12.4264 99.4942 32.4276 130.494 42.9271 156.494C53.4266 182.494 51.4271 212.994 49.4276 242.994H182.427C182.427 242.994 185.23 166.64 172.427 117.994C167.427 98.9942 151.856 58.9215 124.428 31.4943C110.427 17.4942 100.974 12.0923 96.4277 9.49426C89.4277 5.49427 74.4765 -0.556237 64.4273 9.49426C60.4277 13.4943 59.9277 15.4942 59.9277 15.4942M15.4276 43.4943C15.4276 43.4943 13.9277 26.2748 24.9276 18.4942C45.4273 3.99423 59.9277 15.4942 59.9277 15.4942M15.4276 43.4943C15.4276 43.4943 15.926 50.6903 17.4277 54.9943C19.3031 60.3693 22.9277 64.9943 22.9277 64.9943M59.9277 15.4942C59.9277 15.4942 56.4277 21.4943 56.4277 28.4943C56.4277 42.4943 58.9277 44.9943 58.9277 44.9943" stroke="#816D61" stroke-width="8" stroke-linecap="round" stroke-linejoin="round"/>
</mask>
<g mask="url(#mask0_117_1912)">
<path d="M7.49844 38C7.49844 38 6.99679 47.696 8.4985 52C10.3739 57.375 13.9999 61.5 13.9999 61.5M56.7988 6C53.4984 10 52.4984 13 52.4984 13C52.4984 13 49.4984 20 49.4984 27C49.4984 41 51.2993 41.5 51.2993 41.5" stroke="#564842" stroke-width="8" stroke-linecap="round" stroke-linejoin="round"/>
<path d="M181.5 105C181 124.5 187 127 166 149.5C145 172 117.5 163 117.5 163" stroke="#564842" stroke-width="8" stroke-linecap="round" stroke-linejoin="round"/>
<path d="M75.1583 36.5095C85.5932 27.3894 103.316 19.963 128.819 22.6218C154.322 25.2806 164.61 53.219 164.61 53.219" stroke="#CAB9B1" stroke-width="8" stroke-linecap="round" stroke-linejoin="round"/>
<path d="M101.15 36.875C114.181 32.1578 133.39 31.6608 156.195 43.3834C178.999 55.106 178.46 84.8735 178.46 84.8735" stroke="#CAB9B1" stroke-width="8" stroke-linecap="round" stroke-linejoin="round"/>
<path d="M190 115C189.5 134.5 195 139 174 161.5C153 184 131 178 131 178" stroke="#564842" stroke-width="8" stroke-linecap="round" stroke-linejoin="round"/>
<path d="M119.499 222.5C97.5 219.5 92.6072 219.519 64.7097 208.378C36.8121 197.238 30.5636 173.701 30.5636 173.701" stroke="#564842" stroke-width="8" stroke-linecap="round" stroke-linejoin="round"/>
<path d="M198.512 203.439C166.381 211.135 146.52 212.552 92.5493 200.066C38.5784 187.581 28.1321 147.889 28.1321 147.889" stroke="#564842" stroke-width="8" stroke-linecap="round" stroke-linejoin="round"/>
</g>
</svg>
