<svg width="165" height="165" viewBox="0 0 165 165" fill="none" xmlns="http://www.w3.org/2000/svg">
<rect width="165" height="165" rx="10" fill="#CAB9B1"/>
<path fill-rule="evenodd" clip-rule="evenodd" d="M106.319 45.7994C113.009 44.1899 118.44 37.3077 118.451 30.4273C118.462 23.5469 113.048 19.2738 106.358 20.8831L106.357 20.8834C106.368 14.0029 100.953 9.72979 94.2639 11.3391C88.7289 12.6707 84.055 17.6121 82.6004 23.1754C80.7912 18.1145 76.3493 13.7971 71.192 12.6069C64.4878 11.0596 59.1133 15.3826 59.1879 22.2627L59.1879 22.2632L59.1851 22.2625C52.4809 20.7152 47.1064 25.0383 47.181 31.9183C47.2556 38.7984 52.7508 45.6301 59.4551 47.1774L59.4555 47.1775L59.4555 47.1777L60.2118 47.3523C54.1907 48.4717 48.6797 53.4631 47.3126 59.4003C45.7687 66.1053 50.0945 71.4776 56.9745 71.3995L56.9758 71.3995L56.9763 71.3996C55.4325 78.1046 59.7583 83.4767 66.6383 83.3987C72.6226 83.3308 78.5684 79.1617 81.031 73.6649L75.9244 146.518C75.6409 150.563 78.8455 154 82.9 154C86.9545 154 90.1591 150.563 89.8756 146.518L84.7566 73.4877C87.2346 79.0842 93.3562 83.2934 99.4447 83.2577C106.325 83.2173 110.558 77.7715 108.899 71.094L108.899 71.0939L108.9 71.0939C115.78 71.0536 120.013 65.6077 118.354 58.9303C116.695 52.2528 109.772 46.8724 102.892 46.9127L102.89 46.9127L102.89 46.9126L101.664 46.9198L106.319 45.7998V45.7994ZM83.0831 49.6112C83.9118 48.7992 84.9207 48.1479 86.0786 47.6974C84.8167 46.8621 83.7965 45.6926 83.107 44.259C82.6071 45.8319 81.7499 47.1612 80.6242 48.1752C81.4103 48.6051 82.1088 49.1401 82.7063 49.7639L82.9 47L83.0831 49.6112Z" fill="#6B7050"/>
<path d="M87.6019 42.6562C87.6019 42.6562 88.4466 40.9449 90.1652 39.3573C93.0429 36.699 95.4449 36.6118 95.4449 36.6118M87.6648 54.351C87.6648 54.351 89.5251 54.7774 91.4668 56.0827C94.718 58.2682 95.3579 60.585 95.3579 60.585M78.009 42.6562C78.009 42.6562 77.1642 40.9449 75.4456 39.3573C72.568 36.699 70.166 36.6118 70.166 36.6118M77.9461 54.351C77.9461 54.351 76.0858 54.7774 74.1441 56.0827C70.8928 58.2682 70.2529 60.585 70.2529 60.585" stroke="#495235" stroke-width="2" stroke-linecap="round"/>
<ellipse cx="83" cy="48" rx="4" ry="7" fill="#6B7050"/>
</svg>
