<svg width="371" height="378" viewBox="0 0 371 378" fill="none" xmlns="http://www.w3.org/2000/svg">
    <path class="flower" d="M117.998 133C114.498 131 108.998 133 108.998 133C108.998 133 113.023 138.865 116.998 139.5C120.415 140.046 125.498 137 125.498 137C125.498 137 121.498 135 117.998 133Z" fill="#FFD2AA" stroke="#FFD2AA" stroke-width="2" stroke-linejoin="round"/>
    <path class="flower" d="M243.907 60.0732C239.665 57.6585 232.998 60.0732 232.998 60.0732C232.998 60.0732 237.877 67.1542 242.695 67.9209C246.836 68.58 252.998 64.9026 252.998 64.9026C252.998 64.9026 248.15 62.4879 243.907 60.0732Z" fill="#FFD2AA" stroke="#FFD2AA" stroke-width="2" stroke-linejoin="round"/>
    <path class="flower" d="M256.998 221.889C253.498 219.889 247.998 221.889 247.998 221.889C247.998 221.889 252.023 227.754 255.998 228.389C259.415 228.935 264.498 225.889 264.498 225.889C264.498 225.889 260.498 223.889 256.998 221.889Z" fill="#FFD2AA" stroke="#FFD2AA" stroke-width="2" stroke-linejoin="round"/>
    <path class="flower" d="M238.247 147.948C234.771 149.989 233.769 155.755 233.769 155.755C233.769 155.755 240.859 155.182 243.388 152.05C245.562 149.358 245.449 143.433 245.449 143.433C245.449 143.433 241.724 145.907 238.247 147.948Z" fill="#FFD2AA" stroke="#FFD2AA" stroke-width="2" stroke-linejoin="round"/>
    <path class="flower" d="M311.501 328.038C307.48 327.744 303.382 331.921 303.382 331.921C303.382 331.921 309.543 335.475 313.403 334.333C316.721 333.351 319.993 328.41 319.993 328.41C319.993 328.41 315.521 328.332 311.501 328.038Z" fill="#FFD2AA" stroke="#FFD2AA" stroke-width="2" stroke-linejoin="round"/>
    <path class="flower" d="M118.501 40.0378C114.48 39.7437 110.382 43.921 110.382 43.921C110.382 43.921 116.543 47.4753 120.403 46.3332C123.721 45.3515 126.993 40.4104 126.993 40.4104C126.993 40.4104 122.521 40.332 118.501 40.0378Z" fill="#FFD2AA" stroke="#FFD2AA" stroke-width="2" stroke-linejoin="round"/>
    <path class="flower" d="M54.6405 245.905C57.1562 242.755 56.028 237.012 56.028 237.012C56.028 237.012 49.6127 240.085 48.3724 243.914C47.3063 247.206 49.5321 252.698 49.5321 252.698C49.5321 252.698 52.1249 249.054 54.6405 245.905Z" fill="#FFD2AA" stroke="#FFD2AA" stroke-width="2" stroke-linejoin="round"/>
    <path class="flower" d="M264.353 208.721C264.966 204.736 261.127 200.319 261.127 200.319C261.127 200.319 257.095 206.178 257.926 210.117C258.641 213.502 263.307 217.156 263.307 217.156C263.307 217.156 263.74 212.705 264.353 208.721Z" fill="#FFD2AA" stroke="#FFD2AA" stroke-width="2" stroke-linejoin="round"/>
    <path class="flower" d="M239.368 136.973C235.451 137.924 230.721 134.478 230.721 134.478C230.721 134.478 236.214 129.959 240.209 130.45C243.643 130.873 247.683 135.208 247.683 135.208C247.683 135.208 243.286 136.021 239.368 136.973Z" fill="#FFD2AA" stroke="#FFD2AA" stroke-width="2" stroke-linejoin="round"/>
    <path class="flower" d="M135.294 306.496C138.472 304.016 138.707 298.169 138.707 298.169C138.707 298.169 131.754 299.669 129.658 303.106C127.857 306.06 128.748 311.919 128.748 311.919C128.748 311.919 132.116 308.976 135.294 306.496Z" fill="#FFD2AA" stroke="#FFD2AA" stroke-width="2" stroke-linejoin="round"/>
    <path class="flower" d="M96.8153 268.641C101.911 267.563 105.5 260.906 105.5 260.906C105.5 260.906 96.5755 258.706 92.1941 261.509C88.428 263.919 86.1405 271.226 86.1405 271.226C86.1405 271.226 91.7191 269.719 96.8153 268.641Z" fill="#FFD2AA" stroke="#FFD2AA" stroke-width="2" stroke-linejoin="round"/>
    <path class="flower" d="M112.622 118.857C108.86 114.998 107.998 106 107.998 106C107.998 106 114.604 108.571 119.888 113.714C125.172 118.857 123.851 124 123.851 124C123.851 124 115.957 122.279 112.622 118.857Z" fill="#FFD2AA" stroke="#FFD2AA" stroke-width="2" stroke-linejoin="round"/>
    <path class="flower" d="M195.518 69.6291C191.9 67.6213 189.176 61.1424 189.176 61.1424C189.176 61.1424 194.546 61.548 199.563 64.1617C204.579 66.7753 204.827 70.891 204.827 70.891C204.827 70.891 198.726 71.4094 195.518 69.6291Z" fill="#FFD2AA" stroke="#FFD2AA" stroke-width="2" stroke-linejoin="round"/>
    <path class="flower" d="M32.498 246C29.6506 242.998 28.998 236 28.998 236C28.998 236 33.998 238 37.998 242C41.998 246 40.998 250 40.998 250C40.998 250 35.0228 248.662 32.498 246Z" fill="#FFD2AA" stroke="#FFD2AA" stroke-width="2" stroke-linejoin="round"/>
    <path class="flower" d="M23.5829 183.134C19.886 184.992 12.998 183.594 12.998 183.594C12.998 183.594 16.3582 179.386 21.3438 176.713C26.3294 174.04 29.8695 176.154 29.8695 176.154C29.8695 176.154 26.8608 181.487 23.5829 183.134Z" fill="#FFD2AA" stroke="#FFD2AA" stroke-width="2" stroke-linejoin="round"/>
    <path class="flower" d="M140.707 217.377C145.213 220.119 148.354 228.511 148.354 228.511C148.354 228.511 141.534 227.72 135.276 224.135C129.018 220.55 128.912 215.295 128.912 215.295C128.912 215.295 136.711 214.945 140.707 217.377Z" fill="#FFD2AA" stroke="#FFD2AA" stroke-width="2" stroke-linejoin="round"/>
    <path class="flower" d="M140.929 217.091C145.435 219.833 148.576 228.225 148.576 228.225C148.576 228.225 141.756 227.435 135.499 223.849C129.241 220.264 129.135 215.009 129.135 215.009C129.135 215.009 136.934 214.659 140.929 217.091Z" fill="#FFD2AA" stroke="#FFD2AA" stroke-width="2" stroke-linejoin="round"/>
    <path class="flower" d="M305.003 347.842C310.177 350.99 313.783 360.625 313.783 360.625C313.783 360.625 305.953 359.718 298.768 355.602C291.583 351.485 291.462 345.451 291.462 345.451C291.462 345.451 300.416 345.05 305.003 347.842Z" fill="#FFD2AA" stroke="#FFD2AA" stroke-width="2" stroke-linejoin="round"/>
    <path class="flower" d="M152.199 314.624C147.452 316.637 138.998 314.344 138.998 314.344C138.998 314.344 143.515 309.381 149.931 306.458C156.346 303.535 160.578 306.448 160.578 306.448C160.578 306.448 156.408 312.839 152.199 314.624Z" fill="#FFD2AA" stroke="#FFD2AA" stroke-width="2" stroke-linejoin="round"/>

    <g class="flower">
        <path d="M159.998 154C160.224 148.577 163.998 139.745 163.998 139.745C163.998 139.745 159.836 145.623 155.998 148C152.162 150.376 144.498 151.824 144.498 151.824C144.498 151.824 145.572 144.609 147.998 140.843C150.615 136.78 157.498 132.059 157.498 132.059C157.498 132.059 150.817 135.343 146.498 135C142.237 134.661 135.998 130.412 135.998 130.412C135.998 130.412 141.108 126.019 144.998 124.5C148.773 123.026 155.498 122.725 155.498 122.725C155.498 122.725 147.427 121.988 143.498 119C139.279 115.791 134.998 106.804 134.998 106.804C134.998 106.804 143.704 107.187 147.998 109C150.252 109.952 153.273 111.961 155.297 113.392C152.811 111.47 148.925 108.123 147.498 105C145.208 99.9889 144.498 90.3333 144.498 90.3333C144.498 90.3333 153.072 94.1928 156.998 98C159.37 100.3 161.593 104.207 162.873 106.692C161.758 104.237 160.189 100.265 159.998 97C159.694 91.7906 162.498 82.6471 162.498 82.6471C162.498 82.6471 169.295 89.4851 171.498 94.5C172.799 97.46 173.253 101.742 173.413 104.395C173.374 101.662 173.492 97.1717 174.498 94C176.188 88.67 181.998 81 181.998 81C181.998 81 185.001 89.2135 184.998 94.5C184.996 99.0763 182.717 105.861 182.133 107.524C182.683 106.024 184.877 100.429 187.998 97.5C191.816 93.9168 200.998 90.3333 200.998 90.3333C200.998 90.3333 200.219 98.7263 197.998 103C195.97 106.902 187.998 112.5 187.998 112.5C187.998 112.5 196.029 107.692 200.498 106.5C204.695 105.381 212.498 105.157 212.498 105.157C212.498 105.157 208.411 111.733 204.498 114.5C200.372 117.417 191.998 119.431 191.998 119.431C191.998 119.431 200.831 118.108 205.998 119.431C211.026 120.72 217.998 127.255 217.998 127.255C217.998 127.255 210.467 129.467 205.498 130C200.644 130.52 192.998 128.765 192.998 128.765C192.998 128.765 199.675 130.313 203.498 133C207.343 135.703 212.498 142.49 212.498 142.49C212.498 142.49 204.294 143.116 199.498 142C194.886 140.927 188.498 137 188.498 137C188.498 137 194.736 142.226 195.998 146.5C197.084 150.176 197.498 158 197.498 158C197.498 158 188.583 154.995 185.998 151.824C183.499 148.758 182.082 141.296 182.002 140.863C182.085 141.315 183.557 149.42 182.998 154C182.413 158.795 177.998 166 177.998 166C177.998 166 175.245 159.707 173.998 155.5C172.637 150.907 172.498 142.49 172.498 142.49C172.498 142.49 171.645 151.342 169.498 156C167.592 160.136 162.498 165 162.498 165C162.498 165 159.811 158.491 159.998 154Z" fill="#FFD2AA"/>
        <path d="M181.998 81C181.998 81 176.188 88.67 174.498 94C172.958 98.8564 173.498 106.804 173.498 106.804C173.498 106.804 173.508 99.0736 171.498 94.5C169.295 89.4851 162.498 82.6471 162.498 82.6471C162.498 82.6471 159.694 91.7906 159.998 97C160.298 102.128 163.998 109 163.998 109C163.998 109 160.677 101.568 156.998 98C153.072 94.1928 144.498 90.3333 144.498 90.3333C144.498 90.3333 145.208 99.9889 147.498 105C149.664 109.741 157.498 115 157.498 115C157.498 115 151.709 110.567 147.998 109C143.704 107.187 134.998 106.804 134.998 106.804C134.998 106.804 139.279 115.791 143.498 119C147.427 121.988 155.498 122.725 155.498 122.725C155.498 122.725 148.773 123.026 144.998 124.5C141.108 126.019 135.998 130.412 135.998 130.412C135.998 130.412 142.237 134.661 146.498 135C150.817 135.343 157.498 132.059 157.498 132.059C157.498 132.059 150.615 136.78 147.998 140.843C145.572 144.609 144.498 151.824 144.498 151.824C144.498 151.824 152.162 150.376 155.998 148C159.836 145.623 163.998 139.745 163.998 139.745C163.998 139.745 160.224 148.577 159.998 154C159.811 158.491 162.498 165 162.498 165C162.498 165 167.592 160.136 169.498 156C171.645 151.342 172.498 142.49 172.498 142.49C172.498 142.49 172.637 150.907 173.998 155.5C175.245 159.707 177.998 166 177.998 166C177.998 166 182.413 158.795 182.998 154C183.573 149.287 181.998 140.843 181.998 140.843C181.998 140.843 183.424 148.666 185.998 151.824C188.583 154.995 197.498 158 197.498 158C197.498 158 197.084 150.176 195.998 146.5C194.736 142.226 188.498 137 188.498 137C188.498 137 194.886 140.927 199.498 142C204.294 143.116 212.498 142.49 212.498 142.49C212.498 142.49 207.343 135.703 203.498 133C199.675 130.313 192.998 128.765 192.998 128.765C192.998 128.765 200.644 130.52 205.498 130C210.467 129.467 217.998 127.255 217.998 127.255C217.998 127.255 211.026 120.72 205.998 119.431C200.831 118.108 191.998 119.431 191.998 119.431C191.998 119.431 200.372 117.417 204.498 114.5C208.411 111.733 212.498 105.157 212.498 105.157C212.498 105.157 204.695 105.381 200.498 106.5C196.029 107.692 187.998 112.5 187.998 112.5C187.998 112.5 195.97 106.902 197.998 103C200.219 98.7263 200.998 90.3333 200.998 90.3333C200.998 90.3333 191.816 93.9168 187.998 97.5C184.373 100.902 181.998 107.902 181.998 107.902C181.998 107.902 184.995 99.7483 184.998 94.5C185.001 89.2135 181.998 81 181.998 81Z" stroke="#FFD2AA" stroke-width="2" stroke-linejoin="round"/>
        <ellipse cx="173.498" cy="123" rx="15.5" ry="15" fill="#816D61"/>
    </g>
    <g class="flower">
        <path d="M103.017 367.616C103.18 363.707 105.9 357.342 105.9 357.342C105.9 357.342 102.901 361.578 100.134 363.292C97.3691 365.004 91.8454 366.047 91.8454 366.047C91.8454 366.047 92.6198 360.848 94.368 358.133C96.2541 355.205 101.215 351.802 101.215 351.802C101.215 351.802 96.3998 354.169 93.2869 353.922C90.2159 353.677 85.7188 350.614 85.7188 350.614C85.7188 350.614 89.4017 347.449 92.2057 346.353C94.9267 345.291 99.7738 345.074 99.7738 345.074C99.7738 345.074 93.9563 344.543 91.1246 342.389C88.0835 340.076 84.998 333.599 84.998 333.599C84.998 333.599 91.2729 333.875 94.368 335.182C95.9927 335.867 98.1699 337.316 99.6291 338.347C97.837 336.962 95.036 334.549 94.0077 332.298C92.3574 328.687 91.8454 321.727 91.8454 321.727C91.8454 321.727 98.0252 324.509 100.855 327.253C102.565 328.911 104.167 331.727 105.09 333.518C104.286 331.749 103.155 328.886 103.017 326.532C102.798 322.778 104.819 316.187 104.819 316.187C104.819 316.187 109.718 321.116 111.306 324.73C112.244 326.864 112.571 329.95 112.686 331.863C112.658 329.892 112.744 326.656 113.468 324.37C114.686 320.528 118.874 315 118.874 315C118.874 315 121.039 320.92 121.037 324.73C121.035 328.029 119.392 332.919 118.971 334.118C119.368 333.036 120.949 329.004 123.199 326.893C125.951 324.31 132.569 321.727 132.569 321.727C132.569 321.727 132.007 327.777 130.407 330.857C128.945 333.67 123.199 337.704 123.199 337.704C123.199 337.704 128.987 334.239 132.208 333.38C135.233 332.573 140.858 332.412 140.858 332.412C140.858 332.412 137.912 337.151 135.092 339.146C132.118 341.249 126.082 342.7 126.082 342.7C126.082 342.7 132.449 341.746 136.173 342.7C139.797 343.629 144.822 348.339 144.822 348.339C144.822 348.339 139.394 349.934 135.812 350.318C132.314 350.693 126.803 349.427 126.803 349.427C126.803 349.427 131.616 350.543 134.371 352.48C137.142 354.428 140.858 359.32 140.858 359.32C140.858 359.32 134.944 359.771 131.488 358.967C128.164 358.193 123.559 355.363 123.559 355.363C123.559 355.363 128.055 359.13 128.965 362.21C129.748 364.86 130.046 370.499 130.046 370.499C130.046 370.499 123.621 368.333 121.757 366.047C119.957 363.84 118.937 358.468 118.877 358.148C118.938 358.482 119.997 364.318 119.595 367.616C119.173 371.072 115.991 376.265 115.991 376.265C115.991 376.265 114.007 371.73 113.108 368.697C112.127 365.387 112.027 359.32 112.027 359.32C112.027 359.32 111.412 365.7 109.865 369.058C108.491 372.039 104.819 375.545 104.819 375.545C104.819 375.545 102.882 370.853 103.017 367.616Z" fill="#FFD2AA"/>
        <path d="M118.874 315C118.874 315 114.686 320.528 113.468 324.37C112.359 327.87 112.748 333.599 112.748 333.599C112.748 333.599 112.755 328.027 111.306 324.73C109.718 321.116 104.819 316.187 104.819 316.187C104.819 316.187 102.798 322.778 103.017 326.532C103.233 330.228 105.9 335.182 105.9 335.182C105.9 335.182 103.507 329.825 100.855 327.253C98.0252 324.509 91.8454 321.727 91.8454 321.727C91.8454 321.727 92.3574 328.687 94.0077 332.298C95.5688 335.715 101.215 339.506 101.215 339.506C101.215 339.506 97.0428 336.311 94.368 335.182C91.2729 333.875 84.998 333.599 84.998 333.599C84.998 333.599 88.0835 340.076 91.1246 342.389C93.9563 344.543 99.7738 345.074 99.7738 345.074C99.7738 345.074 94.9267 345.291 92.2057 346.353C89.4017 347.449 85.7188 350.614 85.7188 350.614C85.7188 350.614 90.2159 353.677 93.2869 353.922C96.3998 354.169 101.215 351.802 101.215 351.802C101.215 351.802 96.2541 355.205 94.368 358.133C92.6198 360.848 91.8454 366.047 91.8454 366.047C91.8454 366.047 97.3691 365.004 100.134 363.292C102.901 361.578 105.9 357.342 105.9 357.342C105.9 357.342 103.18 363.707 103.017 367.616C102.882 370.853 104.819 375.545 104.819 375.545C104.819 375.545 108.491 372.039 109.865 369.058C111.412 365.7 112.027 359.32 112.027 359.32C112.027 359.32 112.127 365.387 113.108 368.697C114.007 371.73 115.991 376.265 115.991 376.265C115.991 376.265 119.173 371.072 119.595 367.616C120.009 364.219 118.874 358.133 118.874 358.133C118.874 358.133 119.902 363.771 121.757 366.047C123.621 368.333 130.046 370.499 130.046 370.499C130.046 370.499 129.748 364.86 128.965 362.21C128.055 359.13 123.559 355.363 123.559 355.363C123.559 355.363 128.164 358.193 131.488 358.967C134.944 359.771 140.858 359.32 140.858 359.32C140.858 359.32 137.142 354.428 134.371 352.48C131.616 350.543 126.803 349.427 126.803 349.427C126.803 349.427 132.314 350.693 135.812 350.318C139.394 349.934 144.822 348.339 144.822 348.339C144.822 348.339 139.797 343.629 136.173 342.7C132.449 341.746 126.082 342.7 126.082 342.7C126.082 342.7 132.118 341.249 135.092 339.146C137.912 337.151 140.858 332.412 140.858 332.412C140.858 332.412 135.233 332.573 132.208 333.38C128.987 334.239 123.199 337.704 123.199 337.704C123.199 337.704 128.945 333.67 130.407 330.857C132.007 327.777 132.569 321.727 132.569 321.727C132.569 321.727 125.951 324.31 123.199 326.893C120.586 329.345 118.874 334.39 118.874 334.39C118.874 334.39 121.034 328.513 121.037 324.73C121.039 320.92 118.874 315 118.874 315Z" stroke="#FFD2AA" stroke-width="2" stroke-linejoin="round"/>
        <ellipse cx="112.748" cy="345.272" rx="11.1719" ry="10.8115" fill="#816D61"/>
    </g>
    <g class="flower">
        <path d="M261.973 163.431C263.686 159.914 268.725 155.168 268.725 155.168C268.725 155.168 264.281 157.851 261.06 158.314C257.841 158.778 252.361 157.524 252.361 157.524C252.361 157.524 255.151 153.068 257.839 151.28C260.739 149.35 266.647 148.216 266.647 148.216C266.647 148.216 261.287 148.459 258.533 146.987C255.816 145.535 252.92 140.929 252.92 140.929C252.92 140.929 257.561 139.501 260.569 139.619C263.488 139.733 268.017 141.474 268.017 141.474C268.017 141.474 262.898 138.66 261.164 135.553C259.303 132.217 259.066 125.046 259.066 125.046C259.066 125.046 264.706 127.809 267.02 130.245C268.235 131.523 269.651 133.721 270.576 135.25C269.487 133.264 267.885 129.932 267.843 127.458C267.776 123.488 270.09 116.905 270.09 116.905C270.09 116.905 274.641 121.926 276.137 125.573C277.041 127.777 277.383 130.998 277.512 133.009C277.483 131.066 277.592 127.989 278.407 125.778C279.708 122.249 284.197 117.017 284.197 117.017C284.197 117.017 286.715 123.494 286.725 127.442C286.731 129.772 285.796 132.732 285.136 134.531C285.899 132.714 287.272 129.782 288.851 127.977C291.504 124.943 297.553 121.551 297.553 121.551C297.553 121.551 297.169 127.843 295.643 131.334C294.322 134.357 290.86 138.182 289.995 139.112C290.791 138.279 293.854 135.216 296.76 134.181C300.315 132.915 307.414 133.195 307.414 133.195C307.414 133.195 304.479 138.515 301.78 140.698C299.315 142.691 292.435 144.09 292.435 144.09C292.435 144.09 299.126 143.229 302.422 143.73C305.517 144.201 310.736 146.303 310.736 146.303C310.736 146.303 306.14 149.469 302.758 150.168C299.191 150.906 293.079 149.822 293.079 149.822C293.079 149.822 299.295 151.494 302.327 153.859C305.277 156.159 307.998 162.487 307.998 162.487C307.998 162.487 302.386 161.777 298.949 160.696C295.593 159.64 291.048 156.276 291.048 156.276C291.048 156.276 295.013 159.224 296.763 162.101C298.524 164.995 299.972 170.965 299.972 170.965C299.972 170.965 294.372 169.013 291.526 166.893C288.789 164.854 285.701 160.418 285.701 160.418C285.701 160.418 288.315 165.669 287.916 168.856C287.573 171.598 285.591 176.886 285.591 176.886C285.591 176.886 280.569 172.33 279.775 169.49C279.009 166.746 280.222 161.415 280.296 161.098C280.218 161.429 278.855 167.2 277.166 170.063C275.397 173.061 270.403 176.548 270.403 176.548C270.403 176.548 270.399 171.597 270.788 168.459C271.214 165.032 273.549 159.432 273.549 159.432C273.549 159.432 270.433 165.033 267.672 167.491C265.22 169.674 260.452 171.418 260.452 171.418C260.452 171.418 260.554 166.344 261.973 163.431Z" fill="#FFD2AA"/>
        <path d="M297.553 121.551C297.553 121.551 291.504 124.943 288.851 127.977C286.433 130.741 284.498 136.146 284.498 136.146C284.498 136.146 286.734 131.043 286.725 127.442C286.715 123.494 284.197 117.017 284.197 117.017C284.197 117.017 279.708 122.249 278.407 125.778C277.127 129.251 277.59 134.858 277.59 134.858C277.59 134.858 277.539 128.991 276.137 125.573C274.641 121.926 270.09 116.905 270.09 116.905C270.09 116.905 267.776 123.488 267.843 127.458C267.907 131.214 271.566 136.947 271.566 136.947C271.566 136.947 269.02 132.35 267.02 130.245C264.706 127.809 259.066 125.046 259.066 125.046C259.066 125.046 259.303 132.217 261.164 135.553C262.898 138.66 268.017 141.474 268.017 141.474C268.017 141.474 263.488 139.733 260.569 139.619C257.561 139.501 252.92 140.929 252.92 140.929C252.92 140.929 255.816 145.535 258.533 146.987C261.287 148.459 266.647 148.216 266.647 148.216C266.647 148.216 260.739 149.35 257.839 151.28C255.151 153.068 252.361 157.524 252.361 157.524C252.361 157.524 257.841 158.778 261.06 158.314C264.281 157.851 268.725 155.168 268.725 155.168C268.725 155.168 263.686 159.914 261.973 163.431C260.554 166.344 260.452 171.418 260.452 171.418C260.452 171.418 265.22 169.674 267.672 167.491C270.433 165.033 273.549 159.432 273.549 159.432C273.549 159.432 271.214 165.032 270.788 168.459C270.399 171.597 270.403 176.548 270.403 176.548C270.403 176.548 275.397 173.061 277.166 170.063C278.905 167.115 280.299 161.083 280.299 161.083C280.299 161.083 278.985 166.661 279.775 169.49C280.569 172.33 285.591 176.886 285.591 176.886C285.591 176.886 287.573 171.598 287.916 168.856C288.315 165.669 285.701 160.418 285.701 160.418C285.701 160.418 288.789 164.854 291.526 166.893C294.372 169.013 299.972 170.965 299.972 170.965C299.972 170.965 298.524 164.995 296.763 162.101C295.013 159.224 291.048 156.276 291.048 156.276C291.048 156.276 295.593 159.64 298.949 160.696C302.386 161.777 307.998 162.487 307.998 162.487C307.998 162.487 305.277 156.159 302.327 153.859C299.295 151.494 293.079 149.822 293.079 149.822C293.079 149.822 299.191 150.906 302.758 150.168C306.14 149.469 310.736 146.303 310.736 146.303C310.736 146.303 305.517 144.201 302.422 143.73C299.126 143.229 292.435 144.09 292.435 144.09C292.435 144.09 299.315 142.691 301.78 140.698C304.479 138.515 307.414 133.195 307.414 133.195C307.414 133.195 300.315 132.915 296.76 134.181C293.384 135.383 289.797 139.322 289.797 139.322C289.797 139.322 294.128 134.8 295.643 131.334C297.169 127.843 297.553 121.551 297.553 121.551Z" stroke="#FFD2AA" stroke-width="2" stroke-linejoin="round"/>
        <ellipse cx="279.828" cy="146.845" rx="11.1719" ry="10.8115" transform="rotate(23.5799 279.828 146.845)" fill="#816D61"/>
    </g>
    <g class="flower">
        <path d="M145.973 55.4311C147.686 51.9135 152.725 47.1678 152.725 47.1678C152.725 47.1678 148.281 49.8506 145.06 50.3142C141.841 50.7776 136.361 49.5242 136.361 49.5242C136.361 49.5242 139.151 45.0683 141.839 43.2799C144.739 41.3505 150.647 40.2162 150.647 40.2162C150.647 40.2162 145.287 40.4595 142.533 38.9875C139.816 37.5353 136.92 32.9291 136.92 32.9291C136.92 32.9291 141.561 31.5009 144.569 31.6188C147.488 31.7333 152.017 33.474 152.017 33.474C152.017 33.474 146.898 30.6599 145.164 27.5531C143.303 24.2165 143.066 17.0457 143.066 17.0457C143.066 17.0457 148.706 19.8089 151.02 22.2447C152.235 23.5233 153.651 25.7215 154.576 27.2504C153.487 25.2643 151.885 21.9323 151.843 19.4582C151.776 15.4878 154.09 8.90459 154.09 8.90459C154.09 8.90459 158.641 13.9262 160.137 17.5732C161.041 19.7768 161.383 22.9984 161.512 25.0093C161.483 23.066 161.592 19.9894 162.407 17.7776C163.708 14.2485 168.197 9.01703 168.197 9.01703C168.197 9.01703 170.715 15.4937 170.725 19.4419C170.731 21.7722 169.796 24.7322 169.136 26.5307C169.899 24.7137 171.272 21.7818 172.851 19.9766C175.504 16.9429 181.553 13.5514 181.553 13.5514C181.553 13.5514 181.169 19.8429 179.643 23.3343C178.322 26.3566 174.86 30.1817 173.995 31.1117C174.791 30.2794 177.854 27.2159 180.76 26.181C184.315 24.9149 191.414 25.1951 191.414 25.1951C191.414 25.1951 188.479 30.5148 185.78 32.6976C183.315 34.6906 176.435 36.0899 176.435 36.0899C176.435 36.0899 183.126 35.2291 186.422 35.7304C189.517 36.2012 194.736 38.3031 194.736 38.3031C194.736 38.3031 190.14 41.4689 186.758 42.1684C183.191 42.906 177.079 41.8219 177.079 41.8219C177.079 41.8219 183.295 43.4943 186.327 45.8585C189.277 48.1594 191.998 54.4866 191.998 54.4866C191.998 54.4866 186.386 53.7767 182.949 52.6959C179.593 51.6402 175.048 48.2757 175.048 48.2757C175.048 48.2757 179.013 51.224 180.763 54.101C182.524 56.995 183.972 62.965 183.972 62.965C183.972 62.965 178.372 61.0129 175.526 58.8929C172.789 56.8542 169.701 52.4184 169.701 52.4184C169.701 52.4184 172.315 57.6688 171.916 60.8564C171.573 63.598 169.591 68.8857 169.591 68.8857C169.591 68.8857 164.569 64.33 163.775 61.4898C163.009 58.7463 164.222 53.4153 164.296 53.0979C164.218 53.4287 162.855 59.2004 161.166 62.0626C159.397 65.0614 154.403 68.548 154.403 68.548C154.403 68.548 154.399 63.5972 154.788 60.4585C155.214 57.0318 157.549 51.4319 157.549 51.4319C157.549 51.4319 154.433 57.0331 151.672 59.4913C149.22 61.6741 144.452 63.4183 144.452 63.4183C144.452 63.4183 144.554 58.3441 145.973 55.4311Z" fill="#FFD2AA"/>
        <path d="M181.553 13.5514C181.553 13.5514 175.504 16.9429 172.851 19.9766C170.433 22.7407 168.498 28.1463 168.498 28.1463C168.498 28.1463 170.734 23.0425 170.725 19.4419C170.715 15.4937 168.197 9.01703 168.197 9.01703C168.197 9.01703 163.708 14.2485 162.407 17.7776C161.127 21.2513 161.59 26.8579 161.59 26.8579C161.59 26.8579 161.539 20.9911 160.137 17.5732C158.641 13.9262 154.09 8.90459 154.09 8.90459C154.09 8.90459 151.776 15.4878 151.843 19.4582C151.907 23.2142 155.566 28.9473 155.566 28.9473C155.566 28.9473 153.02 24.3497 151.02 22.2447C148.706 19.8089 143.066 17.0457 143.066 17.0457C143.066 17.0457 143.303 24.2165 145.164 27.5531C146.898 30.6599 152.017 33.474 152.017 33.474C152.017 33.474 147.488 31.7333 144.569 31.6188C141.561 31.5009 136.92 32.9291 136.92 32.9291C136.92 32.9291 139.816 37.5353 142.533 38.9875C145.287 40.4595 150.647 40.2162 150.647 40.2162C150.647 40.2162 144.739 41.3505 141.839 43.2799C139.151 45.0683 136.361 49.5242 136.361 49.5242C136.361 49.5242 141.841 50.7776 145.06 50.3142C148.281 49.8506 152.725 47.1678 152.725 47.1678C152.725 47.1678 147.686 51.9135 145.973 55.4311C144.554 58.3441 144.452 63.4183 144.452 63.4183C144.452 63.4183 149.22 61.6741 151.672 59.4913C154.433 57.0331 157.549 51.4319 157.549 51.4319C157.549 51.4319 155.214 57.0318 154.788 60.4585C154.399 63.5972 154.403 68.548 154.403 68.548C154.403 68.548 159.397 65.0614 161.166 62.0626C162.905 59.1153 164.299 53.083 164.299 53.083C164.299 53.083 162.985 58.6614 163.775 61.4898C164.569 64.33 169.591 68.8857 169.591 68.8857C169.591 68.8857 171.573 63.598 171.916 60.8564C172.315 57.6688 169.701 52.4184 169.701 52.4184C169.701 52.4184 172.789 56.8542 175.526 58.8929C178.372 61.0129 183.972 62.965 183.972 62.965C183.972 62.965 182.524 56.995 180.763 54.101C179.013 51.224 175.048 48.2757 175.048 48.2757C175.048 48.2757 179.593 51.6402 182.949 52.6959C186.386 53.7767 191.998 54.4866 191.998 54.4866C191.998 54.4866 189.277 48.1594 186.327 45.8585C183.295 43.4943 177.079 41.8219 177.079 41.8219C177.079 41.8219 183.191 42.906 186.758 42.1684C190.14 41.4689 194.736 38.3031 194.736 38.3031C194.736 38.3031 189.517 36.2012 186.422 35.7304C183.126 35.2291 176.435 36.0899 176.435 36.0899C176.435 36.0899 183.315 34.6906 185.78 32.6976C188.479 30.5148 191.414 25.1951 191.414 25.1951C191.414 25.1951 184.315 24.9149 180.76 26.181C177.384 27.3831 173.797 31.3225 173.797 31.3225C173.797 31.3225 178.128 26.8005 179.643 23.3343C181.169 19.8429 181.553 13.5514 181.553 13.5514Z" stroke="#FFD2AA" stroke-width="2" stroke-linejoin="round"/>
        <ellipse cx="163.828" cy="38.8453" rx="11.1719" ry="10.8115" transform="rotate(23.5799 163.828 38.8453)" fill="#816D61"/>
    </g>
    <g class="flower">
        <path d="M40.3233 97.4699C40.6063 90.6743 45.3354 79.6083 45.3354 79.6083C45.3354 79.6083 40.1204 86.9734 35.3113 89.9518C30.5043 92.9289 20.9017 94.7427 20.9017 94.7427C20.9017 94.7427 22.2479 85.703 25.2872 80.9842C28.5661 75.8933 37.1908 69.9773 37.1908 69.9773C37.1908 69.9773 28.8193 74.0928 23.4077 73.6627C18.0689 73.2383 10.2511 67.9135 10.2511 67.9135C10.2511 67.9135 16.6536 62.4099 21.5282 60.506C26.2584 58.6586 34.6848 58.2825 34.6848 58.2825C34.6848 58.2825 24.5713 57.3588 19.6486 53.6145C14.3619 49.5931 8.99805 38.3326 8.99805 38.3326C8.99805 38.3326 19.9065 38.8125 25.2872 41.0843C28.1115 42.2768 31.8965 44.7944 34.4332 46.5873C31.3177 44.1797 26.4484 39.9849 24.6607 36.0723C21.7918 29.7933 20.9017 17.6948 20.9017 17.6948C20.9017 17.6948 31.645 22.5307 36.5643 27.3012C39.5367 30.1837 42.3223 35.0786 43.9263 38.1929C42.529 35.1166 40.5624 30.1393 40.3233 26.0482C39.9419 19.5207 43.4559 8.06378 43.4559 8.06378C43.4559 8.06378 51.9719 16.6319 54.733 22.9157C56.3627 26.6246 56.9326 31.9903 57.1319 35.3147C57.0834 31.8895 57.232 26.2633 58.492 22.2892C60.6094 15.6106 67.8896 6 67.8896 6C67.8896 6 71.6522 16.2916 71.6487 22.9157C71.6456 28.6498 68.7899 37.1516 68.0586 39.235C68.7479 37.3553 71.4974 30.3443 75.4077 26.6747C80.1919 22.1849 91.6968 17.6948 91.6968 17.6948C91.6968 17.6948 90.721 28.2113 87.9378 33.5663C85.3965 38.4558 75.4077 45.4699 75.4077 45.4699C75.4077 45.4699 85.4702 39.4452 91.0703 37.9518C96.3292 36.5494 106.106 36.2688 106.106 36.2688C106.106 36.2688 100.986 44.5088 96.0824 47.9759C90.9126 51.6315 80.4197 54.155 80.4197 54.155C80.4197 54.155 91.4879 52.4962 97.9619 54.155C104.263 55.7693 112.998 63.958 112.998 63.958C112.998 63.958 103.562 66.73 97.3354 67.3976C91.2536 68.0497 81.6727 65.8498 81.6727 65.8498C81.6727 65.8498 90.0396 67.7901 94.8294 71.1566C99.6474 74.5431 106.106 83.048 106.106 83.048C106.106 83.048 95.8263 83.8321 89.8173 82.4337C84.0385 81.089 76.0342 76.1687 76.0342 76.1687C76.0342 76.1687 83.85 82.7164 85.4318 88.0723C86.7922 92.6788 87.3113 102.482 87.3113 102.482C87.3113 102.482 76.1409 98.7163 72.9017 94.7427C69.7718 90.9033 67.9971 81.5616 67.8943 81.0097C68.0002 81.585 69.8426 91.7337 69.1426 97.4699C68.4095 103.478 62.8776 112.506 62.8776 112.506C62.8776 112.506 59.4277 104.621 57.8655 99.3494C56.16 93.594 55.986 83.048 55.986 83.048C55.986 83.048 54.9168 94.1391 52.227 99.9759C49.8386 105.159 43.4559 111.253 43.4559 111.253C43.4559 111.253 40.089 103.098 40.3233 97.4699Z" fill="#FFD2AA"/>
        <path d="M67.8896 6C67.8896 6 60.6094 15.6106 58.492 22.2892C56.5627 28.3743 57.239 38.3326 57.239 38.3326C57.239 38.3326 57.251 28.6464 54.733 22.9157C51.9719 16.6319 43.4559 8.06378 43.4559 8.06378C43.4559 8.06378 39.9419 19.5207 40.3233 26.0482C40.6988 32.4734 45.3354 41.0843 45.3354 41.0843C45.3354 41.0843 41.1747 31.7721 36.5643 27.3012C31.645 22.5307 20.9017 17.6948 20.9017 17.6948C20.9017 17.6948 21.7918 29.7933 24.6607 36.0723C27.3747 42.0122 37.1908 48.6024 37.1908 48.6024C37.1908 48.6024 29.9371 43.0476 25.2872 41.0843C19.9065 38.8125 8.99805 38.3326 8.99805 38.3326C8.99805 38.3326 14.3619 49.5931 19.6486 53.6145C24.5713 57.3588 34.6848 58.2825 34.6848 58.2825C34.6848 58.2825 26.2583 58.6586 21.5282 60.506C16.6536 62.4099 10.2511 67.9135 10.2511 67.9135C10.2511 67.9135 18.0689 73.2383 23.4077 73.6627C28.8193 74.0928 37.1908 69.9773 37.1908 69.9773C37.1908 69.9773 28.5661 75.8933 25.2872 80.9842C22.2479 85.7031 20.9017 94.7427 20.9017 94.7427C20.9017 94.7427 30.5043 92.9289 35.3113 89.9518C40.1204 86.9734 45.3354 79.6083 45.3354 79.6083C45.3354 79.6083 40.6063 90.6743 40.3233 97.4699C40.089 103.098 43.4559 111.253 43.4559 111.253C43.4559 111.253 49.8386 105.159 52.227 99.9759C54.9168 94.1391 55.986 83.048 55.986 83.048C55.986 83.048 56.16 93.594 57.8655 99.3494C59.4277 104.621 62.8776 112.506 62.8776 112.506C62.8776 112.506 68.4095 103.478 69.1426 97.4699C69.8632 91.5649 67.8896 80.9842 67.8896 80.9842C67.8896 80.9842 69.6759 90.7857 72.9017 94.7427C76.1409 98.7163 87.3113 102.482 87.3113 102.482C87.3113 102.482 86.7922 92.6788 85.4318 88.0723C83.85 82.7164 76.0342 76.1687 76.0342 76.1687C76.0342 76.1687 84.0385 81.089 89.8173 82.4337C95.8263 83.8321 106.106 83.048 106.106 83.048C106.106 83.048 99.6474 74.5431 94.8294 71.1566C90.0397 67.7901 81.6727 65.8498 81.6727 65.8498C81.6727 65.8498 91.2536 68.0497 97.3354 67.3976C103.562 66.73 112.998 63.9579 112.998 63.9579C112.998 63.9579 104.263 55.7693 97.9619 54.155C91.4879 52.4962 80.4197 54.155 80.4197 54.155C80.4197 54.155 90.9125 51.6315 96.0824 47.9759C100.986 44.5088 106.106 36.2688 106.106 36.2688C106.106 36.2688 96.3292 36.5494 91.0703 37.9518C85.4702 39.4452 75.4077 45.4699 75.4077 45.4699C75.4077 45.4699 85.3965 38.4558 87.9378 33.5663C90.721 28.2113 91.6968 17.6948 91.6968 17.6948C91.6968 17.6948 80.1919 22.1849 75.4077 26.6747C70.8655 30.9373 67.8896 39.7085 67.8896 39.7085C67.8896 39.7085 71.6451 29.4919 71.6486 22.9157C71.6522 16.2916 67.8896 6 67.8896 6Z" stroke="#FFD2AA" stroke-width="2" stroke-linejoin="round"/>
        <ellipse cx="57.2381" cy="58.6265" rx="19.4217" ry="18.7952" fill="#816D61"/>
    </g>
    <g class="flower">
        <path d="M68.6941 193.12C66.4991 188.155 65.9802 178.565 65.9802 178.565C65.9802 178.565 64.8455 185.677 62.4537 189.506C60.063 193.333 53.8288 198.02 53.8288 198.02C53.8288 198.02 51.6032 191.074 52.114 186.623C52.6651 181.822 56.752 174.544 56.752 174.544C56.752 174.544 52.2111 180.444 48.1854 182.045C44.2139 183.625 36.7388 182.572 36.7388 182.572C36.7388 182.572 39.3803 176.373 42.1982 173.29C44.9325 170.299 50.8319 167.057 50.8319 167.057C50.8319 167.057 43.2663 169.964 38.4213 169.02C33.2179 168.006 25.4054 161.838 25.4054 161.838C25.4054 161.838 33.3836 158.333 38.0369 158.061C40.4794 157.918 44.0772 158.385 46.5256 158.773C43.446 158.149 38.4803 156.864 35.8201 154.694C31.5511 151.211 26.6454 142.864 26.6454 142.864C26.6454 142.864 36.0422 142.536 41.2469 144.215C44.3917 145.23 48.1127 147.751 50.3597 149.415C48.2741 147.706 45.1102 144.836 43.4957 141.992C40.9197 137.454 39.393 128.013 39.393 128.013C39.393 128.013 48.5123 131.142 52.7058 134.666C55.1809 136.746 57.482 140.386 58.7975 142.695C57.5543 140.26 55.6758 136.181 55.1756 132.891C54.3351 127.363 56.156 117.915 56.156 117.915C56.156 117.915 62.4805 123.955 64.8149 128.698C66.8358 132.804 67.7911 139.897 68.0026 141.647C67.8329 140.058 67.3276 134.069 68.8321 130.062C70.6729 125.16 77.3246 117.887 77.3246 117.887C77.3246 117.887 80.3364 125.76 80.2333 130.575C80.1392 134.972 75.4633 143.517 75.4633 143.517C75.4633 143.517 80.541 135.654 84.023 132.609C87.2928 129.75 94.193 126.1 94.193 126.1C94.193 126.1 93.4343 133.805 91.1475 138.017C88.7364 142.458 82.1154 147.966 82.1154 147.966C82.1154 147.966 89.4534 142.874 94.673 141.777C99.753 140.71 108.895 143.49 108.895 143.49C108.895 143.49 103.119 148.803 98.8967 151.478C94.7731 154.09 87.1384 155.896 87.1384 155.896C87.1384 155.896 93.8125 154.333 98.429 155.053C103.073 155.777 110.697 159.587 110.697 159.587C110.697 159.587 103.615 163.775 98.8198 164.894C94.2085 165.97 86.7426 165.272 86.7426 165.272C86.7426 165.272 94.6477 167.202 97.6697 170.478C100.269 173.295 104.099 180.13 104.099 180.13C104.099 180.13 94.7741 181.375 91.0533 179.674C87.4563 178.029 82.8872 171.962 82.6232 171.609C82.8976 171.977 87.8011 178.597 89.3246 182.952C90.9195 187.512 90.1446 195.926 90.1446 195.926C90.1446 195.926 84.893 191.499 81.9149 188.276C78.6634 184.758 74.8181 177.27 74.8181 177.27C74.8181 177.27 77.9658 185.587 78.0995 190.714C78.2183 195.267 75.7994 201.881 75.7994 201.881C75.7994 201.881 70.5119 197.231 68.6941 193.12Z" fill="#FFD2AA"/>
        <path d="M56.156 117.915C56.156 117.915 54.3351 127.363 55.1756 132.891C55.9415 137.928 59.939 144.818 59.939 144.818C59.939 144.818 56.5302 137.88 52.7058 134.666C48.5123 131.142 39.393 128.013 39.393 128.013C39.393 128.013 40.9197 137.454 43.4957 141.992C46.0313 146.459 52.3885 150.988 52.3885 150.988C52.3885 150.988 46.1246 145.789 41.2469 144.215C36.0422 142.536 26.6454 142.864 26.6454 142.864C26.6454 142.864 31.5511 151.211 35.8201 154.694C39.8586 157.988 49.2106 159.243 49.2106 159.243C49.2106 159.243 42.0582 157.826 38.0369 158.061C33.3836 158.333 25.4054 161.838 25.4054 161.838C25.4054 161.838 33.2179 168.006 38.4213 169.02C43.2663 169.964 50.8319 167.057 50.8319 167.057C50.8319 167.057 44.9325 170.299 42.1982 173.29C39.3803 176.373 36.7388 182.572 36.7388 182.572C36.7388 182.572 44.2139 183.625 48.1854 182.045C52.2111 180.444 56.752 174.544 56.752 174.544C56.752 174.544 52.6651 181.822 52.114 186.623C51.6032 191.074 53.8288 198.02 53.8288 198.02C53.8288 198.02 60.063 193.333 62.4537 189.506C64.8455 185.677 65.9802 178.565 65.9802 178.565C65.9802 178.565 66.4991 188.155 68.6941 193.12C70.5119 197.231 75.7994 201.881 75.7994 201.881C75.7994 201.881 78.2183 195.267 78.0995 190.714C77.9658 185.587 74.8181 177.27 74.8181 177.27C74.8181 177.27 78.6634 184.758 81.9149 188.276C84.893 191.499 90.1446 195.926 90.1446 195.926C90.1446 195.926 90.9195 187.512 89.3246 182.952C87.757 178.471 82.6112 171.593 82.6112 171.593C82.6112 171.593 87.3481 177.979 91.0533 179.674C94.7741 181.375 104.099 180.13 104.099 180.13C104.099 180.13 100.269 173.295 97.6697 170.478C94.6477 167.202 86.7426 165.272 86.7426 165.272C86.7426 165.272 94.2085 165.97 98.8198 164.894C103.615 163.775 110.697 159.587 110.697 159.587C110.697 159.587 103.073 155.777 98.429 155.053C93.8125 154.333 87.1384 155.896 87.1384 155.896C87.1384 155.896 94.7731 154.09 98.8967 151.478C103.119 148.803 108.895 143.49 108.895 143.49C108.895 143.49 99.753 140.71 94.673 141.777C89.4534 142.874 82.1154 147.966 82.1154 147.966C82.1154 147.966 88.7364 142.458 91.1475 138.017C93.4343 133.805 94.193 126.1 94.193 126.1C94.193 126.1 87.2928 129.75 84.023 132.609C80.541 135.654 75.4633 143.517 75.4633 143.517C75.4633 143.517 80.1392 134.972 80.2333 130.575C80.3364 125.76 77.3246 117.887 77.3246 117.887C77.3246 117.887 70.6729 125.16 68.8321 130.062C67.0844 134.716 68.0487 142.045 68.0487 142.045C68.0487 142.045 67.1326 133.407 64.8149 128.698C62.4804 123.955 56.156 117.915 56.156 117.915Z" stroke="#FFD2AA" stroke-width="2" stroke-linejoin="round"/>
        <ellipse cx="67.0988" cy="159.345" rx="15.5" ry="15" transform="rotate(-26.2365 67.0988 159.345)" fill="#816D61"/>
    </g>
    <g class="flower">
        <path d="M175.342 278.452C176.723 272.237 182.904 262.818 182.904 262.818C182.904 262.818 176.884 268.746 171.962 270.698C167.042 272.65 157.894 272.739 157.894 272.739C157.894 272.739 160.624 264.631 164.202 260.783C168.062 256.632 176.985 252.601 176.985 252.601C176.985 252.601 168.592 255.014 163.676 253.726C158.826 252.456 152.499 246.261 152.499 246.261C152.499 246.261 159.306 242.244 164.112 241.293C168.775 240.37 176.602 241.411 176.602 241.411C176.602 241.411 167.435 238.894 163.515 234.632C159.306 230.056 156.218 218.795 156.218 218.795C156.218 218.795 166.191 221.035 170.776 224.015C173.182 225.579 176.255 228.522 178.297 230.592C175.823 227.861 172.027 223.193 171.024 219.293C169.415 213.034 170.588 201.738 170.588 201.738C170.588 201.738 179.691 207.964 183.438 213.171C185.703 216.317 187.463 221.287 188.428 224.421C187.647 221.356 186.655 216.445 187.109 212.636C187.833 206.558 192.959 196.579 192.959 196.579C192.959 196.579 199.395 205.877 200.904 212.123C201.794 215.809 201.436 220.848 201.072 223.944C201.591 220.78 202.655 215.62 204.471 212.165C207.523 206.359 215.815 198.702 215.815 198.702C215.815 198.702 217.586 208.806 216.492 214.91C215.544 220.193 211.512 227.558 210.495 229.357C211.44 227.738 215.129 221.731 219.337 218.993C224.485 215.644 235.827 213.402 235.827 213.402C235.827 213.402 233.195 222.932 229.748 227.408C226.601 231.495 216.24 236.313 216.24 236.313C216.24 236.313 226.505 232.419 231.912 231.966C236.989 231.54 246.046 232.892 246.046 232.892C246.046 232.892 239.969 239.642 234.879 242.029C229.513 244.546 219.428 245.142 219.428 245.142C219.428 245.142 229.901 245.437 235.593 248.033C241.134 250.558 247.834 259.543 247.834 259.543C247.834 259.543 238.682 260.543 232.834 260.133C227.122 259.732 218.656 256.126 218.656 256.126C218.656 256.126 226.046 259.292 229.906 263.184C233.788 267.098 238.339 276 238.339 276C238.339 276 228.736 275.029 223.429 272.75C218.325 270.559 211.76 264.706 211.76 264.706C211.76 264.706 217.883 272.028 218.459 277.224C218.954 281.693 217.817 290.812 217.817 290.812C217.817 290.812 208.143 285.502 205.813 281.306C203.561 277.253 203.465 268.352 203.461 267.826C203.464 268.374 203.49 278.029 201.9 283.2C200.234 288.616 193.649 296.024 193.649 296.024C193.649 296.024 191.769 288.189 191.198 283.074C190.574 277.49 192.152 267.742 192.152 267.742C192.152 267.742 189.339 277.787 185.899 282.723C182.844 287.105 175.958 291.67 175.958 291.67C175.958 291.67 174.199 283.6 175.342 278.452Z" fill="#FFD2AA"/>
        <path d="M215.815 198.702C215.815 198.702 207.523 206.359 204.471 212.165C201.691 217.455 200.673 226.743 200.673 226.743C200.673 226.743 202.28 217.819 200.904 212.123C199.395 205.877 192.959 196.579 192.959 196.579C192.959 196.579 187.833 206.558 187.109 212.636C186.396 218.618 189.25 227.317 189.25 227.317C189.25 227.317 186.95 218.051 183.438 213.171C179.691 207.964 170.588 201.738 170.588 201.738C170.588 201.738 169.415 213.034 171.024 219.293C172.546 225.214 180.506 232.904 180.506 232.904C180.506 232.904 174.737 226.59 170.776 224.015C166.191 221.035 156.218 218.795 156.218 218.795C156.218 218.795 159.306 230.056 163.515 234.632C167.435 238.894 176.602 241.411 176.602 241.411C176.602 241.411 168.775 240.37 164.112 241.293C159.306 242.244 152.499 246.261 152.499 246.261C152.499 246.261 158.826 252.456 163.676 253.726C168.592 255.014 176.985 252.601 176.985 252.601C176.985 252.601 168.062 256.632 164.202 260.783C160.624 264.631 157.894 272.739 157.894 272.739C157.894 272.739 167.042 272.65 171.962 270.698C176.884 268.746 182.904 262.818 182.904 262.818C182.904 262.818 176.723 272.237 175.342 278.452C174.199 283.6 175.958 291.67 175.958 291.67C175.958 291.67 182.844 287.105 185.899 282.723C189.339 277.787 192.152 267.742 192.152 267.742C192.152 267.742 190.574 277.49 191.198 283.074C191.769 288.189 193.649 296.024 193.649 296.024C193.649 296.024 200.234 288.616 201.9 283.2C203.537 277.877 203.461 267.802 203.461 267.802C203.461 267.802 203.492 277.128 205.813 281.306C208.143 285.502 217.817 290.812 217.817 290.812C217.817 290.812 218.954 281.693 218.459 277.224C217.883 272.028 211.76 264.706 211.76 264.706C211.76 264.706 218.325 270.559 223.429 272.75C228.736 275.029 238.339 276 238.339 276C238.339 276 233.788 267.098 229.906 263.184C226.046 259.292 218.656 256.126 218.656 256.126C218.656 256.126 227.122 259.732 232.834 260.133C238.682 260.543 247.834 259.543 247.834 259.543C247.834 259.543 241.134 250.558 235.593 248.033C229.901 245.437 219.428 245.142 219.428 245.142C219.428 245.142 229.513 244.546 234.879 242.029C239.969 239.642 246.046 232.892 246.046 232.892C246.046 232.892 236.989 231.54 231.912 231.966C226.505 232.419 216.24 236.313 216.24 236.313C216.24 236.313 226.601 231.495 229.748 227.408C233.195 222.932 235.827 213.402 235.827 213.402C235.827 213.402 224.485 215.644 219.337 218.993C214.449 222.173 210.261 229.765 210.261 229.765C210.261 229.765 215.405 220.969 216.492 214.91C217.586 208.806 215.815 198.702 215.815 198.702Z" stroke="#FFD2AA" stroke-width="2" stroke-linejoin="round"/>
        <ellipse cx="197.328" cy="245.444" rx="18.1812" ry="17.5948" transform="rotate(10.1363 197.328 245.444)" fill="#816D61"/>
    </g>
    <g class="flower">
        <path d="M263.845 70.1948C268.809 67.9982 278.399 67.4761 278.399 67.4761C278.399 67.4761 271.286 66.3437 267.456 63.9532C263.628 61.5638 258.94 55.3311 258.94 55.3311C258.94 55.3311 265.885 53.1033 270.336 53.6126C275.137 54.162 282.416 58.2465 282.416 58.2465C282.416 58.2465 276.515 53.7076 274.912 49.6825C273.331 45.7115 274.382 38.236 274.382 38.236C274.382 38.236 280.582 40.8755 283.666 43.6923C286.658 46.4256 289.902 52.324 289.902 52.324C289.902 52.324 286.993 44.7592 287.935 39.9139C288.946 34.7102 295.112 26.8956 295.112 26.8956C295.112 26.8956 298.62 34.8727 298.894 39.5259C299.037 41.9684 298.572 45.5663 298.184 48.0148C298.807 44.935 300.09 39.9689 302.26 37.308C305.741 33.0378 314.086 28.1293 314.086 28.1293C314.086 28.1293 314.418 37.526 312.74 42.7312C311.726 45.8764 309.206 49.5982 307.544 51.8458C309.252 49.7596 312.12 46.5948 314.964 44.9793C319.501 42.4018 328.942 40.872 328.942 40.872C328.942 40.872 325.816 49.9922 322.293 54.1869C320.214 56.6628 316.575 58.965 314.266 60.2814C316.7 59.0374 320.78 57.1575 324.069 56.6562C329.597 55.8139 339.046 57.6315 339.046 57.6315C339.046 57.6315 333.008 63.958 328.266 66.2941C324.16 68.3163 317.067 69.274 315.318 69.4861C316.906 69.3159 322.895 68.8085 326.902 70.3117C331.805 72.1509 339.08 78.8001 339.08 78.8001C339.08 78.8001 331.209 81.8145 326.393 81.7131C321.997 81.6205 313.45 76.9474 313.45 76.9474C313.45 76.9474 321.314 82.0225 324.36 85.5035C327.221 88.7723 330.874 95.6713 330.874 95.6713C330.874 95.6713 323.168 94.9152 318.955 92.6298C314.514 90.2202 309.003 83.601 309.003 83.601C309.003 83.601 314.098 90.9373 315.196 96.1566C316.265 101.236 313.488 110.379 313.488 110.379C313.488 110.379 308.173 104.604 305.497 100.383C302.883 96.2607 301.075 88.6267 301.075 88.6267C301.075 88.6267 302.64 95.3002 301.922 99.917C301.199 104.561 297.392 112.187 297.392 112.187C297.392 112.187 293.201 105.106 292.081 100.311C291.003 95.7001 291.699 88.234 291.699 88.234C291.699 88.234 289.772 96.1398 286.497 99.1628C283.68 101.763 276.847 105.595 276.847 105.595C276.847 105.595 275.598 96.2709 277.299 92.5496C278.942 88.952 285.007 84.3809 285.36 84.1168C284.992 84.3913 278.374 89.297 274.019 90.8219C269.46 92.4183 261.046 91.6463 261.046 91.6463C261.046 91.6463 265.471 86.3932 268.693 83.414C272.21 80.1613 279.697 76.3135 279.697 76.3135C279.697 76.3135 271.381 79.464 266.254 79.5995C261.701 79.7197 255.086 77.303 255.086 77.303C255.086 77.303 259.734 72.014 263.845 70.1948Z" fill="#FFD2AA"/>
        <path d="M339.046 57.6315C339.046 57.6315 329.597 55.8139 324.069 56.6562C319.033 57.4237 312.144 61.4235 312.144 61.4235C312.144 61.4235 319.081 58.0124 322.293 54.1869C325.816 49.9922 328.942 40.872 328.942 40.872C328.942 40.872 319.501 42.4018 314.964 44.9793C310.498 47.5164 305.972 53.8752 305.972 53.8752C305.972 53.8752 311.168 47.6095 312.74 42.7312C314.418 37.526 314.086 28.1293 314.086 28.1293C314.086 28.1293 305.741 33.0378 302.26 37.308C298.966 41.3476 297.715 50.7 297.715 50.7C297.715 50.7 299.13 43.5471 298.894 39.5259C298.62 34.8727 295.112 26.8956 295.112 26.8956C295.112 26.8956 288.946 34.7102 287.935 39.9139C286.993 44.7592 289.902 52.324 289.902 52.324C289.902 52.324 286.658 46.4256 283.666 43.6923C280.582 40.8755 274.382 38.236 274.382 38.236C274.382 38.236 273.331 45.7115 274.912 49.6825C276.515 53.7076 282.416 58.2465 282.416 58.2465C282.416 58.2465 275.137 54.162 270.336 53.6126C265.885 53.1033 258.94 55.3311 258.94 55.3311C258.94 55.3311 263.628 61.5638 267.456 63.9532C271.286 66.3437 278.399 67.4761 278.399 67.4761C278.399 67.4761 268.809 67.9982 263.845 70.1948C259.734 72.014 255.086 77.303 255.086 77.303C255.086 77.303 261.701 79.7197 266.254 79.5995C271.381 79.464 279.697 76.3135 279.697 76.3135C279.697 76.3135 272.21 80.1613 268.693 83.414C265.471 86.3932 261.046 91.6463 261.046 91.6463C261.046 91.6463 269.46 92.4183 274.019 90.8219C278.5 89.2529 285.377 84.1048 285.377 84.1048C285.377 84.1048 278.992 88.8437 277.299 92.5496C275.598 96.2709 276.847 105.595 276.847 105.595C276.847 105.595 283.68 101.763 286.497 99.1628C289.772 96.1398 291.699 88.234 291.699 88.234C291.699 88.234 291.003 95.7001 292.081 100.311C293.201 105.106 297.392 112.187 297.392 112.187C297.392 112.187 301.199 104.561 301.922 99.917C302.64 95.3002 301.075 88.6267 301.075 88.6267C301.075 88.6267 302.883 96.2607 305.497 100.383C308.173 104.604 313.488 110.379 313.488 110.379C313.488 110.379 316.265 101.236 315.196 96.1566C314.098 90.9373 309.003 83.601 309.003 83.601C309.003 83.601 314.514 90.2202 318.955 92.6298C323.168 94.9152 330.874 95.6713 330.874 95.6713C330.874 95.6713 327.221 88.7723 324.36 85.5035C321.314 82.0225 313.45 76.9474 313.45 76.9474C313.45 76.9474 321.997 81.6205 326.393 81.7131C331.209 81.8145 339.08 78.8001 339.08 78.8001C339.08 78.8001 331.805 72.1509 326.902 70.3117C322.248 68.5656 314.919 69.5323 314.919 69.5323C314.919 69.5323 323.557 68.6133 328.266 66.2941C333.008 63.958 339.046 57.6315 339.046 57.6315Z" stroke="#FFD2AA" stroke-width="2" stroke-linejoin="round"/>
        <ellipse cx="297.619" cy="68.5883" rx="15.5" ry="15" transform="rotate(63.7443 297.619 68.5883)" fill="#816D61"/>
    </g>
    <g class="flower">
        <path d="M315.013 269.144C312.42 264.375 311.122 254.859 311.122 254.859C311.122 254.859 310.57 262.04 308.499 266.051C306.428 270.06 300.596 275.239 300.596 275.239C300.596 275.239 297.812 268.498 297.958 264.021C298.116 259.191 301.596 251.604 301.596 251.604C301.596 251.604 297.551 257.854 293.67 259.778C289.84 261.676 282.304 261.236 282.304 261.236C282.304 261.236 284.432 254.842 286.989 251.54C289.47 248.336 295.086 244.624 295.086 244.624C295.086 244.624 287.782 248.137 282.876 247.592C277.608 247.006 269.318 241.495 269.318 241.495C269.318 241.495 276.984 237.351 281.6 236.7C284.023 236.359 287.647 236.531 290.119 236.719C286.998 236.348 281.944 235.472 279.116 233.525C274.577 230.402 269.008 222.483 269.008 222.483C269.008 222.483 278.347 221.39 283.671 222.639C286.888 223.395 290.802 225.604 293.177 227.079C290.959 225.545 287.572 222.944 285.731 220.24C282.794 215.927 280.503 206.642 280.503 206.642C280.503 206.642 289.846 209.017 294.313 212.188C296.95 214.059 299.54 217.499 301.039 219.694C299.602 217.369 297.397 213.455 296.63 210.218C295.342 204.777 296.387 195.211 296.387 195.211C296.387 195.211 303.182 200.715 305.896 205.253C308.244 209.18 309.775 216.172 310.128 217.899C309.83 216.329 308.838 210.401 310.011 206.285C311.446 201.25 317.483 193.458 317.483 193.458C317.483 193.458 321.126 201.059 321.416 205.867C321.68 210.257 317.716 219.155 317.716 219.155C317.716 219.155 322.136 210.904 325.359 207.586C328.385 204.469 334.964 200.269 334.964 200.269C334.964 200.269 334.836 208.01 332.9 212.394C330.859 217.017 324.709 223.047 324.709 223.047C324.709 223.047 331.608 217.373 336.72 215.855C341.697 214.377 351.035 216.402 351.035 216.402C351.035 216.402 345.711 222.169 341.721 225.179C337.824 228.119 330.362 230.541 330.362 230.541C330.362 230.541 336.886 228.439 341.546 228.78C346.233 229.124 354.143 232.299 354.143 232.299C354.143 232.299 347.425 237.051 342.738 238.557C338.229 240.005 330.731 239.918 330.731 239.918C330.731 239.918 338.768 241.197 342.046 244.216C344.867 246.812 349.241 253.312 349.241 253.312C349.241 253.312 340.049 255.313 336.202 253.92C332.483 252.574 327.434 246.9 327.142 246.569C327.446 246.914 332.872 253.112 334.746 257.329C336.707 261.743 336.621 270.193 336.621 270.193C336.621 270.193 331.026 266.208 327.795 263.239C324.267 259.997 319.824 252.848 319.824 252.848C319.824 252.848 323.64 260.88 324.191 265.98C324.68 270.508 322.809 277.297 322.809 277.297C322.809 277.297 317.16 273.094 315.013 269.144Z" fill="#FFD2AA"/>
        <path d="M296.387 195.211C296.387 195.211 295.342 204.777 296.63 210.218C297.804 215.175 302.35 221.717 302.35 221.717C302.35 221.717 298.387 215.079 294.313 212.188C289.846 209.017 280.503 206.642 280.503 206.642C280.503 206.642 282.794 215.927 285.731 220.24C288.622 224.486 295.327 228.481 295.327 228.481C295.327 228.481 288.661 223.811 283.671 222.639C278.347 221.39 269.008 222.483 269.008 222.483C269.008 222.483 274.577 230.402 279.116 233.525C283.41 236.48 292.833 236.968 292.833 236.968C292.833 236.968 285.589 236.138 281.6 236.7C276.984 237.351 269.318 241.495 269.318 241.495C269.318 241.495 277.608 247.006 282.876 247.592C287.782 248.137 295.086 244.624 295.086 244.624C295.086 244.624 289.47 248.336 286.989 251.54C284.432 254.842 282.304 261.236 282.304 261.236C282.304 261.236 289.84 261.676 293.67 259.778C297.551 257.854 301.596 251.604 301.596 251.604C301.596 251.604 298.116 259.191 297.958 264.021C297.812 268.498 300.596 275.239 300.596 275.239C300.596 275.239 306.428 270.06 308.499 266.051C310.57 262.04 311.122 254.859 311.122 254.859C311.122 254.859 312.42 264.375 315.013 269.144C317.16 273.094 322.809 277.297 322.809 277.297C322.809 277.297 324.68 270.508 324.191 265.98C323.64 260.88 319.824 252.848 319.824 252.848C319.824 252.848 324.267 259.997 327.795 263.239C331.026 266.208 336.621 270.193 336.621 270.193C336.621 270.193 336.707 261.743 334.746 257.329C332.818 252.99 327.129 246.554 327.129 246.554C327.129 246.554 332.371 252.533 336.202 253.92C340.049 255.313 349.241 253.312 349.241 253.312C349.241 253.312 344.867 246.812 342.046 244.216C338.768 241.197 330.731 239.918 330.731 239.918C330.731 239.918 338.229 240.005 342.738 238.557C347.425 237.051 354.143 232.299 354.143 232.299C354.143 232.299 346.233 229.124 341.546 228.78C336.886 228.439 330.362 230.541 330.362 230.541C330.362 230.541 337.824 228.119 341.721 225.179C345.711 222.169 351.035 216.402 351.035 216.402C351.035 216.402 341.697 214.377 336.72 215.855C331.608 217.373 324.709 223.047 324.709 223.047C324.709 223.047 330.859 217.017 332.9 212.394C334.836 208.01 334.964 200.269 334.964 200.269C334.964 200.269 328.385 204.469 325.359 207.586C322.136 210.904 317.716 219.155 317.716 219.155C317.716 219.155 321.68 210.257 321.416 205.867C321.126 201.059 317.483 193.458 317.483 193.458C317.483 193.458 311.446 201.25 310.011 206.285C308.648 211.066 310.207 218.292 310.207 218.292C310.207 218.292 308.589 209.757 305.896 205.253C303.182 200.715 296.387 195.211 296.387 195.211Z" stroke="#FFD2AA" stroke-width="2" stroke-linejoin="round"/>
        <ellipse cx="310.67" cy="235.612" rx="15.5" ry="15" transform="rotate(-30.9117 310.67 235.612)" fill="#816D61"/>
    </g>
    <g class="flower">
        <path d="M243 350C243.226 344.577 247 335.745 247 335.745C247 335.745 242.838 341.623 239 344C235.164 346.376 227.5 347.824 227.5 347.824C227.5 347.824 228.574 340.609 231 336.843C233.617 332.78 240.5 328.059 240.5 328.059C240.5 328.059 233.819 331.343 229.5 331C225.239 330.661 219 326.412 219 326.412C219 326.412 224.11 322.019 228 320.5C231.775 319.026 238.5 318.725 238.5 318.725C238.5 318.725 230.429 317.988 226.5 315C222.281 311.791 218 302.804 218 302.804C218 302.804 226.706 303.187 231 305C233.254 305.952 236.275 307.961 238.299 309.392C235.813 307.47 231.927 304.123 230.5 301C228.21 295.989 227.5 286.333 227.5 286.333C227.5 286.333 236.074 290.193 240 294C242.372 296.3 244.595 300.207 245.875 302.692C244.76 300.237 243.191 296.265 243 293C242.696 287.791 245.5 278.647 245.5 278.647C245.5 278.647 252.296 285.485 254.5 290.5C255.801 293.46 256.255 297.742 256.414 300.395C256.376 297.662 256.494 293.172 257.5 290C259.19 284.67 265 277 265 277C265 277 268.003 285.213 268 290.5C267.998 295.076 265.719 301.861 265.135 303.524C265.685 302.024 267.879 296.429 271 293.5C274.818 289.917 284 286.333 284 286.333C284 286.333 283.221 294.726 281 299C278.972 302.902 271 308.5 271 308.5C271 308.5 279.031 303.692 283.5 302.5C287.697 301.381 295.5 301.157 295.5 301.157C295.5 301.157 291.413 307.733 287.5 310.5C283.374 313.417 275 315.431 275 315.431C275 315.431 283.833 314.108 289 315.431C294.028 316.72 301 323.255 301 323.255C301 323.255 293.469 325.467 288.5 326C283.646 326.52 276 324.765 276 324.765C276 324.765 282.677 326.313 286.5 329C290.345 331.703 295.5 338.49 295.5 338.49C295.5 338.49 287.296 339.116 282.5 338C277.888 336.927 271.5 333 271.5 333C271.5 333 277.738 338.226 279 342.5C280.086 346.176 280.5 354 280.5 354C280.5 354 271.585 350.995 269 347.824C266.501 344.758 265.084 337.296 265.004 336.863C265.087 337.315 266.559 345.42 266 350C265.415 354.795 261 362 261 362C261 362 258.247 355.707 257 351.5C255.639 346.907 255.5 338.49 255.5 338.49C255.5 338.49 254.647 347.342 252.5 352C250.594 356.136 245.5 361 245.5 361C245.5 361 242.813 354.491 243 350Z" fill="#FFD2AA"/>
        <path d="M265 277C265 277 259.19 284.67 257.5 290C255.96 294.856 256.5 302.804 256.5 302.804C256.5 302.804 256.51 295.074 254.5 290.5C252.296 285.485 245.5 278.647 245.5 278.647C245.5 278.647 242.696 287.791 243 293C243.3 298.128 247 305 247 305C247 305 243.679 297.568 240 294C236.074 290.193 227.5 286.333 227.5 286.333C227.5 286.333 228.21 295.989 230.5 301C232.666 305.741 240.5 311 240.5 311C240.5 311 234.711 306.567 231 305C226.706 303.187 218 302.804 218 302.804C218 302.804 222.281 311.791 226.5 315C230.429 317.988 238.5 318.725 238.5 318.725C238.5 318.725 231.775 319.026 228 320.5C224.11 322.019 219 326.412 219 326.412C219 326.412 225.239 330.661 229.5 331C233.819 331.343 240.5 328.059 240.5 328.059C240.5 328.059 233.617 332.78 231 336.843C228.574 340.609 227.5 347.824 227.5 347.824C227.5 347.824 235.164 346.376 239 344C242.838 341.623 247 335.745 247 335.745C247 335.745 243.226 344.577 243 350C242.813 354.491 245.5 361 245.5 361C245.5 361 250.594 356.136 252.5 352C254.647 347.342 255.5 338.49 255.5 338.49C255.5 338.49 255.639 346.907 257 351.5C258.247 355.707 261 362 261 362C261 362 265.415 354.795 266 350C266.575 345.287 265 336.843 265 336.843C265 336.843 266.426 344.666 269 347.824C271.585 350.995 280.5 354 280.5 354C280.5 354 280.086 346.176 279 342.5C277.738 338.226 271.5 333 271.5 333C271.5 333 277.888 336.927 282.5 338C287.296 339.116 295.5 338.49 295.5 338.49C295.5 338.49 290.345 331.703 286.5 329C282.677 326.313 276 324.765 276 324.765C276 324.765 283.646 326.52 288.5 326C293.469 325.467 301 323.255 301 323.255C301 323.255 294.028 316.72 289 315.431C283.833 314.108 275 315.431 275 315.431C275 315.431 283.374 313.417 287.5 310.5C291.413 307.733 295.5 301.157 295.5 301.157C295.5 301.157 287.697 301.381 283.5 302.5C279.031 303.692 271 308.5 271 308.5C271 308.5 278.972 302.902 281 299C283.221 294.726 284 286.333 284 286.333C284 286.333 274.818 289.917 271 293.5C267.375 296.902 265 303.902 265 303.902C265 303.902 267.997 295.748 268 290.5C268.003 285.213 265 277 265 277Z" stroke="#FFD2AA" stroke-width="2" stroke-linejoin="round"/>
        <ellipse cx="256.5" cy="319" rx="15.5" ry="15" fill="#816D61"/>
    </g>
    <g class="flower">
        <path d="M34 329C34.2258 323.577 38 314.745 38 314.745C38 314.745 33.838 320.623 30 323C26.1637 325.376 18.5 326.824 18.5 326.824C18.5 326.824 19.5744 319.609 22 315.843C24.6168 311.78 31.5 307.059 31.5 307.059C31.5 307.059 24.8189 310.343 20.5 310C16.2393 309.661 10 305.412 10 305.412C10 305.412 15.1097 301.019 19 299.5C22.775 298.026 29.5 297.725 29.5 297.725C29.5 297.725 21.4287 296.988 17.5 294C13.2807 290.791 9 281.804 9 281.804C9 281.804 17.7058 282.187 22 284C24.254 284.952 27.2747 286.961 29.2992 288.392C26.8128 286.47 22.9267 283.123 21.5 280C19.2104 274.989 18.5 265.333 18.5 265.333C18.5 265.333 27.074 269.193 31 273C33.3722 275.3 35.5953 279.207 36.8755 281.692C35.7603 279.237 34.1908 275.265 34 272C33.6956 266.791 36.5 257.647 36.5 257.647C36.5 257.647 43.2965 264.485 45.5 269.5C46.8006 272.46 47.2554 276.742 47.4145 279.395C47.3758 276.662 47.4944 272.172 48.5 269C50.1899 263.67 56 256 56 256C56 256 59.0028 264.213 59 269.5C58.9975 274.076 56.7185 280.861 56.1349 282.524C56.685 281.024 58.8793 275.429 62 272.5C65.8182 268.917 75 265.333 75 265.333C75 265.333 74.2212 273.726 72 278C69.9719 281.902 62 287.5 62 287.5C62 287.5 70.0306 282.692 74.5 281.5C78.697 280.381 86.5 280.157 86.5 280.157C86.5 280.157 82.4132 286.733 78.5 289.5C74.3741 292.417 66 294.431 66 294.431C66 294.431 74.8333 293.108 80 294.431C85.0284 295.72 92 302.255 92 302.255C92 302.255 84.4694 304.467 79.5 305C74.6463 305.52 67 303.765 67 303.765C67 303.765 73.6774 305.313 77.5 308C81.3452 310.703 86.5 317.49 86.5 317.49C86.5 317.49 78.2956 318.116 73.5 317C68.8881 315.927 62.5 312 62.5 312C62.5 312 68.7376 317.226 70 321.5C71.0857 325.176 71.5 333 71.5 333C71.5 333 62.5852 329.995 60 326.824C57.5008 323.758 56.0843 316.296 56.0037 315.863C56.0868 316.315 57.5589 324.42 57 329C56.4149 333.795 52 341 52 341C52 341 49.2467 334.707 48 330.5C46.6388 325.907 46.5 317.49 46.5 317.49C46.5 317.49 45.6467 326.342 43.5 331C41.5939 335.136 36.5 340 36.5 340C36.5 340 33.813 333.491 34 329Z" fill="#FFD2AA"/>
        <path d="M56 256C56 256 50.1899 263.67 48.5 269C46.9603 273.856 47.5 281.804 47.5 281.804C47.5 281.804 47.5096 274.074 45.5 269.5C43.2965 264.485 36.5 257.647 36.5 257.647C36.5 257.647 33.6956 266.791 34 272C34.2996 277.128 38 284 38 284C38 284 34.6794 276.568 31 273C27.074 269.193 18.5 265.333 18.5 265.333C18.5 265.333 19.2104 274.989 21.5 280C23.666 284.741 31.5 290 31.5 290C31.5 290 25.7109 285.567 22 284C17.7058 282.187 9 281.804 9 281.804C9 281.804 13.2807 290.791 17.5 294C21.4287 296.988 29.5 297.725 29.5 297.725C29.5 297.725 22.775 298.026 19 299.5C15.1097 301.019 10 305.412 10 305.412C10 305.412 16.2393 309.661 20.5 310C24.8189 310.343 31.5 307.059 31.5 307.059C31.5 307.059 24.6168 311.78 22 315.843C19.5744 319.609 18.5 326.824 18.5 326.824C18.5 326.824 26.1637 325.376 30 323C33.838 320.623 38 314.745 38 314.745C38 314.745 34.2258 323.577 34 329C33.813 333.491 36.5 340 36.5 340C36.5 340 41.5939 335.136 43.5 331C45.6467 326.342 46.5 317.49 46.5 317.49C46.5 317.49 46.6388 325.907 48 330.5C49.2467 334.707 52 341 52 341C52 341 56.4149 333.795 57 329C57.575 324.287 56 315.843 56 315.843C56 315.843 57.4256 323.666 60 326.824C62.5852 329.995 71.5 333 71.5 333C71.5 333 71.0857 325.176 70 321.5C68.7376 317.226 62.5 312 62.5 312C62.5 312 68.8881 315.927 73.5 317C78.2956 318.116 86.5 317.49 86.5 317.49C86.5 317.49 81.3452 310.703 77.5 308C73.6774 305.313 67 303.765 67 303.765C67 303.765 74.6463 305.52 79.5 305C84.4694 304.467 92 302.255 92 302.255C92 302.255 85.0284 295.72 80 294.431C74.8333 293.108 66 294.431 66 294.431C66 294.431 74.3741 292.417 78.5 289.5C82.4132 286.733 86.5 280.157 86.5 280.157C86.5 280.157 78.697 280.381 74.5 281.5C70.0306 282.692 62 287.5 62 287.5C62 287.5 69.9719 281.902 72 278C74.2212 273.726 75 265.333 75 265.333C75 265.333 65.8182 268.917 62 272.5C58.375 275.902 56 282.902 56 282.902C56 282.902 58.9972 274.748 59 269.5C59.0028 264.213 56 256 56 256Z" stroke="#FFD2AA" stroke-width="2" stroke-linejoin="round"/>
        <ellipse cx="47.5" cy="298" rx="15.5" ry="15" fill="#816D61"/>
    </g>

    <path class="flower" d="M128.781 150.996C132.129 150.996 137.895 153.234 137.895 153.234C137.895 153.234 135.535 156.149 134.453 158.979C133.858 160.536 132.151 163.915 132.151 163.915L130.669 161.271C130.669 161.271 129.542 163.998 128.282 165.344C127.018 166.694 124.36 167.998 124.36 167.998L124.242 165.046C124.242 165.046 122.277 166.002 121.098 166.752C119.036 168.062 116.259 170.717 116.259 170.717C116.259 170.717 116.305 167.751 116.834 165.953C117.35 164.202 118.859 161.742 118.859 161.742L115.906 161.86C115.906 161.86 117.613 158.165 119.573 156.615C121.253 155.285 124.582 154.376 124.582 154.376L121.96 152.543C121.96 152.543 126.05 150.996 128.781 150.996Z" fill="#6B7050" stroke="#6B7050" stroke-width="2" stroke-linejoin="round"/>
    <path class="flower" d="M30.6534 120.522C32.2542 124.527 32.3353 132.497 32.3353 132.497C32.3353 132.497 27.7183 131.067 23.8135 131.126C21.6659 131.159 16.8067 130.733 16.8067 130.733L19.2609 127.695C19.2609 127.695 15.4591 127.651 13.2465 126.786C11.0263 125.919 8.19395 123.362 8.19395 123.362L11.6708 121.81C11.6708 121.81 9.58604 119.916 8.1257 118.863C5.57164 117.022 1.06584 114.97 1.06584 114.97C1.06584 114.97 4.63777 113.605 7.0424 113.379C9.38332 113.158 13.0493 113.788 13.0493 113.788L11.4964 110.311C11.4964 110.311 16.7331 110.586 19.5258 112.189C21.9205 113.564 24.6011 117.113 24.6011 117.113L25.5403 113.098C25.5403 113.098 29.3471 117.253 30.6534 120.522Z" fill="#6B7050" stroke="#6B7050" stroke-width="2" stroke-linejoin="round"/>
    <path class="flower" d="M311.814 289.84C311.66 285.529 314.275 278 314.275 278C314.275 278 318.138 280.906 321.833 282.169C323.866 282.863 328.295 284.906 328.295 284.906L324.96 286.936C324.96 286.936 328.523 288.262 330.314 289.823C332.11 291.389 333.913 294.752 333.913 294.752L330.116 295.039C330.116 295.039 331.438 297.526 332.457 299.01C334.239 301.606 337.787 305.059 337.787 305.059C337.787 305.059 333.964 305.137 331.625 304.538C329.347 303.955 326.109 302.124 326.109 302.124L326.396 305.921C326.396 305.921 321.56 303.894 319.473 301.441C317.684 299.338 316.359 295.093 316.359 295.093L314.119 298.554C314.119 298.554 311.939 293.358 311.814 289.84Z" fill="#6B7050" stroke="#6B7050" stroke-width="2" stroke-linejoin="round"/>
    <path class="flower" d="M263.174 111.885C265.658 108.358 267.579 100.622 267.579 100.622C267.579 100.622 262.756 100.946 258.971 99.9858C256.889 99.4577 252.063 98.7494 252.063 98.7494L253.748 102.272C253.748 102.272 250.039 101.437 247.687 101.766C245.326 102.097 241.98 103.929 241.98 103.929L245.003 106.244C245.003 106.244 242.537 107.605 240.873 108.291C237.963 109.492 233.105 110.448 233.105 110.448C233.105 110.448 236.265 112.601 238.552 113.377C240.778 114.132 244.49 114.367 244.49 114.367L242.176 117.391C242.176 117.391 247.334 118.334 250.422 117.419C253.07 116.635 256.498 113.802 256.498 113.802L256.484 117.925C256.484 117.925 261.148 114.763 263.174 111.885Z" fill="#6B7050" stroke="#6B7050" stroke-width="2" stroke-linejoin="round"/>
    <path class="flower" d="M146.445 266.161C149.936 263.626 154.254 256.927 154.254 256.927C154.254 256.927 149.586 255.675 146.314 253.542C144.515 252.37 140.177 250.139 140.177 250.139L140.633 254.017C140.633 254.017 137.393 252.028 135.061 251.579C132.72 251.129 128.961 251.781 128.961 251.781L131.074 254.949C131.074 254.949 128.3 255.439 126.504 255.551C123.361 255.746 118.455 255.08 118.455 255.08C118.455 255.08 120.749 258.139 122.663 259.613C124.525 261.047 127.962 262.47 127.962 262.47L124.795 264.583C124.795 264.583 129.371 267.143 132.589 267.276C135.348 267.389 139.508 265.817 139.508 265.817L138.161 269.714C138.161 269.714 143.597 268.23 146.445 266.161Z" fill="#6B7050" stroke="#6B7050" stroke-width="2" stroke-linejoin="round"/>
    <path class="flower" d="M208.042 54.1414C203.99 52.662 197.999 47.4055 197.999 47.4055C197.999 47.4055 202.144 44.9199 204.705 41.9714C206.113 40.3497 209.672 37.0141 209.672 37.0141L210.298 40.8688C210.298 40.8688 212.867 38.0663 214.987 36.9944C217.114 35.919 220.908 35.5143 220.908 35.5143L219.746 39.1404C219.746 39.1404 222.547 38.8507 224.306 38.465C227.381 37.7905 231.916 35.8027 231.916 35.8027C231.916 35.8027 230.549 39.374 229.114 41.3164C227.717 43.2073 224.802 45.5186 224.802 45.5186L228.428 46.6811C228.428 46.6811 224.73 50.3991 221.673 51.4098C219.051 52.2764 214.619 51.9063 214.619 51.9063L216.983 55.2842C216.983 55.2842 211.349 55.3487 208.042 54.1414Z" fill="#6B7050" stroke="#6B7050" stroke-width="2" stroke-linejoin="round"/>
    <path class="flower" d="M205.648 334.001C209.857 333.059 217.739 334.25 217.739 334.25C217.739 334.25 215.591 338.58 215.027 342.444C214.716 344.569 213.521 349.298 213.521 349.298L210.913 346.391C210.913 346.391 210.263 350.137 209.057 352.184C207.847 354.238 204.872 356.626 204.872 356.626L203.893 352.946C203.893 352.946 201.691 354.702 200.419 355.976C198.194 358.204 195.45 362.325 195.45 362.325C195.45 362.325 194.672 358.581 194.832 356.171C194.988 353.825 196.194 350.306 196.194 350.306L192.514 351.285C192.514 351.285 193.62 346.159 195.648 343.658C197.388 341.513 201.318 339.433 201.318 339.433L197.504 337.865C197.504 337.865 202.213 334.769 205.648 334.001Z" fill="#6B7050" stroke="#6B7050" stroke-width="2" stroke-linejoin="round"/>
    <path class="flower" d="M141.577 165.5C146.077 163 151.077 161 151.077 161C151.077 161 151.576 163.5 155.076 172.5C157.576 178.929 154.077 184.5 154.077 184.5L151.577 181C151.577 181 151.966 185.114 151.077 187.5C150.339 189.479 148.077 192 148.077 192L146.077 187.5C146.077 187.5 145.257 191.043 144.077 193C143.005 194.777 140.577 197 140.577 197C140.577 197 139.01 194.374 138.577 192.5C137.915 189.64 139.077 185 139.077 185L135.077 186.5C135.077 186.5 134.9 184.052 135.077 182.5C135.456 179.185 138.077 174.5 138.077 174.5H135.077C135.077 174.5 137.787 167.606 141.577 165.5Z" fill="#6B7050" stroke="#6B7050" stroke-width="2" stroke-linejoin="round"/>
    <path class="flower" d="M316.465 127.343C317.303 131.594 318.734 135.894 318.734 135.894C318.734 135.894 320.612 134.857 328.299 132.217C333.789 130.331 335.469 125.054 335.469 125.054L331.861 125.349C331.861 125.349 334.717 123.364 335.767 121.496C336.638 119.947 337.029 117.123 337.029 117.123L333.05 118.282C333.05 118.282 334.882 115.831 335.499 114.009C336.059 112.354 336.168 109.586 336.168 109.586C336.168 109.586 333.629 110.006 332.189 110.745C329.992 111.874 327.64 115.142 327.64 115.142L326.431 111.756C326.431 111.756 324.761 112.972 323.86 113.929C321.935 115.973 320.348 120.204 320.348 120.204L318.718 118.275C318.718 118.275 315.759 123.763 316.465 127.343Z" fill="#6B7050" stroke="#6B7050" stroke-width="2" stroke-linejoin="round"/>
    <path class="flower" d="M320.564 161.15C316.56 157.914 312.833 154.027 312.833 154.027C312.833 154.027 314.964 152.628 321.998 146.011C327.022 141.286 333.499 142.443 333.499 142.443L331.19 146.072C331.19 146.072 334.859 144.171 337.404 144.101C339.515 144.044 342.7 145.197 342.7 145.197L339.277 148.737C339.277 148.737 342.869 148.17 345.126 148.532C347.175 148.86 350.145 150.279 350.145 150.279C350.145 150.279 348.297 152.715 346.722 153.819C344.318 155.503 339.581 156.164 339.581 156.164L342.47 159.311C342.47 159.311 340.266 160.392 338.761 160.809C335.545 161.7 330.22 161.024 330.22 161.024L331.343 163.806C331.343 163.806 323.936 163.875 320.564 161.15Z" fill="#6B7050" stroke="#6B7050" stroke-width="2" stroke-linejoin="round"/>
    <path class="flower" d="M71.4346 219.413C71.9261 214.289 73.1129 209.036 73.1129 209.036C73.1129 209.036 75.4555 210.042 84.8537 212.261C91.5668 213.846 94.1728 219.887 94.1728 219.887L89.8723 219.962C89.8723 219.962 93.4822 221.974 94.9435 224.059C96.1558 225.788 96.9499 229.081 96.9499 229.081L92.1091 228.178C92.1091 228.178 94.5633 230.861 95.5062 232.943C96.3625 234.834 96.8172 238.094 96.8172 238.094C96.8172 238.094 93.7656 237.896 91.9764 237.191C89.2454 236.114 86.0814 232.527 86.0814 232.527L85.0495 236.673C85.0495 236.673 82.9323 235.431 81.7543 234.405C79.2382 232.214 76.8646 227.399 76.8646 227.399L75.164 229.87C75.164 229.87 71.0206 223.729 71.4346 219.413Z" fill="#6B7050" stroke="#6B7050" stroke-width="2" stroke-linejoin="round"/>
    <path class="flower" d="M65.1103 212.413C64.6188 207.289 63.432 202.036 63.432 202.036C63.432 202.036 61.0895 203.042 51.6912 205.261C44.9781 206.846 42.3721 212.887 42.3721 212.887L46.6726 212.962C46.6726 212.962 43.0627 214.974 41.6014 217.059C40.3891 218.788 39.595 222.081 39.595 222.081L44.4358 221.178C44.4358 221.178 41.9817 223.861 41.0387 225.943C40.1824 227.834 39.7277 231.094 39.7277 231.094C39.7277 231.094 42.7794 230.896 44.5685 230.191C47.2995 229.114 50.4635 225.527 50.4635 225.527L51.4954 229.673C51.4954 229.673 53.6126 228.431 54.7906 227.405C57.3067 225.214 59.6803 220.399 59.6803 220.399L61.3809 222.87C61.3809 222.87 65.5243 216.729 65.1103 212.413Z" fill="#6B7050" stroke="#6B7050" stroke-width="2" stroke-linejoin="round"/>
    <path class="flower" d="M252.324 176.086C253.409 171.054 253.87 165.688 253.87 165.688C253.87 165.688 251.332 165.937 241.704 165.203C234.826 164.678 230.512 169.645 230.512 169.645L234.587 171.02C234.587 171.02 230.537 171.843 228.513 173.387C226.833 174.668 225.078 177.565 225.078 177.565L229.965 178.172C229.965 178.172 226.813 179.985 225.284 181.683C223.894 183.226 222.473 186.194 222.473 186.194C222.473 186.194 225.441 186.93 227.36 186.801C230.289 186.603 234.391 184.143 234.391 184.143L234.118 188.407C234.118 188.407 236.512 187.865 237.945 187.245C241.007 185.919 244.729 182.05 244.729 182.05L245.6 184.92C245.6 184.92 251.41 180.324 252.324 176.086Z" fill="#6B7050" stroke="#6B7050" stroke-width="2" stroke-linejoin="round"/>
    <path class="flower" d="M17.5769 338.5C22.0769 336 27.0769 334 27.0769 334C27.0769 334 27.5762 336.5 31.0762 345.5C33.5762 351.929 30.0769 357.5 30.0769 357.5L27.5769 354C27.5769 354 27.9659 358.114 27.0769 360.5C26.3393 362.479 24.0769 365 24.0769 365L22.0769 360.5C22.0769 360.5 21.2574 364.043 20.0769 366C19.0047 367.777 16.5769 370 16.5769 370C16.5769 370 15.0102 367.374 14.5769 365.5C13.9154 362.64 15.0769 358 15.0769 358L11.0769 359.5C11.0769 359.5 10.8995 357.052 11.0769 355.5C11.4557 352.185 14.0769 347.5 14.0769 347.5H11.0769C11.0769 347.5 13.7869 340.606 17.5769 338.5Z" fill="#6B7050" stroke="#6B7050" stroke-width="2" stroke-linejoin="round"/>
    <path class="flower" d="M208.834 311.331C211.226 315.89 213.105 320.936 213.105 320.936C213.105 320.936 210.594 321.375 201.513 324.659C195.026 327.004 189.54 323.373 189.54 323.373L193.099 320.957C193.099 320.957 188.977 321.248 186.613 320.302C184.652 319.517 182.186 317.195 182.186 317.195L186.733 315.303C186.733 315.303 183.21 314.399 181.282 313.172C179.531 312.058 177.367 309.577 177.367 309.577C177.367 309.577 180.03 308.074 181.914 307.686C184.789 307.093 189.399 308.365 189.399 308.365L187.996 304.33C187.996 304.33 190.447 304.211 191.995 304.426C195.3 304.884 199.92 307.617 199.92 307.617L199.992 304.617C199.992 304.617 206.82 307.492 208.834 311.331Z" fill="#6B7050" stroke="#6B7050" stroke-width="2" stroke-linejoin="round"/>
</svg>
