<svg width="165" height="165" viewBox="0 0 165 165" fill="none" xmlns="http://www.w3.org/2000/svg">
<rect width="165" height="165" rx="10" fill="#CAB9B1"/>
<mask id="mask0_127_3245" style="mask-type:alpha" maskUnits="userSpaceOnUse" x="8" y="9" width="149" height="133">
<rect x="8" y="9" width="149" height="133" fill="#D9D9D9"/>
</mask>
<g mask="url(#mask0_127_3245)">
<path d="M50.7474 44.9698C49.8678 50.6573 44.8463 59.5159 44.8463 59.5159C44.8463 59.5159 49.9269 53.8152 54.252 51.7648C58.5751 49.7153 66.821 49.0968 66.821 49.0968C66.821 49.0968 64.8354 56.5709 61.8342 60.2519C58.5964 64.2231 50.7855 68.3833 50.7855 68.3833C50.7855 68.3833 58.2135 65.7132 62.7233 66.5859C67.1725 67.4468 73.2435 72.6624 73.2435 72.6624C73.2435 72.6624 67.3402 76.6857 63.0615 77.8264C58.9096 78.9332 51.7885 78.4537 51.7885 78.4537C51.7885 78.4537 60.2054 80.1854 63.9912 83.7987C68.057 87.6793 71.5041 97.6545 71.5041 97.6545C71.5041 97.6545 62.3767 96.2209 58.0668 93.8026C55.8045 92.5332 52.8595 90.0589 50.8958 88.3117C53.2882 90.6303 56.9866 94.6174 58.1204 98.0762C59.9399 103.627 59.546 113.884 59.546 113.884C59.546 113.884 50.9689 108.804 47.2828 104.328C45.0555 101.623 43.1754 97.2441 42.1207 94.474C43.0052 97.1927 44.1889 101.564 44.0036 105.026C43.708 110.551 39.6714 119.853 39.6714 119.853C39.6714 119.853 33.3195 111.844 31.5912 106.3C30.571 103.027 30.5984 98.4615 30.7448 95.6472C30.4621 98.532 29.8059 103.249 28.3711 106.472C25.9601 111.888 18.9309 119.281 18.9309 119.281C18.9309 119.281 16.7388 110.272 17.3673 104.703C17.9113 99.8812 21.1153 93.0019 21.9269 91.3191C21.1698 92.8346 18.1959 98.4703 14.5613 101.187C10.1145 104.51 0.0163362 107.2 0.0163362 107.2C0.0163362 107.2 1.82988 98.4488 4.67582 94.2087C7.2744 90.3372 16.336 85.3824 16.336 85.3824C16.336 85.3824 7.30588 89.4983 2.45586 90.2253C-2.0986 90.908 -10.3465 90.2207 -10.3465 90.2207C-10.3465 90.2207 -5.2625 83.7754 -0.812145 81.323C3.88019 78.7373 12.9416 77.6061 12.9416 77.6061C12.9416 77.6061 3.47801 77.9558 -1.80914 75.9498C-6.95475 73.9974 -13.527 66.287 -13.527 66.287C-13.527 66.287 -5.33084 64.847 -0.0319351 64.8736C5.14364 64.8995 12.9922 67.654 12.9922 67.654C12.9922 67.654 6.13991 65.2324 2.43025 61.9493C-1.30138 58.6468 -5.92956 50.8855 -5.92956 50.8855C-5.92956 50.8855 2.78881 51.1968 7.70954 52.94C12.4418 54.6164 18.7078 59.5095 18.7078 59.5095C18.7078 59.5095 12.754 53.2658 11.9296 48.6128C11.2206 44.6109 11.7098 36.3186 11.7098 36.3186C11.7098 36.3186 20.7471 40.5398 23.0957 44.1869C25.365 47.7109 25.9752 55.7337 26.0095 56.2074C25.9748 55.7137 25.3839 47.006 26.514 42.2487C27.6978 37.2658 33.2019 30.1967 33.2019 30.1967C33.2019 30.1967 35.3583 37.1528 36.1741 41.733C37.0648 46.7336 36.2153 55.6179 36.2153 55.6179C36.2153 55.6179 38.1617 46.3926 40.9746 41.7386C43.4723 37.6062 49.4147 33.0842 49.4147 33.0842C49.4147 33.0842 51.4758 40.2597 50.7474 44.9698Z" fill="#FFD2AA"/>
<path d="M18.9309 119.281C18.9309 119.281 25.9601 111.888 28.3711 106.472C30.568 101.537 30.9396 93.0995 30.9396 93.0995C30.9396 93.0995 30.0149 101.243 31.5912 106.3C33.3195 111.844 39.6714 119.853 39.6714 119.853C39.6714 119.853 43.708 110.551 44.0036 105.026C44.2946 99.5881 41.2088 91.9096 41.2088 91.9096C41.2088 91.9096 43.8282 100.133 47.2828 104.328C50.9689 108.804 59.546 113.884 59.546 113.884C59.546 113.884 59.9399 103.627 58.1204 98.0762C56.3991 92.8252 48.7673 86.3569 48.7673 86.3569C48.7673 86.3569 54.3422 91.7127 58.0668 93.8026C62.3767 96.2209 71.5041 97.6545 71.5041 97.6545C71.5041 97.6545 68.057 87.6793 63.9912 83.7987C60.2054 80.1854 51.7885 78.4537 51.7885 78.4537C51.7885 78.4537 58.9096 78.9332 63.0615 77.8264C67.3402 76.6857 73.2435 72.6624 73.2435 72.6624C73.2435 72.6624 67.1725 67.4468 62.7233 66.5859C58.2135 65.7132 50.7855 68.3833 50.7855 68.3833C50.7855 68.3833 58.5964 64.2231 61.8342 60.2519C64.8354 56.5709 66.821 49.0968 66.821 49.0968C66.821 49.0968 58.5751 49.7153 54.252 51.7648C49.9269 53.8152 44.8463 59.5159 44.8463 59.5159C44.8463 59.5159 49.8678 50.6573 50.7474 44.9698C51.4758 40.2597 49.4147 33.0842 49.4147 33.0842C49.4147 33.0842 43.4723 37.6062 40.9746 41.7386C38.1617 46.3926 36.2153 55.6179 36.2153 55.6179C36.2153 55.6179 37.0648 46.7336 36.1741 41.733C35.3583 37.1528 33.2019 30.1967 33.2019 30.1967C33.2019 30.1967 27.6978 37.2658 26.514 42.2487C25.3506 47.1459 26.0111 56.2293 26.0111 56.2293C26.0111 56.2293 25.4345 47.8188 23.0957 44.1869C20.7471 40.5398 11.7098 36.3186 11.7098 36.3186C11.7098 36.3186 11.2206 44.6109 11.9296 48.6128C12.754 53.2658 18.7078 59.5095 18.7078 59.5095C18.7078 59.5095 12.4418 54.6164 7.70954 52.94C2.78881 51.1968 -5.92956 50.8855 -5.92956 50.8855C-5.92956 50.8855 -1.30138 58.6468 2.43024 61.9493C6.13991 65.2324 12.9922 67.654 12.9922 67.654C12.9922 67.654 5.14364 64.8995 -0.0319355 64.8736C-5.33084 64.847 -13.527 66.287 -13.527 66.287C-13.527 66.287 -6.95476 73.9974 -1.80914 75.9498C3.47801 77.9558 12.9416 77.6061 12.9416 77.6061C12.9416 77.6061 3.88019 78.7373 -0.812143 81.323C-5.2625 83.7754 -10.3465 90.2207 -10.3465 90.2207C-10.3465 90.2207 -2.0986 90.908 2.45585 90.2253C7.30588 89.4983 16.336 85.3824 16.336 85.3824C16.336 85.3824 7.2744 90.3372 4.67582 94.2087C1.82988 98.4488 0.0163391 107.2 0.0163391 107.2C0.0163391 107.2 10.1145 104.51 14.5613 101.187C18.7832 98.0313 22.1137 90.9369 22.1137 90.9369C22.1137 90.9369 17.9912 99.1731 17.3673 104.703C16.7388 110.272 18.9309 119.281 18.9309 119.281Z" stroke="#FFD2AA" stroke-width="2" stroke-linejoin="round"/>
<ellipse cx="32.8556" cy="76.0347" rx="16.4338" ry="15.9037" transform="rotate(-173.593 32.8556 76.0347)" fill="#816D61"/>
<path d="M84.554 30.3377C84.554 30.3377 54.4285 19.3182 72.467 -0.666973C90.5055 -20.6521 104.738 10.7425 104.738 10.7425C104.738 10.7425 130.881 -11.1028 135.265 19.6089C139.65 50.3206 107.759 36.7733 107.759 36.7733C107.759 36.7733 113.034 68.7439 87.6853 61.917C62.3369 55.0901 84.554 30.3377 84.554 30.3377Z" fill="#6B7050" stroke="#6B7050" stroke-width="2" stroke-linecap="round" stroke-linejoin="round"/>
<path d="M90.916 14.6843L93.948 17.8177" stroke="#EAE7DB" stroke-width="2" stroke-linecap="round" stroke-linejoin="round"/>
<path d="M110.619 23.4165L106.274 23.773" stroke="#EAE7DB" stroke-width="2" stroke-linecap="round" stroke-linejoin="round"/>
<path d="M94.8398 34.3391L96.7039 30.3975" stroke="#EAE7DB" stroke-width="2" stroke-linecap="round" stroke-linejoin="round"/>
<path d="M110.829 86.1692C110.829 86.1692 108.513 63.3713 122.428 62.7396C137.549 65.3075 131.946 85.2467 131.946 85.2467C131.946 85.2467 152.654 83.2568 153.794 97.2177C150.263 111.728 133.48 105.401 133.48 105.401C133.48 105.401 143.807 124.401 132.445 130.421C120.964 132.327 115.625 114.348 115.625 114.348C115.625 114.348 104.932 128.64 93.5759 124.405C82.7777 114.587 100.115 100.509 100.115 100.509C100.115 100.509 79.6291 100.421 83.6833 80.8365C98.1666 69.4947 110.829 86.1692 110.829 86.1692Z" fill="#DB6547" stroke="#DB6547" stroke-width="8" stroke-linecap="round" stroke-linejoin="round"/>
<circle cx="117.892" cy="97.1451" r="5.62143" transform="rotate(5.82409 117.892 97.1451)" fill="#FFD2AA" stroke="#FFD2AA"/>
</g>
<path fill-rule="evenodd" clip-rule="evenodd" d="M10 0C4.47715 0 0 4.47715 0 10V155C0 160.523 4.47715 165 10 165H155C160.523 165 165 160.523 165 155V10C165 4.47715 160.523 0 155 0H10ZM23 14C20.2386 14 18 16.2386 18 19V122C18 124.761 20.2386 127 23 127H142C144.761 127 147 124.761 147 122V19C147 16.2386 144.761 14 142 14H23Z" fill="#FDFCFB"/>
</svg>
