<svg width="190" height="159" viewBox="0 0 190 159" fill="none" xmlns="http://www.w3.org/2000/svg">
<path d="M60.742 98.2261L57.0456 99.7547L60.742 98.2261ZM31.5313 44.3422C30.1627 42.6081 27.6474 42.3118 25.9133 43.6804C24.1791 45.049 23.8828 47.5642 25.2514 49.2984L31.5313 44.3422ZM74.1045 158.088C78.08 157.646 78.08 157.645 78.0799 157.645C78.0799 157.644 78.0798 157.644 78.0797 157.643C78.0795 157.641 78.0793 157.639 78.0789 157.636C78.0783 157.631 78.0775 157.623 78.0763 157.613C78.0741 157.593 78.0708 157.564 78.0665 157.526C78.0578 157.45 78.045 157.339 78.0281 157.194C77.9942 156.905 77.9437 156.481 77.8763 155.935C77.7416 154.844 77.5395 153.266 77.2684 151.305C76.7265 147.385 75.9076 141.926 74.7986 135.764C72.5952 123.52 69.1956 108.201 64.4384 96.6975L57.0456 99.7547C61.458 110.425 64.7397 125.037 66.9251 137.181C68.0106 143.213 68.813 148.561 69.3438 152.401C69.6091 154.319 69.8062 155.859 69.9366 156.916C70.0018 157.444 70.0503 157.851 70.0823 158.125C70.0984 158.261 70.1102 158.365 70.118 158.433C70.1219 158.467 70.1248 158.492 70.1266 158.509C70.1275 158.517 70.1282 158.523 70.1286 158.526C70.1288 158.528 70.129 158.529 70.129 158.53C70.1291 158.53 70.1291 158.531 70.1291 158.531C70.1291 158.531 70.1291 158.531 74.1045 158.088ZM64.4384 96.6975C59.7449 85.3478 51.4538 72.2084 44.4696 62.0519C40.9546 56.9403 37.7269 52.5218 35.377 49.3799C34.2015 47.8083 33.2444 46.5543 32.5791 45.6907C32.2465 45.2589 31.9867 44.9245 31.809 44.6968C31.7202 44.5829 31.6518 44.4957 31.6052 44.4362C31.5818 44.4064 31.5639 44.3837 31.5515 44.3679C31.5454 44.3601 31.5406 44.354 31.5372 44.3497C31.5355 44.3476 31.5342 44.3459 31.5332 44.3446C31.5327 44.344 31.5322 44.3434 31.532 44.3431C31.5316 44.3426 31.5313 44.3422 28.3913 46.8203C25.2514 49.2984 25.2513 49.2982 25.2513 49.2982C25.2514 49.2983 25.2514 49.2984 25.2517 49.2987C25.2521 49.2992 25.2529 49.3002 25.254 49.3016C25.2563 49.3045 25.2599 49.3092 25.265 49.3156C25.2751 49.3284 25.2907 49.3483 25.3118 49.3751C25.3538 49.4287 25.4175 49.5099 25.5015 49.6177C25.6696 49.8331 25.9193 50.1545 26.2415 50.5728C26.886 51.4094 27.82 52.6331 28.9706 54.1714C31.2727 57.2494 34.4361 61.5799 37.8778 66.5849C44.807 76.6614 52.6912 89.225 57.0456 99.7547L64.4384 96.6975Z" fill="#564842"/>
<path d="M100.701 70.7889L96.7706 71.5304L100.701 70.7889ZM83.1104 12.0751C82.1248 10.098 79.7231 9.2943 77.746 10.2799C75.7689 11.2655 74.9652 13.6673 75.9508 15.6444L83.1104 12.0751ZM101.557 132.118C105.539 132.497 105.539 132.497 105.539 132.496C105.539 132.496 105.539 132.495 105.539 132.494C105.539 132.493 105.54 132.49 105.54 132.488C105.54 132.482 105.541 132.474 105.542 132.464C105.544 132.444 105.547 132.415 105.55 132.377C105.557 132.301 105.567 132.19 105.58 132.045C105.606 131.754 105.643 131.329 105.689 130.781C105.78 129.686 105.904 128.099 106.039 126.124C106.31 122.176 106.623 116.665 106.796 110.406C107.139 97.9704 106.94 82.2801 104.632 70.0474L96.7706 71.5304C98.911 82.8766 99.1393 97.851 98.7986 110.185C98.6294 116.312 98.3226 121.712 98.0581 125.578C97.9259 127.511 97.8045 129.058 97.7164 130.119C97.6723 130.65 97.6366 131.058 97.6121 131.333C97.5999 131.47 97.5904 131.573 97.5841 131.642C97.5809 131.676 97.5786 131.701 97.577 131.717C97.5763 131.726 97.5757 131.732 97.5754 131.735C97.5752 131.737 97.5751 131.738 97.575 131.739C97.575 131.739 97.575 131.739 97.5749 131.74C97.5749 131.74 97.575 131.739 101.557 132.118ZM104.632 70.0474C102.355 57.9783 96.9221 43.4227 92.1594 32.0539C89.7623 26.3322 87.505 21.3476 85.8463 17.792C85.0165 16.0135 84.3357 14.5904 83.8608 13.6092C83.6233 13.1185 83.4373 12.7382 83.3099 12.479C83.2462 12.3493 83.1971 12.25 83.1636 12.1822C83.1468 12.1483 83.1339 12.1224 83.125 12.1045C83.1206 12.0955 83.1171 12.0886 83.1147 12.0837C83.1135 12.0812 83.1125 12.0793 83.1118 12.0779C83.1114 12.0772 83.1111 12.0765 83.1109 12.0761C83.1106 12.0756 83.1104 12.0751 79.5306 13.8597C75.9508 15.6444 75.9507 15.6442 75.9507 15.6441C75.9507 15.6443 75.9508 15.6444 75.9509 15.6447C75.9512 15.6453 75.9518 15.6464 75.9526 15.6481C75.9543 15.6514 75.9569 15.6567 75.9605 15.664C75.9678 15.6786 75.9791 15.7013 75.9942 15.7318C76.0244 15.7929 76.0701 15.8854 76.1304 16.008C76.2509 16.2532 76.4297 16.6188 76.6597 17.0941C77.1198 18.0447 77.7842 19.4333 78.5964 21.1742C80.2214 24.6575 82.4337 29.5428 84.7807 35.1451C89.506 46.4244 94.6583 60.3334 96.7706 71.5304L104.632 70.0474Z" fill="#564842"/>
<path d="M141.294 63.1263L137.301 63.3714L141.294 63.1263ZM131.168 2.67615C130.437 0.591519 128.155 -0.505699 126.07 0.225452C123.985 0.956602 122.888 3.23925 123.619 5.32389L131.168 2.67615ZM134.489 124.083C138.392 124.956 138.392 124.955 138.392 124.955C138.392 124.954 138.393 124.954 138.393 124.953C138.393 124.951 138.394 124.949 138.394 124.946C138.395 124.941 138.397 124.933 138.399 124.924C138.404 124.904 138.41 124.875 138.418 124.838C138.435 124.764 138.459 124.654 138.49 124.512C138.552 124.227 138.642 123.81 138.755 123.272C138.982 122.196 139.304 120.638 139.684 118.695C140.445 114.812 141.443 109.383 142.396 103.194C144.289 90.8988 146.049 75.3063 145.286 62.8812L137.301 63.3714C138.009 74.896 136.367 89.7819 134.489 101.977C133.557 108.034 132.578 113.354 131.833 117.158C131.461 119.058 131.147 120.578 130.927 121.62C130.818 122.141 130.731 122.542 130.673 122.811C130.643 122.946 130.621 123.047 130.606 123.114C130.599 123.148 130.593 123.172 130.59 123.189C130.588 123.197 130.587 123.202 130.586 123.206C130.585 123.208 130.585 123.209 130.585 123.21C130.585 123.21 130.585 123.21 130.585 123.21C130.585 123.21 130.585 123.21 134.489 124.083ZM145.286 62.8812C144.534 50.6223 140.96 35.5024 137.653 23.6281C135.989 17.652 134.371 12.4246 133.169 8.68982C132.568 6.82159 132.07 5.3247 131.722 4.29187C131.547 3.77541 131.41 3.37483 131.316 3.10172C131.269 2.96516 131.233 2.86045 131.208 2.78904C131.195 2.75334 131.186 2.72596 131.179 2.70709C131.176 2.69765 131.173 2.69033 131.172 2.68517C131.171 2.68259 131.17 2.68055 131.17 2.67904C131.169 2.67829 131.169 2.67757 131.169 2.67719C131.169 2.67661 131.168 2.67615 127.394 4.00002C123.619 5.32389 123.619 5.32371 123.619 5.32366C123.619 5.32383 123.619 5.32391 123.619 5.32424C123.62 5.3249 123.62 5.32609 123.621 5.32782C123.622 5.33128 123.624 5.33687 123.627 5.34459C123.632 5.36002 123.64 5.38391 123.652 5.41608C123.674 5.48044 123.708 5.57792 123.752 5.7071C123.841 5.96546 123.973 6.35053 124.142 6.85077C124.48 7.85135 124.966 9.31207 125.554 11.1407C126.732 14.7996 128.317 19.9228 129.946 25.7742C133.227 37.5551 136.603 51.9983 137.301 63.3714L145.286 62.8812Z" fill="#564842"/>
</svg>
