<svg width="165" height="165" viewBox="0 0 165 165" fill="none" xmlns="http://www.w3.org/2000/svg">
<rect width="165" height="165" rx="10" fill="#CAB9B1"/>
<path fill-rule="evenodd" clip-rule="evenodd" d="M118.307 30.0216C119.289 29.5168 119.676 28.3111 119.172 27.3286C118.667 26.3462 117.461 25.9589 116.479 26.4637L104.086 32.8306C103.104 33.3354 102.716 34.541 103.221 35.5235C103.726 36.506 104.931 36.8933 105.914 36.3885L118.307 30.0216ZM120.455 60.5559C121.556 60.6125 122.492 59.7624 122.546 58.6571C122.6 57.5519 121.751 56.61 120.65 56.5534L106.751 55.8388C105.65 55.7821 104.714 56.6323 104.66 57.7375C104.606 58.8428 105.455 59.7847 106.556 59.8413L120.455 60.5559ZM122.546 71.1141C122.492 72.2194 121.556 73.0695 120.455 73.0129L106.556 72.2983C105.455 72.2417 104.606 71.2998 104.66 70.1946C104.714 69.0893 105.65 68.2392 106.751 68.2958L120.65 69.0104C121.751 69.067 122.6 70.0089 122.546 71.1141ZM119.925 86.2773C121.018 86.4198 122.018 85.6454 122.158 84.5476C122.298 83.4497 121.525 82.4442 120.432 82.3016L106.63 80.5018C105.537 80.3592 104.537 81.1336 104.397 82.2315C104.257 83.3293 105.03 84.3348 106.123 84.4774L119.925 86.2773ZM121.607 97.5583C121.467 98.6562 120.467 99.4306 119.374 99.288L105.572 97.4881C104.479 97.3456 103.707 96.34 103.847 95.2422C103.987 94.1443 104.986 93.3699 106.079 93.5125L119.881 95.3124C120.974 95.4549 121.747 96.4605 121.607 97.5583ZM119.099 112.299C120.192 112.441 121.191 111.667 121.332 110.569C121.472 109.471 120.699 108.465 119.606 108.323L105.804 106.523C104.711 106.38 103.711 107.155 103.571 108.253C103.431 109.351 104.204 110.356 105.297 110.499L119.099 112.299ZM122.433 43.1076C122.667 44.1883 121.983 45.2523 120.904 45.4843L107.294 48.4101C106.215 48.642 105.151 47.954 104.917 46.8733C104.683 45.7926 105.368 44.7285 106.447 44.4966L120.056 41.5708C121.135 41.3389 122.199 42.0269 122.433 43.1076ZM48.2442 30.0216C47.2617 29.5169 46.8744 28.3112 47.3792 27.3287C47.884 26.3462 49.0896 25.959 50.0721 26.4637L62.4647 32.8307C63.4471 33.3354 63.8344 34.5411 63.3296 35.5236C62.8249 36.5061 61.6192 36.8933 60.6367 36.3885L48.2442 30.0216ZM44.0063 58.6572C44.0603 59.7625 44.9966 60.6126 46.0977 60.556L59.9969 59.8414C61.098 59.7847 61.9469 58.8429 61.893 57.7376C61.8391 56.6323 60.9028 55.7822 59.8017 55.8388L45.9024 56.5534C44.8013 56.61 43.9524 57.5519 44.0063 58.6572ZM46.0977 73.013C44.9966 73.0696 44.0603 72.2195 44.0063 71.1142C43.9524 70.0089 44.8013 69.0671 45.9024 69.0104L59.8017 68.2959C60.9028 68.2392 61.8391 69.0893 61.893 70.1946C61.9469 71.2999 61.098 72.2418 59.9969 72.2984L46.0977 73.013ZM44.393 84.5477C44.533 85.6455 45.5327 86.4199 46.6258 86.2774L60.4276 84.4775C61.5207 84.3349 62.2934 83.3294 62.1534 82.2315C62.0134 81.1337 61.0137 80.3593 59.9206 80.5018L46.1188 82.3017C45.0257 82.4443 44.253 83.4498 44.393 84.5477ZM47.1766 99.2881C46.0835 99.4307 45.0838 98.6562 44.9438 97.5584C44.8038 96.4605 45.5764 95.455 46.6696 95.3124L60.4713 93.5126C61.5645 93.37 62.5642 94.1444 62.7042 95.2423C62.8442 96.3401 62.0715 97.3457 60.9784 97.4882L47.1766 99.2881ZM45.2192 110.569C45.3592 111.667 46.3589 112.441 47.452 112.299L61.2538 110.499C62.3469 110.356 63.1196 109.351 62.9796 108.253C62.8395 107.155 61.8399 106.381 60.7467 106.523L46.945 108.323C45.8518 108.466 45.0792 109.471 45.2192 110.569ZM45.6488 45.4843C44.5701 45.2524 43.8853 44.1883 44.1193 43.1077C44.3534 42.027 45.4176 41.3389 46.4963 41.5708L60.106 44.4967C61.1847 44.7286 61.8695 45.7927 61.6355 46.8734C61.4014 47.954 60.3372 48.6421 59.2585 48.4102L45.6488 45.4843Z" fill="#EAE7DB"/>
<path fill-rule="evenodd" clip-rule="evenodd" d="M82.9178 18.0003C82.8539 17.9997 68.7199 17.883 62.2838 23.1215C53.8754 29.9653 54.0021 49.6965 54.0021 49.6965L56.6691 121.255L82.9178 121.255L82.918 121.255L109.167 121.255L111.834 49.6965C111.834 49.6965 111.96 29.9653 103.552 23.1215C97.116 17.883 82.9819 17.9997 82.918 18.0003V18.0003C82.918 18.0003 82.918 18.0003 82.9178 18.0003Z" fill="#6B7050"/>
<path d="M62.2838 23.1215L60.39 20.7948L60.39 20.7948L62.2838 23.1215ZM82.9178 18.0003L82.8918 21.0002L82.8918 21.0002L82.9178 18.0003ZM54.0021 49.6965L51.0021 49.7157C51.0023 49.7466 51.003 49.7774 51.0041 49.8082L54.0021 49.6965ZM56.6691 121.255L53.6711 121.367C53.7312 122.979 55.0557 124.255 56.6691 124.255L56.6691 121.255ZM82.9178 121.255L82.9178 124.255C82.9529 124.255 82.988 124.255 83.023 124.253L82.9178 121.255ZM82.918 121.255L82.918 118.255C82.883 118.255 82.8479 118.256 82.8128 118.257L82.918 121.255ZM109.167 121.255L109.167 124.255C110.78 124.255 112.105 122.979 112.165 121.367L109.167 121.255ZM111.834 49.6965L114.832 49.8082C114.833 49.7774 114.834 49.7466 114.834 49.7157L111.834 49.6965ZM103.552 23.1215L105.446 20.7948L105.446 20.7948L103.552 23.1215ZM82.918 18.0003H79.918C79.918 18.8004 80.2377 19.5674 80.8059 20.1308C81.3742 20.6941 82.1439 21.0071 82.9441 21.0002L82.918 18.0003ZM82.918 18.0003H85.918C85.918 17.1601 85.5657 16.3584 84.9468 15.7902C84.3278 15.2221 83.499 14.9395 82.6619 15.0112L82.918 18.0003ZM64.1776 25.4482C66.7137 23.384 71.1333 22.1824 75.4178 21.5657C79.5512 20.9707 82.9317 21.0005 82.8918 21.0002L82.9438 15.0004C82.84 14.9995 79.1215 14.9707 74.563 15.6269C70.1554 16.2613 64.29 17.6205 60.39 20.7948L64.1776 25.4482ZM54.0021 49.6965C57.002 49.6772 57.002 49.6778 57.002 49.6783C57.002 49.6783 57.002 49.6787 57.002 49.6788C57.002 49.6791 57.002 49.679 57.002 49.6787C57.002 49.678 57.002 49.6761 57.002 49.6731C57.002 49.667 57.0019 49.6563 57.002 49.641C57.002 49.6105 57.0021 49.562 57.0026 49.4963C57.0036 49.365 57.0061 49.1654 57.0122 48.9056C57.0244 48.3856 57.0509 47.6259 57.1081 46.6894C57.2228 44.811 57.4595 42.2485 57.9443 39.4957C58.4312 36.7313 59.1546 33.8546 60.2122 31.3139C61.2797 28.7493 62.6044 26.7287 64.1776 25.4482L60.39 20.7948C57.759 22.9362 55.9465 25.9484 54.6729 29.0082C53.3893 32.092 52.5678 35.4313 52.0353 38.4551C51.5007 41.4906 51.2435 44.2886 51.1192 46.3237C51.0569 47.3439 51.0276 48.1792 51.0139 48.765C51.007 49.058 51.004 49.2891 51.0028 49.4501C51.0022 49.5307 51.002 49.5937 51.002 49.6383C51.0019 49.6606 51.002 49.6783 51.002 49.6912C51.002 49.6977 51.0021 49.703 51.0021 49.7071C51.0021 49.7091 51.0021 49.7109 51.0021 49.7123C51.0021 49.713 51.0021 49.7139 51.0021 49.7143C51.0021 49.715 51.0021 49.7157 54.0021 49.6965ZM59.667 121.143L57 49.5848L51.0041 49.8082L53.6711 121.367L59.667 121.143ZM82.9178 118.255L56.6691 118.255L56.6691 124.255L82.9178 124.255L82.9178 118.255ZM83.023 124.253L83.0232 124.253L82.8128 118.257L82.8126 118.257L83.023 124.253ZM82.918 124.255L109.167 124.255L109.167 118.255L82.918 118.255L82.918 124.255ZM112.165 121.367L114.832 49.8082L108.836 49.5848L106.169 121.143L112.165 121.367ZM111.834 49.6965C114.834 49.7157 114.834 49.715 114.834 49.7143C114.834 49.7139 114.834 49.713 114.834 49.7123C114.834 49.7109 114.834 49.7091 114.834 49.7071C114.834 49.703 114.834 49.6977 114.834 49.6912C114.834 49.6783 114.834 49.6606 114.834 49.6383C114.834 49.5937 114.834 49.5307 114.833 49.4501C114.832 49.2891 114.829 49.058 114.822 48.765C114.808 48.1792 114.779 47.3439 114.717 46.3237C114.592 44.2886 114.335 41.4906 113.801 38.4551C113.268 35.4313 112.447 32.092 111.163 29.0082C109.889 25.9484 108.077 22.9362 105.446 20.7948L101.658 25.4482C103.231 26.7287 104.556 28.7493 105.624 31.3139C106.681 33.8546 107.405 36.7313 107.892 39.4957C108.376 42.2485 108.613 44.8111 108.728 46.6894C108.785 47.6259 108.811 48.3856 108.824 48.9056C108.83 49.1654 108.832 49.365 108.833 49.4963C108.834 49.562 108.834 49.6105 108.834 49.641C108.834 49.6563 108.834 49.667 108.834 49.6731C108.834 49.6761 108.834 49.678 108.834 49.6787C108.834 49.679 108.834 49.6791 108.834 49.6789C108.834 49.6787 108.834 49.6783 108.834 49.6783C108.834 49.6778 108.834 49.6772 111.834 49.6965ZM105.446 20.7948C101.546 17.6205 95.6804 16.2613 91.2729 15.6269C86.7143 14.9707 82.9959 14.9995 82.892 15.0004L82.9441 21.0002C82.9041 21.0005 86.2846 20.9707 90.418 21.5657C94.7025 22.1824 99.1222 23.384 101.658 25.4482L105.446 20.7948ZM79.918 18.0003V18.0003H85.918V18.0003H79.918ZM82.8918 21.0002C82.9391 21.0006 82.9863 20.9999 83.0334 20.9981C83.057 20.9971 83.0805 20.996 83.104 20.9945C83.1157 20.9938 83.1274 20.993 83.1391 20.9921C83.145 20.9917 83.1508 20.9912 83.1567 20.9908C83.1596 20.9905 83.1625 20.9903 83.1654 20.9901C83.1669 20.9899 83.1684 20.9898 83.1698 20.9897C83.1706 20.9896 83.1713 20.9896 83.172 20.9895C83.1724 20.9895 83.1727 20.9894 83.1731 20.9894C83.1733 20.9894 83.1736 20.9894 83.1737 20.9894C83.1739 20.9893 83.1742 20.9893 82.918 18.0003C82.6619 15.0112 82.6621 15.0112 82.6624 15.0112C82.6625 15.0112 82.6628 15.0112 82.6629 15.0111C82.6633 15.0111 82.6637 15.0111 82.664 15.011C82.6648 15.011 82.6655 15.0109 82.6662 15.0109C82.6677 15.0107 82.6691 15.0106 82.6706 15.0105C82.6735 15.0103 82.6764 15.01 82.6794 15.0098C82.6852 15.0093 82.6911 15.0089 82.6969 15.0084C82.7086 15.0076 82.7203 15.0068 82.732 15.006C82.7555 15.0046 82.779 15.0034 82.8025 15.0025C82.8496 15.0007 82.8967 15 82.9438 15.0004L82.8918 21.0002Z" fill="#6B7050"/>
<path d="M82.918 24.644L82.918 119.041" stroke="#495235" stroke-width="3" stroke-linecap="round" stroke-linejoin="round"/>
<path fill-rule="evenodd" clip-rule="evenodd" d="M45.877 86.3752C45.877 86.3752 46.381 103.282 46.8408 115.165C47.2621 126.051 47.9424 144.646 47.9424 144.646C47.9424 144.646 59.3205 146.355 66.6689 146.723C72.2104 147 80.6048 147.002 82.0219 147C83.439 147.002 91.8334 147 97.3749 146.723C104.723 146.355 116.101 144.646 116.101 144.646C116.101 144.646 116.782 126.051 117.203 115.165C117.663 103.282 118.167 86.3752 118.167 86.3752H82.2285H81.8154H45.877Z" fill="#564842"/>
<path d="M46.8408 115.165L50.8378 115.01L46.8408 115.165ZM45.877 86.3752V82.3752C44.7954 82.3752 43.76 82.8132 43.0067 83.5893C42.2534 84.3654 41.8465 85.4134 41.8787 86.4945L45.877 86.3752ZM47.9424 144.646L43.9451 144.793C44.0154 146.716 45.4452 148.316 47.3483 148.602L47.9424 144.646ZM66.6689 146.723L66.8686 142.728L66.8686 142.728L66.6689 146.723ZM82.0219 147L82.0269 143L82.017 143L82.0219 147ZM97.3749 146.723L97.1752 142.728L97.1752 142.728L97.3749 146.723ZM116.101 144.646L116.696 148.602C118.599 148.316 120.028 146.716 120.099 144.793L116.101 144.646ZM117.203 115.165L113.206 115.01L113.206 115.01L117.203 115.165ZM118.167 86.3752L122.165 86.4945C122.197 85.4134 121.79 84.3654 121.037 83.5893C120.284 82.8132 119.248 82.3752 118.167 82.3752V86.3752ZM50.8378 115.01C50.6085 109.082 50.3678 101.895 50.1844 96.1856C50.0927 93.3318 50.0154 90.849 49.961 89.0797C49.9338 88.1951 49.9123 87.4889 49.8977 87.004C49.8904 86.7616 49.8847 86.5744 49.8809 86.448C49.879 86.3848 49.8776 86.3367 49.8766 86.3045C49.8761 86.2884 49.8758 86.2762 49.8755 86.2681C49.8754 86.2641 49.8753 86.261 49.8753 86.259C49.8752 86.258 49.8752 86.2573 49.8752 86.2568C49.8752 86.2565 49.8752 86.2563 49.8752 86.2562C49.8752 86.2561 49.8752 86.256 45.877 86.3752C41.8787 86.4945 41.8787 86.4945 41.8787 86.4947C41.8787 86.4948 41.8787 86.495 41.8788 86.4953C41.8788 86.4958 41.8788 86.4966 41.8788 86.4976C41.8789 86.4997 41.879 86.5028 41.8791 86.507C41.8793 86.5152 41.8797 86.5275 41.8802 86.5437C41.8812 86.5762 41.8826 86.6245 41.8845 86.688C41.8883 86.8151 41.894 87.0028 41.9013 87.2458C41.916 87.7319 41.9375 88.4395 41.9648 89.3255C42.0193 91.0976 42.0967 93.5842 42.1885 96.4425C42.3721 102.157 42.6134 109.365 42.8438 115.319L50.8378 115.01ZM47.9424 144.646C51.9397 144.5 51.9397 144.5 51.9397 144.5C51.9397 144.5 51.9397 144.5 51.9397 144.499C51.9397 144.499 51.9396 144.498 51.9396 144.497C51.9395 144.495 51.9394 144.491 51.9392 144.487C51.9389 144.478 51.9384 144.464 51.9377 144.446C51.9364 144.411 51.9345 144.358 51.932 144.289C51.9269 144.15 51.9194 143.945 51.9096 143.68C51.8902 143.15 51.862 142.381 51.8268 141.424C51.7564 139.51 51.6582 136.845 51.5468 133.84C51.3241 127.83 51.0486 120.457 50.8378 115.01L42.8438 115.319C43.0543 120.759 43.3296 128.127 43.5523 134.136C43.6637 137.141 43.7618 139.805 43.8322 141.718C43.8674 142.674 43.8956 143.443 43.915 143.973C43.9247 144.238 43.9322 144.443 43.9373 144.581C43.9399 144.651 43.9418 144.704 43.9431 144.739C43.9437 144.757 43.9442 144.77 43.9446 144.779C43.9447 144.784 43.9448 144.787 43.9449 144.789C43.945 144.79 43.945 144.791 43.945 144.792C43.945 144.792 43.945 144.792 43.945 144.792C43.9451 144.793 43.9451 144.793 47.9424 144.646ZM66.8686 142.728C63.3519 142.552 58.7936 142.049 55.049 141.578C53.1907 141.344 51.5584 141.122 50.3914 140.958C49.8082 140.876 49.3419 140.809 49.0226 140.762C48.863 140.739 48.7402 140.721 48.6579 140.709C48.6167 140.703 48.5857 140.698 48.5653 140.695C48.5552 140.694 48.5476 140.692 48.5428 140.692C48.5404 140.691 48.5386 140.691 48.5376 140.691C48.537 140.691 48.5367 140.691 48.5365 140.691C48.5364 140.691 48.5364 140.691 48.5364 140.691C48.5364 140.691 48.5365 140.691 47.9424 144.646C47.3483 148.602 47.3484 148.602 47.3487 148.602C47.3488 148.602 47.349 148.602 47.3493 148.602C47.3498 148.602 47.3505 148.602 47.3513 148.603C47.353 148.603 47.3554 148.603 47.3585 148.604C47.3647 148.605 47.3736 148.606 47.3851 148.608C47.4083 148.611 47.442 148.616 47.486 148.623C47.574 148.636 47.7028 148.655 47.8686 148.679C48.2003 148.727 48.6804 148.796 49.2787 148.88C50.4747 149.048 52.1462 149.276 54.051 149.516C57.8325 149.991 62.6375 150.526 66.4692 150.718L66.8686 142.728ZM82.017 143C80.5843 143.002 72.2913 142.999 66.8686 142.728L66.4692 150.718C72.1295 151.001 80.6252 151.002 82.0269 151L82.017 143ZM82.017 151C83.4186 151.002 91.9143 151.001 97.5746 150.718L97.1752 142.728C91.7525 142.999 83.4595 143.002 82.0269 143L82.017 151ZM97.5746 150.718C101.406 150.526 106.211 149.991 109.993 149.516C111.898 149.276 113.569 149.048 114.765 148.88C115.363 148.796 115.844 148.727 116.175 148.679C116.341 148.655 116.47 148.636 116.558 148.623C116.602 148.616 116.636 148.611 116.659 148.608C116.67 148.606 116.679 148.605 116.685 148.604C116.688 148.603 116.691 148.603 116.692 148.603C116.693 148.602 116.694 148.602 116.695 148.602C116.695 148.602 116.695 148.602 116.695 148.602C116.695 148.602 116.696 148.602 116.101 144.646C115.507 140.691 115.507 140.691 115.507 140.691C115.507 140.691 115.507 140.691 115.507 140.691C115.507 140.691 115.507 140.691 115.506 140.691C115.505 140.691 115.503 140.691 115.501 140.692C115.496 140.692 115.489 140.694 115.478 140.695C115.458 140.698 115.427 140.703 115.386 140.709C115.304 140.721 115.181 140.739 115.021 140.762C114.702 140.809 114.236 140.876 113.652 140.958C112.485 141.122 110.853 141.344 108.995 141.578C105.25 142.049 100.692 142.552 97.1752 142.728L97.5746 150.718ZM116.101 144.646C120.099 144.793 120.099 144.793 120.099 144.792C120.099 144.792 120.099 144.792 120.099 144.792C120.099 144.791 120.099 144.79 120.099 144.789C120.099 144.787 120.099 144.784 120.099 144.779C120.1 144.77 120.1 144.757 120.101 144.739C120.102 144.704 120.104 144.651 120.106 144.581C120.112 144.443 120.119 144.238 120.129 143.973C120.148 143.443 120.176 142.674 120.212 141.718C120.282 139.805 120.38 137.141 120.492 134.136C120.714 128.127 120.99 120.759 121.2 115.319L113.206 115.01C112.995 120.457 112.72 127.83 112.497 133.84C112.386 136.845 112.287 139.51 112.217 141.424C112.182 142.381 112.154 143.15 112.134 143.68C112.124 143.944 112.117 144.15 112.112 144.289C112.109 144.358 112.107 144.411 112.106 144.446C112.105 144.464 112.105 144.478 112.105 144.487C112.104 144.491 112.104 144.495 112.104 144.497C112.104 144.498 112.104 144.499 112.104 144.499C112.104 144.5 112.104 144.5 112.104 144.5C112.104 144.5 112.104 144.5 116.101 144.646ZM121.2 115.319C121.43 109.365 121.672 102.157 121.855 96.4425C121.947 93.5842 122.025 91.0976 122.079 89.3255C122.106 88.4395 122.128 87.7319 122.142 87.2458C122.15 87.0028 122.155 86.8151 122.159 86.688C122.161 86.6245 122.163 86.5762 122.164 86.5437C122.164 86.5275 122.164 86.5152 122.165 86.5069C122.165 86.5028 122.165 86.4997 122.165 86.4976C122.165 86.4966 122.165 86.4958 122.165 86.4953C122.165 86.495 122.165 86.4948 122.165 86.4947C122.165 86.4945 122.165 86.4945 118.167 86.3752C114.169 86.256 114.169 86.2561 114.169 86.2562C114.169 86.2563 114.169 86.2565 114.169 86.2568C114.169 86.2573 114.169 86.258 114.169 86.259C114.168 86.261 114.168 86.2641 114.168 86.2681C114.168 86.2762 114.168 86.2884 114.167 86.3045C114.166 86.3367 114.165 86.3848 114.163 86.448C114.159 86.5744 114.153 86.7616 114.146 87.004C114.131 87.4889 114.11 88.1951 114.083 89.0797C114.028 90.849 113.951 93.3318 113.859 96.1856C113.676 101.895 113.435 109.082 113.206 115.01L121.2 115.319ZM118.167 82.3752H82.2285V90.3752H118.167V82.3752ZM82.2285 82.3752H81.8154V90.3752H82.2285V82.3752ZM45.877 90.3752H81.8154V82.3752H45.877V90.3752Z" fill="#564842"/>
<path fill-rule="evenodd" clip-rule="evenodd" d="M36.3312 88.7006C36.3312 88.7006 35.3216 81.55 35.092 76.9356C34.8851 72.7787 35.092 66.2779 35.092 66.2779C35.092 66.2779 51.6141 65.157 62.2179 64.8938C68.3238 64.7423 76.5118 64.7749 82 64.8238C87.4882 64.7749 95.6763 64.7423 101.782 64.8938C112.386 65.157 128.908 66.2779 128.908 66.2779C128.908 66.2779 129.115 72.7787 128.908 76.9356C128.678 81.55 127.669 88.7006 127.669 88.7006C127.669 88.7006 111.91 90.1497 101.782 90.4999C95.6777 90.711 87.4888 90.7269 82 90.7068C76.5112 90.7269 68.3223 90.711 62.2179 90.4999C52.0904 90.1497 36.3312 88.7006 36.3312 88.7006Z" fill="#816D61"/>
<path d="M35.092 76.9356L39.087 76.7368L35.092 76.9356ZM36.3312 88.7006L32.3705 89.2598C32.6298 91.0965 34.1178 92.5139 35.9649 92.6838L36.3312 88.7006ZM35.092 66.2779L34.8212 62.2871C32.7707 62.4262 31.1594 64.0966 31.094 66.1507L35.092 66.2779ZM62.2179 64.8938L62.1187 60.8951L62.2179 64.8938ZM82 64.8238L81.9644 68.8236C81.9882 68.8238 82.0119 68.8238 82.0357 68.8236L82 64.8238ZM101.782 64.8938L101.881 60.8951L101.782 64.8938ZM128.908 66.2779L132.906 66.1507C132.841 64.0966 131.229 62.4262 129.179 62.2871L128.908 66.2779ZM128.908 76.9356L132.903 77.1345L132.903 77.1345L128.908 76.9356ZM127.669 88.7006L128.035 92.6838C129.882 92.5139 131.37 91.0965 131.63 89.2598L127.669 88.7006ZM101.782 90.4999L101.92 94.4975L101.92 94.4975L101.782 90.4999ZM82 90.7068L82.0146 86.7069C82.0049 86.7068 81.9951 86.7068 81.9854 86.7069L82 90.7068ZM62.2179 90.4999L62.0797 94.4975L62.0797 94.4975L62.2179 90.4999ZM31.0969 77.1345C31.2189 79.5855 31.5426 82.6394 31.8257 85.0207C31.9688 86.2242 32.1044 87.2802 32.2044 88.0359C32.2545 88.414 32.2957 88.7177 32.3245 88.9279C32.3389 89.033 32.3502 89.1148 32.3581 89.1709C32.362 89.1989 32.365 89.2206 32.3671 89.2355C32.3681 89.2429 32.3689 89.2487 32.3695 89.2528C32.3698 89.2548 32.37 89.2564 32.3702 89.2576C32.3703 89.2582 32.3703 89.2587 32.3704 89.259C32.3704 89.2592 32.3704 89.2594 32.3705 89.2595C32.3705 89.2597 32.3705 89.2598 36.3312 88.7006C40.2919 88.1414 40.2919 88.1415 40.292 88.1415C40.2919 88.1415 40.292 88.1415 40.2919 88.1415C40.2919 88.1414 40.2919 88.1413 40.2919 88.141C40.2918 88.1404 40.2917 88.1394 40.2915 88.138C40.2911 88.1351 40.2904 88.1306 40.2895 88.1244C40.2878 88.112 40.2851 88.0929 40.2816 88.0674C40.2745 88.0165 40.2639 87.9402 40.2503 87.8408C40.223 87.6419 40.1835 87.3509 40.1353 86.9865C40.0388 86.2573 39.9078 85.2372 39.7697 84.0763C39.4906 81.7287 39.1947 78.9002 39.087 76.7368L31.0969 77.1345ZM35.092 66.2779C31.094 66.1507 31.094 66.1508 31.094 66.151C31.094 66.1511 31.094 66.1512 31.094 66.1514C31.0939 66.1517 31.0939 66.1522 31.0939 66.1527C31.0939 66.1538 31.0938 66.1552 31.0938 66.1571C31.0937 66.1608 31.0935 66.166 31.0933 66.1728C31.0929 66.1864 31.0923 66.206 31.0915 66.2315C31.09 66.2825 31.0878 66.3569 31.0851 66.4524C31.0797 66.6434 31.0722 66.9193 31.064 67.2628C31.0476 67.9492 31.0278 68.908 31.0147 69.9997C30.9886 72.1598 30.987 74.9265 31.0969 77.1345L39.087 76.7368C38.99 74.7878 38.9884 72.2257 39.0141 70.0962C39.0268 69.0431 39.0458 68.1169 39.0617 67.4545C39.0696 67.1236 39.0768 66.8591 39.0819 66.6784C39.0844 66.5881 39.0865 66.5187 39.0879 66.4724C39.0886 66.4493 39.0891 66.4319 39.0894 66.4206C39.0896 66.415 39.0898 66.4109 39.0898 66.4083C39.0899 66.407 39.0899 66.4061 39.0899 66.4056C39.0899 66.4053 39.0899 66.4051 39.0899 66.4051C39.0899 66.405 39.0899 66.4051 39.0899 66.4051C39.0899 66.4051 39.0899 66.4052 35.092 66.2779ZM62.1187 60.8951C56.7486 61.0283 49.9134 61.3775 44.4493 61.6911C41.7112 61.8483 39.306 61.9972 37.585 62.1068C36.7244 62.1616 36.0345 62.2066 35.5593 62.2379C35.3217 62.2536 35.1378 62.2659 35.0129 62.2742C34.9505 62.2784 34.9028 62.2816 34.8707 62.2838C34.8546 62.2849 34.8423 62.2857 34.8341 62.2862C34.8299 62.2865 34.8268 62.2867 34.8246 62.2869C34.8236 62.287 34.8227 62.287 34.8222 62.2871C34.8219 62.2871 34.8216 62.2871 34.8215 62.2871C34.8213 62.2871 34.8212 62.2871 35.092 66.2779C35.3627 70.2688 35.3627 70.2688 35.3628 70.2688C35.3629 70.2688 35.363 70.2687 35.3633 70.2687C35.3637 70.2687 35.3644 70.2687 35.3653 70.2686C35.3672 70.2685 35.37 70.2683 35.3739 70.268C35.3816 70.2675 35.3932 70.2667 35.4087 70.2657C35.4397 70.2636 35.4861 70.2605 35.5473 70.2564C35.6696 70.2482 35.851 70.2361 36.0859 70.2206C36.5557 70.1896 37.2394 70.145 38.0935 70.0906C39.8018 69.9818 42.1899 69.834 44.9077 69.678C50.3557 69.3653 57.0834 69.0225 62.3171 68.8926L62.1187 60.8951ZM82.0357 60.8239C76.5447 60.775 68.2978 60.7417 62.1187 60.8951L62.3171 68.8926C68.3497 68.7429 76.479 68.7747 81.9644 68.8236L82.0357 60.8239ZM82.0357 68.8236C87.5211 68.7747 95.6503 68.7429 101.683 68.8926L101.881 60.8951C95.7022 60.7417 87.4554 60.775 81.9644 60.8239L82.0357 68.8236ZM101.683 68.8926C106.917 69.0225 113.644 69.3653 119.092 69.678C121.81 69.834 124.198 69.9818 125.907 70.0906C126.761 70.145 127.444 70.1896 127.914 70.2206C128.149 70.2361 128.33 70.2482 128.453 70.2564C128.514 70.2605 128.56 70.2636 128.591 70.2657C128.607 70.2667 128.618 70.2675 128.626 70.268C128.63 70.2683 128.633 70.2685 128.635 70.2686C128.636 70.2687 128.636 70.2687 128.637 70.2687C128.637 70.2687 128.637 70.2688 128.637 70.2688C128.637 70.2688 128.637 70.2688 128.908 66.2779C129.179 62.2871 129.179 62.2871 129.179 62.2871C129.178 62.2871 129.178 62.2871 129.178 62.2871C129.177 62.287 129.176 62.287 129.175 62.2869C129.173 62.2867 129.17 62.2865 129.166 62.2862C129.158 62.2857 129.145 62.2849 129.129 62.2838C129.097 62.2816 129.05 62.2784 128.987 62.2742C128.862 62.2659 128.678 62.2536 128.441 62.2379C127.965 62.2066 127.276 62.1616 126.415 62.1068C124.694 61.9972 122.289 61.8483 119.551 61.6911C114.087 61.3775 107.251 61.0283 101.881 60.8951L101.683 68.8926ZM128.908 66.2779C124.91 66.4052 124.91 66.4051 124.91 66.4051C124.91 66.4051 124.91 66.405 124.91 66.4051C124.91 66.4051 124.91 66.4053 124.91 66.4056C124.91 66.4061 124.91 66.407 124.91 66.4083C124.91 66.4109 124.91 66.415 124.911 66.4206C124.911 66.4319 124.911 66.4493 124.912 66.4724C124.914 66.5187 124.916 66.5881 124.918 66.6784C124.923 66.8591 124.93 67.1236 124.938 67.4545C124.954 68.1169 124.973 69.0431 124.986 70.0962C125.012 72.2257 125.01 74.7878 124.913 76.7368L132.903 77.1345C133.013 74.9265 133.011 72.1598 132.985 69.9997C132.972 68.908 132.952 67.9492 132.936 67.2628C132.928 66.9193 132.92 66.6434 132.915 66.4524C132.912 66.3569 132.91 66.2825 132.909 66.2315C132.908 66.206 132.907 66.1864 132.907 66.1728C132.907 66.166 132.906 66.1608 132.906 66.1571C132.906 66.1552 132.906 66.1538 132.906 66.1527C132.906 66.1522 132.906 66.1517 132.906 66.1514C132.906 66.1512 132.906 66.1511 132.906 66.151C132.906 66.1508 132.906 66.1507 128.908 66.2779ZM124.913 76.7368C124.805 78.9002 124.509 81.7287 124.23 84.0763C124.092 85.2372 123.961 86.2573 123.865 86.9865C123.816 87.3509 123.777 87.6419 123.75 87.8408C123.736 87.9402 123.726 88.0165 123.718 88.0674C123.715 88.0929 123.712 88.112 123.71 88.1244C123.71 88.1306 123.709 88.1351 123.709 88.138C123.708 88.1394 123.708 88.1404 123.708 88.141C123.708 88.1413 123.708 88.1414 123.708 88.1415C123.708 88.1415 123.708 88.1415 123.708 88.1415C123.708 88.1415 123.708 88.1414 127.669 88.7006C131.63 89.2598 131.63 89.2597 131.63 89.2595C131.63 89.2594 131.63 89.2592 131.63 89.259C131.63 89.2587 131.63 89.2582 131.63 89.2576C131.63 89.2564 131.63 89.2548 131.63 89.2528C131.631 89.2487 131.632 89.2429 131.633 89.2355C131.635 89.2206 131.638 89.1989 131.642 89.1709C131.65 89.1148 131.661 89.033 131.676 88.9279C131.704 88.7177 131.746 88.414 131.796 88.0359C131.896 87.2802 132.031 86.2242 132.174 85.0207C132.457 82.6394 132.781 79.5855 132.903 77.1345L124.913 76.7368ZM127.669 88.7006C127.303 84.7174 127.303 84.7174 127.302 84.7174C127.302 84.7174 127.302 84.7174 127.302 84.7174C127.302 84.7175 127.301 84.7175 127.3 84.7176C127.298 84.7178 127.296 84.718 127.292 84.7183C127.285 84.719 127.274 84.72 127.259 84.7213C127.23 84.724 127.186 84.728 127.128 84.7333C127.012 84.7439 126.839 84.7595 126.616 84.7794C126.168 84.8194 125.517 84.8771 124.704 84.9473C123.077 85.0879 120.802 85.2791 118.212 85.4811C113.017 85.8863 106.617 86.3304 101.644 86.5023L101.92 94.4975C107.075 94.3193 113.618 93.8637 118.834 93.4568C121.451 93.2527 123.748 93.0597 125.393 92.9176C126.215 92.8466 126.874 92.7883 127.328 92.7476C127.555 92.7273 127.731 92.7114 127.851 92.7006C127.911 92.6952 127.956 92.691 127.987 92.6882C128.003 92.6868 128.014 92.6857 128.022 92.6849C128.026 92.6846 128.03 92.6843 128.032 92.6841C128.033 92.684 128.033 92.6839 128.034 92.6839C128.034 92.6838 128.035 92.6838 128.035 92.6838C128.035 92.6838 128.035 92.6838 127.669 88.7006ZM101.644 86.5023C95.6225 86.7105 87.5002 86.7269 82.0146 86.7069L81.9854 94.7068C87.4773 94.7269 95.7329 94.7115 101.92 94.4975L101.644 86.5023ZM62.0797 94.4975C68.2671 94.7115 76.5227 94.7269 82.0146 94.7068L81.9854 86.7069C76.4998 86.7269 68.3775 86.7105 62.3561 86.5023L62.0797 94.4975ZM36.3312 88.7006C35.9649 92.6838 35.9651 92.6838 35.9653 92.6838C35.9654 92.6838 35.9657 92.6838 35.9659 92.6839C35.9665 92.6839 35.9673 92.684 35.9684 92.6841C35.9705 92.6843 35.9735 92.6846 35.9775 92.6849C35.9855 92.6857 35.9973 92.6868 36.0128 92.6882C36.0437 92.691 36.0894 92.6952 36.1491 92.7006C36.2687 92.7114 36.4447 92.7273 36.6718 92.7476C37.1261 92.7883 37.7853 92.8466 38.6075 92.9176C40.2516 93.0597 42.5493 93.2527 45.1657 93.4568C50.3821 93.8637 56.9252 94.3193 62.0797 94.4975L62.3561 86.5023C57.3831 86.3304 50.9828 85.8863 45.7878 85.4811C43.1984 85.2791 40.9234 85.0879 39.2962 84.9473C38.4827 84.8771 37.8316 84.8194 37.3845 84.7794C37.1609 84.7595 36.9884 84.7439 36.8722 84.7333C36.8141 84.728 36.77 84.724 36.7407 84.7213C36.726 84.72 36.715 84.719 36.7078 84.7183C36.7042 84.718 36.7015 84.7178 36.6998 84.7176C36.6989 84.7175 36.6983 84.7175 36.6979 84.7174C36.6977 84.7174 36.6976 84.7174 36.6975 84.7174C36.6975 84.7174 36.6975 84.7174 36.3312 88.7006Z" fill="#816D61"/>
</svg>
