<svg width="165" height="165" viewBox="0 0 165 165" fill="none" xmlns="http://www.w3.org/2000/svg">
<rect width="165" height="165" rx="10" fill="#CAB9B1"/>
<mask id="mask0_272_5772" style="mask-type:alpha" maskUnits="userSpaceOnUse" x="0" y="0" width="165" height="165">
<rect width="165" height="165" rx="10" fill="#CAB9B1"/>
</mask>
<g mask="url(#mask0_272_5772)">
<mask id="mask1_272_5772" style="mask-type:alpha" maskUnits="userSpaceOnUse" x="-3" y="-3" width="86" height="86">
<rect x="-3" y="-3" width="86" height="86" fill="#D9D9D9"/>
</mask>
<g mask="url(#mask1_272_5772)">
<mask id="mask2_272_5772" style="mask-type:alpha" maskUnits="userSpaceOnUse" x="-92" y="-15" width="344" height="194">
<rect x="-92" y="-15" width="344" height="193.5" fill="#D9D9D9"/>
</mask>
<g mask="url(#mask2_272_5772)">
<path d="M1.43568 35.0647C-4.38724 43.5997 3.85443 54.5043 3.85443 54.5043C3.85443 54.5043 -3.0249 54.8626 -4.38724 60.4168C-6.71641 69.9126 3.85443 70.7189 3.85443 70.7189C3.85443 70.7189 -1.07266 71.346 -1.07266 76.0939C-1.07266 82.0064 3.85443 82.0064 3.85443 82.0064C3.85443 82.0064 -7.25391 84.6939 -7.25391 95.8022C-7.25391 109.419 6.90026 110.852 6.90026 110.852C6.90026 110.852 4.48161 113.361 6.90026 115.779C9.31891 118.198 11.8273 115.779 11.8273 115.779C11.8273 115.779 8.69193 122.402 12.9919 125.365C17.5342 128.494 23.294 125.365 23.294 125.365C23.294 125.365 21.9503 133.51 28.4898 138.085C38.767 145.275 54.0211 136.204 54.0211 136.204C54.0211 136.204 54.7037 138.518 55.6336 139.698C59.2621 144.304 66.9211 138.085 66.9211 138.085C66.9211 138.085 71.6691 150.717 89.2273 150.717C106.786 150.717 109.204 136.204 109.204 136.204C109.204 136.204 110.996 143.625 122.552 141.221C132.675 139.115 128.913 129.396 128.913 129.396C128.913 129.396 149.338 138.073 157.759 126.613C166.258 115.045 157.759 103.596 157.759 103.596C157.759 103.596 164.567 104.492 166.448 100.281C170.287 91.6887 160.267 89.9793 160.267 89.9793C160.267 89.9793 170.183 86.6243 164.567 76.0939C161.7 70.7189 155.34 70.7189 155.34 70.7189C155.34 70.7189 168.728 69.5619 166.448 56.2064C164.567 45.1876 152.115 45.1876 152.115 45.1876C152.115 45.1876 161.7 31.8747 153.459 21.5377C145.217 11.2006 128.644 18.1335 128.644 18.1335C128.644 18.1335 124.687 5.38204 114.669 5.94384C105.084 6.48136 104.188 12.2147 104.188 12.2147C104.188 12.2147 103.65 1.46468 89.2273 0.479241C74.5387 -0.524349 70.8627 9.43757 70.8627 9.43757C70.8627 9.43757 70.8627 3.51187 63.6065 2.80841C56.3503 2.10495 54.0211 9.43757 54.0211 9.43757C54.0211 9.43757 45.6898 0.920857 35.2982 5.94384C21.3152 12.7027 26.6086 24.9418 26.6086 24.9418C26.6086 24.9418 23.4943 20.5413 19.2628 23.7772C16.2169 26.1064 18.0982 29.8689 18.0982 29.8689C18.0982 29.8689 7.97526 25.4793 1.43568 35.0647Z" fill="#6B7050" stroke="#6B7050" stroke-width="8" stroke-linecap="round" stroke-linejoin="round"/>
<path d="M67.8176 148.848L62.8905 180.919H104.009L100.426 156.731V139.889L104.009 130.931L125.061 123.227L135.901 110.685L146.024 107.281V104.146L134.736 105.848L121.747 114L102.665 122.242L124.076 97.6062L131.332 96.6207L144.232 88.6478L148.98 79.6895L147.009 76.0166L140.29 82.2874L129.003 88.6478H121.747L113.595 97.6062L98.2759 103.25L100.426 88.6478L107.503 83.7207L120.851 71.9853L127.57 63.6541L138.678 61.3249L150.055 54.0687L147.009 52.8145L142.261 54.0687L124.076 55.4124L113.595 68.6707L100.426 74.9416L107.503 55.4124L118.432 49.4103L121.747 36.3312L124.793 31.9416L127.57 23.4312L124.076 24.327L118.432 30.2395L113.595 41.0791L99.2613 52.8145L93.4384 65.3562L84.1217 82.2874L79.7321 65.3562L82.5988 47.4395L80.3592 40.2728L76.6863 34.4499L64.4134 25.6708H61.3676L71.1321 34.4499L76.6863 47.4395L73.3717 62.2207L61.9947 54.0687L57.2467 44.3041L48.6467 35.3457L42.5551 23.1624L39.1509 22.177L42.5551 37.7645L51.9613 47.6187L57.2467 61.4145L61.9947 63.6541L71.1321 84.7957L55.9926 76.0166L53.9322 72.9707L46.0488 70.8207L36.2842 65.5353L24.9967 52.7249L20.1592 50.7541L14.2467 43.5874L12.4551 45.6478L14.2467 52.7249L19.6217 56.1291L24.3697 62.8478L34.4926 73.8666L42.6447 77.5395L62.8905 94.3812L67.1009 110.685L55.1863 105.848L48.5572 98.6812L44.5259 100.294L35.7019 97.3374L26.878 94.3812L18.0988 83.7207L12.7238 79.6895V82.2874L22.0405 96.6207L27.6842 100.831L48.5572 110.685L65.6676 126.542L49.6322 124.839L41.6592 122.242L36.6426 121.704L40.0467 124.839L45.4217 128.692L58.5009 130.931L69.2509 133.619L67.8176 148.848Z" fill="#564842"/>
<path d="M48.5572 110.685L65.6676 126.542L49.6322 124.839L41.6592 122.242L36.6426 121.704L40.0467 124.839L45.4217 128.692M48.5572 110.685L31.8947 115.971L18.0988 114M48.5572 110.685L27.6842 100.831M27.6842 100.831L22.0405 96.6207L12.7238 82.2874V79.6895L18.0988 83.7207L26.878 94.3812L35.7019 97.3374M27.6842 100.831L24.1905 103.429L18.0988 104.146M34.4926 73.8666L42.6447 77.5395L62.8905 94.3812L67.1009 110.685L55.1863 105.848L48.5572 98.6812L44.5259 100.294L35.7019 97.3374M34.4926 73.8666L24.3697 62.8478L19.6217 56.1291L14.2467 52.7249L12.4551 45.6478L14.2467 43.5874L20.1592 50.7541L24.9967 52.7249L36.2842 65.5353L46.0488 70.8207M34.4926 73.8666L24.6384 74.852L14.5155 69.8353M46.0488 70.8207L45.0634 60.6978L39.1509 52.7249M46.0488 70.8207L53.9322 72.9707L55.9926 76.0166L71.1321 84.7957L61.9947 63.6541L57.2467 61.4145L51.9613 47.6187M51.9613 47.6187L41.928 45.6478H37.0009M51.9613 47.6187L42.5551 37.7645L39.1509 22.177L42.5551 23.1624L48.6467 35.3457L57.2467 44.3041L61.9947 54.0687L73.3717 62.2207L76.6863 47.4395L71.1321 34.4499L61.3676 25.6708H64.4134L76.6863 34.4499L80.3592 40.2728M80.3592 40.2728L82.5988 47.4395L79.7321 65.3562L84.1217 82.2874L93.4384 65.3562L99.2613 52.8145M80.3592 40.2728L84.1217 32.927L83.1363 22.177M99.2613 52.8145L113.595 41.0791L118.432 30.2395L124.076 24.327L127.57 23.4312L124.793 31.9416L121.747 36.3312L118.432 49.4103M99.2613 52.8145L93.4384 43.1395L96.5738 31.9416M118.432 49.4103L107.503 55.4124L100.426 74.9416L113.595 68.6707L124.076 55.4124L142.261 54.0687L147.009 52.8145L150.055 54.0687L138.678 61.3249L127.57 63.6541L120.851 71.9853M118.432 49.4103L124.076 47.977L129.809 45.2895M120.851 71.9853L107.503 83.7207L100.426 88.6478L98.2759 103.25L113.595 97.6062L121.747 88.6478H129.003L140.29 82.2874L147.009 76.0166L148.98 79.6895L144.232 88.6478L131.332 96.6207M120.851 71.9853L129.809 71.0895L135.901 67.4166M131.332 96.6207L124.076 97.6062L102.665 122.242L121.747 114L134.736 105.848L146.024 104.146V107.281L135.901 110.685L125.061 123.227M131.332 96.6207L138.678 97.6062L146.024 94.3812M125.061 123.227L104.009 130.931L100.426 139.889V156.731L104.009 180.919H62.8905L67.8176 148.848L69.2509 133.619L58.5009 130.931L45.4217 128.692M125.061 123.227L135.901 122.242L140.29 118.837M45.4217 128.692L40.0467 130.931L31.8947 127.796M35.7019 97.3374L33.5967 88.6478L26.878 79.6895" stroke="#564842" stroke-width="4" stroke-linecap="round" stroke-linejoin="round"/>
<path d="M49.6211 30.8302C49.6211 30.8302 50.7894 28.2631 52.3077 29.0593C53.7557 30.2703 51.9232 32.0423 51.9232 32.0423C51.9232 32.0423 54.2479 33.1155 53.5029 34.6703C52.2273 35.9936 50.8358 34.2798 50.8358 34.2798C50.8358 34.2798 50.7547 36.9402 49.1735 36.8752C47.8349 36.3655 48.3828 34.1231 48.3828 34.1231C48.3828 34.1231 46.3593 34.9789 45.415 33.8243C44.8763 32.1106 47.5927 31.6898 47.5927 31.6898C47.5927 31.6898 45.4205 30.4095 47.0665 28.5792C49.3097 28.2722 49.6211 30.8302 49.6211 30.8302Z" fill="#DB6547" stroke="#DB6547" stroke-width="8" stroke-linecap="round" stroke-linejoin="round"/>
<circle cx="49.6903" cy="32.4352" r="0.5" transform="rotate(36.094 49.6903 32.4352)" fill="#FFD2AA" stroke="#FFD2AA" stroke-width="0.506843"/>
<path d="M70.9724 60.1052C71.9371 59.1715 71.63 57.6348 71.63 57.6348C71.63 57.6348 69.4185 58.2831 68.4253 59.0782C67.2702 60.0028 67.0071 61.7309 67.0071 61.7309C67.0071 61.7309 69.9128 61.1306 70.9724 60.1052Z" fill="#DB6547" stroke="#DB6547" stroke-width="8" stroke-linecap="round" stroke-linejoin="round"/>
<path d="M72.0176 83.1471C72.0176 83.1471 73.1859 80.58 74.7042 81.3762C76.1522 82.5872 74.3196 84.3592 74.3196 84.3592C74.3196 84.3592 76.6443 85.4324 75.8993 86.9872C74.6238 88.3105 73.2323 86.5967 73.2323 86.5967C73.2323 86.5967 73.1512 89.2571 71.57 89.1921C70.2314 88.6824 70.7793 86.44 70.7793 86.44C70.7793 86.44 68.7558 87.2958 67.8115 86.1411C67.2728 84.4275 69.9892 84.0067 69.9892 84.0067C69.9892 84.0067 67.817 82.7264 69.463 80.8961C71.7062 80.589 72.0176 83.1471 72.0176 83.1471Z" fill="#DB6547" stroke="#DB6547" stroke-width="8" stroke-linecap="round" stroke-linejoin="round"/>
<path d="M50.6973 68.9928C50.6973 68.9928 51.8656 66.4257 53.3839 67.2219C54.8319 68.4329 52.9993 70.2049 52.9993 70.2049C52.9993 70.2049 55.324 71.2781 54.579 72.8329C53.3035 74.1562 51.9119 72.4424 51.9119 72.4424C51.9119 72.4424 51.8309 75.1028 50.2497 75.0378C48.9111 74.5281 49.4589 72.2857 49.4589 72.2857C49.4589 72.2857 47.4355 73.1415 46.4912 71.9869C45.9525 70.2732 48.6689 69.8524 48.6689 69.8524C48.6689 69.8524 46.4967 68.5721 48.1426 66.7418C50.3859 66.4347 50.6973 68.9928 50.6973 68.9928Z" fill="#DB6547" stroke="#DB6547" stroke-width="8" stroke-linecap="round" stroke-linejoin="round"/>
<circle cx="50.7665" cy="70.5978" r="0.5" transform="rotate(36.094 50.7665 70.5978)" fill="#FFD2AA" stroke="#FFD2AA" stroke-width="0.506843"/>
<path d="M21.8182 62.6702C21.8182 62.6702 21.456 59.8731 23.1659 59.7483C25.0349 60.013 24.4132 62.4852 24.4132 62.4852C24.4132 62.4852 26.9542 62.1702 27.1417 63.884C26.7564 65.6812 24.6701 64.9596 24.6701 64.9596C24.6701 64.9596 26.005 67.2623 24.6276 68.0414C23.2215 68.3147 22.5037 66.1208 22.5037 66.1208C22.5037 66.1208 21.2365 67.9155 19.825 67.4329C18.4632 66.2615 20.5487 64.4707 20.5487 64.4707C20.5487 64.4707 18.0279 64.5293 18.4603 62.106C20.2038 60.6615 21.8182 62.6702 21.8182 62.6702Z" fill="#DB6547" stroke="#DB6547" stroke-width="8" stroke-linecap="round" stroke-linejoin="round"/>
<circle cx="22.7248" cy="63.9966" r="0.5" transform="rotate(4.24737 22.7248 63.9966)" fill="#FFD2AA" stroke="#FFD2AA" stroke-width="0.506843"/>
<path d="M28.4571 47.7206C28.4571 47.7206 30.269 43.7392 32.6237 44.974C34.8695 46.8523 32.0273 49.6004 32.0273 49.6004C32.0273 49.6004 35.6328 51.2649 34.4773 53.6762C32.499 55.7285 30.3409 53.0706 30.3409 53.0706C30.3409 53.0706 30.2152 57.1966 27.7629 57.0959C25.6868 56.3053 26.5365 52.8276 26.5365 52.8276C26.5365 52.8276 23.3984 54.1549 21.9337 52.3641C21.0983 49.7064 25.3112 49.0537 25.3112 49.0537C25.3112 49.0537 21.9422 47.068 24.495 44.2295C27.9741 43.7532 28.4571 47.7206 28.4571 47.7206Z" fill="#DB6547" stroke="#DB6547" stroke-width="8" stroke-linecap="round" stroke-linejoin="round"/>
<circle cx="28.5664" cy="50.2097" r="0.668494" transform="rotate(36.094 28.5664 50.2097)" fill="#FFD2AA" stroke="#FFD2AA"/>
<path d="M55.9828 88.0733C55.9828 88.0733 57.5323 83.6404 60.17 84.7313C62.7538 86.5208 59.9827 89.7355 59.9827 89.7355C59.9827 89.7355 63.9994 91.1641 62.9988 93.8546C61.0835 96.2413 58.5175 93.6098 58.5175 93.6098C58.5175 93.6098 58.7847 98.0332 56.1531 98.1642C53.8566 97.5211 54.4265 93.7203 54.4265 93.7203C54.4265 93.7203 51.2006 95.4448 49.4604 93.6727C48.3086 90.9127 52.7491 89.8048 52.7491 89.8048C52.7491 89.8048 48.954 88.0098 51.407 84.7265C55.0801 83.8787 55.9828 88.0733 55.9828 88.0733Z" fill="#DB6547" stroke="#DB6547" stroke-width="8" stroke-linecap="round" stroke-linejoin="round"/>
<path d="M19.971 91.1192C19.971 91.1192 21.5206 86.6863 24.1583 87.7772C26.7421 89.5667 23.971 92.7814 23.971 92.7814C23.971 92.7814 27.9876 94.21 26.9871 96.9004C25.0718 99.2872 22.5058 96.6557 22.5058 96.6557C22.5058 96.6557 22.773 101.079 20.1414 101.21C17.8449 100.567 18.4148 96.7662 18.4148 96.7662C18.4148 96.7662 15.1889 98.4907 13.4487 96.7186C12.2968 93.9586 16.7374 92.8507 16.7374 92.8507C16.7374 92.8507 12.9423 91.0557 15.3953 87.7724C19.0684 86.9246 19.971 91.1192 19.971 91.1192Z" fill="#DB6547" stroke="#DB6547" stroke-width="8" stroke-linecap="round" stroke-linejoin="round"/>
<path d="M86.7637 52.1838C86.7637 52.1838 91.2338 51.894 91.258 54.6167C90.6485 57.5523 86.7934 56.3157 86.7934 56.3157C86.7934 56.3157 87.0344 60.3752 84.299 60.4983C81.4896 59.705 82.8453 56.4715 82.8453 56.4715C82.8453 56.4715 79.0599 58.3533 77.965 56.091C77.6746 53.8346 81.2248 52.9198 81.2248 52.9198C81.2248 52.9198 78.5091 50.7289 79.4174 48.5407C81.4124 46.5013 84.0389 49.9887 84.0389 49.9887C84.0389 49.9887 84.2022 45.9873 87.9991 46.9189C90.1114 49.8291 86.7637 52.1838 86.7637 52.1838Z" fill="#DB6547" stroke="#DB6547" stroke-width="8" stroke-linecap="round" stroke-linejoin="round"/>
<path d="M97.2326 17.2192C97.2326 17.2192 98.9677 13.4067 101.223 14.589C103.373 16.3877 100.651 19.0193 100.651 19.0193C100.651 19.0193 104.104 20.6132 102.998 22.9223C101.103 24.8876 99.0365 22.3424 99.0365 22.3424C99.0365 22.3424 98.9161 26.2935 96.5678 26.197C94.5798 25.44 95.3934 22.1097 95.3934 22.1097C95.3934 22.1097 92.3883 23.3807 90.9858 21.6658C90.1858 19.1208 94.2201 18.4958 94.2201 18.4958C94.2201 18.4958 90.994 16.5943 93.4385 13.8761C96.7701 13.4201 97.2326 17.2192 97.2326 17.2192Z" fill="#DB6547" stroke="#DB6547" stroke-width="8" stroke-linecap="round" stroke-linejoin="round"/>
</g>
</g>
<mask id="mask3_272_5772" style="mask-type:alpha" maskUnits="userSpaceOnUse" x="83" y="-3" width="86" height="86">
<rect x="83" y="-3" width="86" height="86" fill="#D9D9D9"/>
</mask>
<g mask="url(#mask3_272_5772)">
<mask id="mask4_272_5772" style="mask-type:alpha" maskUnits="userSpaceOnUse" x="-92" y="-15" width="344" height="194">
<rect x="-92" y="-15" width="344" height="193.5" fill="#D9D9D9"/>
</mask>
<g mask="url(#mask4_272_5772)">
<path d="M1.43372 35.065C-4.38919 43.5999 3.85247 54.5046 3.85247 54.5046C3.85247 54.5046 -3.02685 54.8629 -4.38919 60.4171C-6.71836 69.9129 3.85247 70.7191 3.85247 70.7191C3.85247 70.7191 -1.07461 71.3462 -1.07461 76.0941C-1.07461 82.0066 3.85247 82.0066 3.85247 82.0066C3.85247 82.0066 -7.25586 84.6941 -7.25586 95.8025C-7.25586 109.419 6.89831 110.852 6.89831 110.852C6.89831 110.852 4.47966 113.361 6.89831 115.78C9.31696 118.198 11.8254 115.78 11.8254 115.78C11.8254 115.78 8.68997 122.402 12.99 125.365C17.5322 128.494 23.2921 125.365 23.2921 125.365C23.2921 125.365 21.9483 133.511 28.4879 138.086C38.765 145.276 54.0191 136.205 54.0191 136.205C54.0191 136.205 54.7017 138.518 55.6316 139.698C59.2601 144.304 66.9191 138.086 66.9191 138.086C66.9191 138.086 71.6672 150.717 89.2254 150.717C106.784 150.717 109.202 136.205 109.202 136.205C109.202 136.205 110.994 143.626 122.55 141.221C132.673 139.115 128.911 129.396 128.911 129.396C128.911 129.396 149.336 138.073 157.757 126.613C166.256 115.045 157.757 103.596 157.757 103.596C157.757 103.596 164.565 104.492 166.446 100.282C170.285 91.689 160.265 89.9796 160.265 89.9796C160.265 89.9796 170.181 86.6245 164.565 76.0941C161.698 70.7191 155.338 70.7191 155.338 70.7191C155.338 70.7191 168.726 69.5621 166.446 56.2066C164.565 45.1879 152.113 45.1879 152.113 45.1879C152.113 45.1879 161.698 31.8749 153.457 21.5379C145.215 11.2009 128.642 18.1337 128.642 18.1337C128.642 18.1337 124.685 5.38229 114.667 5.94409C105.082 6.4816 104.186 12.2149 104.186 12.2149C104.186 12.2149 103.648 1.46492 89.2254 0.479485C74.5368 -0.524106 70.8608 9.43782 70.8608 9.43782C70.8608 9.43782 70.8608 3.51211 63.6046 2.80865C56.3483 2.10519 54.0191 9.43782 54.0191 9.43782C54.0191 9.43782 45.6879 0.921102 35.2962 5.94409C21.3133 12.703 26.6066 24.942 26.6066 24.942C26.6066 24.942 23.4924 20.5416 19.2608 23.7775C16.215 26.1066 18.0962 29.8691 18.0962 29.8691C18.0962 29.8691 7.97331 25.4795 1.43372 35.065Z" fill="#6B7050" stroke="#6B7050" stroke-width="8" stroke-linecap="round" stroke-linejoin="round"/>
<path d="M67.8137 148.848L62.8866 180.919H104.005L100.422 156.731V139.89L104.005 130.931L125.057 123.227L135.897 110.686L146.02 107.281V104.146L134.732 105.848L121.743 114L102.662 122.242L124.072 97.6064L131.328 96.621L144.228 88.6481L148.976 79.6897L147.005 76.0168L140.287 82.2877L128.999 88.6481H121.743L113.591 97.6064L98.272 103.25L100.422 88.6481L107.499 83.721L120.847 71.9856L127.566 63.6543L138.674 61.3252L150.051 54.0689L147.005 52.8147L142.257 54.0689L124.072 55.4127L113.591 68.671L100.422 74.9418L107.499 55.4127L118.428 49.4106L121.743 36.3314L124.789 31.9418L127.566 23.4314L124.072 24.3272L118.428 30.2397L113.591 41.0793L99.2574 52.8147L93.4345 65.3564L84.1178 82.2877L79.7283 65.3564L82.5949 47.4397L80.3553 40.2731L76.6824 34.4502L64.4095 25.671H61.3637L71.1283 34.4502L76.6824 47.4397L73.3678 62.221L61.9908 54.0689L57.2428 44.3043L48.6428 35.346L42.5512 23.1627L39.147 22.1772L42.5512 37.7647L51.9574 47.6189L57.2428 61.4147L61.9908 63.6543L71.1283 84.796L55.9887 76.0168L53.9283 72.971L46.0449 70.821L36.2803 65.5356L24.9928 52.7252L20.1553 50.7543L14.2428 43.5877L12.4512 45.6481L14.2428 52.7252L19.6178 56.1293L24.3658 62.8481L34.4887 73.8668L42.6408 77.5397L62.8866 94.3814L67.097 110.686L55.1824 105.848L48.5533 98.6814L44.522 100.294L35.698 97.3377L26.8741 94.3814L18.0949 83.721L12.7199 79.6897V82.2877L22.0366 96.621L27.6803 100.831L48.5533 110.686L65.6637 126.542L49.6283 124.84L41.6553 122.242L36.6387 121.704L40.0428 124.84L45.4178 128.692L58.497 130.931L69.247 133.619L67.8137 148.848Z" fill="#564842"/>
<path d="M48.5533 110.686L65.6637 126.542L49.6283 124.84L41.6553 122.242L36.6387 121.704L40.0428 124.84L45.4178 128.692M48.5533 110.686L31.8908 115.971L18.0949 114M48.5533 110.686L27.6803 100.831M27.6803 100.831L22.0366 96.621L12.7199 82.2877V79.6897L18.0949 83.721L26.8741 94.3814L35.698 97.3377M27.6803 100.831L24.1866 103.429L18.0949 104.146M34.4887 73.8668L42.6408 77.5397L62.8866 94.3814L67.097 110.686L55.1824 105.848L48.5533 98.6814L44.522 100.294L35.698 97.3377M34.4887 73.8668L24.3658 62.8481L19.6178 56.1293L14.2428 52.7252L12.4512 45.6481L14.2428 43.5877L20.1553 50.7543L24.9928 52.7252L36.2803 65.5356L46.0449 70.821M34.4887 73.8668L24.6345 74.8522L14.5116 69.8356M46.0449 70.821L45.0595 60.6981L39.147 52.7252M46.0449 70.821L53.9283 72.971L55.9887 76.0168L71.1283 84.796L61.9908 63.6543L57.2428 61.4147L51.9574 47.6189M51.9574 47.6189L41.9241 45.6481H36.997M51.9574 47.6189L42.5512 37.7647L39.147 22.1772L42.5512 23.1627L48.6428 35.346L57.2428 44.3043L61.9908 54.0689L73.3678 62.221L76.6824 47.4397L71.1283 34.4502L61.3637 25.671H64.4095L76.6824 34.4502L80.3553 40.2731M80.3553 40.2731L82.5949 47.4397L79.7283 65.3564L84.1178 82.2877L93.4345 65.3564L99.2574 52.8147M80.3553 40.2731L84.1178 32.9272L83.1324 22.1772M99.2574 52.8147L113.591 41.0793L118.428 30.2397L124.072 24.3272L127.566 23.4314L124.789 31.9418L121.743 36.3314L118.428 49.4106M99.2574 52.8147L93.4345 43.1397L96.5699 31.9418M118.428 49.4106L107.499 55.4127L100.422 74.9418L113.591 68.671L124.072 55.4127L142.257 54.0689L147.005 52.8147L150.051 54.0689L138.674 61.3252L127.566 63.6543L120.847 71.9856M118.428 49.4106L124.072 47.9772L129.805 45.2897M120.847 71.9856L107.499 83.721L100.422 88.6481L98.272 103.25L113.591 97.6064L121.743 88.6481H128.999L140.287 82.2877L147.005 76.0168L148.976 79.6897L144.228 88.6481L131.328 96.621M120.847 71.9856L129.805 71.0897L135.897 67.4168M131.328 96.621L124.072 97.6064L102.662 122.242L121.743 114L134.732 105.848L146.02 104.146V107.281L135.897 110.686L125.057 123.227M131.328 96.621L138.674 97.6064L146.02 94.3814M125.057 123.227L104.005 130.931L100.422 139.89V156.731L104.005 180.919H62.8866L67.8137 148.848L69.247 133.619L58.497 130.931L45.4178 128.692M125.057 123.227L135.897 122.242L140.287 118.838M45.4178 128.692L40.0428 130.931L31.8908 127.796M35.698 97.3377L33.5928 88.6481L26.8741 79.6897" stroke="#564842" stroke-width="4" stroke-linecap="round" stroke-linejoin="round"/>
<path d="M72.0157 83.1471C72.0157 83.1471 73.1839 80.58 74.7022 81.3762C76.1503 82.5872 74.3177 84.3592 74.3177 84.3592C74.3177 84.3592 76.6424 85.4324 75.8974 86.9872C74.6218 88.3105 73.2303 86.5967 73.2303 86.5967C73.2303 86.5967 73.1492 89.2571 71.5681 89.1921C70.2295 88.6824 70.7773 86.44 70.7773 86.44C70.7773 86.44 68.7539 87.2958 67.8095 86.1411C67.2708 84.4275 69.9872 84.0067 69.9872 84.0067C69.9872 84.0067 67.815 82.7264 69.461 80.8961C71.7042 80.589 72.0157 83.1471 72.0157 83.1471Z" fill="#6B7050" stroke="#6B7050" stroke-width="8" stroke-linecap="round" stroke-linejoin="round"/>
<path d="M104.475 64.3439C104.475 64.3439 106.276 62.1736 107.532 63.3405C108.611 64.8893 106.378 66.1179 106.378 66.1179C106.378 66.1179 108.339 67.7639 107.212 69.0684C105.634 70.0104 104.741 67.9914 104.741 67.9914C104.741 67.9914 103.964 70.5371 102.456 70.0592C101.298 69.2159 102.415 67.196 102.415 67.196C102.415 67.196 100.238 67.4905 99.6301 66.1284C99.5603 64.3334 102.292 64.6407 102.292 64.6407C102.292 64.6407 100.532 62.8349 102.601 61.501C104.846 61.7938 104.475 64.3439 104.475 64.3439Z" fill="#6B7050" stroke="#6B7050" stroke-width="8" stroke-linecap="round" stroke-linejoin="round"/>
<circle cx="104.121" cy="65.9111" r="0.5" transform="rotate(51.3174 104.121 65.9111)" fill="#6B7050" stroke="#6B7050" stroke-width="0.506844"/>
<path d="M115.205 89.8775C115.205 89.8775 117.007 87.7073 118.263 88.8742C119.342 90.423 117.108 91.6516 117.108 91.6516C117.108 91.6516 119.07 93.2976 117.942 94.6021C116.364 95.5441 115.472 93.525 115.472 93.525C115.472 93.525 114.695 96.0708 113.186 95.5929C112.028 94.7496 113.146 92.7297 113.146 92.7297C113.146 92.7297 110.969 93.0242 110.361 91.6621C110.291 89.8671 113.022 90.1743 113.022 90.1743C113.022 90.1743 111.263 88.3686 113.331 87.0347C115.576 87.3275 115.205 89.8775 115.205 89.8775Z" fill="#6B7050" stroke="#6B7050" stroke-width="8" stroke-linecap="round" stroke-linejoin="round"/>
<path d="M86.7618 52.1838C86.7618 52.1838 91.2319 51.894 91.2561 54.6167C90.6466 57.5523 86.7914 56.3157 86.7914 56.3157C86.7914 56.3157 87.0325 60.3752 84.2971 60.4983C81.4877 59.705 82.8433 56.4715 82.8433 56.4715C82.8433 56.4715 79.058 58.3533 77.963 56.091C77.6727 53.8346 81.2229 52.9198 81.2229 52.9198C81.2229 52.9198 78.5072 50.7289 79.4154 48.5407C81.4105 46.5013 84.037 49.9887 84.037 49.9887C84.037 49.9887 84.2002 45.9873 87.9971 46.9189C90.1095 49.8291 86.7618 52.1838 86.7618 52.1838Z" fill="#6B7050" stroke="#6B7050" stroke-width="8" stroke-linecap="round" stroke-linejoin="round"/>
<circle cx="84.566" cy="53.4855" r="0.696621" transform="rotate(97.9148 84.566 53.4855)" fill="#6B7050" stroke="#6B7050"/>
<path d="M135.977 50.8971C135.977 50.8971 137.145 48.33 138.663 49.1262C140.111 50.3372 138.279 52.1092 138.279 52.1092C138.279 52.1092 140.603 53.1824 139.858 54.7372C138.583 56.0605 137.191 54.3467 137.191 54.3467C137.191 54.3467 137.11 57.0071 135.529 56.9421C134.19 56.4324 134.738 54.19 134.738 54.19C134.738 54.19 132.715 55.0458 131.77 53.8911C131.232 52.1775 133.948 51.7567 133.948 51.7567C133.948 51.7567 131.776 50.4764 133.422 48.6461C135.665 48.339 135.977 50.8971 135.977 50.8971Z" fill="#6B7050" stroke="#6B7050" stroke-width="8" stroke-linecap="round" stroke-linejoin="round"/>
<circle cx="136.046" cy="52.5021" r="0.5" transform="rotate(36.094 136.046 52.5021)" fill="#6B7050" stroke="#6B7050" stroke-width="0.506844"/>
<path d="M113.138 25.1628C113.138 25.1628 115.691 23.9647 116.331 25.555C116.649 27.4157 114.105 27.5777 114.105 27.5777C114.105 27.5777 115.18 29.9015 113.605 30.6029C111.776 30.7841 111.827 28.5771 111.827 28.5771C111.827 28.5771 110.041 30.5508 108.879 29.4766C108.19 28.221 110.06 26.8682 110.06 26.8682C110.06 26.8682 107.965 26.2087 107.994 24.7173C108.694 23.0631 111.036 24.5029 111.036 24.5029C111.036 24.5029 110.211 22.1202 112.651 21.7929C114.558 23.0127 113.138 25.1628 113.138 25.1628Z" fill="#6B7050" stroke="#6B7050" stroke-width="8" stroke-linecap="round" stroke-linejoin="round"/>
<circle cx="112.151" cy="26.4306" r="0.5" transform="rotate(76.4875 112.151 26.4306)" fill="#6B7050" stroke="#6B7050" stroke-width="0.506844"/>
<path d="M131.086 83.4646C131.086 83.4646 134.549 81.8395 135.418 83.9965C135.849 86.5204 132.399 86.7401 132.399 86.7401C132.399 86.7401 133.857 89.8921 131.721 90.8434C129.24 91.0893 129.309 88.0958 129.309 88.0958C129.309 88.0958 126.887 90.7727 125.31 89.3158C124.375 87.6127 126.912 85.7778 126.912 85.7778C126.912 85.7778 124.07 84.8833 124.109 82.8604C125.059 80.6167 128.235 82.5696 128.235 82.5696C128.235 82.5696 127.116 79.3376 130.426 78.8937C133.013 80.5482 131.086 83.4646 131.086 83.4646Z" fill="#6B7050" stroke="#6B7050" stroke-width="8" stroke-linecap="round" stroke-linejoin="round"/>
<path d="M97.2307 17.2194C97.2307 17.2194 98.9657 13.4069 101.221 14.5893C103.371 16.3879 100.65 19.0196 100.65 19.0196C100.65 19.0196 104.102 20.6135 102.996 22.9225C101.101 24.8879 99.0346 22.3426 99.0346 22.3426C99.0346 22.3426 98.9142 26.2937 96.5659 26.1972C94.5778 25.4402 95.3915 22.1099 95.3915 22.1099C95.3915 22.1099 92.3864 23.381 90.9839 21.6661C90.1838 19.1211 94.2181 18.4961 94.2181 18.4961C94.2181 18.4961 90.992 16.5946 93.4366 13.8763C96.7681 13.4203 97.2307 17.2194 97.2307 17.2194Z" fill="#6B7050" stroke="#6B7050" stroke-width="8" stroke-linecap="round" stroke-linejoin="round"/>
<circle cx="97.3348" cy="19.6032" r="0.618953" transform="rotate(36.094 97.3348 19.6032)" fill="#6B7050" stroke="#6B7050"/>
</g>
</g>
<mask id="mask5_272_5772" style="mask-type:alpha" maskUnits="userSpaceOnUse" x="83" y="83" width="86" height="86">
<rect x="83" y="83" width="86" height="86" fill="#D9D9D9"/>
</mask>
<g mask="url(#mask5_272_5772)">
<mask id="mask6_272_5772" style="mask-type:alpha" maskUnits="userSpaceOnUse" x="-92" y="-15" width="344" height="194">
<rect x="-92" y="-15" width="344" height="193.5" fill="#D9D9D9"/>
</mask>
<g mask="url(#mask6_272_5772)">
<path d="M67.8156 148.848L62.8885 180.919H104.007L100.424 156.731V139.889L104.007 130.931L125.059 123.227L135.899 110.685L146.022 107.281V104.146L134.734 105.848L121.745 114L102.664 122.242L124.074 97.6062L131.33 96.6207L144.23 88.6478L148.978 79.6895L147.007 76.0166L140.289 82.2874L129.001 88.6478H121.745L113.593 97.6062L98.2739 103.25L100.424 88.6478L107.501 83.7207L120.849 71.9853L127.568 63.6541L138.676 61.3249L150.053 54.0687L147.007 52.8145L142.259 54.0687L124.074 55.4124L113.593 68.6707L100.424 74.9416L107.501 55.4124L118.43 49.4103L121.745 36.3312L124.791 31.9416L127.568 23.4312L124.074 24.327L118.43 30.2395L113.593 41.0791L99.2594 52.8145L93.4364 65.3562L84.1198 82.2874L79.7302 65.3562L82.5969 47.4395L80.3573 40.2728L76.6844 34.4499L64.4114 25.6708H61.3656L71.1302 34.4499L76.6844 47.4395L73.3698 62.2207L61.9927 54.0687L57.2448 44.3041L48.6448 35.3457L42.5531 23.1624L39.149 22.177L42.5531 37.7645L51.9594 47.6187L57.2448 61.4145L61.9927 63.6541L71.1302 84.7957L55.9906 76.0166L53.9302 72.9707L46.0469 70.8207L36.2823 65.5353L24.9948 52.7249L20.1573 50.7541L14.2448 43.5874L12.4531 45.6478L14.2448 52.7249L19.6198 56.1291L24.3677 62.8478L34.4906 73.8666L42.6427 77.5395L62.8885 94.3812L67.0989 110.685L55.1844 105.848L48.5552 98.6812L44.524 100.294L35.7 97.3374L26.876 94.3812L18.0969 83.7207L12.7219 79.6895V82.2874L22.0385 96.6207L27.6823 100.831L48.5552 110.685L65.6656 126.542L49.6302 124.839L41.6573 122.242L36.6406 121.704L40.0448 124.839L45.4198 128.692L58.4989 130.931L69.2489 133.619L67.8156 148.848Z" fill="#564842"/>
<path d="M48.5552 110.685L65.6656 126.542L49.6302 124.839L41.6573 122.242L36.6406 121.704L40.0448 124.839L45.4198 128.692M48.5552 110.685L31.8927 115.971L18.0969 114M48.5552 110.685L27.6823 100.831M27.6823 100.831L22.0385 96.6207L12.7219 82.2874V79.6895L18.0969 83.7207L26.876 94.3812L35.7 97.3374M27.6823 100.831L24.1885 103.429L18.0969 104.146M34.4906 73.8666L42.6427 77.5395L62.8885 94.3812L67.0989 110.685L55.1844 105.848L48.5552 98.6812L44.524 100.294L35.7 97.3374M34.4906 73.8666L24.3677 62.8478L19.6198 56.1291L14.2448 52.7249L12.4531 45.6478L14.2448 43.5874L20.1573 50.7541L24.9948 52.7249L36.2823 65.5353L46.0469 70.8207M34.4906 73.8666L24.6365 74.852L14.5135 69.8353M46.0469 70.8207L45.0615 60.6978L39.149 52.7249M46.0469 70.8207L53.9302 72.9707L55.9906 76.0166L71.1302 84.7957L61.9927 63.6541L57.2448 61.4145L51.9594 47.6187M51.9594 47.6187L41.926 45.6478H36.999M51.9594 47.6187L42.5531 37.7645L39.149 22.177L42.5531 23.1624L48.6448 35.3457L57.2448 44.3041L61.9927 54.0687L73.3698 62.2207L76.6844 47.4395L71.1302 34.4499L61.3656 25.6708H64.4114L76.6844 34.4499L80.3573 40.2728M80.3573 40.2728L82.5969 47.4395L79.7302 65.3562L84.1198 82.2874L93.4364 65.3562L99.2594 52.8145M80.3573 40.2728L84.1198 32.927L83.1344 22.177M99.2594 52.8145L113.593 41.0791L118.43 30.2395L124.074 24.327L127.568 23.4312L124.791 31.9416L121.745 36.3312L118.43 49.4103M99.2594 52.8145L93.4364 43.1395L96.5719 31.9416M118.43 49.4103L107.501 55.4124L100.424 74.9416L113.593 68.6707L124.074 55.4124L142.259 54.0687L147.007 52.8145L150.053 54.0687L138.676 61.3249L127.568 63.6541L120.849 71.9853M118.43 49.4103L124.074 47.977L129.807 45.2895M120.849 71.9853L107.501 83.7207L100.424 88.6478L98.2739 103.25L113.593 97.6062L121.745 88.6478H129.001L140.289 82.2874L147.007 76.0166L148.978 79.6895L144.23 88.6478L131.33 96.6207M120.849 71.9853L129.807 71.0895L135.899 67.4166M131.33 96.6207L124.074 97.6062L102.664 122.242L121.745 114L134.734 105.848L146.022 104.146V107.281L135.899 110.685L125.059 123.227M131.33 96.6207L138.676 97.6062L146.022 94.3812M125.059 123.227L104.007 130.931L100.424 139.889V156.731L104.007 180.919H62.8885L67.8156 148.848L69.2489 133.619L58.4989 130.931L45.4198 128.692M125.059 123.227L135.899 122.242L140.289 118.837M45.4198 128.692L40.0448 130.931L31.8927 127.796M35.7 97.3374L33.5948 88.6478L26.876 79.6895" stroke="#564842" stroke-width="4" stroke-linecap="round" stroke-linejoin="round"/>
<path d="M98.2751 97.6059C101.858 96.083 104.97 97.9166 109.294 95.4559C113.771 92.9078 116.401 88.6663 120.94 86.2288C126.025 83.4977 128.974 85.5988 133.571 82.108C135.288 80.8042 135.499 79.2526 137.244 77.9871C140.307 75.7656 146.65 75.658 146.65 75.658C146.65 75.658 145.722 77.9756 145.037 79.4205C144.033 81.5427 143.729 82.9497 142.171 84.7059C139.668 87.526 137.135 87.8661 133.571 89.0955C129.02 90.6651 127.464 89.3507 123.986 92.6788C121.502 95.0545 120.517 96.7125 118.073 99.1288C115.661 101.513 107.413 104.504 107.413 104.504C107.413 104.504 98.6334 107.191 97.4689 110.506C95.9358 114.869 92.5977 116.241 87.9729 116.239C84.7891 116.238 77.2257 119.258 79.1043 116.687C80.8065 114.358 82.1501 112.566 83.673 109.789C85.196 107.012 89.5855 102.354 89.5855 102.354C89.8722 102.139 94.6918 99.1288 98.2751 97.6059Z" fill="#FDFCFB" stroke="#FDFCFB" stroke-width="4" stroke-linecap="round" stroke-linejoin="round"/>
<path d="M103.559 117.941C102.932 118.21 102.932 120.426 99.7967 123.764C98.871 124.75 98.2017 127.043 100.423 125.825C103.2 124.302 108.486 125.556 112.069 123.764C115.653 121.973 122.599 120.55 125.686 116.06C128.643 111.76 135.271 109.162 140.019 105.758C144.767 102.354 138.496 104.145 135.271 103.518C132.046 102.891 132.673 104.145 127.746 105.758C122.819 107.37 124.073 111.133 120.311 113.283C116.548 115.433 113.95 113.91 108.486 115.433C103.021 116.956 104.186 117.673 103.559 117.941Z" fill="#FDFCFB" stroke="#FDFCFB" stroke-width="4" stroke-linecap="round" stroke-linejoin="round"/>
<path d="M82.7178 79.1096C82.9166 76.8735 86.6327 72.6173 89.3113 72.0372C90.6281 71.9198 93.7417 71.7104 95.6621 71.8123C97.5824 71.9141 98.1605 72.6134 98.2095 72.9503C98.4028 73.8432 98.4502 75.5227 97.0926 75.0976C95.7351 74.6726 88.5687 79.2326 85.1552 81.5658C84.2765 81.4924 82.5588 80.8985 82.7178 79.1096Z" fill="#FDFCFB" stroke="#FDFCFB" stroke-width="4" stroke-linecap="round" stroke-linejoin="round"/>
<path d="M75.8777 96.7998C75.7583 95.1873 75.0177 91.0306 73.0111 87.304C73.0111 86.7963 73.1186 85.6735 73.5486 85.2435C74.0861 84.706 80.2673 84.1685 82.5965 85.781C84.9256 87.3935 84.4777 92.5894 84.209 94.4706C83.9402 96.3519 80.3569 99.2185 78.5652 99.9352C77.1319 100.509 76.1763 98.0838 75.8777 96.7998Z" fill="#FDFCFB"/>
<path d="M47.1215 36.5102C44.2548 33.3748 41.9257 26.1185 39.8652 21.6394C39.8652 21.4304 40.9402 20.2956 42.3736 20.2957C44.1652 20.2957 47.7486 21.0123 49.3611 23.4311C52.4368 26.7158 59.4123 34.4319 62.709 39.0186C66.8298 44.7519 74.4444 43.9456 77.3111 46.6331C80.1777 49.3206 75.8777 60.6081 73.5486 61.9519C71.2194 63.2956 63.8736 58.0998 60.1111 55.2331C56.3486 52.3665 52.9444 43.9457 52.5861 42.5123C52.2277 41.079 49.9881 39.6457 47.1215 36.5102Z" fill="#FDFCFB"/>
<path d="M75.8777 96.7998C75.7583 95.1873 75.0177 91.0306 73.0111 87.304C73.0111 86.7963 73.1186 85.6735 73.5486 85.2435C74.0861 84.706 80.2673 84.1685 82.5965 85.781C84.9256 87.3935 84.4777 92.5894 84.209 94.4706C83.9402 96.3519 80.3569 99.2185 78.5652 99.9352C77.1319 100.509 76.1763 98.0838 75.8777 96.7998Z" stroke="#FDFCFB" stroke-width="4" stroke-linecap="round" stroke-linejoin="round"/>
<path d="M47.1215 36.5102C44.2548 33.3748 41.9257 26.1185 39.8652 21.6394C39.8652 21.4304 40.9402 20.2956 42.3736 20.2957C44.1652 20.2957 47.7486 21.0123 49.3611 23.4311C52.4368 26.7158 59.4123 34.4319 62.709 39.0186C66.8298 44.7519 74.4444 43.9456 77.3111 46.6331C80.1777 49.3206 75.8777 60.6081 73.5486 61.9519C71.2194 63.2956 63.8736 58.0998 60.1111 55.2331C56.3486 52.3665 52.9444 43.9457 52.5861 42.5123C52.2277 41.079 49.9881 39.6457 47.1215 36.5102Z" stroke="#FDFCFB" stroke-width="4" stroke-linecap="round" stroke-linejoin="round"/>
<mask id="mask7_272_5772" style="mask-type:alpha" maskUnits="userSpaceOnUse" x="5" y="18" width="150" height="167">
<path d="M67.8161 148.848L62.8891 180.919H104.008L100.424 156.731V139.889L104.008 130.931L125.06 123.227L135.899 110.685L146.022 107.281V104.146L134.735 105.848L121.745 114L102.664 122.242L124.074 97.6062L131.331 96.6207L144.231 88.6478L148.979 79.6895L147.008 76.0166L140.289 82.2874L129.002 88.6478H121.745L113.593 97.6062L98.2745 103.25L100.424 88.6478L107.502 83.7207L120.849 71.9853L127.568 63.6541L138.677 61.3249L150.054 54.0687L147.008 52.8145L142.26 54.0687L124.074 55.4124L113.593 68.6707L100.424 74.9416L107.502 55.4124L118.431 49.4103L121.745 36.3312L124.791 31.9416L127.568 23.4312L124.074 24.327L118.431 30.2395L113.593 41.0791L99.2599 52.8145L93.437 65.3562L84.1203 82.2874L79.7307 65.3562L82.5974 47.4395L80.3578 40.2728L76.6849 34.4499L64.412 25.6708H61.3661L71.1307 34.4499L76.6849 47.4395L73.3703 62.2207L61.9932 54.0687L57.2453 44.3041L48.6453 35.3457L42.5536 23.1624L39.1495 22.177L42.5536 37.7645L51.9599 47.6187L57.2453 61.4145L61.9932 63.6541L71.1307 84.7957L55.9911 76.0166L53.9307 72.9707L46.0474 70.8207L36.2828 65.5353L24.9953 52.7249L20.1578 50.7541L14.2453 43.5874L12.4536 45.6478L14.2453 52.7249L19.6203 56.1291L24.3682 62.8478L34.4911 73.8666L42.6432 77.5395L62.8891 94.3812L67.0995 110.685L55.1849 105.848L48.5557 98.6812L44.5245 100.294L35.7005 97.3374L26.8766 94.3812L15.3203 83.7207L9.94531 79.6895V82.2874L19.5307 94.3812L27.6828 100.831L48.5557 110.685L65.6661 126.542L49.6307 124.839L41.6578 122.242L36.6411 121.704L40.0453 124.839L45.4203 128.692L58.4995 130.931L69.2495 133.619L67.8161 148.848Z" fill="#564842"/>
<path d="M48.5557 110.685L65.6661 126.542L49.6307 124.839L41.6578 122.242L36.6411 121.704L40.0453 124.839L45.4203 128.692M48.5557 110.685L31.8932 115.971L18.0974 114M48.5557 110.685L27.6828 100.831M27.6828 100.831L19.5307 94.3812L9.94531 82.2874V79.6895L15.3203 83.7207L26.8766 94.3812L35.7005 97.3374M27.6828 100.831L24.1891 103.429L18.0974 104.146M34.4911 73.8666L42.6432 77.5395L62.8891 94.3812L67.0995 110.685L55.1849 105.848L48.5557 98.6812L44.5245 100.294L35.7005 97.3374M34.4911 73.8666L24.3682 62.8478L19.6203 56.1291L14.2453 52.7249L12.4536 45.6478L14.2453 43.5874L20.1578 50.7541L24.9953 52.7249L36.2828 65.5353L46.0474 70.8207M34.4911 73.8666L24.637 74.852L14.5141 69.8353M46.0474 70.8207L45.062 60.6978L39.1495 52.7249M46.0474 70.8207L53.9307 72.9707L55.9911 76.0166L71.1307 84.7957L61.9932 63.6541L57.2453 61.4145L51.9599 47.6187M51.9599 47.6187L41.9266 45.6478H36.9995M51.9599 47.6187L42.5536 37.7645L39.1495 22.177L42.5536 23.1624L48.6453 35.3457L57.2453 44.3041L61.9932 54.0687L73.3703 62.2207L76.6849 47.4395L71.1307 34.4499L61.3661 25.6708H64.412L76.6849 34.4499L80.3578 40.2728M80.3578 40.2728L82.5974 47.4395L79.7307 65.3562L84.1203 82.2874L93.437 65.3562L99.2599 52.8145M80.3578 40.2728L84.1203 32.927L83.1349 22.177M99.2599 52.8145L113.593 41.0791L118.431 30.2395L124.074 24.327L127.568 23.4312L124.791 31.9416L121.745 36.3312L118.431 49.4103M99.2599 52.8145L93.437 43.1395L96.5724 31.9416M118.431 49.4103L107.502 55.4124L100.424 74.9416L113.593 68.6707L124.074 55.4124L142.26 54.0687L147.008 52.8145L150.054 54.0687L138.677 61.3249L127.568 63.6541L120.849 71.9853M118.431 49.4103L124.074 47.977L129.808 45.2895M120.849 71.9853L107.502 83.7207L100.424 88.6478L98.2745 103.25L113.593 97.6062L121.745 88.6478H129.002L140.289 82.2874L147.008 76.0166L148.979 79.6895L144.231 88.6478L131.331 96.6207M120.849 71.9853L129.808 71.0895L135.899 67.4166M131.331 96.6207L124.074 97.6062L102.664 122.242L121.745 114L134.735 105.848L146.022 104.146V107.281L135.899 110.685L125.06 123.227M131.331 96.6207L138.677 97.6062L146.022 94.3812M125.06 123.227L104.008 130.931L100.424 139.889V156.731L104.008 180.919H62.8891L67.8161 148.848L69.2495 133.619L58.4995 130.931L45.4203 128.692M125.06 123.227L135.899 122.242L140.289 118.837M45.4203 128.692L40.0453 130.931L31.8932 127.796M35.7005 97.3374L33.5953 88.6478L26.8766 79.6895" stroke="#564842" stroke-width="8" stroke-linecap="round" stroke-linejoin="round"/>
</mask>
<g mask="url(#mask7_272_5772)">
<path d="M92.1837 133.35L90.84 141.144L90.2129 155.746L91.3775 172.408L92.99 183.785" stroke="#816D61" stroke-width="3" stroke-linecap="round" stroke-linejoin="round"/>
<path d="M87.0773 137.202L85.9128 148.221L85.4648 160.314L85.9128 177.066L87.0773 188.354" stroke="#816D61" stroke-width="3" stroke-linecap="round" stroke-linejoin="round"/>
<path d="M94.1544 150.102L93.5273 155.835L94.7815 164.614L98.544 168.018L99.8878 164.614L98.9919 157V154.312L97.469 152.521L96.6628 155.835L97.469 161.927" stroke="#816D61" stroke-width="3" stroke-linecap="round" stroke-linejoin="round"/>
<path d="M99.1699 149.564L96.4824 144.279L97.3783 135.769L99.8866 130.125" stroke="#816D61" stroke-width="3" stroke-linecap="round" stroke-linejoin="round"/>
</g>
<path d="M115.049 101.134C116.013 100.201 115.706 98.6641 115.706 98.6641C115.706 98.6641 113.495 99.3124 112.501 100.107C111.346 101.032 111.083 102.76 111.083 102.76C111.083 102.76 113.989 102.16 115.049 101.134Z" fill="#FDFCFB" stroke="#FDFCFB" stroke-width="8" stroke-linecap="round" stroke-linejoin="round"/>
<path d="M103.939 163.305C104.904 162.372 104.597 160.835 104.597 160.835C104.597 160.835 102.385 161.483 101.392 162.278C100.237 163.203 99.9739 164.931 99.9739 164.931C99.9739 164.931 102.88 164.331 103.939 163.305Z" fill="#FDFCFB" stroke="#FDFCFB" stroke-width="8" stroke-linecap="round" stroke-linejoin="round"/>
<path d="M117.23 133.62C118.406 132.973 118.513 131.409 118.513 131.409C118.513 131.409 116.209 131.453 115.042 131.959C113.685 132.548 112.976 134.146 112.976 134.146C112.976 134.146 115.938 134.331 117.23 133.62Z" fill="#FDFCFB" stroke="#FDFCFB" stroke-width="8" stroke-linecap="round" stroke-linejoin="round"/>
<path d="M86.3806 104.181C87.3453 103.247 87.0382 101.71 87.0382 101.71C87.0382 101.71 84.8267 102.359 83.8335 103.154C82.6784 104.078 82.4153 105.806 82.4153 105.806C82.4153 105.806 85.321 105.206 86.3806 104.181Z" fill="#FDFCFB" stroke="#FDFCFB" stroke-width="8" stroke-linecap="round" stroke-linejoin="round"/>
<path d="M105.506 154.942C106.452 153.403 105.539 151.502 105.539 151.502C105.539 151.502 102.872 153.085 101.842 154.453C100.645 156.044 100.878 158.385 100.878 158.385C100.878 158.385 104.467 156.633 105.506 154.942Z" fill="#FDFCFB" stroke="#FDFCFB" stroke-width="8" stroke-linecap="round" stroke-linejoin="round"/>
<path d="M137.533 143.012C139.023 141.569 138.549 139.195 138.549 139.195C138.549 139.195 135.132 140.197 133.598 141.425C131.814 142.853 131.407 145.523 131.407 145.523C131.407 145.523 135.896 144.596 137.533 143.012Z" fill="#FDFCFB" stroke="#FDFCFB" stroke-width="8" stroke-linecap="round" stroke-linejoin="round"/>
</g>
</g>
<mask id="mask8_272_5772" style="mask-type:alpha" maskUnits="userSpaceOnUse" x="-3" y="83" width="86" height="86">
<rect x="-3" y="83" width="86" height="86" fill="#D9D9D9"/>
</mask>
<g mask="url(#mask8_272_5772)">
<mask id="mask9_272_5772" style="mask-type:alpha" maskUnits="userSpaceOnUse" x="-92" y="-15" width="344" height="194">
<rect x="-92" y="-15" width="344" height="193.5" fill="#D9D9D9"/>
</mask>
<g mask="url(#mask9_272_5772)">
<path d="M1.43568 35.6565C-4.38724 44.1915 3.85443 55.0961 3.85443 55.0961C3.85443 55.0961 -3.02489 55.4544 -4.38724 61.0086C-6.71641 70.5044 3.85443 71.3107 3.85443 71.3107C3.85443 71.3107 -1.07266 71.9378 -1.07266 76.6857C-1.07266 82.5982 3.85443 82.5982 3.85443 82.5982C3.85443 82.5982 -7.25391 85.2857 -7.25391 96.394C-7.25391 110.011 6.90026 111.444 6.90026 111.444C6.90026 111.444 4.48161 113.952 6.90026 116.371C9.31891 118.79 11.8273 116.371 11.8273 116.371C11.8273 116.371 8.69193 122.994 12.9919 125.956C17.5342 129.086 23.294 125.956 23.294 125.956C23.294 125.956 21.9503 134.102 28.4898 138.677C38.767 145.867 54.0211 136.796 54.0211 136.796C54.0211 136.796 54.7037 139.109 55.6336 140.29C59.2621 144.896 66.9211 138.677 66.9211 138.677C66.9211 138.677 71.6691 151.309 89.2273 151.309C106.786 151.309 109.204 136.796 109.204 136.796C109.204 136.796 110.996 144.217 122.552 141.813C132.675 139.707 128.913 129.988 128.913 129.988C128.913 129.988 149.338 138.665 157.759 127.204C166.258 115.637 157.759 104.188 157.759 104.188C157.759 104.188 164.567 105.084 166.448 100.873C170.287 92.2805 160.267 90.5711 160.267 90.5711C160.267 90.5711 170.183 87.2161 164.567 76.6857C161.7 71.3107 155.34 71.3107 155.34 71.3107C155.34 71.3107 168.728 70.1537 166.448 56.7982C164.567 45.7794 152.115 45.7794 152.115 45.7794C152.115 45.7794 161.7 32.4665 153.459 22.1295C145.217 11.7924 128.644 18.7253 128.644 18.7253C128.644 18.7253 124.687 5.97384 114.669 6.53564C105.084 7.07316 104.188 12.8065 104.188 12.8065C104.188 12.8065 103.65 2.05647 89.2273 1.07104C74.5387 0.0674472 70.8628 10.0294 70.8628 10.0294C70.8628 10.0294 70.8628 4.10367 63.6065 3.4002C56.3503 2.69674 54.0211 10.0294 54.0211 10.0294C54.0211 10.0294 45.6898 1.51265 35.2982 6.53564C21.3153 13.2945 26.6086 25.5336 26.6086 25.5336C26.6086 25.5336 23.4943 21.1331 19.2628 24.369C16.2169 26.6982 18.0982 30.4607 18.0982 30.4607C18.0982 30.4607 7.97526 26.0711 1.43568 35.6565Z" fill="#EE9575" stroke="#EE9575" stroke-width="8" stroke-linecap="round" stroke-linejoin="round"/>
<path d="M67.8156 149.44L62.8885 181.51H104.007L100.424 157.323V140.481L104.007 131.523L125.059 123.819L135.899 111.277L146.022 107.873V104.738L134.734 106.44L121.745 114.592L102.664 122.833L124.074 98.198L131.33 97.2125L144.23 89.2396L148.978 80.2813L147.007 76.6084L140.289 82.8792L129.001 89.2396H121.745L113.593 98.198L98.274 103.842L100.424 89.2396L107.501 84.3125L120.849 72.5771L127.568 64.2459L138.676 61.9167L150.053 54.6605L147.007 53.4063L142.259 54.6605L124.074 56.0042L113.593 69.2625L100.424 75.5334L107.501 56.0042L118.43 50.0021L121.745 36.923L124.791 32.5334L127.568 24.023L124.074 24.9188L118.43 30.8313L113.593 41.6709L99.2594 53.4063L93.4365 65.948L84.1198 82.8792L79.7302 65.948L82.5969 48.0313L80.3573 40.8646L76.6844 35.0417L64.4115 26.2625H61.3656L71.1302 35.0417L76.6844 48.0313L73.3698 62.8125L61.9927 54.6605L57.2448 44.8959L48.6448 35.9375L42.5531 23.7542L39.149 22.7688L42.5531 38.3563L51.9594 48.2105L57.2448 62.0063L61.9927 64.2459L71.1302 85.3875L55.9906 76.6084L53.9302 73.5625L46.0469 71.4125L36.2823 66.1271L24.9948 53.3167L20.1573 51.3459L14.2448 44.1792L12.4531 46.2396L14.2448 53.3167L19.6198 56.7209L24.3677 63.4396L34.4906 74.4584L42.6427 78.1313L62.8885 94.973L67.099 111.277L55.1844 106.44L48.5552 99.273L44.524 100.885L35.7 97.9292L26.876 94.973L18.0969 84.3125L12.7219 80.2813V82.8792L22.0385 97.2125L27.6823 101.423L48.5552 111.277L65.6656 127.133L49.6302 125.431L41.6573 122.833L36.6406 122.296L40.0448 125.431L45.4198 129.283L58.499 131.523L69.249 134.21L67.8156 149.44Z" fill="#564842"/>
<path d="M48.5552 111.277L65.6656 127.133L49.6302 125.431L41.6573 122.833L36.6406 122.296L40.0448 125.431L45.4198 129.283M48.5552 111.277L31.8927 116.563L18.0969 114.592M48.5552 111.277L27.6823 101.423M27.6823 101.423L22.0385 97.2125L12.7219 82.8792V80.2813L18.0969 84.3125L26.876 94.973L35.7 97.9292M27.6823 101.423L24.1885 104.021L18.0969 104.738M34.4906 74.4584L42.6427 78.1313L62.8885 94.973L67.099 111.277L55.1844 106.44L48.5552 99.273L44.524 100.885L35.7 97.9292M34.4906 74.4584L24.3677 63.4396L19.6198 56.7209L14.2448 53.3167L12.4531 46.2396L14.2448 44.1792L20.1573 51.3459L24.9948 53.3167L36.2823 66.1271L46.0469 71.4125M34.4906 74.4584L24.6365 75.4438L14.5135 70.4271M46.0469 71.4125L45.0615 61.2896L39.149 53.3167M46.0469 71.4125L53.9302 73.5625L55.9906 76.6084L71.1302 85.3875L61.9927 64.2459L57.2448 62.0063L51.9594 48.2105M51.9594 48.2105L41.926 46.2396H36.999M51.9594 48.2105L42.5531 38.3563L39.149 22.7688L42.5531 23.7542L48.6448 35.9375L57.2448 44.8959L61.9927 54.6605L73.3698 62.8125L76.6844 48.0313L71.1302 35.0417L61.3656 26.2625H64.4115L76.6844 35.0417L80.3573 40.8646M80.3573 40.8646L82.5969 48.0313L79.7302 65.948L84.1198 82.8792L93.4365 65.948L99.2594 53.4063M80.3573 40.8646L84.1198 33.5188L83.1344 22.7688M99.2594 53.4063L113.593 41.6709L118.43 30.8313L124.074 24.9188L127.568 24.023L124.791 32.5334L121.745 36.923L118.43 50.0021M99.2594 53.4063L93.4365 43.7313L96.5719 32.5334M118.43 50.0021L107.501 56.0042L100.424 75.5334L113.593 69.2625L124.074 56.0042L142.259 54.6605L147.007 53.4063L150.053 54.6605L138.676 61.9167L127.568 64.2459L120.849 72.5771M118.43 50.0021L124.074 48.5688L129.807 45.8813M120.849 72.5771L107.501 84.3125L100.424 89.2396L98.274 103.842L113.593 98.198L121.745 89.2396H129.001L140.289 82.8792L147.007 76.6084L148.978 80.2813L144.23 89.2396L131.33 97.2125M120.849 72.5771L129.807 71.6813L135.899 68.0084M131.33 97.2125L124.074 98.198L102.664 122.833L121.745 114.592L134.734 106.44L146.022 104.738V107.873L135.899 111.277L125.059 123.819M131.33 97.2125L138.676 98.198L146.022 94.973M125.059 123.819L104.007 131.523L100.424 140.481V157.323L104.007 181.51H62.8885L67.8156 149.44L69.249 134.21L58.499 131.523L45.4198 129.283M125.059 123.819L135.899 122.833L140.289 119.429M45.4198 129.283L40.0448 131.523L31.8927 128.388M35.7 97.9292L33.5948 89.2396L26.876 80.2813" stroke="#564842" stroke-width="4" stroke-linecap="round" stroke-linejoin="round"/>
<mask id="mask10_272_5772" style="mask-type:alpha" maskUnits="userSpaceOnUse" x="5" y="18" width="150" height="168">
<path d="M67.8161 149.439L62.8891 181.51H104.008L100.424 157.323V140.481L104.008 131.523L125.06 123.819L135.899 111.277L146.022 107.873V104.737L134.735 106.439L121.745 114.591L102.664 122.833L124.074 98.1977L131.331 97.2123L144.231 89.2394L148.979 80.281L147.008 76.6081L140.289 82.879L129.002 89.2394H121.745L113.593 98.1977L98.2745 103.841L100.424 89.2394L107.502 84.3123L120.849 72.5769L127.568 64.2456L138.677 61.9165L150.054 54.6602L147.008 53.4061L142.26 54.6602L124.074 56.004L113.593 69.2623L100.424 75.5331L107.502 56.004L118.431 50.0019L121.745 36.9227L124.791 32.5331L127.568 24.0227L124.074 24.9186L118.431 30.8311L113.593 41.6706L99.2599 53.4061L93.437 65.9477L84.1203 82.879L79.7307 65.9477L82.5974 48.0311L80.3578 40.8644L76.6849 35.0415L64.412 26.2623H61.3661L71.1307 35.0415L76.6849 48.0311L73.3703 62.8123L61.9932 54.6602L57.2453 44.8956L48.6453 35.9373L42.5536 23.754L39.1495 22.7686L42.5536 38.3561L51.9599 48.2102L57.2453 62.0061L61.9932 64.2456L71.1307 85.3873L55.9911 76.6081L53.9307 73.5623L46.0474 71.4123L36.2828 66.1269L24.9953 53.3165L20.1578 51.3456L14.2453 44.179L12.4536 46.2394L14.2453 53.3165L19.6203 56.7206L24.3682 63.4394L34.4911 74.4581L42.6432 78.131L62.8891 94.9727L67.0995 111.277L55.1849 106.439L48.5557 99.2727L44.5245 100.885L35.7005 97.929L26.8766 94.9727L15.3203 84.3123L9.94531 80.281V82.879L19.5307 94.9727L27.6828 101.423L48.5557 111.277L65.6661 127.133L49.6307 125.431L41.6578 122.833L36.6411 122.296L40.0453 125.431L45.4203 129.283L58.4995 131.523L69.2495 134.21L67.8161 149.439Z" fill="#564842"/>
<path d="M48.5557 111.277L65.6661 127.133L49.6307 125.431L41.6578 122.833L36.6411 122.296L40.0453 125.431L45.4203 129.283M48.5557 111.277L31.8932 116.562L18.0974 114.591M48.5557 111.277L27.6828 101.423M27.6828 101.423L19.5307 94.9727L9.94531 82.879V80.281L15.3203 84.3123L26.8766 94.9727L35.7005 97.929M27.6828 101.423L24.1891 104.021L18.0974 104.737M34.4911 74.4581L42.6432 78.131L62.8891 94.9727L67.0995 111.277L55.1849 106.439L48.5557 99.2727L44.5245 100.885L35.7005 97.929M34.4911 74.4581L24.3682 63.4394L19.6203 56.7206L14.2453 53.3165L12.4536 46.2394L14.2453 44.179L20.1578 51.3456L24.9953 53.3165L36.2828 66.1269L46.0474 71.4123M34.4911 74.4581L24.637 75.4435L14.5141 70.4269M46.0474 71.4123L45.062 61.2894L39.1495 53.3165M46.0474 71.4123L53.9307 73.5623L55.9911 76.6081L71.1307 85.3873L61.9932 64.2456L57.2453 62.006L51.9599 48.2102M51.9599 48.2102L41.9266 46.2394H36.9995M51.9599 48.2102L42.5536 38.3561L39.1495 22.7686L42.5536 23.754L48.6453 35.9373L57.2453 44.8956L61.9932 54.6602L73.3703 62.8123L76.6849 48.0311L71.1307 35.0415L61.3661 26.2623H64.412L76.6849 35.0415L80.3578 40.8644M80.3578 40.8644L82.5974 48.0311L79.7307 65.9477L84.1203 82.879L93.437 65.9477L99.2599 53.4061M80.3578 40.8644L84.1203 33.5186L83.1349 22.7686M99.2599 53.4061L113.593 41.6706L118.431 30.8311L124.074 24.9186L127.568 24.0227L124.791 32.5331L121.745 36.9227L118.431 50.0019M99.2599 53.4061L93.437 43.7311L96.5724 32.5331M118.431 50.0019L107.502 56.004L100.424 75.5331L113.593 69.2623L124.074 56.004L142.26 54.6602L147.008 53.4061L150.054 54.6602L138.677 61.9165L127.568 64.2456L120.849 72.5769M118.431 50.0019L124.074 48.5686L129.808 45.8811M120.849 72.5769L107.502 84.3123L100.424 89.2394L98.2745 103.841L113.593 98.1977L121.745 89.2394H129.002L140.289 82.879L147.008 76.6081L148.979 80.281L144.231 89.2394L131.331 97.2123M120.849 72.5769L129.808 71.681L135.899 68.0081M131.331 97.2123L124.074 98.1977L102.664 122.833L121.745 114.591L134.735 106.439L146.022 104.737V107.873L135.899 111.277L125.06 123.819M131.331 97.2123L138.677 98.1977L146.022 94.9727M125.06 123.819L104.008 131.523L100.424 140.481V157.323L104.008 181.51H62.8891L67.8161 149.439L69.2495 134.21L58.4995 131.523L45.4203 129.283M125.06 123.819L135.899 122.833L140.289 119.429M45.4203 129.283L40.0453 131.523L31.8932 128.387M35.7005 97.929L33.5953 89.2394L26.8766 80.281" stroke="#564842" stroke-width="8" stroke-linecap="round" stroke-linejoin="round"/>
</mask>
<g mask="url(#mask10_272_5772)">
<path d="M70.502 157.323L69.2478 168.073L67.8145 176.584L66.4707 183.929" stroke="#816D61" stroke-width="3" stroke-linecap="round" stroke-linejoin="round"/>
<path d="M73.9954 154.457V164.848L72.8309 175.509L71.7559 183.482" stroke="#816D61" stroke-width="3" stroke-linecap="round" stroke-linejoin="round"/>
</g>
<path d="M59.1192 118.856C59.1192 118.856 60.2874 116.289 61.8057 117.085C63.2538 118.296 61.4212 120.068 61.4212 120.068C61.4212 120.068 63.7459 121.142 63.0009 122.696C61.7253 124.02 60.3338 122.306 60.3338 122.306C60.3338 122.306 60.2528 124.966 58.6716 124.901C57.333 124.392 57.8808 122.149 57.8808 122.149C57.8808 122.149 55.8574 123.005 54.913 121.85C54.3744 120.137 57.0908 119.716 57.0908 119.716C57.0908 119.716 54.9185 118.436 56.5645 116.605C58.8077 116.298 59.1192 118.856 59.1192 118.856Z" fill="#EE9575" stroke="#EE9575" stroke-width="8" stroke-linecap="round" stroke-linejoin="round"/>
<circle cx="59.1903" cy="120.461" r="0.5" transform="rotate(36.094 59.1903 120.461)" fill="#EE9575" stroke="#EE9575" stroke-width="0.506844"/>
<path d="M19.4749 142.459C20.5669 141.678 20.49 140.113 20.49 140.113C20.49 140.113 18.207 140.428 17.1073 141.068C15.8284 141.812 15.3131 143.482 15.3131 143.482C15.3131 143.482 18.2756 143.317 19.4749 142.459Z" fill="#EE9575" stroke="#EE9575" stroke-width="8" stroke-linecap="round" stroke-linejoin="round"/>
<path d="M44.5171 98.2008C45.8449 96.801 45.3095 94.6137 45.3095 94.6137C45.3095 94.6137 42.1742 95.6804 40.7971 96.8829C39.1956 98.2814 38.9241 100.779 38.9241 100.779C38.9241 100.779 43.059 99.7382 44.5171 98.2008Z" fill="#EE9575" stroke="#EE9575" stroke-width="8" stroke-linecap="round" stroke-linejoin="round"/>
<path d="M86.3825 104.773C87.3473 103.839 87.0402 102.302 87.0402 102.302C87.0402 102.302 84.8286 102.951 83.8354 103.746C82.6804 104.67 82.4173 106.398 82.4173 106.398C82.4173 106.398 85.323 105.798 86.3825 104.773Z" fill="#EE9575" stroke="#EE9575" stroke-width="8" stroke-linecap="round" stroke-linejoin="round"/>
<path d="M56.9059 150.77C58.3963 149.328 57.9219 146.954 57.9219 146.954C57.9219 146.954 54.5053 147.955 52.9709 149.184C51.1866 150.612 50.7801 153.282 50.7801 153.282C50.7801 153.282 55.2691 152.354 56.9059 150.77Z" fill="#EE9575" stroke="#EE9575" stroke-width="8" stroke-linecap="round" stroke-linejoin="round"/>
<path d="M17.882 150.633C18.9802 149.57 18.6306 147.821 18.6306 147.821C18.6306 147.821 16.1131 148.559 14.9824 149.464C13.6676 150.516 13.3681 152.483 13.3681 152.483C13.3681 152.483 16.6759 151.8 17.882 150.633Z" fill="#EE9575" stroke="#EE9575" stroke-width="8" stroke-linecap="round" stroke-linejoin="round"/>
<path d="M56.2612 142.27C57.1759 141.046 56.552 139.375 56.552 139.375C56.552 139.375 54.1843 140.505 53.2124 141.579C52.0822 142.827 52.1001 144.817 52.1001 144.817C52.1001 144.817 55.2566 143.615 56.2612 142.27Z" fill="#EE9575" stroke="#EE9575" stroke-width="8" stroke-linecap="round" stroke-linejoin="round"/>
<path d="M6.58919 127.698C8.11827 126.219 7.63156 123.783 7.63156 123.783C7.63156 123.783 4.12633 124.811 2.55211 126.071C0.721445 127.536 0.304402 130.275 0.304402 130.275C0.304402 130.275 4.90988 129.324 6.58919 127.698Z" fill="#EE9575" stroke="#EE9575" stroke-width="8" stroke-linecap="round" stroke-linejoin="round"/>
<path d="M72.0196 83.7387C72.0196 83.7387 73.1878 81.1716 74.7061 81.9677C76.1542 83.1788 74.3216 84.9507 74.3216 84.9507C74.3216 84.9507 76.6463 86.024 75.9013 87.5787C74.6257 88.902 73.2342 87.1883 73.2342 87.1883C73.2342 87.1883 73.1531 89.8486 71.572 89.7837C70.2334 89.274 70.7812 87.0316 70.7812 87.0316C70.7812 87.0316 68.7578 87.8874 67.8134 86.7327C67.2747 85.0191 69.9912 84.5982 69.9912 84.5982C69.9912 84.5982 67.8189 83.3179 69.4649 81.4877C71.7081 81.1806 72.0196 83.7387 72.0196 83.7387Z" fill="#EE9575" stroke="#EE9575" stroke-width="8" stroke-linecap="round" stroke-linejoin="round"/>
<circle cx="72.0888" cy="85.3437" r="0.5" transform="rotate(36.094 72.0888 85.3437)" fill="#EE9575" stroke="#EE9575" stroke-width="0.506844"/>
<path d="M50.6973 69.5846C50.6973 69.5846 51.8656 67.0175 53.3839 67.8137C54.8319 69.0247 52.9993 70.7967 52.9993 70.7967C52.9993 70.7967 55.324 71.8699 54.579 73.4247C53.3035 74.748 51.9119 73.0342 51.9119 73.0342C51.9119 73.0342 51.8309 75.6946 50.2497 75.6296C48.9111 75.1199 49.4589 72.8775 49.4589 72.8775C49.4589 72.8775 47.4355 73.7333 46.4912 72.5786C45.9525 70.865 48.6689 70.4442 48.6689 70.4442C48.6689 70.4442 46.4966 69.1639 48.1426 67.3336C50.3859 67.0265 50.6973 69.5846 50.6973 69.5846Z" fill="#EE9575" stroke="#EE9575" stroke-width="8" stroke-linecap="round" stroke-linejoin="round"/>
<path d="M55.9847 88.6651C55.9847 88.6651 57.5343 84.2322 60.172 85.3231C62.7558 87.1126 59.9847 90.3273 59.9847 90.3273C59.9847 90.3273 64.0013 91.7559 63.0007 94.4464C61.0855 96.8331 58.5195 94.2016 58.5195 94.2016C58.5195 94.2016 58.7866 98.625 56.1551 98.756C53.8586 98.1129 54.4284 94.3121 54.4284 94.3121C54.4284 94.3121 51.2026 96.0366 49.4624 94.2645C48.3105 91.5045 52.7511 90.3966 52.7511 90.3966C52.7511 90.3966 48.956 88.6016 51.4089 85.3183C55.0821 84.4705 55.9847 88.6651 55.9847 88.6651Z" fill="#EE9575" stroke="#EE9575" stroke-width="8" stroke-linecap="round" stroke-linejoin="round"/>
<circle cx="56.3426" cy="91.3157" r="0.754427" transform="rotate(30.8919 56.3426 91.3157)" fill="#EE9575" stroke="#EE9575"/>
<path d="M19.9749 91.711C19.9749 91.711 21.5245 87.2781 24.1622 88.369C26.746 90.1585 23.9749 93.3732 23.9749 93.3732C23.9749 93.3732 27.9915 94.8018 26.991 97.4922C25.0757 99.879 22.5097 97.2475 22.5097 97.2475C22.5097 97.2475 22.7769 101.671 20.1453 101.802C17.8488 101.159 18.4187 97.358 18.4187 97.358C18.4187 97.358 15.1928 99.0825 13.4526 97.3104C12.3008 94.5504 16.7413 93.4425 16.7413 93.4425C16.7413 93.4425 12.9462 91.6475 15.3992 88.3642C19.0723 87.5164 19.9749 91.711 19.9749 91.711Z" fill="#EE9575" stroke="#EE9575" stroke-width="8" stroke-linecap="round" stroke-linejoin="round"/>
<circle cx="20.3328" cy="94.3616" r="0.754427" transform="rotate(30.8919 20.3328 94.3616)" fill="#EE9575" stroke="#EE9575"/>
</g>
</g>
<path d="M-5 83H170.5" stroke="#EAE7DB" stroke-width="5" stroke-linecap="round" stroke-linejoin="round"/>
<path d="M83 -5L83 170.5" stroke="#EAE7DB" stroke-width="5" stroke-linecap="round" stroke-linejoin="round"/>
</g>
</svg>
