<svg width="318" height="499" viewBox="0 0 318 499" fill="none" xmlns="http://www.w3.org/2000/svg">
<path d="M110.5 190.5C110.5 278 140.5 294 140.5 294C140.5 294 81.1627 282 38.4996 326C14.2387 351.021 13.1178 375.189 6.99964 409.5C1.13814 442.371 6.99964 495 6.99964 495H313.5C313.5 495 279.314 461.823 274 439.5C264 397.5 274 392.749 244 344C231.85 324.256 192 306 192 306C192 306 168.424 264 180 172.5C189.414 98.0838 290 51 264 23.0001C239.021 -3.90024 219.5 1.00022 180 23.0001C140.5 45 110.5 119.68 110.5 190.5Z" fill="#564842" stroke="#564842" stroke-width="8" stroke-linecap="round" stroke-linejoin="round"/>
<path d="M97.5002 448.5C97.5002 448.5 82.9993 418.5 102 375C121.001 331.5 162 333.5 162 333.5" stroke="#EAE7DB" stroke-width="8" stroke-linecap="round" stroke-linejoin="round"/>
<mask id="mask0_151_8" style="mask-type:alpha" maskUnits="userSpaceOnUse" x="0" y="0" width="318" height="500">
<path d="M110.5 190.5C110.5 278 140.5 294 140.5 294C140.5 294 81.1627 282 38.4996 326C14.2387 351.021 13.1178 375.189 6.99964 409.5C1.13814 442.371 6.99964 495 6.99964 495H313.5C313.5 495 279.314 461.823 274 439.5C264 397.5 274 392.749 244 344C231.85 324.256 192 306 192 306C192 306 168.424 264 180 172.5C189.414 98.0838 290 51 264 23.0001C239.021 -3.90024 219.5 1.00022 180 23.0001C140.5 45 110.5 119.68 110.5 190.5Z" fill="#564842" stroke="#564842" stroke-width="8" stroke-linecap="round" stroke-linejoin="round"/>
</mask>
<g mask="url(#mask0_151_8)">
<path d="M277.001 450C277.839 443.942 281.501 435 281.501 435L318.001 466.5L308.501 494L294.502 489.5C294.502 489.5 275.637 479.122 274.5 468.5C273.919 463.064 276.252 455.416 277.001 450Z" fill="#EAE7DB"/>
<path d="M196.502 313.5C197.809 308.696 202.002 302 202.002 302L231.002 325C230.835 329.833 246.502 350.5 231.002 342.5C215.502 334.5 216.168 348.833 208.502 350.5C200.835 352.167 192.513 328.157 196.502 313.5Z" fill="#EAE7DB"/>
<path d="M66.5 316.5C69.909 305.127 84.5 292 84.5 292L75 284.5L11 320.5L3.5 370.5C3.5 370.5 14.4039 356.566 24.5 353.5C34.2443 350.541 40.9317 358.986 50.5 355.5C58.0644 352.744 62.6461 349.569 66.5 342.5C71.3605 333.585 63.5845 326.226 66.5 316.5Z" fill="#EAE7DB"/>
<path d="M277.001 450C277.839 443.942 281.501 435 281.501 435L318.001 466.5L308.501 494L294.502 489.5C294.502 489.5 275.637 479.122 274.5 468.5C273.919 463.064 276.252 455.416 277.001 450Z" stroke="#EAE7DB" stroke-width="8" stroke-linecap="round" stroke-linejoin="round"/>
<path d="M196.502 313.5C197.809 308.696 202.002 302 202.002 302L231.002 325C230.835 329.833 246.502 350.5 231.002 342.5C215.502 334.5 216.168 348.833 208.502 350.5C200.835 352.167 192.513 328.157 196.502 313.5Z" stroke="#EAE7DB" stroke-width="8" stroke-linecap="round" stroke-linejoin="round"/>
<path d="M66.5 316.5C69.909 305.127 84.5 292 84.5 292L75 284.5L11 320.5L3.5 370.5C3.5 370.5 14.4039 356.566 24.5 353.5C34.2443 350.541 40.9317 358.986 50.5 355.5C58.0644 352.744 62.6461 349.569 66.5 342.5C71.3605 333.585 63.5845 326.226 66.5 316.5Z" stroke="#EAE7DB" stroke-width="8" stroke-linecap="round" stroke-linejoin="round"/>
<path d="M214.5 16C210.504 9.46774 206.5 -4 206.5 -4L181 8C181 8 189.847 24.6141 200 29C211.137 33.811 231 27 231 27C231 27 218.25 22.1291 214.5 16Z" fill="#EE9575"/>
<path d="M195.5 60.5C178.221 52.3183 156.5 29 156.5 29L146.5 44C146.5 44 154.86 67.6124 172.5 80C188.442 91.1953 231 105 231 105L255 71.5C255 71.5 216.645 70.5124 195.5 60.5Z" fill="#EE9575"/>
<path d="M146.5 149.5C131.34 143.448 113 110.5 113 110.5L104 149.5C104 149.5 125.982 172.11 141.5 174.5C164.407 178.028 200 154 200 154L206.5 135.5C206.5 135.5 168.261 158.188 146.5 149.5Z" fill="#EE9575"/>
<path d="M141.5 216.5C123.316 218.79 96 205 96 205V257L113 279.5C113 279.5 103.495 316.582 116.5 318C131.5 298.5 207 304.5 207 304.5C207 304.5 131 265 133.5 250C181.5 257 190.5 182.5 190.5 182.5C190.5 182.5 164.609 213.589 141.5 216.5Z" fill="#EE9575"/>
<path d="M170.5 131.5C162.909 129.66 156.5 124 156.5 124C156.5 124 171.573 125.737 181 124C200 120.5 218.5 110.5 218.5 110.5L206.5 127C206.5 127 187 135.5 170.5 131.5Z" fill="#EE9575"/>
<path d="M254 365.5C252.879 351.649 243.5 331.5 243.5 331.5L271.5 365.5L281 433.5C281 433.5 275.072 441.822 273.5 448C270.666 459.137 278.5 477 278.5 477C278.5 477 260.611 459.283 254 445C247.932 431.891 246.062 423.435 245.5 409C244.827 391.704 255.396 382.753 254 365.5Z" fill="#EE9575"/>
<path d="M223 416.5C222.959 423.278 226.541 426.722 226.5 433.5C226.461 440.087 223 450 223 450C223 450 207.004 445.03 203 436.5C199.682 429.43 200.055 423.734 203 416.5C207.228 406.114 226.5 400 226.5 400C226.5 400 223.039 409.913 223 416.5Z" fill="#EE9575"/>
<path d="M214.5 16C210.504 9.46774 206.5 -4 206.5 -4L181 8C181 8 189.847 24.6141 200 29C211.137 33.811 231 27 231 27C231 27 218.25 22.1291 214.5 16Z" stroke="#EE9575" stroke-width="8" stroke-linecap="round" stroke-linejoin="round"/>
<path d="M195.5 60.5C178.221 52.3183 156.5 29 156.5 29L146.5 44C146.5 44 154.86 67.6124 172.5 80C188.442 91.1953 231 105 231 105L255 71.5C255 71.5 216.645 70.5124 195.5 60.5Z" stroke="#EE9575" stroke-width="8" stroke-linecap="round" stroke-linejoin="round"/>
<path d="M146.5 149.5C131.34 143.448 113 110.5 113 110.5L104 149.5C104 149.5 125.982 172.11 141.5 174.5C164.407 178.028 200 154 200 154L206.5 135.5C206.5 135.5 168.261 158.188 146.5 149.5Z" stroke="#EE9575" stroke-width="8" stroke-linecap="round" stroke-linejoin="round"/>
<path d="M141.5 216.5C123.316 218.79 96 205 96 205V257L113 279.5C113 279.5 103.495 316.582 116.5 318C131.5 298.5 207 304.5 207 304.5C207 304.5 131 265 133.5 250C181.5 257 190.5 182.5 190.5 182.5C190.5 182.5 164.609 213.589 141.5 216.5Z" stroke="#EE9575" stroke-width="8" stroke-linecap="round" stroke-linejoin="round"/>
<path d="M170.5 131.5C162.909 129.66 156.5 124 156.5 124C156.5 124 171.573 125.737 181 124C200 120.5 218.5 110.5 218.5 110.5L206.5 127C206.5 127 187 135.5 170.5 131.5Z" stroke="#EE9575" stroke-width="8" stroke-linecap="round" stroke-linejoin="round"/>
<path d="M254 365.5C252.879 351.649 243.5 331.5 243.5 331.5L271.5 365.5L281 433.5C281 433.5 275.072 441.822 273.5 448C270.666 459.137 278.5 477 278.5 477C278.5 477 260.611 459.283 254 445C247.932 431.891 246.062 423.435 245.5 409C244.827 391.704 255.396 382.753 254 365.5Z" stroke="#EE9575" stroke-width="8" stroke-linecap="round" stroke-linejoin="round"/>
<path d="M223 416.5C222.959 423.278 226.541 426.722 226.5 433.5C226.461 440.087 223 450 223 450C223 450 207.004 445.03 203 436.5C199.682 429.43 200.055 423.734 203 416.5C207.228 406.114 226.5 400 226.5 400C226.5 400 223.039 409.913 223 416.5Z" stroke="#EE9575" stroke-width="8" stroke-linecap="round" stroke-linejoin="round"/>
</g>
</svg>
