<svg width="165" height="165" viewBox="0 0 165 165" fill="none" xmlns="http://www.w3.org/2000/svg">
<rect width="165" height="165" rx="10" fill="#564842"/>
<circle cx="82.5" cy="82.5" r="74.5" fill="#CAB9B1"/>
<g clip-path="url(#clip0_272_5805)">
<g clip-path="url(#clip1_272_5805)">
<path d="M69.3942 78.0008C72.653 64.8308 91.3744 64.8308 94.6331 78.0008L104.005 115.877C106.033 124.075 99.8302 132 91.3857 132H72.6416C64.1971 132 57.9939 124.075 60.0222 115.878L69.3942 78.0008Z" fill="#EAE7DB"/>
</g>
</g>
<path fill-rule="evenodd" clip-rule="evenodd" d="M63.0529 94.2327H80.0128H84.3566H101.317C118.599 94.2327 127.745 73.7919 116.229 60.9057L97.2732 39.6942C93.2036 35.1404 87.6676 32.9666 82.1847 33.021C76.7019 32.9666 71.1659 35.1404 67.0963 39.6942L48.1401 60.9057C36.6241 73.7919 45.7706 94.2327 63.0529 94.2327Z" fill="#95271F"/>
<mask id="mask0_272_5805" style="mask-type:alpha" maskUnits="userSpaceOnUse" x="43" y="33" width="79" height="62">
<path fill-rule="evenodd" clip-rule="evenodd" d="M63.0392 94.2385H80.0136H84.3573H101.332C118.612 94.2385 127.759 73.8023 116.248 60.915L97.2777 39.6778C93.2077 35.1214 87.67 32.9464 82.1855 33.001C76.7009 32.9464 71.1632 35.1214 67.0933 39.6778L48.1233 60.915C36.6118 73.8023 45.7592 94.2385 63.0392 94.2385Z" fill="#95271F"/>
</mask>
<g mask="url(#mask0_272_5805)">
<ellipse cx="90.5156" cy="44.4984" rx="9.5" ry="9.50178" fill="#EAE7DB"/>
<ellipse cx="113.016" cy="69.0029" rx="13" ry="13.0024" fill="#EAE7DB"/>
<ellipse cx="59.5156" cy="63.5016" rx="16.5" ry="16.5031" fill="#EAE7DB"/>
</g>
<defs>
<clipPath id="clip0_272_5805">
<rect width="60" height="70" fill="white" transform="translate(52.0137 62)"/>
</clipPath>
<clipPath id="clip1_272_5805">
<rect width="60" height="78" fill="white" transform="translate(52.0137 58)"/>
</clipPath>
</defs>
</svg>
