<svg width="367" height="379" viewBox="0 0 367 379" fill="none" xmlns="http://www.w3.org/2000/svg">
    <path class="flower" d="M161 233.5L165 244" stroke="#DB6547" stroke-width="8" stroke-linecap="round" stroke-linejoin="round"/>
    <path class="flower" d="M179 237L186 245.5" stroke="#DB6547" stroke-width="8" stroke-linecap="round" stroke-linejoin="round"/>
    <path class="flower" d="M245.182 244L247.095 254.844" stroke="#DB6547" stroke-width="8" stroke-linecap="round" stroke-linejoin="round"/>
    <path class="flower" d="M227.986 317L215.83 327.561" stroke="#DB6547" stroke-width="8" stroke-linecap="round" stroke-linejoin="round"/>
    <path class="flower" d="M27.9863 247L15.8299 257.561" stroke="#DB6547" stroke-width="8" stroke-linecap="round" stroke-linejoin="round"/>
    <path class="flower" d="M34.9863 270L22.8299 280.561" stroke="#DB6547" stroke-width="8" stroke-linecap="round" stroke-linejoin="round"/>
    <path class="flower" d="M362.742 223.418L347.076 227.143" stroke="#DB6547" stroke-width="8" stroke-linecap="round" stroke-linejoin="round"/>
    <path class="flower" d="M362 253L338 244.633" stroke="#DB6547" stroke-width="8" stroke-linecap="round" stroke-linejoin="round"/>
    <path class="flower" d="M236.959 331L228.764 344.862" stroke="#DB6547" stroke-width="8" stroke-linecap="round" stroke-linejoin="round"/>
    <path class="flower" d="M312 136.5L316 147" stroke="#DB6547" stroke-width="8" stroke-linecap="round" stroke-linejoin="round"/>
    <path class="flower" d="M251.537 69L236.359 79.9303" stroke="#DB6547" stroke-width="8" stroke-linecap="round" stroke-linejoin="round"/>
    <path class="flower" d="M37.5723 65.8953L52.9262 55.214" stroke="#DB6547" stroke-width="8" stroke-linecap="round" stroke-linejoin="round"/>
    <path class="flower" d="M257.109 82L247.367 97.9666" stroke="#DB6547" stroke-width="8" stroke-linecap="round" stroke-linejoin="round"/>
    <path class="flower" d="M32.2129 52.8056L42.2139 37" stroke="#DB6547" stroke-width="8" stroke-linecap="round" stroke-linejoin="round"/>
    <path class="flower" d="M42.1504 359.022L49.7161 367.329" stroke="#DB6547" stroke-width="8" stroke-linecap="round" stroke-linejoin="round"/>
    <path class="flower" d="M82.2793 165.558L89.6048 157.038" stroke="#DB6547" stroke-width="8" stroke-linecap="round" stroke-linejoin="round"/>
    <path class="flower" d="M153.906 112.52L161.232 104" stroke="#DB6547" stroke-width="8" stroke-linecap="round" stroke-linejoin="round"/>
    <path class="flower" d="M247.906 187.52L255.232 179" stroke="#DB6547" stroke-width="8" stroke-linecap="round" stroke-linejoin="round"/>
    <path class="flower" d="M328 135L335 143.5" stroke="#DB6547" stroke-width="8" stroke-linecap="round" stroke-linejoin="round"/>
    <path class="flower" d="M56.4922 351.769L66.1177 357.117" stroke="#DB6547" stroke-width="8" stroke-linecap="round" stroke-linejoin="round"/>
    <path class="flower" d="M73.3359 152.204L77.4737 142" stroke="#DB6547" stroke-width="8" stroke-linecap="round" stroke-linejoin="round"/>

    <path class="flower" d="M195.32 134.149C197.339 138.65 204.721 142.589 204.721 142.589C204.721 142.589 208.736 134.571 207.439 129.524C205.97 123.806 196.862 118.718 196.862 118.718C196.862 118.718 192.841 128.624 195.32 134.149Z" fill="#6B7050" stroke="#6B7050" stroke-width="8" stroke-linecap="round" stroke-linejoin="round"/>
    <path class="flower" d="M110.233 216.593C109.238 221.424 112.921 228.938 112.921 228.938C112.921 228.938 120.867 224.784 122.768 219.932C124.922 214.435 120.512 204.98 120.512 204.98C120.512 204.98 111.456 210.662 110.233 216.593Z" fill="#6B7050" stroke="#6B7050" stroke-width="8" stroke-linecap="round" stroke-linejoin="round"/>
    <path class="flower" d="M104.925 325.325C100.466 323.214 92.295 325.014 92.295 325.014C92.295 325.014 94.4495 333.718 98.7133 336.713C103.545 340.107 113.774 338.061 113.774 338.061C113.774 338.061 110.398 327.917 104.925 325.325Z" fill="#6B7050" stroke="#6B7050" stroke-width="8" stroke-linecap="round" stroke-linejoin="round"/>
    <path class="flower" d="M100.025 357.248C93.7924 360.266 88.5684 370.787 88.5684 370.787C88.5684 370.787 99.9843 376.092 107.013 374.065C114.977 371.769 121.744 358.78 121.744 358.78C121.744 358.78 107.678 353.543 100.025 357.248Z" fill="#6B7050" stroke="#6B7050" stroke-width="8" stroke-linecap="round" stroke-linejoin="round"/>
    <path class="flower" d="M117.875 95.6402C115.333 91.4131 107.533 88.3851 107.533 88.3851C107.533 88.3851 104.505 96.8252 106.396 101.681C108.538 107.182 118.189 111.146 118.189 111.146C118.189 111.146 120.997 100.83 117.875 95.6402Z" fill="#6B7050" stroke="#6B7050" stroke-width="8" stroke-linecap="round" stroke-linejoin="round"/>
    <path class="flower" d="M239.041 152.843C235.028 158.616 222.629 160 222.629 160C222.629 160 220.702 149.387 223.594 143.735C226.958 137.163 239.041 133 239.041 133C239.041 133 243.449 146.503 239.041 152.843Z" fill="#6B7050" stroke="#6B7050" stroke-width="8" stroke-linecap="round" stroke-linejoin="round"/>
    <path class="flower" d="M331.041 35.8434C327.028 41.6165 314.629 43 314.629 43C314.629 43 312.702 32.3866 315.594 26.7349C318.958 20.1626 331.041 16 331.041 16C331.041 16 335.449 29.503 331.041 35.8434Z" fill="#6B7050" stroke="#6B7050" stroke-width="8" stroke-linecap="round" stroke-linejoin="round"/>
    <path class="flower" d="M261.169 365.944C254.643 368.56 243.526 362.898 243.526 362.898C243.526 362.898 247.751 352.974 253.275 349.843C259.698 346.203 272.08 349.37 272.08 349.37C272.08 349.37 268.337 363.072 261.169 365.944Z" fill="#6B7050" stroke="#6B7050" stroke-width="8" stroke-linecap="round" stroke-linejoin="round"/>
    <path class="flower" d="M356.923 299.177C352.088 304.282 339.622 303.788 339.622 303.788C339.622 303.788 339.311 293.006 343.019 287.853C347.332 281.86 359.903 279.559 359.903 279.559C359.903 279.559 362.233 293.571 356.923 299.177Z" fill="#6B7050" stroke="#6B7050" stroke-width="8" stroke-linecap="round" stroke-linejoin="round"/>
    <path class="flower" d="M352.923 192.177C348.088 197.282 335.622 196.788 335.622 196.788C335.622 196.788 335.311 186.006 339.019 180.853C343.332 174.86 355.903 172.559 355.903 172.559C355.903 172.559 358.233 186.571 352.923 192.177Z" fill="#6B7050" stroke="#6B7050" stroke-width="8" stroke-linecap="round" stroke-linejoin="round"/>
    <path class="flower" d="M47.3812 258.987C42.3478 254.078 43.0247 241.62 43.0247 241.62C43.0247 241.62 53.8106 241.467 58.9088 245.251C64.8376 249.651 66.9538 262.254 66.9538 262.254C66.9538 262.254 52.9093 264.378 47.3812 258.987Z" fill="#6B7050" stroke="#6B7050" stroke-width="8" stroke-linecap="round" stroke-linejoin="round"/>
    <path class="flower" d="M320.544 276.993C321.199 281.291 327.705 285.438 327.705 285.438C327.705 285.438 331.667 280.072 331.601 276.146C331.525 271.581 325.952 265.977 325.952 265.977C325.952 265.977 319.825 272.272 320.544 276.993Z" fill="#6B7050" stroke="#6B7050" stroke-width="8" stroke-linecap="round" stroke-linejoin="round"/>
    <path class="flower" d="M268.038 113.55C268.693 117.848 275.199 121.995 275.199 121.995C275.199 121.995 279.161 116.629 279.096 112.703C279.019 108.138 273.446 102.534 273.446 102.534C273.446 102.534 267.319 108.829 268.038 113.55Z" fill="#6B7050" stroke="#6B7050" stroke-width="8" stroke-linecap="round" stroke-linejoin="round"/>
    <path class="flower" d="M105.579 166.178C103.023 169.696 104.735 177.219 104.735 177.219C104.735 177.219 111.326 176.187 114.039 173.348C117.194 170.047 117.168 162.144 117.168 162.144C117.168 162.144 108.386 162.315 105.579 166.178Z" fill="#6B7050" stroke="#6B7050" stroke-width="8" stroke-linecap="round" stroke-linejoin="round"/>
    <path class="flower" d="M204.878 274.799C208.755 276.768 215.914 273.891 215.914 273.891C215.914 273.891 213.855 267.546 210.625 265.314C206.868 262.719 199.067 263.99 199.067 263.99C199.067 263.99 200.621 272.636 204.878 274.799Z" fill="#6B7050" stroke="#6B7050" stroke-width="8" stroke-linecap="round" stroke-linejoin="round"/>
    <path class="flower" d="M195.167 299.621C202.644 299.13 206.886 291.481 206.886 291.481C206.886 291.481 195.132 286.255 188.034 286.053C179.78 285.817 172.42 292.222 172.42 292.222C172.42 292.222 186.955 300.159 195.167 299.621Z" fill="#6B7050" stroke="#6B7050" stroke-width="8" stroke-linecap="round" stroke-linejoin="round"/>
    <path class="flower" d="M71.8013 94.1421C75.0959 87.9306 87.2403 85.0752 87.2403 85.0752C87.2403 85.0752 90.4222 95.3821 88.2258 101.339C85.6716 108.266 74.1729 113.843 74.1729 113.843C74.1729 113.843 68.183 100.964 71.8013 94.1421Z" fill="#6B7050" stroke="#6B7050" stroke-width="8" stroke-linecap="round" stroke-linejoin="round"/>

    <g class="flower">
        <path d="M185.02 181C185.02 181 180.495 159 194 157C209 158 205.52 178 205.52 178C205.52 178 225.515 174 228.015 187.5C226.015 202 209.02 197.5 209.02 197.5C209.02 197.5 220.98 215 210.5 222C199.495 225 192.5 208 192.5 208C192.5 208 183.494 223 172 220C160.494 211.5 176 196.048 176 196.048C176 196.048 156.015 198 158.02 178.5C171.015 166 185.02 181 185.02 181Z" fill="#DB6547" stroke="#DB6547" stroke-width="8" stroke-linecap="round" stroke-linejoin="round"/>
        <circle cx="193" cy="191" r="5.5" fill="#FFD2AA" stroke="#FFD2AA"/>
    </g>
    <g class="flower">
        <path d="M43.1414 185C43.1414 185 38.6157 163 52.1211 161C67.1211 162 63.6414 182 63.6414 182C63.6414 182 83.636 178 86.136 191.5C84.136 206 67.1414 201.5 67.1414 201.5C67.1414 201.5 79.1008 219 68.6211 226C57.6157 229 50.6211 212 50.6211 212C50.6211 212 41.6153 227 30.1211 224C18.6153 215.5 34.1211 200.048 34.1211 200.048C34.1211 200.048 14.1361 202 16.1414 182.5C29.1361 170 43.1414 185 43.1414 185Z" fill="#DB6547" stroke="#DB6547" stroke-width="8" stroke-linecap="round" stroke-linejoin="round"/>
        <circle cx="51.1211" cy="195" r="5.5" fill="#FFD2AA" stroke="#FFD2AA"/>
    </g>
    <g class="flower">
        <path d="M88.1414 28C88.1414 28 83.6157 6 97.1211 4C112.121 5 108.641 25 108.641 25C108.641 25 128.636 21 131.136 34.5C129.136 49 112.141 44.5 112.141 44.5C112.141 44.5 124.101 62 113.621 69C102.616 72 95.6211 55 95.6211 55C95.6211 55 86.6153 70 75.1211 67C63.6153 58.5 79.1211 43.0479 79.1211 43.0479C79.1211 43.0479 59.1361 45 61.1414 25.5C74.1361 13 88.1414 28 88.1414 28Z" fill="#DB6547" stroke="#DB6547" stroke-width="8" stroke-linecap="round" stroke-linejoin="round"/>
        <circle cx="96.1211" cy="38" r="5.5" fill="#FFD2AA" stroke="#FFD2AA"/>
    </g>
    <g class="flower">
        <path d="M318.141 80C318.141 80 313.616 58 327.121 56C342.121 57 338.641 77 338.641 77C338.641 77 358.636 73 361.136 86.5C359.136 101 342.141 96.5 342.141 96.5C342.141 96.5 354.101 114 343.621 121C332.616 124 325.621 107 325.621 107C325.621 107 316.615 122 305.121 119C293.615 110.5 309.121 95.0479 309.121 95.0479C309.121 95.0479 289.136 97 291.141 77.5C304.136 65 318.141 80 318.141 80Z" fill="#DB6547" stroke="#DB6547" stroke-width="8" stroke-linecap="round" stroke-linejoin="round"/>
        <circle cx="326.121" cy="90" r="5.5" fill="#FFD2AA" stroke="#FFD2AA"/>
    </g>
    <g class="flower">
        <path d="M304.141 324C304.141 324 299.616 302 313.121 300C328.121 301 324.641 321 324.641 321C324.641 321 344.636 317 347.136 330.5C345.136 345 328.141 340.5 328.141 340.5C328.141 340.5 340.101 358 329.621 365C318.616 368 311.621 351 311.621 351C311.621 351 302.615 366 291.121 363C279.615 354.5 295.121 339.048 295.121 339.048C295.121 339.048 275.136 341 277.141 321.5C290.136 309 304.141 324 304.141 324Z" fill="#DB6547" stroke="#DB6547" stroke-width="8" stroke-linecap="round" stroke-linejoin="round"/>
        <circle cx="312.121" cy="334" r="5.5" fill="#FFD2AA" stroke="#FFD2AA"/>
    </g>
    <g class="flower">
        <path d="M155.141 331C155.141 331 150.616 309 164.121 307C179.121 308 175.641 328 175.641 328C175.641 328 195.636 324 198.136 337.5C196.136 352 179.141 347.5 179.141 347.5C179.141 347.5 191.101 365 180.621 372C169.616 375 162.621 358 162.621 358C162.621 358 153.615 373 142.121 370C130.615 361.5 146.121 346.048 146.121 346.048C146.121 346.048 126.136 348 128.141 328.5C141.136 316 155.141 331 155.141 331Z" fill="#DB6547" stroke="#DB6547" stroke-width="8" stroke-linecap="round" stroke-linejoin="round"/>
        <circle cx="163.121" cy="341" r="5.5" fill="#FFD2AA" stroke="#FFD2AA"/>
    </g>
    <g class="flower">
        <path d="M279.317 214.53C279.317 214.53 260.167 202.792 267.941 191.569C278.926 181.305 291.143 197.518 291.143 197.518C291.143 197.518 301.893 180.191 313.454 187.596C322.669 198.969 307.766 208.295 307.766 208.295C307.766 208.295 328.714 211.531 326.658 223.965C321.323 234.048 304.135 227.53 304.135 227.53C304.135 227.53 308.925 244.357 298.877 250.695C284.808 253.281 284.132 231.401 284.132 231.401C284.132 231.401 271.893 247.32 259.033 232.525C258.795 214.496 279.317 214.53 279.317 214.53Z" fill="#DB6547" stroke="#DB6547" stroke-width="8" stroke-linecap="round" stroke-linejoin="round"/>
        <circle cx="292.071" cy="215.543" r="5.5" transform="rotate(-46.8694 292.071 215.543)" fill="#FFD2AA" stroke="#FFD2AA"/>
    </g>
    <g class="flower">
        <path d="M98.0707 269.785C98.0707 269.785 78.9211 258.048 86.6947 246.824C97.6794 236.561 109.896 252.773 109.896 252.773C109.896 252.773 120.647 235.447 132.208 242.852C141.423 254.224 126.52 263.551 126.52 263.551C126.52 263.551 147.468 266.787 145.412 279.221C140.077 289.303 122.889 282.786 122.889 282.786C122.889 282.786 127.679 299.613 117.631 305.95C103.562 308.536 102.886 286.656 102.886 286.656C102.886 286.656 90.6474 302.576 77.7873 287.781C77.5488 269.751 98.0707 269.785 98.0707 269.785Z" fill="#DB6547" stroke="#DB6547" stroke-width="8" stroke-linecap="round" stroke-linejoin="round"/>
        <circle cx="110.825" cy="270.798" r="5.5" transform="rotate(-46.8694 110.825 270.798)" fill="#FFD2AA" stroke="#FFD2AA"/>
    </g>
    <g class="flower">
        <path d="M167.071 58.7853C167.071 58.7853 147.921 47.0475 155.695 35.824C166.679 25.5608 178.896 41.7735 178.896 41.7735C178.896 41.7735 189.647 24.4468 201.208 31.8517C210.423 43.2245 195.52 52.5506 195.52 52.5506C195.52 52.5506 216.468 55.7868 214.412 68.2205C209.077 78.3032 191.889 71.7856 191.889 71.7856C191.889 71.7856 196.679 88.613 186.631 94.9504C172.562 97.5362 171.886 75.656 171.886 75.656C171.886 75.656 159.647 91.5756 146.787 76.7807C146.549 58.7514 167.071 58.7853 167.071 58.7853Z" fill="#DB6547" stroke="#DB6547" stroke-width="8" stroke-linecap="round" stroke-linejoin="round"/>
        <circle cx="179.825" cy="59.7984" r="5.5" transform="rotate(-46.8694 179.825 59.7984)" fill="#FFD2AA" stroke="#FFD2AA"/>
    </g>
    <g class="flower">
        <path d="M28.2804 315.491C28.2804 315.491 14.8593 307.264 20.3074 299.398C28.0062 292.205 36.5686 303.568 36.5686 303.568C36.5686 303.568 44.1031 291.424 52.206 296.614C58.6642 304.585 48.2195 311.121 48.2195 311.121C48.2195 311.121 62.9009 313.389 61.4599 322.103C57.7211 329.17 45.6744 324.602 45.6744 324.602C45.6744 324.602 49.0315 336.396 41.9896 340.837C32.129 342.65 31.6551 327.315 31.6551 327.315C31.6551 327.315 23.0777 338.472 14.0647 328.103C13.8975 315.467 28.2804 315.491 28.2804 315.491Z" fill="#DB6547" stroke="#DB6547" stroke-width="8" stroke-linecap="round" stroke-linejoin="round"/>
        <circle cx="37.2192" cy="316.201" r="3.70515" transform="rotate(-46.8694 37.2192 316.201)" fill="#FFD2AA" stroke="#FFD2AA"/>
    </g>
    <g class="flower">
        <path d="M264.28 36.4907C264.28 36.4907 250.859 28.2642 256.307 20.3981C264.006 13.205 272.569 24.5678 272.569 24.5678C272.569 24.5678 280.103 12.4243 288.206 17.6141C294.664 25.5848 284.22 32.1211 284.22 32.1211C284.22 32.1211 298.901 34.3892 297.46 43.1034C293.721 50.1699 281.674 45.602 281.674 45.602C281.674 45.602 285.032 57.3956 277.99 61.8373C268.129 63.6495 267.655 48.3147 267.655 48.3147C267.655 48.3147 259.078 59.472 250.065 49.1029C249.898 36.4669 264.28 36.4907 264.28 36.4907Z" fill="#DB6547" stroke="#DB6547" stroke-width="8" stroke-linecap="round" stroke-linejoin="round"/>
        <circle cx="273.219" cy="37.2007" r="3.70515" transform="rotate(-46.8694 273.219 37.2007)" fill="#FFD2AA" stroke="#FFD2AA"/>
    </g>
    <g class="flower">
        <path d="M249.446 280.798C249.446 280.798 255.967 266.47 264.441 270.914C272.523 277.673 262.295 287.563 262.295 287.563C262.295 287.563 275.27 293.553 271.112 302.231C263.992 309.617 256.225 300.052 256.225 300.052C256.225 300.052 255.773 314.9 246.948 314.538C239.477 311.693 242.534 299.177 242.534 299.177C242.534 299.177 231.241 303.954 225.97 297.509C222.963 287.945 238.125 285.596 238.125 285.596C238.125 285.596 226.001 278.45 235.187 268.234C247.708 266.521 249.446 280.798 249.446 280.798Z" fill="#DB6547" stroke="#DB6547" stroke-width="8" stroke-linecap="round" stroke-linejoin="round"/>
        <circle cx="249.837" cy="289.756" r="3.70515" transform="rotate(36.094 249.837 289.756)" fill="#FFD2AA" stroke="#FFD2AA"/>
    </g>
    <g class="flower">
        <path d="M32.4462 94.7981C32.4462 94.7981 38.9666 80.4703 47.4408 84.9138C55.5229 91.6734 45.2946 101.563 45.2946 101.563C45.2946 101.563 58.2696 107.553 54.1115 116.231C46.9921 123.617 39.2255 114.052 39.2255 114.052C39.2255 114.052 38.773 128.9 29.9478 128.538C22.4765 125.693 25.5343 113.177 25.5343 113.177C25.5343 113.177 14.2408 117.954 8.96993 111.509C5.96335 101.945 21.1247 99.5959 21.1247 99.5959C21.1247 99.5959 9.00056 92.4499 18.1875 82.2345C30.7078 80.5206 32.4462 94.7981 32.4462 94.7981Z" fill="#DB6547" stroke="#DB6547" stroke-width="8" stroke-linecap="round" stroke-linejoin="round"/>
        <circle cx="32.8367" cy="103.756" r="3.70515" transform="rotate(36.094 32.8367 103.756)" fill="#FFD2AA" stroke="#FFD2AA"/>
    </g>
    <g class="flower">
        <path d="M133.151 137.308C133.151 137.308 126.604 127.285 132.909 123.652C140.542 121.214 142.728 131.811 142.728 131.811C142.728 131.811 151.859 125.918 155.739 132.122C157.583 139.703 148.277 140.795 148.277 140.795C148.277 140.795 157.629 147.133 153.802 152.653C148.932 156.293 142.139 149.232 142.139 149.232C142.139 149.232 140.607 158.43 134.322 159.191C126.955 157.226 131.621 146.533 131.621 146.533C131.621 146.533 122.094 151.409 119.275 141.348C123.273 132.609 133.151 137.308 133.151 137.308Z" fill="#DB6547" stroke="#DB6547" stroke-width="8" stroke-linecap="round" stroke-linejoin="round"/>
        <circle cx="139.062" cy="140.705" r="2.69793" transform="rotate(-21.5254 139.062 140.705)" fill="#FFD2AA" stroke="#FFD2AA"/>
    </g>
    <g class="flower">
        <path d="M277.548 146.311C277.548 146.311 281.322 134.95 288.089 137.626C294.746 142.085 287.81 150.389 287.81 150.389C287.81 150.389 298.105 153.871 295.661 160.769C290.874 166.929 284.229 160.323 284.229 160.323C284.229 160.323 285.086 171.588 278.383 172.026C272.503 170.478 273.805 160.767 273.805 160.767C273.805 160.767 265.651 165.291 261.145 160.843C258.099 153.853 269.374 150.853 269.374 150.853C269.374 150.853 259.629 146.428 265.752 137.962C275.081 135.655 277.548 146.311 277.548 146.311Z" fill="#DB6547" stroke="#DB6547" stroke-width="8" stroke-linecap="round" stroke-linejoin="round"/>
        <circle cx="278.567" cy="153.054" r="2.69793" transform="rotate(30 278.567 153.054)" fill="#FFD2AA" stroke="#FFD2AA"/>
    </g>
</svg>
