<svg width="1920" height="838" viewBox="0 0 1920 838" fill="none" xmlns="http://www.w3.org/2000/svg">
<path d="M-13.5 195.5C-13.5 195.5 -9.69084 172.138 1.5 165C22.57 151.561 46.5 210.5 46.5 210.5L157 222C157 222 141.95 197.176 155 185.5C174 168.5 219.5 230.5 219.5 230.5C219.5 230.5 210.35 192.096 226 183.5C261.5 164 282.5 248 282.5 248C282.5 248 295.5 167.5 321 180C340.977 189.792 331.714 228.786 327.602 242.882C333.145 226.002 352.52 173.708 377 183.5C389.5 188.5 377 219 377 219C377 219 392.5 190 423.5 195.5C454.5 201 466.8 219 468 219C469.2 219 444.5 194.5 499 178.5C553.5 162.5 568 230.5 568 230.5C568 230.5 576.794 172.248 611.5 165.5C665.5 155 678.5 208 678.5 208C678.5 208 712.391 145.108 745 148C782.405 151.317 779 221.5 779 221.5C779 221.5 830.655 140.434 866.5 171.5C889 191 850 239.5 850 239.5C850 239.5 900.754 180.877 918 204.5C930.379 221.456 906 252.5 906 252.5C906 252.5 1003 142.5 1036 174C1046.61 184.132 1029.4 209.352 1017.13 224.633C1034.45 206.205 1069.94 175.581 1101 194C1114.56 202.04 1100.5 230.444 1094.46 241.268C1104.89 223.959 1146.7 160.531 1187 183.5C1205.29 193.921 1180.5 237 1180.5 237L1253 188.5C1253 188.5 1252.98 89.3537 1288 109C1306.82 119.56 1303 151 1303 151C1303 151 1311.77 116.138 1339 116.5C1361.37 116.798 1407.5 140.5 1407.5 140.5L1469.5 163.5C1469.5 163.5 1469 132.5 1509 147.5C1549 162.5 1531 227.6 1533 224C1535 220.4 1564.5 164 1591 157.5C1617.5 151 1615 188.5 1615 188.5C1615 188.5 1661.5 109 1699 126.5C1724.66 138.473 1676 196 1676 196L1719 187C1719 187 1781.76 110.478 1812 138C1821.76 146.885 1824.5 163.5 1824.5 163.5H1853.5C1853.5 163.5 1881.82 123.126 1904 127C1926.72 130.968 1920.5 177.5 1920.5 177.5C1920.5 177.5 1927.01 154.436 1939 152.5C1943.26 151.812 1950 153.5 1950 153.5V594.5H-13.5V195.5Z" fill="#495235" stroke="#495235" stroke-width="8" stroke-linecap="round" stroke-linejoin="round"/>
<rect x="-14" y="643" width="1950" height="461" fill="#495235"/>
<path d="M1945.14 222.59C1949.5 225.025 1951.48 242.637 1951.48 242.637L1935.28 382.736L1921.55 368.74C1921.55 368.74 1906.36 388.216 1892.46 389.477C1879.58 390.645 1868.92 387.573 1861.91 376.705C1853.1 363.034 1857.63 345.297 1871.02 336.066C1880.46 329.561 1900.21 333.006 1900.21 333.006C1900.21 333.006 1873.02 322.547 1857.87 310.541C1847.86 302.605 1839.22 278.802 1850.21 267.095C1858.58 258.175 1869.53 258.458 1881.15 262.258C1891.45 265.623 1901.83 280.741 1901.83 280.741C1901.83 280.741 1917.88 207.353 1945.14 222.59Z" fill="#EAE7DB" stroke="#EAE7DB" stroke-width="8" stroke-linecap="round" stroke-linejoin="round"/>
<path d="M625.238 140.04C630.354 122.968 636.337 113.816 653.604 110.41C665.867 107.99 675.015 111.616 679.877 117.128C689.092 127.575 688.996 149.819 688.996 149.819C688.996 149.819 695.87 136.855 706.895 129.272C719.681 120.477 733.489 115.308 746.545 124.121C759.888 133.126 758.824 153.4 751.267 159.699C737.556 171.127 719.613 180.275 719.613 180.275C719.613 180.275 742.378 186.256 757.571 191.178C775.024 196.832 783.289 207.519 784.409 221.133C785.529 234.748 770.778 248.805 751.707 252.582C738.959 255.107 716.968 233.548 716.968 233.548C716.968 233.548 717.6 266.668 712.585 276.596C707.128 287.398 696.978 294.095 685.393 296.866C670.016 300.545 656.923 296.069 651.187 280.956C646.013 267.322 660.654 245.166 660.654 245.166C660.654 245.166 647.961 247.337 633.107 249.46C617.883 251.636 606.437 246.862 597.761 235.895C587.31 222.685 591.846 206.366 603.321 194.441C613.954 183.39 644.466 199.268 644.466 199.268C644.466 199.268 618.321 163.123 625.238 140.04Z" fill="#CAB9B1" stroke="#CAB9B1" stroke-width="8" stroke-linecap="round" stroke-linejoin="round"/>
<path d="M1655.77 193.614C1665.45 200.337 1671.26 219.377 1672.48 223.687C1671.21 218.89 1665.63 195.485 1673.03 181.488C1681.47 165.53 1693.95 156.136 1709.97 155.812C1729.61 155.415 1741.89 171.623 1741.75 192.647C1741.63 210.122 1719.36 234.111 1719.36 234.111C1719.36 234.111 1742.35 218.212 1757.36 218.595C1774.73 219.039 1791.69 223.259 1793.45 241.574C1795.06 258.44 1784.03 273.416 1768.47 280.796C1753.33 287.974 1730.22 273.039 1730.22 273.039C1730.22 273.039 1740.71 292.326 1738.27 306.419C1735.68 321.443 1730.44 335.155 1716.7 340.301C1701.24 346.09 1690.15 334.399 1684.41 319.741C1680.08 308.672 1677.34 287.768 1677.34 287.768C1677.34 287.768 1668.79 300.577 1660.96 304.809C1646.9 312.413 1629.91 311.998 1624.6 298.046C1620.85 288.197 1621.34 278.539 1627.76 268.64C1632.55 261.251 1647.12 254.5 1647.12 254.5C1647.12 254.5 1622.39 248.055 1615.68 234.478C1608.54 220.015 1604.46 201.582 1618.05 189.752C1630.66 178.781 1643.96 185.408 1655.77 193.614Z" fill="#CAB9B1" stroke="#CAB9B1" stroke-width="8" stroke-linecap="round" stroke-linejoin="round"/>
<path d="M1431.12 50.8489C1447.79 46.1314 1458.06 46.2689 1468.03 58.6951C1475.11 67.5206 1475.76 76.9441 1473.04 83.8265C1467.88 96.8719 1448.84 108.424 1448.84 108.424C1448.84 108.424 1462.73 107.301 1473.71 112.408C1486.46 118.33 1496.52 126.989 1494.33 142.34C1492.1 158.028 1474.34 167.753 1465.87 164.829C1450.5 159.523 1435.34 149.543 1435.34 149.543C1435.34 149.543 1452.05 164.77 1454.06 179.846C1456.36 197.163 1450.61 209.551 1439.44 217.592C1428.27 225.633 1410.23 220.846 1399.2 207.129C1391.83 197.959 1388.75 175.223 1388.75 175.223C1388.75 175.223 1360.72 193.061 1350.18 194.126C1338.72 195.284 1328.85 190.434 1321.75 182.351C1312.31 171.622 1310.78 158.508 1321.35 145.885C1330.88 134.5 1355.79 134.96 1355.79 134.96C1355.79 134.96 1333.82 131.31 1325.94 120.198C1317.85 108.809 1319.08 103.583 1324.9 90.7091C1331.91 75.2026 1347.71 70.4015 1362.59 73.6077C1376.38 76.5785 1388.38 97.6409 1388.38 97.6409C1388.38 97.6409 1408.57 57.2273 1431.12 50.8489Z" fill="#EAE7DB" stroke="#EAE7DB" stroke-width="8" stroke-linecap="round" stroke-linejoin="round"/>
<path d="M1788.87 151.823C1783.18 157.697 1779.56 165.415 1784.79 172.129C1790.02 178.842 1798.38 185.973 1812.31 186.314C1834.38 186.854 1845.97 170.869 1845.97 170.869C1845.97 170.869 1849.78 185.509 1856.02 195.104C1864.22 207.714 1881.07 217.308 1889.02 207.218C1894.64 200.085 1892.34 192.134 1888.64 183.495C1883.78 172.164 1870.02 157.67 1870.02 157.67C1870.02 157.67 1882.53 167.181 1891.11 165.907C1900.98 164.44 1908.81 158.186 1909.01 148.147C1909.23 137.347 1899.57 131.264 1889.11 128.082C1878.63 124.892 1862.85 134.16 1861.01 135.277C1862.45 134.383 1872.28 128.115 1874.94 121.393C1878.87 111.474 1878.21 101.122 1869.81 93.9682C1860.74 86.2557 1847.34 86.638 1840.05 95.4459C1834.49 102.166 1839.01 116.777 1840.57 121.199C1838.99 117.073 1833.55 104.256 1825.79 100.06C1815.65 94.5785 1803.5 92.3695 1796.86 101.282C1791.11 109.013 1794.29 117.721 1799.2 126.432C1804.39 135.621 1821.24 142.138 1821.24 142.138C1821.24 142.138 1798.22 142.159 1788.87 151.823Z" fill="#CAB9B1" stroke="#CAB9B1" stroke-width="8" stroke-linecap="round" stroke-linejoin="round"/>
<path d="M1268.22 217.823C1273.9 223.697 1277.53 231.415 1272.3 238.129C1267.07 244.842 1258.71 251.973 1244.77 252.314C1222.71 252.854 1211.11 236.869 1211.11 236.869C1211.11 236.869 1207.31 251.509 1201.07 261.104C1192.87 273.714 1176.01 283.308 1168.06 273.218C1162.44 266.085 1164.75 258.134 1168.45 249.495C1173.31 238.164 1187.07 223.67 1187.07 223.67C1187.07 223.67 1174.55 233.181 1165.98 231.907C1156.1 230.44 1148.28 224.186 1148.07 214.147C1147.85 203.347 1157.52 197.264 1167.97 194.082C1178.46 190.892 1194.23 200.16 1196.07 201.277C1194.63 200.383 1184.8 194.115 1182.14 187.393C1178.22 177.474 1178.87 167.122 1187.28 159.968C1196.34 152.256 1209.74 152.638 1217.03 161.446C1222.59 168.166 1218.07 182.777 1216.51 187.199C1218.1 183.073 1223.53 170.256 1231.29 166.06C1241.43 160.579 1253.58 158.37 1260.22 167.282C1265.98 175.013 1262.79 183.721 1257.88 192.432C1252.7 201.621 1235.84 208.138 1235.84 208.138C1235.84 208.138 1258.86 208.159 1268.22 217.823Z" fill="#CAB9B1" stroke="#CAB9B1" stroke-width="8" stroke-linecap="round" stroke-linejoin="round"/>
<path d="M38.8753 190.481C30.6933 193.861 23.8748 200.268 26.5121 210.126C29.1493 219.983 34.8168 231.887 48.922 239.374C71.2562 251.229 89.5569 240.048 89.5569 240.048C89.5569 240.048 87.5373 257.66 90.0442 271.118C93.3388 288.804 106.696 307.686 118.892 300.95C127.513 296.188 128.367 286.502 128.068 275.364C127.676 260.756 119.46 238.213 119.46 238.213C119.46 238.213 128.414 254.787 137.69 257.805C148.379 261.284 158.9 258.59 163.158 247.95C167.739 236.504 160.319 225.057 150.913 216.306C141.487 207.535 121.624 209.392 119.289 209.645C121.126 209.426 133.697 207.739 139.129 201.905C147.143 193.297 150.652 181.884 144.947 169.933C138.796 157.048 124.945 150.608 113.942 156.309C105.547 160.659 104.271 178.604 104.078 184.133C104.123 178.907 103.743 162.415 97.5041 153.959C89.3532 142.91 77.8261 134.337 67.4435 140.482C58.4386 145.811 58.1799 156.758 59.6873 168.592C61.2772 181.074 75.8734 196.662 75.8734 196.662C75.8734 196.662 52.3383 184.92 38.8753 190.481Z" fill="#CAB9B1" stroke="#CAB9B1" stroke-width="8" stroke-linecap="round" stroke-linejoin="round"/>
<path d="M435.211 291.834C438.967 302.023 446.249 310.764 457.699 308.24C469.15 305.717 483.023 299.649 491.947 283.009C506.077 256.66 493.489 233.619 493.489 233.619C493.489 233.619 513.82 237.3 529.431 235.185C549.948 232.406 572.037 217.467 564.475 202.162C559.13 191.342 547.943 189.63 535.056 189.219C518.154 188.681 491.928 197.111 491.928 197.111C491.928 197.111 511.265 187.369 514.929 176.294C519.153 163.531 516.235 150.544 504.009 144.624C490.857 138.255 477.479 146.487 467.181 157.323C456.861 168.181 458.636 192.475 458.884 195.334C458.666 193.083 456.951 177.672 450.306 170.658C440.501 160.309 427.367 155.248 413.437 161.358C398.42 167.945 390.711 184.35 397.099 198.132C401.972 208.648 422.703 211.447 429.093 212.067C423.051 211.649 403.97 210.964 394.072 217.967C381.141 227.116 371.009 240.544 377.921 253.603C383.916 264.929 396.571 266.004 410.287 264.993C424.753 263.926 443.054 247.251 443.054 247.251C443.054 247.251 429.033 275.068 435.211 291.834Z" fill="#EAE7DB" stroke="#EAE7DB" stroke-width="8" stroke-linecap="round" stroke-linejoin="round"/>
<path d="M121.652 271.242C134.03 275.04 146.96 290.952 149.783 294.578C146.731 290.521 132.439 270.587 134.903 256.099C137.713 239.58 147.061 228.062 163.359 223.939C183.342 218.885 201.852 230.681 209.407 249.819C215.686 265.726 201.642 292.848 201.642 292.848C201.642 292.848 219.379 272.907 234.904 269.668C252.861 265.922 271.792 265.702 280.292 281.928C288.118 296.868 282.3 313.112 269.053 323.538C256.169 333.677 227.022 325.627 227.022 325.627C227.022 325.627 251.962 341.2 255.252 357.498C258.348 372.835 256.902 387.472 243.694 395.861C228.064 405.787 211.049 394.781 198.665 381.017C189.765 371.126 186.414 349.224 186.414 349.224C186.414 349.224 187.693 375.059 177.04 384.57C163.556 396.61 144.508 394.414 130.791 382.64C121.358 374.542 116.452 365.956 117.764 353.593C119.016 341.797 135.079 328.637 135.079 328.637C135.079 328.637 107.374 328.691 95.5337 317.955C82.9209 306.519 71.9919 290.744 81.5924 276.744C90.4945 263.763 106.545 266.608 121.652 271.242Z" fill="#EAE7DB" stroke="#EAE7DB" stroke-width="8" stroke-linecap="round" stroke-linejoin="round"/>
<ellipse cx="1934.11" cy="314.897" rx="18.1082" ry="14.959" transform="rotate(-29.2289 1934.11 314.897)" fill="#FFD2AA"/>
<ellipse cx="1693.46" cy="243.311" rx="13.1208" ry="16.3654" transform="rotate(-29.2289 1693.46 243.311)" fill="#EE9575"/>
<ellipse cx="1849.65" cy="143.092" rx="8.08813" ry="11.0011" transform="rotate(-52.8248 1849.65 143.092)" fill="#EE9575"/>
<ellipse cx="1398.11" cy="130.897" rx="18.1082" ry="14.959" transform="rotate(-29.2289 1398.11 130.897)" fill="#FFD2AA"/>
<ellipse cx="1206.34" cy="208.114" rx="9.47009" ry="6.29081" transform="rotate(-29.2289 1206.34 208.114)" fill="#EE9575"/>
<ellipse cx="679.005" cy="198.593" rx="18.3374" ry="13.3061" transform="rotate(-49.7407 679.005 198.593)" fill="#EE9575"/>
<ellipse cx="458" cy="213.571" rx="14.7585" ry="8.43877" transform="rotate(-29.2289 458 213.571)" fill="#FFD2AA"/>
<ellipse cx="178.984" cy="312.852" rx="11.1845" ry="17.898" transform="rotate(-51.8479 178.984 312.852)" fill="#FFD2AA"/>
<ellipse cx="108.117" cy="211.788" rx="9.74593" ry="5.3924" transform="rotate(50.0385 108.117 211.788)" fill="#EE9575"/>
</svg>
