<svg width="165" height="165" viewBox="0 0 165 165" fill="none" xmlns="http://www.w3.org/2000/svg">
<rect width="165" height="165" rx="10" fill="#CAB9B1"/>
<mask id="mask0_116_1784" style="mask-type:alpha" maskUnits="userSpaceOnUse" x="0" y="0" width="165" height="165">
<rect width="165" height="165" rx="10" fill="#CAB9B1"/>
</mask>
<g mask="url(#mask0_116_1784)">
<path d="M12.3393 24.1706C16.4903 20.7658 27.0039 23.9705 40.0075 32.8243C52.0048 40.9929 74.3652 57.4043 77.7544 59.8956C78.0548 60.1164 78.3567 60.3001 78.6896 60.4682V60.4682C83.511 62.9043 83.6175 69.7509 78.8742 72.3357L12.2039 108.667C3.94192 113.169 -6.13484 107.672 -6.44733 98.268C-6.83026 86.7443 -6.85325 72.6976 -5.36645 63.1825C-2.59951 45.475 0.440939 33.931 12.3393 24.1706Z" fill="#564842"/>
<path d="M154.124 24.1706C149.973 20.7658 139.459 23.9705 126.455 32.8243C114.458 40.9929 92.0976 57.4043 88.7085 59.8956C88.4081 60.1164 88.1061 60.3001 87.7733 60.4682V60.4682C82.9519 62.9043 82.8454 69.7509 87.5887 72.3357L154.259 108.667C162.521 113.169 172.598 107.672 172.91 98.268C173.293 86.7443 173.316 72.6976 171.829 63.1825C169.062 45.475 166.022 33.931 154.124 24.1706Z" fill="#564842"/>
<path fill-rule="evenodd" clip-rule="evenodd" d="M156.254 26.0235C155.864 25.8922 155.454 25.7797 155.023 25.6874C142.376 22.9782 125.419 43.6716 125.419 43.6716L98.0273 75.2131L132.334 96.7187L135.916 98.6709L168.515 107.35C171.064 105.228 172.784 102.066 172.91 98.2675C173.293 86.7438 173.316 72.6971 171.829 63.182C169.235 46.582 166.401 35.3986 156.254 26.0235Z" fill="#EDEAE4"/>
<path fill-rule="evenodd" clip-rule="evenodd" d="M-2.07246 107.333C-4.6108 105.211 -6.32148 102.056 -6.44738 98.2675C-6.8303 86.7438 -6.85329 72.6971 -5.36649 63.182C-2.76861 46.5564 0.0703839 35.3642 10.2556 25.9802C10.606 25.8673 10.9719 25.7694 11.3546 25.6874C24.0022 22.9782 40.9593 43.6716 40.9593 43.6716L68.3506 75.2131L33.4812 97.0716L30.6272 98.6269L-2.07246 107.333Z" fill="#EDEAE4"/>
<path d="M184.905 132.486C184.905 174.355 127.527 208.297 82.5892 208.297C37.6513 208.297 -19.2852 174.355 -19.2852 132.486C-19.2852 90.6174 37.6513 56.676 82.5892 56.676C127.527 56.676 184.905 90.6174 184.905 132.486Z" fill="#564842"/>
<path fill-rule="evenodd" clip-rule="evenodd" d="M9.2207 181.98C17.4842 185.19 37.228 191.493 51.5443 185.055C72.8195 175.489 75.7397 159.543 78.3443 145.321C79.4828 139.105 80.561 133.217 83.0858 128.336C85.8363 133.17 87.2116 139.162 88.6664 145.5C92.0407 160.202 95.8423 176.765 118.224 185.055C131.536 189.986 149.727 184.186 156.772 181.536C136.118 197.908 107.45 208.296 82.5885 208.296C57.9527 208.296 29.7107 198.095 9.2207 181.98Z" fill="#EDEAE4"/>
<path d="M-23.0672 170.896L-21.1798 174.423L-21.1798 174.423L-23.0672 170.896ZM-52.497 188.743C-54.0865 190.278 -54.1313 192.81 -52.5972 194.399C-51.063 195.989 -48.5307 196.034 -46.9412 194.5L-52.497 188.743ZM9.41691 160.15C8.57777 156.239 8.57736 156.239 8.57687 156.239C8.5766 156.239 8.57603 156.239 8.57549 156.239C8.57442 156.239 8.57302 156.24 8.57132 156.24C8.56791 156.241 8.56324 156.242 8.55734 156.243C8.54553 156.246 8.52875 156.249 8.50713 156.254C8.46389 156.263 8.40125 156.277 8.32012 156.295C8.15787 156.331 7.92159 156.383 7.61855 156.452C7.01257 156.59 6.13898 156.792 5.05594 157.055C2.89155 157.579 -0.11815 158.345 -3.50558 159.313C-10.2019 161.225 -18.6675 164.005 -24.9545 167.37L-21.1798 174.423C-15.6857 171.483 -7.90928 168.89 -1.30883 167.005C1.95212 166.074 4.85447 165.335 6.94005 164.83C7.98199 164.577 8.81786 164.383 9.39009 164.254C9.67616 164.189 9.89618 164.14 10.0429 164.107C10.1163 164.091 10.1714 164.079 10.2072 164.071C10.2251 164.067 10.2382 164.065 10.2464 164.063C10.2505 164.062 10.2533 164.061 10.255 164.061C10.2558 164.061 10.2563 164.061 10.2564 164.061C10.2565 164.061 10.2564 164.061 10.2565 164.061C10.2563 164.061 10.256 164.061 9.41691 160.15ZM-24.9545 167.37C-31.158 170.689 -38.0871 176.101 -43.3346 180.537C-45.9891 182.781 -48.2715 184.824 -49.8914 186.308C-50.702 187.051 -51.3484 187.655 -51.7945 188.075C-52.0175 188.286 -52.1906 188.45 -52.3091 188.563C-52.3684 188.62 -52.4141 188.664 -52.4456 188.694C-52.4613 188.709 -52.4735 188.721 -52.4821 188.729C-52.4864 188.733 -52.4898 188.736 -52.4923 188.739C-52.4935 188.74 -52.4945 188.741 -52.4953 188.742C-52.4957 188.742 -52.4961 188.743 -52.4963 188.743C-52.4967 188.743 -52.497 188.743 -49.7191 191.621C-46.9412 194.5 -46.9414 194.5 -46.9415 194.5C-46.9415 194.5 -46.9415 194.5 -46.9415 194.5C-46.9413 194.5 -46.941 194.499 -46.9404 194.499C-46.9392 194.498 -46.9371 194.496 -46.9342 194.493C-46.9282 194.487 -46.9187 194.478 -46.9057 194.465C-46.8796 194.44 -46.8394 194.402 -46.7858 194.351C-46.6786 194.248 -46.5175 194.095 -46.3069 193.897C-45.8857 193.5 -45.2673 192.922 -44.4875 192.207C-42.9266 190.778 -40.7256 188.807 -38.1703 186.647C-32.998 182.275 -26.6012 177.324 -21.1798 174.423L-24.9545 167.37Z" fill="#564842"/>
<path d="M-33.9694 150.829L-32.537 154.564L-32.537 154.564L-33.9694 150.829ZM-65.3966 164.864C-67.1651 166.187 -67.5257 168.694 -66.2019 170.463C-64.878 172.231 -62.3712 172.592 -60.6026 171.268L-65.3966 164.864ZM-0.398067 144.221C-0.742523 140.236 -0.742943 140.236 -0.743443 140.236C-0.743718 140.236 -0.744299 140.236 -0.744848 140.236C-0.745945 140.236 -0.747363 140.236 -0.749101 140.236C-0.752577 140.236 -0.757331 140.237 -0.763349 140.237C-0.775386 140.238 -0.792481 140.24 -0.814519 140.242C-0.858595 140.246 -0.922453 140.252 -1.00518 140.259C-1.17063 140.275 -1.41163 140.297 -1.72089 140.328C-2.3393 140.389 -3.23134 140.481 -4.33867 140.606C-6.5516 140.856 -9.63336 141.24 -13.115 141.777C-19.9976 142.839 -28.7441 144.541 -35.4018 147.094L-32.537 154.564C-26.7188 152.332 -18.6796 150.73 -11.8955 149.684C-8.54386 149.167 -5.57201 148.796 -3.43967 148.555C-2.37436 148.435 -1.52085 148.347 -0.936869 148.289C-0.644933 148.26 -0.420524 148.239 -0.270866 148.226C-0.196043 148.219 -0.139922 148.214 -0.103407 148.21C-0.0851505 148.209 -0.0717968 148.207 -0.0634593 148.207C-0.0592906 148.206 -0.0563761 148.206 -0.05473 148.206C-0.0539069 148.206 -0.053401 148.206 -0.0532139 148.206C-0.0531202 148.206 -0.05322 148.206 -0.0531727 148.206C-0.0533518 148.206 -0.0536112 148.206 -0.398067 144.221ZM-35.4018 147.094C-41.9711 149.614 -49.5215 154.119 -55.2816 157.865C-58.1954 159.76 -60.715 161.503 -62.5075 162.773C-63.4044 163.409 -64.1211 163.927 -64.6162 164.289C-64.8637 164.469 -65.056 164.611 -65.1877 164.708C-65.2536 164.757 -65.3044 164.795 -65.3394 164.821C-65.3569 164.834 -65.3705 164.844 -65.38 164.851C-65.3848 164.855 -65.3886 164.858 -65.3913 164.86C-65.3927 164.861 -65.3938 164.862 -65.3947 164.862C-65.3951 164.862 -65.3956 164.863 -65.3958 164.863C-65.3962 164.863 -65.3966 164.864 -62.9996 168.066C-60.6026 171.268 -60.6028 171.268 -60.603 171.268C-60.6029 171.268 -60.603 171.268 -60.6029 171.268C-60.6028 171.268 -60.6024 171.268 -60.6017 171.267C-60.6004 171.266 -60.5981 171.265 -60.5948 171.262C-60.5882 171.257 -60.5776 171.249 -60.5631 171.239C-60.5341 171.217 -60.4895 171.184 -60.4299 171.14C-60.3107 171.052 -60.1317 170.92 -59.8981 170.749C-59.4306 170.408 -58.7449 169.912 -57.8821 169.3C-56.1549 168.076 -53.7252 166.395 -50.9202 164.571C-45.2427 160.879 -38.278 156.766 -32.537 154.564L-35.4018 147.094Z" fill="#564842"/>
<path d="M187.579 170.896L185.692 174.423L185.692 174.423L187.579 170.896ZM217.009 188.743C218.598 190.278 218.643 192.81 217.109 194.399C215.575 195.989 213.042 196.034 211.453 194.5L217.009 188.743ZM155.095 160.15C155.934 156.239 155.934 156.239 155.935 156.239C155.935 156.239 155.936 156.239 155.936 156.239C155.937 156.239 155.939 156.24 155.94 156.24C155.944 156.241 155.948 156.242 155.954 156.243C155.966 156.246 155.983 156.249 156.005 156.254C156.048 156.263 156.11 156.277 156.192 156.295C156.354 156.331 156.59 156.383 156.893 156.452C157.499 156.59 158.373 156.792 159.456 157.055C161.62 157.579 164.63 158.345 168.017 159.313C174.714 161.225 183.179 164.005 189.466 167.37L185.692 174.423C180.197 171.483 172.421 168.89 165.821 167.005C162.56 166.074 159.657 165.335 157.572 164.83C156.53 164.577 155.694 164.383 155.122 164.254C154.836 164.189 154.616 164.14 154.469 164.107C154.395 164.091 154.34 164.079 154.305 164.071C154.287 164.067 154.274 164.065 154.265 164.063C154.261 164.062 154.258 164.061 154.257 164.061C154.256 164.061 154.255 164.061 154.255 164.061C154.255 164.061 154.255 164.061 154.255 164.061C154.255 164.061 154.256 164.061 155.095 160.15ZM189.466 167.37C195.67 170.689 202.599 176.101 207.846 180.537C210.501 182.781 212.783 184.824 214.403 186.308C215.214 187.051 215.86 187.655 216.306 188.075C216.529 188.286 216.702 188.45 216.821 188.563C216.88 188.62 216.926 188.664 216.957 188.694C216.973 188.709 216.985 188.721 216.994 188.729C216.998 188.733 217.002 188.736 217.004 188.739C217.005 188.74 217.006 188.741 217.007 188.742C217.007 188.742 217.008 188.743 217.008 188.743C217.008 188.743 217.009 188.743 214.231 191.621C211.453 194.5 211.453 194.5 211.453 194.5C211.453 194.5 211.453 194.5 211.453 194.5C211.453 194.5 211.453 194.499 211.452 194.499C211.451 194.498 211.449 194.496 211.446 194.493C211.44 194.487 211.43 194.478 211.417 194.465C211.391 194.44 211.351 194.402 211.298 194.351C211.19 194.248 211.029 194.095 210.819 193.897C210.397 193.5 209.779 192.922 208.999 192.207C207.438 190.778 205.237 188.807 202.682 186.647C197.51 182.275 191.113 177.324 185.692 174.423L189.466 167.37Z" fill="#564842"/>
<path d="M198.483 150.829L197.051 154.564L197.051 154.564L198.483 150.829ZM229.91 164.864C231.679 166.187 232.039 168.694 230.716 170.463C229.392 172.231 226.885 172.592 225.116 171.268L229.91 164.864ZM164.912 144.221C165.256 140.236 165.257 140.236 165.257 140.236C165.257 140.236 165.258 140.236 165.259 140.236C165.26 140.236 165.261 140.236 165.263 140.236C165.266 140.236 165.271 140.237 165.277 140.237C165.289 140.238 165.306 140.24 165.328 140.242C165.372 140.246 165.436 140.252 165.519 140.259C165.684 140.275 165.925 140.297 166.235 140.328C166.853 140.389 167.745 140.481 168.852 140.606C171.065 140.856 174.147 141.24 177.629 141.777C184.511 142.839 193.258 144.541 199.915 147.094L197.051 154.564C191.233 152.332 183.193 150.73 176.409 149.684C173.058 149.167 170.086 148.796 167.953 148.555C166.888 148.435 166.035 148.347 165.451 148.289C165.159 148.26 164.934 148.239 164.785 148.226C164.71 148.219 164.654 148.214 164.617 148.21C164.599 148.209 164.585 148.207 164.577 148.207C164.573 148.206 164.57 148.206 164.568 148.206C164.568 148.206 164.567 148.206 164.567 148.206C164.567 148.206 164.567 148.206 164.567 148.206C164.567 148.206 164.567 148.206 164.912 144.221ZM199.915 147.094C206.485 149.614 214.035 154.119 219.795 157.865C222.709 159.76 225.229 161.503 227.021 162.773C227.918 163.409 228.635 163.927 229.13 164.289C229.377 164.469 229.57 164.611 229.701 164.708C229.767 164.757 229.818 164.795 229.853 164.821C229.871 164.834 229.884 164.844 229.894 164.851C229.898 164.855 229.902 164.858 229.905 164.86C229.906 164.861 229.908 164.862 229.908 164.862C229.909 164.862 229.909 164.863 229.909 164.863C229.91 164.863 229.91 164.864 227.513 168.066C225.116 171.268 225.116 171.268 225.117 171.268C225.117 171.268 225.117 171.268 225.117 171.268C225.116 171.268 225.116 171.268 225.115 171.267C225.114 171.266 225.112 171.265 225.108 171.262C225.102 171.257 225.091 171.249 225.077 171.239C225.048 171.217 225.003 171.184 224.944 171.14C224.824 171.052 224.645 170.92 224.412 170.749C223.944 170.408 223.259 169.912 222.396 169.3C220.669 168.076 218.239 166.395 215.434 164.571C209.756 160.879 202.792 156.766 197.051 154.564L199.915 147.094Z" fill="#564842"/>
<path d="M168.199 125.751C168.557 121.347 165.278 117.487 160.874 117.129L151.408 116.36C129.389 114.57 110.088 130.968 108.298 152.987L107.529 162.453C107.171 166.857 110.451 170.717 114.854 171.075L124.321 171.845C146.339 173.635 165.64 157.236 167.43 135.217L168.199 125.751Z" fill="#EDEAE4"/>
<path d="M-1.48267 125.751C-1.84066 121.347 1.43909 117.487 5.84284 117.129L15.3091 116.36C37.3278 114.57 56.6286 130.968 58.4185 152.987L59.188 162.453C59.546 166.857 56.2663 170.717 51.8625 171.075L42.3963 171.845C20.3775 173.635 1.07677 157.236 -0.713152 135.217L-1.48267 125.751Z" fill="#EDEAE4"/>
<mask id="mask1_116_1784" style="mask-type:alpha" maskUnits="userSpaceOnUse" x="-2" y="116" width="62" height="56">
<path d="M-1.48072 125.751C-1.8387 121.347 1.44104 117.487 5.84479 117.129L15.311 116.36C37.3298 114.57 56.6306 130.968 58.4205 152.987L59.19 162.453C59.548 166.857 56.2682 170.717 51.8645 171.075L42.3982 171.845C20.3795 173.635 1.07872 157.236 -0.711199 135.217L-1.48072 125.751Z" fill="#EDEAE4"/>
</mask>
<g mask="url(#mask1_116_1784)">
<ellipse cx="34.6702" cy="138.463" rx="21.8577" ry="24.0711" fill="#6B7050"/>
</g>
<mask id="mask2_116_1784" style="mask-type:alpha" maskUnits="userSpaceOnUse" x="107" y="116" width="62" height="56">
<path d="M168.199 125.751C168.557 121.347 165.278 117.487 160.874 117.129L151.408 116.36C129.389 114.57 110.088 130.968 108.298 152.987L107.529 162.453C107.171 166.857 110.451 170.717 114.854 171.075L124.321 171.845C146.339 173.635 165.64 157.236 167.43 135.217L168.199 125.751Z" fill="#EDEAE4"/>
</mask>
<g mask="url(#mask2_116_1784)">
<ellipse cx="132.614" cy="138.463" rx="21.8577" ry="24.0711" fill="#6B7050"/>
</g>
</g>
</svg>
