<svg width="367" height="354" viewBox="0 0 367 354" fill="none" xmlns="http://www.w3.org/2000/svg">
<path class="flower" d="M131.56 127.352C130.564 124.764 123.724 125.042 125.179 128.611C125.96 130.531 131.219 130.887 131.219 128.204" stroke="#EAE7DB" stroke-width="3" stroke-linecap="round"/>
<path class="flower" d="M132.412 121.217C130.761 120.684 128.62 119.216 128.502 117.316C128.48 116.975 128.408 116.432 128.53 116.105C128.878 115.171 130.615 115.523 131.238 115.877C132.703 116.711 133.72 117.738 134.021 119.418C134.195 120.386 133.777 121.389 132.753 120.706" stroke="#EAE7DB" stroke-width="3" stroke-linecap="round"/>
<path class="flower" d="M133 116.5C134.307 118.002 134.999 121 134 121.5C133 122 129.962 121.679 128.5 120C127.192 118.498 127 115.5 127.5 115C127.999 114.5 131.537 114.821 133 116.5Z" fill="#6B7050" stroke="#6B7050" stroke-width="2" stroke-linejoin="round"/>
<path class="flower" d="M248.754 45.7151C250.061 47.2167 250.753 50.2151 249.754 50.7151C248.754 51.2151 245.716 50.8939 244.254 49.2151C242.946 47.7135 242.754 44.7151 243.254 44.2151C243.753 43.7151 247.291 44.0362 248.754 45.7151Z" fill="#6B7050" stroke="#6B7050" stroke-width="2" stroke-linejoin="round"/>
<path class="flower" d="M260 248.715C261.307 250.217 261.999 253.215 261 253.715C260 254.215 256.962 253.894 255.5 252.215C254.192 250.713 254 247.715 254.5 247.215C254.999 246.715 258.537 247.036 260 248.715Z" fill="#6B7050" stroke="#6B7050" stroke-width="2" stroke-linejoin="round"/>
<path class="flower" d="M267.749 305.326C267.581 307.31 265.908 309.893 264.854 309.523C263.799 309.153 261.916 306.747 262.105 304.529C262.273 302.545 264.294 300.321 265 300.332C265.707 300.343 267.938 303.108 267.749 305.326Z" fill="#6B7050" stroke="#6B7050" stroke-width="2" stroke-linejoin="round"/>
<path class="flower" d="M157.749 209.326C157.581 211.31 155.908 213.893 154.854 213.523C153.799 213.153 151.916 210.747 152.105 208.529C152.273 206.545 154.294 204.321 155 204.332C155.707 204.343 157.938 207.108 157.749 209.326Z" fill="#6B7050" stroke="#6B7050" stroke-width="2" stroke-linejoin="round"/>
<path class="flower" d="M60.785 143.894C62.3461 145.131 63.5763 147.951 62.6852 148.626C61.7942 149.301 58.7488 149.543 57.0034 148.161C55.4423 146.924 54.7036 144.012 55.1031 143.429C55.5026 142.846 59.0396 142.512 60.785 143.894Z" fill="#6B7050" stroke="#6B7050" stroke-width="2" stroke-linejoin="round"/>
<path class="flower" d="M227.971 165.957C229.532 167.193 230.762 170.013 229.871 170.688C228.98 171.363 225.934 171.605 224.189 170.223C222.628 168.987 221.889 166.074 222.289 165.491C222.688 164.908 226.225 164.575 227.971 165.957Z" fill="#6B7050" stroke="#6B7050" stroke-width="2" stroke-linejoin="round"/>
<path class="flower" d="M167.795 161.276C166.372 158.585 166.387 153.882 168.049 153.486C169.711 153.09 174.12 154.627 175.712 157.635C177.135 160.325 176.375 164.855 175.457 165.425C174.539 165.995 169.386 164.284 167.795 161.276Z" fill="#6B7050" stroke="#6B7050" stroke-width="2" stroke-linejoin="round"/>
<path class="flower" d="M86.0567 44.5686C83.0772 45.1906 78.562 43.8729 78.6423 42.1662C78.7225 40.4596 81.4207 36.6484 84.7519 35.953C87.7314 35.331 91.873 37.3155 92.1663 38.3554C92.4597 39.3953 89.3879 43.8732 86.0567 44.5686Z" fill="#6B7050" stroke="#6B7050" stroke-width="2" stroke-linejoin="round"/>
<path class="flower" d="M222.198 205.105C224.136 204.647 227.111 205.431 227.088 206.549C227.065 207.666 225.365 210.205 223.199 210.717C221.261 211.175 218.518 209.948 218.308 209.273C218.099 208.598 220.031 205.617 222.198 205.105Z" fill="#6B7050" stroke="#6B7050" stroke-width="2" stroke-linejoin="round"/>
<path class="flower" d="M50.4695 329.909C51.7257 331.454 52.3157 334.474 51.2996 334.94C50.2835 335.406 47.2581 334.982 45.8536 333.255C44.5973 331.71 44.5071 328.706 45.0234 328.224C45.5398 327.741 49.065 328.182 50.4695 329.909Z" fill="#6B7050" stroke="#6B7050" stroke-width="2" stroke-linejoin="round"/>
<path class="flower" d="M106 257.715C107.307 259.217 107.999 262.215 107 262.715C106 263.215 102.962 262.894 101.5 261.215C100.192 259.713 99.9999 256.715 100.5 256.215C100.999 255.715 104.537 256.036 106 257.715Z" fill="#6B7050" stroke="#6B7050" stroke-width="2" stroke-linejoin="round"/>
<path class="flower" d="M171.41 214.344C169.243 216.131 164.99 216.993 164.323 215.564C163.656 214.136 164.224 209.865 166.647 207.867C168.813 206.08 173.048 205.924 173.734 206.647C174.42 207.371 173.833 212.347 171.41 214.344Z" fill="#6B7050" stroke="#6B7050" stroke-width="2" stroke-linejoin="round"/>
<path class="flower" d="M313.403 143.969C314.795 146.409 314.919 150.747 313.397 151.161C311.876 151.575 307.764 150.287 306.209 147.559C304.817 145.12 305.385 140.92 306.215 140.368C307.044 139.815 311.848 141.242 313.403 143.969Z" fill="#6B7050" stroke="#6B7050" stroke-width="2" stroke-linejoin="round"/>
<path class="flower" d="M279.408 314.31C277.241 316.097 272.988 316.958 272.321 315.53C271.654 314.101 272.222 309.83 274.645 307.833C276.812 306.046 281.046 305.889 281.732 306.613C282.418 307.336 281.831 312.312 279.408 314.31Z" fill="#6B7050" stroke="#6B7050" stroke-width="2" stroke-linejoin="round"/>
<path class="flower" d="M228.408 154.31C226.241 156.097 221.988 156.958 221.321 155.53C220.654 154.101 221.222 149.83 223.645 147.833C225.812 146.046 230.046 145.889 230.732 146.613C231.418 147.336 230.831 152.312 228.408 154.31Z" fill="#6B7050" stroke="#6B7050" stroke-width="2" stroke-linejoin="round"/>
<path class="flower" d="M163.642 173.456C167.774 172.29 174.255 173.703 174.309 176.113C174.363 178.522 170.938 184.147 166.319 185.451C162.188 186.617 156.167 184.229 155.653 182.794C155.139 181.36 159.023 174.76 163.642 173.456Z" fill="#6B7050" stroke="#6B7050" stroke-width="2" stroke-linejoin="round"/>
<path class="flower" d="M94.813 55.5776C96.1047 51.4838 100.842 46.8401 102.886 48.1169C104.929 49.3936 107.754 55.3428 106.31 59.9199C105.019 64.0137 99.719 67.7377 98.2375 67.3807C96.756 67.0236 93.369 60.1547 94.813 55.5776Z" fill="#6B7050" stroke="#6B7050" stroke-width="2" stroke-linejoin="round"/>
<path class="flower" d="M277.813 75.5776C279.105 71.4838 283.842 66.8401 285.886 68.1169C287.929 69.3936 290.754 75.3428 289.31 79.9199C288.019 84.0137 282.719 87.7377 281.238 87.3807C279.756 87.0236 276.369 80.1547 277.813 75.5776Z" fill="#6B7050" stroke="#6B7050" stroke-width="2" stroke-linejoin="round"/>
<path class="flower" d="M287.013 139.35C289.934 136.205 296.205 134.039 297.504 136.069C298.803 138.098 298.806 144.684 295.539 148.2C292.618 151.346 286.233 152.439 285.048 151.481C283.862 150.524 283.746 142.866 287.013 139.35Z" fill="#6B7050" stroke="#6B7050" stroke-width="2" stroke-linejoin="round"/>
<path class="flower" d="M125.013 302.35C127.934 299.205 134.205 297.039 135.504 299.069C136.803 301.098 136.806 307.684 133.539 311.2C130.618 314.346 124.233 315.439 123.048 314.481C121.862 313.524 121.746 305.866 125.013 302.35Z" fill="#6B7050" stroke="#6B7050" stroke-width="2" stroke-linejoin="round"/>
<path class="flower" d="M345.561 331.004C348.698 333.935 350.845 340.212 348.812 341.505C346.779 342.798 340.193 342.782 336.686 339.506C333.549 336.575 332.474 330.188 333.435 329.005C334.396 327.823 342.054 327.728 345.561 331.004Z" fill="#6B7050" stroke="#6B7050" stroke-width="2" stroke-linejoin="round"/>
<path class="flower" d="M117.304 202.155C119.352 199.951 123.747 198.433 124.658 199.856C125.569 201.278 125.57 205.894 123.281 208.359C121.233 210.563 116.758 211.33 115.927 210.659C115.096 209.987 115.015 204.62 117.304 202.155Z" fill="#6B7050" stroke="#6B7050" stroke-width="2" stroke-linejoin="round"/>
<path class="flower" d="M72.4466 197.47C71.0555 193.181 72.1795 186.135 74.6333 185.843C77.0872 185.55 82.9911 188.651 84.5463 193.446C85.9374 197.736 83.7971 204.386 82.3596 205.074C80.922 205.762 74.0018 202.266 72.4466 197.47Z" fill="#6B7050" stroke="#6B7050" stroke-width="2" stroke-linejoin="round"/>
<path class="flower" d="M164.393 96.6017C163.143 93.5703 163.745 88.7231 165.644 88.6154C167.544 88.5077 172.262 90.889 173.659 94.2783C174.909 97.3097 173.5 101.843 172.408 102.265C171.315 102.686 165.79 99.991 164.393 96.6017Z" fill="#6B7050" stroke="#6B7050" stroke-width="2" stroke-linejoin="round"/>
<path class="flower" d="M177.719 82.2781C178.061 79.0171 180.895 75.0392 182.617 75.8478C184.34 76.6563 187.358 80.9947 186.975 84.6406C186.633 87.9017 183.238 91.2196 182.076 91.071C180.914 90.9225 177.336 85.9241 177.719 82.2781Z" fill="#6B7050" stroke="#6B7050" stroke-width="2" stroke-linejoin="round"/>
<path class="flower" d="M198.018 91.3036C199.745 87.585 204.711 84.0291 206.42 85.6838C208.129 87.3385 209.94 93.6938 208.009 97.8513C206.282 101.57 200.921 104.118 199.607 103.471C198.293 102.824 196.087 95.4611 198.018 91.3036Z" fill="#6B7050" stroke="#6B7050" stroke-width="2" stroke-linejoin="round"/>
<path class="flower" d="M302.803 176.864C302.287 179.625 299.576 183.014 298.148 182.346C296.72 181.678 294.417 178.037 294.994 174.951C295.51 172.19 298.658 169.354 299.648 169.469C300.638 169.584 303.38 173.778 302.803 176.864Z" fill="#6B7050" stroke="#6B7050" stroke-width="2" stroke-linejoin="round"/>
<path class="flower" d="M183.803 21.8642C183.287 24.6248 180.576 28.0142 179.148 27.3462C177.72 26.6782 175.417 23.0372 175.994 19.9507C176.51 17.1901 179.658 14.3536 180.648 14.4686C181.638 14.5837 184.38 18.7777 183.803 21.8642Z" fill="#6B7050" stroke="#6B7050" stroke-width="2" stroke-linejoin="round"/>
<path class="flower" d="M27.8786 41.4424C25.463 42.875 21.1275 43.0724 20.6881 41.5585C20.2486 40.0445 21.4666 35.9115 24.1673 34.3099C26.5829 32.8774 30.7913 33.3735 31.3579 34.1939C31.9244 35.0142 30.5794 39.8408 27.8786 41.4424Z" fill="#6B7050" stroke="#6B7050" stroke-width="2" stroke-linejoin="round"/>
<path class="flower" d="M140.408 83.31C138.241 85.0967 133.988 85.9581 133.321 84.5296C132.654 83.1012 133.222 78.8302 135.645 76.8325C137.812 75.0458 142.046 74.8893 142.732 75.6129C143.418 76.3364 142.831 81.3124 140.408 83.31Z" fill="#6B7050" stroke="#6B7050" stroke-width="2" stroke-linejoin="round"/>
<path class="flower" d="M249.408 65.31C247.241 67.0967 242.988 67.9581 242.321 66.5297C241.654 65.1012 242.222 60.8302 244.645 58.8325C246.812 57.0458 251.046 56.8893 251.732 57.6129C252.418 58.3364 251.831 63.3124 249.408 65.31Z" fill="#6B7050" stroke="#6B7050" stroke-width="2" stroke-linejoin="round"/>
<path class="flower" d="M59.408 134.31C57.2413 136.097 52.9876 136.958 52.3208 135.53C51.6539 134.101 52.2222 129.83 54.6447 127.833C56.8115 126.046 61.0461 125.889 61.732 126.613C62.4179 127.336 61.8306 132.312 59.408 134.31Z" fill="#6B7050" stroke="#6B7050" stroke-width="2" stroke-linejoin="round"/>
<path class="flower" d="M303.942 86.444C303.175 88.2817 303.465 91.3452 304.572 91.504C305.678 91.6627 308.459 90.3987 309.317 88.3441C310.083 86.5064 309.319 83.6008 308.687 83.2841C308.055 82.9675 304.799 84.3894 303.942 86.444Z" fill="#6B7050" stroke="#6B7050" stroke-width="2" stroke-linejoin="round"/>
<path class="flower" d="M208.942 304.444C208.175 306.282 208.465 309.345 209.572 309.504C210.678 309.663 213.459 308.399 214.317 306.344C215.083 304.506 214.319 301.601 213.687 301.284C213.055 300.968 209.799 302.389 208.942 304.444Z" fill="#6B7050" stroke="#6B7050" stroke-width="2" stroke-linejoin="round"/>
<path class="flower" d="M41.9417 188.444C41.1749 190.282 41.4652 193.345 42.5716 193.504C43.678 193.663 46.4593 192.399 47.3166 190.344C48.0834 188.506 47.3187 185.601 46.6867 185.284C46.0547 184.968 42.799 186.389 41.9417 188.444Z" fill="#6B7050" stroke="#6B7050" stroke-width="2" stroke-linejoin="round"/>
<path class="flower" d="M46.9417 47.444C46.1749 49.2817 46.4652 52.3452 47.5716 52.504C48.678 52.6627 51.4593 51.3987 52.3166 49.3441C53.0834 47.5064 52.3187 44.6008 51.6867 44.2841C51.0547 43.9675 47.799 45.3894 46.9417 47.444Z" fill="#6B7050" stroke="#6B7050" stroke-width="2" stroke-linejoin="round"/>
<path class="flower" d="M127.5 124.5C129.78 124.341 133 126 133 127.5C133 129 130.643 130.759 128 130.5C125.66 130.27 123 129 123 127.5C123 126 125.582 124.633 127.5 124.5Z" fill="#6B7050" stroke="#6B7050" stroke-width="2" stroke-linejoin="round"/>
<path class="flower" d="M254.5 256.715C256.78 256.556 260 258.215 260 259.715C260 261.215 257.643 262.975 255 262.715C252.66 262.485 250 261.215 250 259.715C250 258.215 252.582 256.849 254.5 256.715Z" fill="#6B7050" stroke="#6B7050" stroke-width="2" stroke-linejoin="round"/>
<path class="flower" d="M226.715 213.698C227.636 211.606 230.604 209.529 231.931 210.228C233.259 210.927 233.718 213.832 232.257 216.05C230.964 218.014 228.601 219.776 227.273 219.077C225.946 218.378 225.939 215.457 226.715 213.698Z" fill="#6B7050" stroke="#6B7050" stroke-width="2" stroke-linejoin="round"/>
<path class="flower" d="M285.032 178.424C287.04 179.514 288.867 182.642 288.062 183.907C287.257 185.173 284.324 185.393 282.233 183.755C280.382 182.305 278.819 179.806 279.624 178.54C280.43 177.275 283.341 177.507 285.032 178.424Z" fill="#6B7050" stroke="#6B7050" stroke-width="2" stroke-linejoin="round"/>
<path class="flower" d="M44.7021 337.718C46.9862 337.636 50.1482 339.403 50.0974 340.902C50.0466 342.401 47.6315 344.08 44.9987 343.731C42.6678 343.422 40.0523 342.063 40.1031 340.564C40.1539 339.065 42.7802 337.786 44.7021 337.718Z" fill="#6B7050" stroke="#6B7050" stroke-width="2" stroke-linejoin="round"/>
<path class="flower" d="M100.5 265.715C102.78 265.556 106 267.215 106 268.715C106 270.215 103.643 271.975 101 271.715C98.66 271.485 96 270.215 96 268.715C96 267.215 98.5815 265.849 100.5 265.715Z" fill="#6B7050" stroke="#6B7050" stroke-width="2" stroke-linejoin="round"/>
<path class="flower" d="M311.685 92.2982C309.471 92.8677 306.94 95.4581 307.413 96.8814C307.887 98.3047 310.679 99.2299 313.105 98.1492C315.253 97.1924 317.375 95.1472 316.902 93.7239C316.428 92.3006 313.547 91.8191 311.685 92.2982Z" fill="#6B7050" stroke="#6B7050" stroke-width="2" stroke-linejoin="round"/>
<path class="flower" d="M137.222 316.431C135.008 317 132.477 319.591 132.95 321.014C133.424 322.437 136.216 323.363 138.642 322.282C140.79 321.325 142.912 319.28 142.439 317.857C141.965 316.433 139.084 315.952 137.222 316.431Z" fill="#6B7050" stroke="#6B7050" stroke-width="2" stroke-linejoin="round"/>
<path class="flower" d="M331.445 343.174C330.881 340.959 328.298 338.42 326.874 338.889C325.449 339.359 324.516 342.148 325.59 344.577C326.54 346.727 328.579 348.856 330.004 348.387C331.429 347.917 331.918 345.037 331.445 343.174Z" fill="#6B7050" stroke="#6B7050" stroke-width="2" stroke-linejoin="round"/>
<path class="flower" d="M216.685 310.298C214.471 310.868 211.94 313.458 212.413 314.881C212.887 316.305 215.679 317.23 218.105 316.149C220.253 315.192 222.375 313.147 221.902 311.724C221.428 310.301 218.547 309.819 216.685 310.298Z" fill="#6B7050" stroke="#6B7050" stroke-width="2" stroke-linejoin="round"/>
<path class="flower" d="M49.6847 194.298C47.4713 194.868 44.9397 197.458 45.4133 198.881C45.8869 200.305 48.6787 201.23 51.1048 200.149C53.2526 199.192 55.3754 197.147 54.9017 195.724C54.4281 194.301 51.5472 193.819 49.6847 194.298Z" fill="#6B7050" stroke="#6B7050" stroke-width="2" stroke-linejoin="round"/>
<path class="flower" d="M54.6847 53.2982C52.4713 53.8677 49.9397 56.4581 50.4133 57.8814C50.8869 59.3047 53.6787 60.2299 56.1048 59.1492C58.2526 58.1924 60.3754 56.1472 59.9017 54.7239C59.4281 53.3006 56.5472 52.8191 54.6847 53.2982Z" fill="#6B7050" stroke="#6B7050" stroke-width="2" stroke-linejoin="round"/>
    <g class="flower">
        <path d="M150.168 121.206C150.168 121.206 153.139 109.731 160.181 116.107C167.223 122.484 156.77 125.834 156.77 125.834C156.77 125.834 167.944 129.882 161.533 136.217C155.121 142.553 151.806 132.806 151.806 132.806C151.806 132.806 149.1 142.498 142.8 136.793C136.499 131.088 144.463 127.507 144.463 127.507C144.463 127.507 134.805 125.507 139.769 118.535C144.733 111.563 150.168 121.206 150.168 121.206Z" fill="#6B7050" stroke="#6B7050" stroke-width="2" stroke-linejoin="round"/>
        <path d="M147.012 124L148 125.011" stroke="#EAE7DB" stroke-width="2" stroke-linecap="round" stroke-linejoin="round"/>
        <path d="M154 124L153.012 125.011" stroke="#EAE7DB" stroke-width="2" stroke-linecap="round" stroke-linejoin="round"/>
        <path d="M154.225 129.966L153 129.259" stroke="#EAE7DB" stroke-width="2" stroke-linecap="round" stroke-linejoin="round"/>
        <path d="M147 129.993L148.108 129.115" stroke="#EAE7DB" stroke-width="2" stroke-linecap="round" stroke-linejoin="round"/>
    </g>
    <g class="flower">
        <path d="M213.933 335.112C213.933 335.112 216.047 326.944 221.06 331.483C226.073 336.022 218.632 338.407 218.632 338.407C218.632 338.407 226.587 341.289 222.022 345.799C217.458 350.309 215.098 343.37 215.098 343.37C215.098 343.37 213.172 350.269 208.687 346.208C204.202 342.147 209.871 339.598 209.871 339.598C209.871 339.598 202.996 338.174 206.53 333.211C210.064 328.248 213.933 335.112 213.933 335.112Z" fill="#6B7050" stroke="#6B7050" stroke-width="2" stroke-linejoin="round"/>
        <path d="M211.686 337.102L212.389 337.822" stroke="#EAE7DB" stroke-width="2" stroke-linecap="round" stroke-linejoin="round"/>
        <path d="M216.66 337.102L215.957 337.822" stroke="#EAE7DB" stroke-width="2" stroke-linecap="round" stroke-linejoin="round"/>
        <path d="M216.82 341.349L215.948 340.845" stroke="#EAE7DB" stroke-width="2" stroke-linecap="round" stroke-linejoin="round"/>
        <path d="M211.678 341.368L212.467 340.743" stroke="#EAE7DB" stroke-width="2" stroke-linecap="round" stroke-linejoin="round"/>
    </g>
    <g class="flower">
        <path d="M200.933 232.112C200.933 232.112 203.047 223.944 208.06 228.483C213.073 233.022 205.632 235.407 205.632 235.407C205.632 235.407 213.587 238.289 209.022 242.799C204.458 247.309 202.098 240.37 202.098 240.37C202.098 240.37 200.172 247.269 195.687 243.208C191.202 239.147 196.871 236.598 196.871 236.598C196.871 236.598 189.996 235.174 193.53 230.211C197.064 225.248 200.933 232.112 200.933 232.112Z" fill="#6B7050" stroke="#6B7050" stroke-width="2" stroke-linejoin="round"/>
        <path d="M198.686 234.102L199.389 234.822" stroke="#EAE7DB" stroke-width="2" stroke-linecap="round" stroke-linejoin="round"/>
        <path d="M203.66 234.102L202.957 234.822" stroke="#EAE7DB" stroke-width="2" stroke-linecap="round" stroke-linejoin="round"/>
        <path d="M203.82 238.349L202.948 237.845" stroke="#EAE7DB" stroke-width="2" stroke-linecap="round" stroke-linejoin="round"/>
        <path d="M198.678 238.368L199.467 237.743" stroke="#EAE7DB" stroke-width="2" stroke-linecap="round" stroke-linejoin="round"/>
    </g>
    <g class="flower">
        <path d="M28.9326 101.112C28.9326 101.112 31.0471 92.9438 36.0602 97.483C41.0734 102.022 33.6319 104.407 33.6319 104.407C33.6319 104.407 41.5866 107.289 37.0225 111.799C32.4583 116.309 30.0982 109.37 30.0982 109.37C30.0982 109.37 28.1723 116.269 23.6873 112.208C19.2022 108.147 24.8712 105.598 24.8712 105.598C24.8712 105.598 17.9962 104.174 21.5299 99.2112C25.0636 94.2481 28.9326 101.112 28.9326 101.112Z" fill="#6B7050" stroke="#6B7050" stroke-width="2" stroke-linejoin="round"/>
        <path d="M26.6855 103.102L27.3892 103.822" stroke="#EAE7DB" stroke-width="2" stroke-linecap="round" stroke-linejoin="round"/>
        <path d="M31.6602 103.102L30.9565 103.822" stroke="#EAE7DB" stroke-width="2" stroke-linecap="round" stroke-linejoin="round"/>
        <path d="M31.8203 107.349L30.9485 106.845" stroke="#EAE7DB" stroke-width="2" stroke-linecap="round" stroke-linejoin="round"/>
        <path d="M26.6777 107.368L27.4667 106.743" stroke="#EAE7DB" stroke-width="2" stroke-linecap="round" stroke-linejoin="round"/>
    </g>
    <g class="flower">
        <path d="M317.168 222.206C317.168 222.206 320.139 210.731 327.181 217.107C334.223 223.484 323.77 226.834 323.77 226.834C323.77 226.834 334.944 230.882 328.533 237.217C322.121 243.553 318.806 233.806 318.806 233.806C318.806 233.806 316.1 243.498 309.8 237.793C303.499 232.088 311.463 228.507 311.463 228.507C311.463 228.507 301.805 226.507 306.769 219.535C311.733 212.563 317.168 222.206 317.168 222.206Z" fill="#6B7050" stroke="#6B7050" stroke-width="2" stroke-linejoin="round"/>
        <path d="M314.012 225L315 226.011" stroke="#EAE7DB" stroke-width="2" stroke-linecap="round" stroke-linejoin="round"/>
        <path d="M321 225L320.012 226.011" stroke="#EAE7DB" stroke-width="2" stroke-linecap="round" stroke-linejoin="round"/>
        <path d="M321.225 230.966L320 230.259" stroke="#EAE7DB" stroke-width="2" stroke-linecap="round" stroke-linejoin="round"/>
        <path d="M314 230.993L315.108 230.115" stroke="#EAE7DB" stroke-width="2" stroke-linecap="round" stroke-linejoin="round"/>
    </g>
    <g class="flower">
        <path d="M194.445 316.42C194.445 316.42 203.526 308.802 205.558 318.082C207.589 327.363 197.133 324.021 197.133 324.021C197.133 324.021 203.881 333.805 194.982 335.241C186.084 336.677 189.043 326.816 189.043 326.816C189.043 326.816 181.214 333.136 179.396 324.833C177.579 316.53 186.142 318.238 186.142 318.238C186.142 318.238 179.44 311.003 187.529 308.208C195.619 305.414 194.445 316.42 194.445 316.42Z" fill="#6B7050" stroke="#6B7050" stroke-width="2" stroke-linejoin="round"/>
        <path d="M190.252 316.863L190.47 318.26" stroke="#EAE7DB" stroke-width="2" stroke-linecap="round" stroke-linejoin="round"/>
        <path d="M195.941 320.92L194.549 321.17" stroke="#EAE7DB" stroke-width="2" stroke-linecap="round" stroke-linejoin="round"/>
        <path d="M192.662 325.908L192.075 324.621" stroke="#EAE7DB" stroke-width="2" stroke-linecap="round" stroke-linejoin="round"/>
        <path d="M186.764 321.736L188.176 321.664" stroke="#EAE7DB" stroke-width="2" stroke-linecap="round" stroke-linejoin="round"/>
    </g>
    <g class="flower">
        <path d="M97.1094 292.114C97.1094 292.114 106.19 284.496 108.222 293.776C110.253 303.057 99.797 299.715 99.797 299.715C99.797 299.715 106.545 309.499 97.6465 310.935C88.7477 312.371 91.7075 302.51 91.7075 302.51C91.7075 302.51 83.8779 308.83 82.0603 300.527C80.2427 292.224 88.806 293.932 88.806 293.932C88.806 293.932 82.1037 286.696 90.1932 283.902C98.2828 281.108 97.1094 292.114 97.1094 292.114Z" fill="#6B7050" stroke="#6B7050" stroke-width="2" stroke-linejoin="round"/>
        <path d="M92.916 292.557L93.1336 293.954" stroke="#EAE7DB" stroke-width="2" stroke-linecap="round" stroke-linejoin="round"/>
        <path d="M98.6055 296.614L97.2135 296.864" stroke="#EAE7DB" stroke-width="2" stroke-linecap="round" stroke-linejoin="round"/>
        <path d="M95.3262 301.602L94.7395 300.315" stroke="#EAE7DB" stroke-width="2" stroke-linecap="round" stroke-linejoin="round"/>
        <path d="M89.4277 297.43L90.8401 297.358" stroke="#EAE7DB" stroke-width="2" stroke-linecap="round" stroke-linejoin="round"/>
    </g>
    <g class="flower">
        <path d="M29.1094 199.114C29.1094 199.114 38.1903 191.496 40.2219 200.776C42.2535 210.057 31.797 206.715 31.797 206.715C31.797 206.715 38.5453 216.499 29.6465 217.935C20.7477 219.371 23.7075 209.51 23.7075 209.51C23.7075 209.51 15.8779 215.83 14.0603 207.527C12.2427 199.224 20.806 200.932 20.806 200.932C20.806 200.932 14.1037 193.696 22.1932 190.902C30.2828 188.108 29.1094 199.114 29.1094 199.114Z" fill="#6B7050" stroke="#6B7050" stroke-width="2" stroke-linejoin="round"/>
        <path d="M24.916 199.557L25.1336 200.954" stroke="#EAE7DB" stroke-width="2" stroke-linecap="round" stroke-linejoin="round"/>
        <path d="M30.6055 203.614L29.2135 203.864" stroke="#EAE7DB" stroke-width="2" stroke-linecap="round" stroke-linejoin="round"/>
        <path d="M27.3262 208.602L26.7395 207.315" stroke="#EAE7DB" stroke-width="2" stroke-linecap="round" stroke-linejoin="round"/>
        <path d="M21.4277 204.43L22.8401 204.358" stroke="#EAE7DB" stroke-width="2" stroke-linecap="round" stroke-linejoin="round"/>
    </g>
    <g class="flower">
        <path d="M109.568 93.5C109.568 93.5 104.068 83 113.568 83C123.069 83 117.568 92.5 117.568 92.5C117.568 92.5 128.569 88 128.068 97C127.568 106 118.568 101 118.568 101C118.568 101 123.068 110 114.568 110C106.069 110 109.568 102 109.568 102C109.568 102 101.067 107 100.067 98.5C99.0673 90 109.568 93.5 109.568 93.5Z" fill="#6B7050" stroke="#6B7050" stroke-width="2" stroke-linejoin="round"/>
        <path d="M113.146 92.382L113.4 93.7732" stroke="#EAE7DB" stroke-width="2" stroke-linecap="round" stroke-linejoin="round"/>
        <path d="M118.48 96.6896L117.067 96.7242" stroke="#EAE7DB" stroke-width="2" stroke-linecap="round" stroke-linejoin="round"/>
        <path d="M114.904 101.384L114.613 100" stroke="#EAE7DB" stroke-width="2" stroke-linecap="round" stroke-linejoin="round"/>
        <path d="M109.068 96.6311L110.475 96.7801" stroke="#EAE7DB" stroke-width="2" stroke-linecap="round" stroke-linejoin="round"/>
    </g>
    <g class="flower">
        <path d="M329.408 67.2584C329.408 67.2584 323.718 50.8786 337.463 52.9303C351.209 54.982 341.199 67.5393 341.199 67.5393C341.199 67.5393 358.087 63.4041 355.419 76.3178C352.752 89.2314 340.81 80.0535 340.81 80.0535C340.81 80.0535 345.377 94.0469 333.079 92.2113C320.782 90.3757 327.573 79.5566 327.573 79.5566C327.573 79.5566 314.193 84.9549 314.582 72.4407C314.971 59.9265 329.408 67.2584 329.408 67.2584Z" fill="#6B7050" stroke="#6B7050" stroke-width="2" stroke-linejoin="round"/>
        <path d="M334.826 66.4135L334.893 68.4813" stroke="#EAE7DB" stroke-width="2" stroke-linecap="round" stroke-linejoin="round"/>
        <path d="M341.613 73.7979L339.56 73.5427" stroke="#EAE7DB" stroke-width="2" stroke-linecap="round" stroke-linejoin="round"/>
        <path d="M335.426 79.8177L335.304 77.7525" stroke="#EAE7DB" stroke-width="2" stroke-linecap="round" stroke-linejoin="round"/>
        <path d="M328.008 71.6806L330.01 72.2" stroke="#EAE7DB" stroke-width="2" stroke-linecap="round" stroke-linejoin="round"/>
    </g>
    <g class="flower">
        <path d="M20.4084 246.258C20.4084 246.258 14.7181 229.879 28.4635 231.93C42.2088 233.982 32.1992 246.539 32.1992 246.539C32.1992 246.539 49.0867 242.404 46.4193 255.318C43.7519 268.231 31.8103 259.053 31.8103 259.053C31.8103 259.053 36.3767 273.047 24.0792 271.211C11.7817 269.376 18.5727 258.557 18.5727 258.557C18.5727 258.557 5.19258 263.955 5.58167 251.441C5.97075 238.927 20.4084 246.258 20.4084 246.258Z" fill="#6B7050" stroke="#6B7050" stroke-width="2" stroke-linejoin="round"/>
        <path d="M25.8262 245.414L25.8932 247.481" stroke="#EAE7DB" stroke-width="2" stroke-linecap="round" stroke-linejoin="round"/>
        <path d="M32.6133 252.798L30.5603 252.543" stroke="#EAE7DB" stroke-width="2" stroke-linecap="round" stroke-linejoin="round"/>
        <path d="M26.4258 258.818L26.3039 256.752" stroke="#EAE7DB" stroke-width="2" stroke-linecap="round" stroke-linejoin="round"/>
        <path d="M19.0078 250.681L21.0104 251.2" stroke="#EAE7DB" stroke-width="2" stroke-linecap="round" stroke-linejoin="round"/>
    </g>
    <g class="flower">
        <path d="M227.408 274.258C227.408 274.258 221.718 257.879 235.463 259.93C249.209 261.982 239.199 274.539 239.199 274.539C239.199 274.539 256.087 270.404 253.419 283.318C250.752 296.231 238.81 287.053 238.81 287.053C238.81 287.053 243.377 301.047 231.079 299.211C218.782 297.376 225.573 286.557 225.573 286.557C225.573 286.557 212.193 291.955 212.582 279.441C212.971 266.927 227.408 274.258 227.408 274.258Z" fill="#6B7050" stroke="#6B7050" stroke-width="2" stroke-linejoin="round"/>
        <path d="M232.826 273.414L232.893 275.481" stroke="#EAE7DB" stroke-width="2" stroke-linecap="round" stroke-linejoin="round"/>
        <path d="M239.613 280.798L237.56 280.543" stroke="#EAE7DB" stroke-width="2" stroke-linecap="round" stroke-linejoin="round"/>
        <path d="M233.426 286.818L233.304 284.752" stroke="#EAE7DB" stroke-width="2" stroke-linecap="round" stroke-linejoin="round"/>
        <path d="M226.008 278.681L228.01 279.2" stroke="#EAE7DB" stroke-width="2" stroke-linecap="round" stroke-linejoin="round"/>
    </g>
    <g class="flower">
        <path d="M85.0892 135.89C85.0892 135.89 67.7825 134.814 74.9828 122.927C82.1831 111.04 89.9012 125.122 89.9012 125.122C89.9012 125.122 92.6078 107.947 103.49 115.394C114.372 122.841 101.295 130.313 101.295 130.313C101.295 130.313 115.966 131.504 109.524 142.139C103.082 152.774 95.7247 142.332 95.7247 142.332C95.7247 142.332 95.5376 156.759 84.1443 151.568C72.751 146.376 85.0892 135.89 85.0892 135.89Z" fill="#6B7050" stroke="#6B7050" stroke-width="2" stroke-linejoin="round"/>
        <path d="M86.4023 130.565L88.3356 131.302" stroke="#EAE7DB" stroke-width="2" stroke-linecap="round" stroke-linejoin="round"/>
        <path d="M95.834 127.156L94.8058 128.951" stroke="#EAE7DB" stroke-width="2" stroke-linecap="round" stroke-linejoin="round"/>
        <path d="M98.998 135.188L97.0459 134.503" stroke="#EAE7DB" stroke-width="2" stroke-linecap="round" stroke-linejoin="round"/>
        <path d="M88.6289 138.888L89.8813 137.242" stroke="#EAE7DB" stroke-width="2" stroke-linecap="round" stroke-linejoin="round"/>
    </g>
    <g class="flower">
        <path d="M104.568 22.5C104.568 22.5 99.0682 12 108.568 12C118.069 12 112.568 21.5 112.568 21.5C112.568 21.5 123.569 17 123.068 26C122.568 35 113.568 30 113.568 30C113.568 30 118.068 39 109.568 39C101.069 39 104.568 31 104.568 31C104.568 31 96.067 36 95.0671 27.5C94.0673 19 104.568 22.5 104.568 22.5Z" fill="#6B7050" stroke="#6B7050" stroke-width="2" stroke-linejoin="round"/>
        <path d="M108.146 21.382L108.4 22.7732" stroke="#EAE7DB" stroke-width="2" stroke-linecap="round" stroke-linejoin="round"/>
        <path d="M113.48 25.6896L112.067 25.7242" stroke="#EAE7DB" stroke-width="2" stroke-linecap="round" stroke-linejoin="round"/>
        <path d="M109.904 30.384L109.613 29" stroke="#EAE7DB" stroke-width="2" stroke-linecap="round" stroke-linejoin="round"/>
        <path d="M104.068 25.6311L105.475 25.7801" stroke="#EAE7DB" stroke-width="2" stroke-linecap="round" stroke-linejoin="round"/>
    </g>
    <g class="flower">
        <path d="M232.758 96C232.758 96 225.424 82 238.091 82C250.758 82 243.424 94.6667 243.424 94.6667C243.424 94.6667 258.091 88.6667 257.424 100.667C256.758 112.667 244.758 106 244.758 106C244.758 106 250.757 118 239.424 118C228.092 118 232.758 107.333 232.758 107.333C232.758 107.333 221.423 114 220.089 102.667C218.756 91.3333 232.758 96 232.758 96Z" fill="#6B7050" stroke="#6B7050" stroke-width="2" stroke-linejoin="round"/>
        <path d="M237.529 94.5093L237.868 96.3643" stroke="#EAE7DB" stroke-width="2" stroke-linecap="round" stroke-linejoin="round"/>
        <path d="M244.641 100.253L242.756 100.299" stroke="#EAE7DB" stroke-width="2" stroke-linecap="round" stroke-linejoin="round"/>
        <path d="M239.873 106.512L239.485 104.667" stroke="#EAE7DB" stroke-width="2" stroke-linecap="round" stroke-linejoin="round"/>
        <path d="M232.092 100.175L233.967 100.374" stroke="#EAE7DB" stroke-width="2" stroke-linecap="round" stroke-linejoin="round"/>
    </g>
    <g class="flower">
        <path d="M182.589 110.743C182.589 110.743 176.589 102.243 185.089 100.243C193.589 98.2431 191.589 109.243 191.589 109.243C191.589 109.243 202.594 108.243 198.094 117.243C193.594 126.243 187.59 116.743 187.59 116.743C187.59 116.743 183.094 126.243 177.594 119.743C172.094 113.243 182.589 110.743 182.589 110.743Z" fill="#6B7050" stroke="#6B7050" stroke-width="2" stroke-linecap="round" stroke-linejoin="round"/>
        <path d="M187.176 107.743L187.406 109.138" stroke="#EAE7DB" stroke-width="2" stroke-linecap="round" stroke-linejoin="round"/>
        <path d="M190.818 113.709L189.594 113.002" stroke="#EAE7DB" stroke-width="2" stroke-linecap="round" stroke-linejoin="round"/>
        <path d="M184.594 113.709L185.818 113.002" stroke="#EAE7DB" stroke-width="2" stroke-linecap="round" stroke-linejoin="round"/>
    </g>
    <g class="flower">
        <path d="M313.589 316.743C313.589 316.743 307.589 308.243 316.089 306.243C324.589 304.243 322.589 315.243 322.589 315.243C322.589 315.243 333.594 314.243 329.094 323.243C324.594 332.243 318.59 322.743 318.59 322.743C318.59 322.743 314.094 332.243 308.594 325.743C303.094 319.243 313.589 316.743 313.589 316.743Z" fill="#6B7050" stroke="#6B7050" stroke-width="2" stroke-linecap="round" stroke-linejoin="round"/>
        <path d="M318.176 313.743L318.406 315.138" stroke="#EAE7DB" stroke-width="2" stroke-linecap="round" stroke-linejoin="round"/>
        <path d="M321.818 319.709L320.594 319.002" stroke="#EAE7DB" stroke-width="2" stroke-linecap="round" stroke-linejoin="round"/>
        <path d="M315.594 319.709L316.818 319.002" stroke="#EAE7DB" stroke-width="2" stroke-linecap="round" stroke-linejoin="round"/>
    </g>
    <g class="flower">
        <path d="M53.5888 230.743C53.5888 230.743 47.5888 222.243 56.0888 220.243C64.5888 218.243 62.589 229.243 62.589 229.243C62.589 229.243 73.5938 228.243 69.0938 237.243C64.5938 246.243 58.5895 236.743 58.5895 236.743C58.5895 236.743 54.0944 246.243 48.5944 239.743C43.0944 233.243 53.5888 230.743 53.5888 230.743Z" fill="#6B7050" stroke="#6B7050" stroke-width="2" stroke-linecap="round" stroke-linejoin="round"/>
        <path d="M58.1758 227.743L58.406 229.138" stroke="#EAE7DB" stroke-width="2" stroke-linecap="round" stroke-linejoin="round"/>
        <path d="M61.8184 233.709L60.5936 233.002" stroke="#EAE7DB" stroke-width="2" stroke-linecap="round" stroke-linejoin="round"/>
        <path d="M55.5938 233.709L56.8185 233.002" stroke="#EAE7DB" stroke-width="2" stroke-linecap="round" stroke-linejoin="round"/>
    </g>
    <g class="flower">
        <path d="M290.589 35.743C290.589 35.743 284.589 27.2431 293.089 25.2431C301.589 23.2431 299.589 34.243 299.589 34.243C299.589 34.243 310.594 33.243 306.094 42.243C301.594 51.243 295.59 41.743 295.59 41.743C295.59 41.743 291.094 51.243 285.594 44.743C280.094 38.243 290.589 35.743 290.589 35.743Z" fill="#6B7050" stroke="#6B7050" stroke-width="2" stroke-linecap="round" stroke-linejoin="round"/>
        <path d="M295.176 32.743L295.406 34.1384" stroke="#EAE7DB" stroke-width="2" stroke-linecap="round" stroke-linejoin="round"/>
        <path d="M298.818 38.709L297.594 38.0018" stroke="#EAE7DB" stroke-width="2" stroke-linecap="round" stroke-linejoin="round"/>
        <path d="M292.594 38.709L293.818 38.0018" stroke="#EAE7DB" stroke-width="2" stroke-linecap="round" stroke-linejoin="round"/>
    </g>
    <g class="flower">
        <path d="M310.589 121.743C310.589 121.743 304.589 113.243 313.089 111.243C321.589 109.243 319.589 120.243 319.589 120.243C319.589 120.243 330.594 119.243 326.094 128.243C321.594 137.243 315.59 127.743 315.59 127.743C315.59 127.743 311.094 137.243 305.594 130.743C300.094 124.243 310.589 121.743 310.589 121.743Z" fill="#6B7050" stroke="#6B7050" stroke-width="2" stroke-linecap="round" stroke-linejoin="round"/>
        <path d="M315.176 118.743L315.406 120.138" stroke="#EAE7DB" stroke-width="2" stroke-linecap="round" stroke-linejoin="round"/>
        <path d="M318.818 124.709L317.594 124.002" stroke="#EAE7DB" stroke-width="2" stroke-linecap="round" stroke-linejoin="round"/>
        <path d="M312.594 124.709L313.818 124.002" stroke="#EAE7DB" stroke-width="2" stroke-linecap="round" stroke-linejoin="round"/>
    </g>
    <g class="flower">
        <path d="M145.589 22.743C145.589 22.743 139.589 14.2431 148.089 12.2431C156.589 10.2431 154.589 21.243 154.589 21.243C154.589 21.243 165.594 20.243 161.094 29.243C156.594 38.243 150.59 28.743 150.59 28.743C150.59 28.743 146.094 38.243 140.594 31.743C135.094 25.243 145.589 22.743 145.589 22.743Z" fill="#6B7050" stroke="#6B7050" stroke-width="2" stroke-linecap="round" stroke-linejoin="round"/>
        <path d="M150.176 19.743L150.406 21.1384" stroke="#EAE7DB" stroke-width="2" stroke-linecap="round" stroke-linejoin="round"/>
        <path d="M153.818 25.709L152.594 25.0018" stroke="#EAE7DB" stroke-width="2" stroke-linecap="round" stroke-linejoin="round"/>
        <path d="M147.594 25.709L148.818 25.0018" stroke="#EAE7DB" stroke-width="2" stroke-linecap="round" stroke-linejoin="round"/>
    </g>
    <g class="flower">
        <path d="M62.5888 96.743C62.5888 96.743 56.5888 88.2431 65.0888 86.2431C73.5888 84.2431 71.589 95.243 71.589 95.243C71.589 95.243 82.5938 94.243 78.0938 103.243C73.5938 112.243 67.5895 102.743 67.5895 102.743C67.5895 102.743 63.0944 112.243 57.5944 105.743C52.0944 99.243 62.5888 96.743 62.5888 96.743Z" fill="#6B7050" stroke="#6B7050" stroke-width="2" stroke-linecap="round" stroke-linejoin="round"/>
        <path d="M67.1758 93.743L67.406 95.1384" stroke="#EAE7DB" stroke-width="2" stroke-linecap="round" stroke-linejoin="round"/>
        <path d="M70.8184 99.709L69.5936 99.0018" stroke="#EAE7DB" stroke-width="2" stroke-linecap="round" stroke-linejoin="round"/>
        <path d="M64.5938 99.709L65.8185 99.0018" stroke="#EAE7DB" stroke-width="2" stroke-linecap="round" stroke-linejoin="round"/>
    </g>
    <g class="flower">
        <path d="M144.589 335.743C144.589 335.743 138.589 327.243 147.089 325.243C155.589 323.243 153.589 334.243 153.589 334.243C153.589 334.243 164.594 333.243 160.094 342.243C155.594 351.243 149.59 341.743 149.59 341.743C149.59 341.743 145.094 351.243 139.594 344.743C134.094 338.243 144.589 335.743 144.589 335.743Z" fill="#6B7050" stroke="#6B7050" stroke-width="2" stroke-linecap="round" stroke-linejoin="round"/>
        <path d="M149.176 332.743L149.406 334.138" stroke="#EAE7DB" stroke-width="2" stroke-linecap="round" stroke-linejoin="round"/>
        <path d="M152.818 338.709L151.594 338.002" stroke="#EAE7DB" stroke-width="2" stroke-linecap="round" stroke-linejoin="round"/>
        <path d="M146.594 338.709L147.818 338.002" stroke="#EAE7DB" stroke-width="2" stroke-linecap="round" stroke-linejoin="round"/>
    </g>
    <g class="flower">
        <path d="M173.589 288.743C173.589 288.743 167.589 280.243 176.089 278.243C184.589 276.243 182.589 287.243 182.589 287.243C182.589 287.243 193.594 286.243 189.094 295.243C184.594 304.243 178.59 294.743 178.59 294.743C178.59 294.743 174.094 304.243 168.594 297.743C163.094 291.243 173.589 288.743 173.589 288.743Z" fill="#6B7050" stroke="#6B7050" stroke-width="2" stroke-linecap="round" stroke-linejoin="round"/>
        <path d="M178.176 285.743L178.406 287.138" stroke="#EAE7DB" stroke-width="2" stroke-linecap="round" stroke-linejoin="round"/>
        <path d="M181.818 291.709L180.594 291.002" stroke="#EAE7DB" stroke-width="2" stroke-linecap="round" stroke-linejoin="round"/>
        <path d="M175.594 291.709L176.818 291.002" stroke="#EAE7DB" stroke-width="2" stroke-linecap="round" stroke-linejoin="round"/>
    </g>
    <g class="flower">
        <path d="M120.589 263.743C120.589 263.743 114.589 255.243 123.089 253.243C131.589 251.243 129.589 262.243 129.589 262.243C129.589 262.243 140.594 261.243 136.094 270.243C131.594 279.243 125.59 269.743 125.59 269.743C125.59 269.743 121.094 279.243 115.594 272.743C110.094 266.243 120.589 263.743 120.589 263.743Z" fill="#6B7050" stroke="#6B7050" stroke-width="2" stroke-linecap="round" stroke-linejoin="round"/>
        <path d="M125.176 260.743L125.406 262.138" stroke="#EAE7DB" stroke-width="2" stroke-linecap="round" stroke-linejoin="round"/>
        <path d="M128.818 266.709L127.594 266.002" stroke="#EAE7DB" stroke-width="2" stroke-linecap="round" stroke-linejoin="round"/>
        <path d="M122.594 266.709L123.818 266.002" stroke="#EAE7DB" stroke-width="2" stroke-linecap="round" stroke-linejoin="round"/>
    </g>
    <g class="flower">
        <path d="M64.5888 332.743C64.5888 332.743 58.5888 324.243 67.0888 322.243C75.5888 320.243 73.589 331.243 73.589 331.243C73.589 331.243 84.5938 330.243 80.0938 339.243C75.5938 348.243 69.5895 338.743 69.5895 338.743C69.5895 338.743 65.0944 348.243 59.5944 341.743C54.0944 335.243 64.5888 332.743 64.5888 332.743Z" fill="#6B7050" stroke="#6B7050" stroke-width="2" stroke-linecap="round" stroke-linejoin="round"/>
        <path d="M69.1758 329.743L69.406 331.138" stroke="#EAE7DB" stroke-width="2" stroke-linecap="round" stroke-linejoin="round"/>
        <path d="M72.8184 335.709L71.5936 335.002" stroke="#EAE7DB" stroke-width="2" stroke-linecap="round" stroke-linejoin="round"/>
        <path d="M66.5938 335.709L67.8185 335.002" stroke="#EAE7DB" stroke-width="2" stroke-linecap="round" stroke-linejoin="round"/>
    </g>
    <g class="flower">
        <path d="M26.5888 290.743C26.5888 290.743 20.5888 282.243 29.0888 280.243C37.5888 278.243 35.589 289.243 35.589 289.243C35.589 289.243 46.5938 288.243 42.0938 297.243C37.5938 306.243 31.5895 296.743 31.5895 296.743C31.5895 296.743 27.0944 306.243 21.5944 299.743C16.0944 293.243 26.5888 290.743 26.5888 290.743Z" fill="#6B7050" stroke="#6B7050" stroke-width="2" stroke-linecap="round" stroke-linejoin="round"/>
        <path d="M31.1758 287.743L31.406 289.138" stroke="#EAE7DB" stroke-width="2" stroke-linecap="round" stroke-linejoin="round"/>
        <path d="M34.8184 293.709L33.5936 293.002" stroke="#EAE7DB" stroke-width="2" stroke-linecap="round" stroke-linejoin="round"/>
        <path d="M28.5938 293.709L29.8185 293.002" stroke="#EAE7DB" stroke-width="2" stroke-linecap="round" stroke-linejoin="round"/>
    </g>
    <g class="flower">
        <path d="M271.589 216.743C271.589 216.743 265.589 208.243 274.089 206.243C282.589 204.243 280.589 215.243 280.589 215.243C280.589 215.243 291.594 214.243 287.094 223.243C282.594 232.243 276.59 222.743 276.59 222.743C276.59 222.743 272.094 232.243 266.594 225.743C261.094 219.243 271.589 216.743 271.589 216.743Z" fill="#6B7050" stroke="#6B7050" stroke-width="2" stroke-linecap="round" stroke-linejoin="round"/>
        <path d="M276.176 213.743L276.406 215.138" stroke="#EAE7DB" stroke-width="2" stroke-linecap="round" stroke-linejoin="round"/>
        <path d="M279.818 219.709L278.594 219.002" stroke="#EAE7DB" stroke-width="2" stroke-linecap="round" stroke-linejoin="round"/>
        <path d="M273.594 219.709L274.818 219.002" stroke="#EAE7DB" stroke-width="2" stroke-linecap="round" stroke-linejoin="round"/>
    </g>
    <g class="flower">
        <path d="M243.268 195.262C243.268 195.262 245.111 185.022 252.502 189.672C259.893 194.322 250.654 200.619 250.654 200.619C250.654 200.619 259.091 207.755 249.522 210.868C239.954 213.98 242.505 203.035 242.505 203.035C242.505 203.035 232.584 206.502 233.352 198.022C234.121 189.542 243.268 195.262 243.268 195.262Z" fill="#6B7050" stroke="#6B7050" stroke-width="2" stroke-linecap="round" stroke-linejoin="round"/>
        <path d="M248.625 196.423L247.793 197.567" stroke="#EAE7DB" stroke-width="2" stroke-linecap="round" stroke-linejoin="round"/>
        <path d="M246.932 203.205L246.576 201.837" stroke="#EAE7DB" stroke-width="2" stroke-linecap="round" stroke-linejoin="round"/>
        <path d="M242.562 198.772L243.926 199.148" stroke="#EAE7DB" stroke-width="2" stroke-linecap="round" stroke-linejoin="round"/>
    </g>
    <g class="flower">
        <path d="M339.655 136.234C339.655 136.234 341.497 125.994 348.888 130.644C356.279 135.294 347.041 141.591 347.041 141.591C347.041 141.591 355.478 148.727 345.909 151.84C336.34 154.952 338.892 144.007 338.892 144.007C338.892 144.007 328.97 147.474 329.739 138.994C330.508 130.514 339.655 136.234 339.655 136.234Z" fill="#6B7050" stroke="#6B7050" stroke-width="2" stroke-linecap="round" stroke-linejoin="round"/>
        <path d="M345.012 137.395L344.179 138.538" stroke="#EAE7DB" stroke-width="2" stroke-linecap="round" stroke-linejoin="round"/>
        <path d="M343.318 144.177L342.962 142.808" stroke="#EAE7DB" stroke-width="2" stroke-linecap="round" stroke-linejoin="round"/>
        <path d="M338.949 139.744L340.313 140.12" stroke="#EAE7DB" stroke-width="2" stroke-linecap="round" stroke-linejoin="round"/>
    </g>
    <g class="flower">
        <path d="M296.446 195.839C296.446 195.839 301.379 190.69 303.837 196.146C306.295 201.602 298.634 201.697 298.634 201.697C298.634 201.697 300.747 208.969 294.104 207.12C287.46 205.271 293.065 199.989 293.065 199.989C293.065 199.989 286.086 198.209 289.738 193.658C293.391 189.107 296.446 195.839 296.446 195.839Z" fill="#6B7050" stroke="#6B7050" stroke-width="2" stroke-linecap="round" stroke-linejoin="round"/>
        <path d="M299.064 198.532L298.156 198.869" stroke="#EAE7DB" stroke-width="2" stroke-linecap="round" stroke-linejoin="round"/>
        <path d="M295.527 201.763L295.843 200.846" stroke="#EAE7DB" stroke-width="2" stroke-linecap="round" stroke-linejoin="round"/>
        <path d="M294.713 197.576L295.349 198.307" stroke="#EAE7DB" stroke-width="2" stroke-linecap="round" stroke-linejoin="round"/>
    </g>
    <g class="flower">
        <path d="M219.446 123.839C219.446 123.839 224.379 118.69 226.837 124.146C229.295 129.602 221.634 129.697 221.634 129.697C221.634 129.697 223.747 136.969 217.104 135.12C210.46 133.271 216.065 127.989 216.065 127.989C216.065 127.989 209.086 126.209 212.738 121.658C216.391 117.107 219.446 123.839 219.446 123.839Z" fill="#6B7050" stroke="#6B7050" stroke-width="2" stroke-linecap="round" stroke-linejoin="round"/>
        <path d="M222.064 126.532L221.156 126.869" stroke="#EAE7DB" stroke-width="2" stroke-linecap="round" stroke-linejoin="round"/>
        <path d="M218.527 129.763L218.843 128.846" stroke="#EAE7DB" stroke-width="2" stroke-linecap="round" stroke-linejoin="round"/>
        <path d="M217.713 125.576L218.349 126.307" stroke="#EAE7DB" stroke-width="2" stroke-linecap="round" stroke-linejoin="round"/>
    </g>
    <g class="flower">
        <path d="M88.4464 166.839C88.4464 166.839 93.3787 161.69 95.8371 167.146C98.2954 172.602 90.6338 172.697 90.6338 172.697C90.6338 172.697 92.7474 179.969 86.1039 178.12C79.4603 176.271 85.0649 170.989 85.0649 170.989C85.0649 170.989 78.0856 169.209 81.7381 164.658C85.3905 160.107 88.4464 166.839 88.4464 166.839Z" fill="#6B7050" stroke="#6B7050" stroke-width="2" stroke-linecap="round" stroke-linejoin="round"/>
        <path d="M91.0645 169.532L90.1559 169.869" stroke="#EAE7DB" stroke-width="2" stroke-linecap="round" stroke-linejoin="round"/>
        <path d="M87.5273 172.763L87.8427 171.846" stroke="#EAE7DB" stroke-width="2" stroke-linecap="round" stroke-linejoin="round"/>
        <path d="M86.7129 168.576L87.3489 169.307" stroke="#EAE7DB" stroke-width="2" stroke-linecap="round" stroke-linejoin="round"/>
    </g>
    <g class="flower">
        <path d="M128.446 43.8389C128.446 43.8389 133.379 38.6898 135.837 44.1459C138.295 49.602 130.634 49.697 130.634 49.697C130.634 49.697 132.747 56.969 126.104 55.1202C119.46 53.2715 125.065 47.9885 125.065 47.9885C125.065 47.9885 118.086 46.2085 121.738 41.6576C125.391 37.1066 128.446 43.8389 128.446 43.8389Z" fill="#6B7050" stroke="#6B7050" stroke-width="2" stroke-linecap="round" stroke-linejoin="round"/>
        <path d="M131.064 46.5319L130.156 46.8694" stroke="#EAE7DB" stroke-width="2" stroke-linecap="round" stroke-linejoin="round"/>
        <path d="M127.527 49.763L127.843 48.8465" stroke="#EAE7DB" stroke-width="2" stroke-linecap="round" stroke-linejoin="round"/>
        <path d="M126.713 45.5757L127.349 46.307" stroke="#EAE7DB" stroke-width="2" stroke-linecap="round" stroke-linejoin="round"/>
    </g>
    <g class="flower">
        <path d="M28.4464 313.839C28.4464 313.839 33.3787 308.69 35.8371 314.146C38.2954 319.602 30.6338 319.697 30.6338 319.697C30.6338 319.697 32.7474 326.969 26.1039 325.12C19.4603 323.271 25.0649 317.989 25.0649 317.989C25.0649 317.989 18.0856 316.209 21.7381 311.658C25.3905 307.107 28.4464 313.839 28.4464 313.839Z" fill="#6B7050" stroke="#6B7050" stroke-width="2" stroke-linecap="round" stroke-linejoin="round"/>
        <path d="M31.0645 316.532L30.1559 316.869" stroke="#EAE7DB" stroke-width="2" stroke-linecap="round" stroke-linejoin="round"/>
        <path d="M27.5273 319.763L27.8427 318.846" stroke="#EAE7DB" stroke-width="2" stroke-linecap="round" stroke-linejoin="round"/>
        <path d="M26.7129 315.576L27.3489 316.307" stroke="#EAE7DB" stroke-width="2" stroke-linecap="round" stroke-linejoin="round"/>
    </g>
    <g class="flower">
        <path d="M154.33 293.641C154.33 293.641 158.055 299.721 152.153 300.71C146.251 301.699 148.108 294.265 148.108 294.265C148.108 294.265 140.538 294.459 144.017 288.504C147.495 282.55 151.178 289.314 151.178 289.314C151.178 289.314 154.675 283.018 158.147 287.708C161.619 292.399 154.33 293.641 154.33 293.641Z" fill="#6B7050" stroke="#6B7050" stroke-width="2" stroke-linecap="round" stroke-linejoin="round"/>
        <path d="M151.061 295.488L150.965 294.523" stroke="#EAE7DB" stroke-width="2" stroke-linecap="round" stroke-linejoin="round"/>
        <path d="M148.836 291.245L149.642 291.783" stroke="#EAE7DB" stroke-width="2" stroke-linecap="round" stroke-linejoin="round"/>
        <path d="M153.092 291.523L152.223 291.952" stroke="#EAE7DB" stroke-width="2" stroke-linecap="round" stroke-linejoin="round"/>
    </g>
    <g class="flower">
        <path d="M301.822 303.449C301.822 303.449 305.547 309.53 299.645 310.519C293.743 311.508 295.601 304.074 295.601 304.074C295.601 304.074 288.03 304.267 291.509 298.313C294.987 292.359 298.67 299.123 298.67 299.123C298.67 299.123 302.168 292.827 305.639 297.517C309.111 302.207 301.822 303.449 301.822 303.449Z" fill="#6B7050" stroke="#6B7050" stroke-width="2" stroke-linecap="round" stroke-linejoin="round"/>
        <path d="M298.553 305.297L298.458 304.332" stroke="#EAE7DB" stroke-width="2" stroke-linecap="round" stroke-linejoin="round"/>
        <path d="M296.328 301.054L297.134 301.592" stroke="#EAE7DB" stroke-width="2" stroke-linecap="round" stroke-linejoin="round"/>
        <path d="M300.584 301.331L299.715 301.76" stroke="#EAE7DB" stroke-width="2" stroke-linecap="round" stroke-linejoin="round"/>
    </g>
    <g class="flower">
        <path d="M346.822 290.449C346.822 290.449 350.547 296.53 344.645 297.519C338.743 298.508 340.601 291.074 340.601 291.074C340.601 291.074 333.03 291.267 336.509 285.313C339.987 279.359 343.67 286.123 343.67 286.123C343.67 286.123 347.168 279.827 350.639 284.517C354.111 289.207 346.822 290.449 346.822 290.449Z" fill="#6B7050" stroke="#6B7050" stroke-width="2" stroke-linecap="round" stroke-linejoin="round"/>
        <path d="M343.553 292.297L343.458 291.332" stroke="#EAE7DB" stroke-width="2" stroke-linecap="round" stroke-linejoin="round"/>
        <path d="M341.328 288.054L342.134 288.592" stroke="#EAE7DB" stroke-width="2" stroke-linecap="round" stroke-linejoin="round"/>
        <path d="M345.584 288.331L344.715 288.76" stroke="#EAE7DB" stroke-width="2" stroke-linecap="round" stroke-linejoin="round"/>
    </g>
    <g class="flower">
        <path d="M265.822 132.449C265.822 132.449 269.547 138.53 263.645 139.519C257.743 140.508 259.601 133.074 259.601 133.074C259.601 133.074 252.03 133.267 255.509 127.313C258.987 121.359 262.67 128.123 262.67 128.123C262.67 128.123 266.168 121.827 269.639 126.517C273.111 131.207 265.822 132.449 265.822 132.449Z" fill="#6B7050" stroke="#6B7050" stroke-width="2" stroke-linecap="round" stroke-linejoin="round"/>
        <path d="M262.553 134.297L262.458 133.332" stroke="#EAE7DB" stroke-width="2" stroke-linecap="round" stroke-linejoin="round"/>
        <path d="M260.328 130.054L261.134 130.592" stroke="#EAE7DB" stroke-width="2" stroke-linecap="round" stroke-linejoin="round"/>
        <path d="M264.584 130.331L263.715 130.76" stroke="#EAE7DB" stroke-width="2" stroke-linecap="round" stroke-linejoin="round"/>
    </g>
    <g class="flower">
        <path d="M270.822 51.4494C270.822 51.4494 274.547 57.5297 268.645 58.5186C262.743 59.5075 264.601 52.074 264.601 52.074C264.601 52.074 257.03 52.2674 260.509 46.3131C263.987 40.3588 267.67 47.1232 267.67 47.1232C267.67 47.1232 271.168 40.8267 274.639 45.5171C278.111 50.2074 270.822 51.4494 270.822 51.4494Z" fill="#6B7050" stroke="#6B7050" stroke-width="2" stroke-linecap="round" stroke-linejoin="round"/>
        <path d="M267.553 53.2966L267.458 52.3321" stroke="#EAE7DB" stroke-width="2" stroke-linecap="round" stroke-linejoin="round"/>
        <path d="M265.328 49.0538L266.134 49.592" stroke="#EAE7DB" stroke-width="2" stroke-linecap="round" stroke-linejoin="round"/>
        <path d="M269.584 49.3313L268.715 49.7603" stroke="#EAE7DB" stroke-width="2" stroke-linecap="round" stroke-linejoin="round"/>
    </g>
    <g class="flower">
        <path d="M171.655 42.2338C171.655 42.2338 173.497 31.9938 180.888 36.6439C188.279 41.294 179.041 47.5911 179.041 47.5911C179.041 47.5911 187.478 54.7271 177.909 57.8395C168.34 60.952 170.892 50.0071 170.892 50.0071C170.892 50.0071 160.97 53.474 161.739 44.9941C162.508 36.5142 171.655 42.2338 171.655 42.2338Z" fill="#6B7050" stroke="#6B7050" stroke-width="2" stroke-linecap="round" stroke-linejoin="round"/>
        <path d="M177.012 43.3949L176.179 44.5383" stroke="#EAE7DB" stroke-width="2" stroke-linecap="round" stroke-linejoin="round"/>
        <path d="M175.318 50.177L174.962 48.8084" stroke="#EAE7DB" stroke-width="2" stroke-linecap="round" stroke-linejoin="round"/>
        <path d="M170.949 45.7437L172.313 46.1196" stroke="#EAE7DB" stroke-width="2" stroke-linecap="round" stroke-linejoin="round"/>
    </g>
    <g class="flower">
        <path d="M75.6551 66.2338C75.6551 66.2338 77.4974 55.9938 84.8883 60.6439C92.2793 65.294 83.041 71.5911 83.041 71.5911C83.041 71.5911 91.478 78.7271 81.9092 81.8395C72.3403 84.952 74.8919 74.0071 74.8919 74.0071C74.8919 74.0071 64.9704 77.474 65.7392 68.9941C66.508 60.5142 75.6551 66.2338 75.6551 66.2338Z" fill="#6B7050" stroke="#6B7050" stroke-width="2" stroke-linecap="round" stroke-linejoin="round"/>
        <path d="M81.0117 67.3949L80.1795 68.5383" stroke="#EAE7DB" stroke-width="2" stroke-linecap="round" stroke-linejoin="round"/>
        <path d="M79.3184 74.177L78.9623 72.8084" stroke="#EAE7DB" stroke-width="2" stroke-linecap="round" stroke-linejoin="round"/>
        <path d="M74.9492 69.7437L76.3125 70.1196" stroke="#EAE7DB" stroke-width="2" stroke-linecap="round" stroke-linejoin="round"/>
    </g>
    <g class="flower">
        <path d="M58.6551 279.234C58.6551 279.234 60.4974 268.994 67.8883 273.644C75.2793 278.294 66.041 284.591 66.041 284.591C66.041 284.591 74.478 291.727 64.9092 294.84C55.3403 297.952 57.8919 287.007 57.8919 287.007C57.8919 287.007 47.9704 290.474 48.7392 281.994C49.508 273.514 58.6551 279.234 58.6551 279.234Z" fill="#6B7050" stroke="#6B7050" stroke-width="2" stroke-linecap="round" stroke-linejoin="round"/>
        <path d="M64.0117 280.395L63.1795 281.538" stroke="#EAE7DB" stroke-width="2" stroke-linecap="round" stroke-linejoin="round"/>
        <path d="M62.3184 287.177L61.9623 285.808" stroke="#EAE7DB" stroke-width="2" stroke-linecap="round" stroke-linejoin="round"/>
        <path d="M57.9492 282.744L59.3125 283.12" stroke="#EAE7DB" stroke-width="2" stroke-linecap="round" stroke-linejoin="round"/>
    </g>
    <g class="flower">
        <path d="M286.655 332.234C286.655 332.234 288.497 321.994 295.888 326.644C303.279 331.294 294.041 337.591 294.041 337.591C294.041 337.591 302.478 344.727 292.909 347.84C283.34 350.952 285.892 340.007 285.892 340.007C285.892 340.007 275.97 343.474 276.739 334.994C277.508 326.514 286.655 332.234 286.655 332.234Z" fill="#6B7050" stroke="#6B7050" stroke-width="2" stroke-linecap="round" stroke-linejoin="round"/>
        <path d="M292.012 333.395L291.179 334.538" stroke="#EAE7DB" stroke-width="2" stroke-linecap="round" stroke-linejoin="round"/>
        <path d="M290.318 340.177L289.962 338.808" stroke="#EAE7DB" stroke-width="2" stroke-linecap="round" stroke-linejoin="round"/>
        <path d="M285.949 335.744L287.313 336.12" stroke="#EAE7DB" stroke-width="2" stroke-linecap="round" stroke-linejoin="round"/>
    </g>
    <g class="flower">
        <path d="M193.655 259.234C193.655 259.234 195.497 248.994 202.888 253.644C210.279 258.294 201.041 264.591 201.041 264.591C201.041 264.591 209.478 271.727 199.909 274.84C190.34 277.952 192.892 267.007 192.892 267.007C192.892 267.007 182.97 270.474 183.739 261.994C184.508 253.514 193.655 259.234 193.655 259.234Z" fill="#6B7050" stroke="#6B7050" stroke-width="2" stroke-linecap="round" stroke-linejoin="round"/>
        <path d="M199.012 260.395L198.179 261.538" stroke="#EAE7DB" stroke-width="2" stroke-linecap="round" stroke-linejoin="round"/>
        <path d="M197.318 267.177L196.962 265.808" stroke="#EAE7DB" stroke-width="2" stroke-linecap="round" stroke-linejoin="round"/>
        <path d="M192.949 262.744L194.313 263.12" stroke="#EAE7DB" stroke-width="2" stroke-linecap="round" stroke-linejoin="round"/>
    </g>
    <g class="flower">
        <path d="M330.581 264.012C330.581 264.012 339.47 258.605 340.886 267.221C342.302 275.838 331.464 273.093 331.464 273.093C331.464 273.093 331.711 284.14 323.039 279.037C314.367 273.934 324.254 268.592 324.254 268.592C324.254 268.592 315.082 263.459 321.942 258.415C328.802 253.371 330.581 264.012 330.581 264.012Z" fill="#6B7050" stroke="#6B7050" stroke-width="2" stroke-linecap="round" stroke-linejoin="round"/>
        <path d="M333.262 268.792L331.854 268.927" stroke="#EAE7DB" stroke-width="2" stroke-linecap="round" stroke-linejoin="round"/>
        <path d="M327.061 272.02L327.849 270.846" stroke="#EAE7DB" stroke-width="2" stroke-linecap="round" stroke-linejoin="round"/>
        <path d="M327.484 265.81L328.106 267.08" stroke="#EAE7DB" stroke-width="2" stroke-linecap="round" stroke-linejoin="round"/>
    </g>
    <g class="flower">
        <path d="M247.378 165.342C247.378 165.342 256.267 159.935 257.683 168.552C259.099 177.168 248.261 174.423 248.261 174.423C248.261 174.423 248.508 185.471 239.836 180.368C231.164 175.265 241.051 169.922 241.051 169.922C241.051 169.922 231.879 164.79 238.739 159.746C245.599 154.702 247.378 165.342 247.378 165.342Z" fill="#6B7050" stroke="#6B7050" stroke-width="2" stroke-linecap="round" stroke-linejoin="round"/>
        <path d="M250.059 170.123L248.651 170.257" stroke="#EAE7DB" stroke-width="2" stroke-linecap="round" stroke-linejoin="round"/>
        <path d="M243.857 173.35L244.646 172.177" stroke="#EAE7DB" stroke-width="2" stroke-linecap="round" stroke-linejoin="round"/>
        <path d="M244.281 167.14L244.903 168.41" stroke="#EAE7DB" stroke-width="2" stroke-linecap="round" stroke-linejoin="round"/>
    </g>
    <g class="flower">
        <path d="M119.378 325.342C119.378 325.342 128.267 319.935 129.683 328.552C131.099 337.168 120.261 334.423 120.261 334.423C120.261 334.423 120.508 345.471 111.836 340.368C103.164 335.265 113.051 329.922 113.051 329.922C113.051 329.922 103.879 324.79 110.739 319.746C117.599 314.702 119.378 325.342 119.378 325.342Z" fill="#6B7050" stroke="#6B7050" stroke-width="2" stroke-linecap="round" stroke-linejoin="round"/>
        <path d="M122.059 330.123L120.651 330.257" stroke="#EAE7DB" stroke-width="2" stroke-linecap="round" stroke-linejoin="round"/>
        <path d="M115.857 333.35L116.646 332.177" stroke="#EAE7DB" stroke-width="2" stroke-linecap="round" stroke-linejoin="round"/>
        <path d="M116.281 327.14L116.903 328.41" stroke="#EAE7DB" stroke-width="2" stroke-linecap="round" stroke-linejoin="round"/>
    </g>
    <g class="flower">
        <path d="M124.146 163.763C124.146 163.763 137.178 155.837 139.254 168.469C141.33 181.101 125.441 177.077 125.441 177.077C125.441 177.077 125.804 193.273 113.09 185.791C100.376 178.31 114.871 170.478 114.871 170.478C114.871 170.478 101.425 162.954 111.482 155.559C121.539 148.165 124.146 163.763 124.146 163.763Z" fill="#6B7050" stroke="#6B7050" stroke-width="2" stroke-linecap="round" stroke-linejoin="round"/>
        <path d="M128.076 170.772L126.012 170.969" stroke="#EAE7DB" stroke-width="2" stroke-linecap="round" stroke-linejoin="round"/>
        <path d="M118.986 175.504L120.143 173.783" stroke="#EAE7DB" stroke-width="2" stroke-linecap="round" stroke-linejoin="round"/>
        <path d="M119.607 166.4L120.519 168.261" stroke="#EAE7DB" stroke-width="2" stroke-linecap="round" stroke-linejoin="round"/>
    </g>
    <g class="flower">
        <path d="M208.378 58.342C208.378 58.342 217.267 52.9353 218.683 61.5519C220.099 70.1684 209.261 67.4235 209.261 67.4235C209.261 67.4235 209.508 78.4708 200.836 73.3678C192.164 68.2648 202.051 62.9221 202.051 62.9221C202.051 62.9221 192.879 57.7899 199.739 52.7457C206.599 47.7016 208.378 58.342 208.378 58.342Z" fill="#6B7050" stroke="#6B7050" stroke-width="2" stroke-linecap="round" stroke-linejoin="round"/>
        <path d="M211.059 63.1228L209.651 63.2573" stroke="#EAE7DB" stroke-width="2" stroke-linecap="round" stroke-linejoin="round"/>
        <path d="M204.857 66.3502L205.646 65.1765" stroke="#EAE7DB" stroke-width="2" stroke-linecap="round" stroke-linejoin="round"/>
        <path d="M205.281 60.1401L205.903 61.4102" stroke="#EAE7DB" stroke-width="2" stroke-linecap="round" stroke-linejoin="round"/>
    </g>
    <g class="flower">
        <path d="M261.378 18.342C261.378 18.342 270.267 12.9353 271.683 21.5519C273.099 30.1684 262.261 27.4235 262.261 27.4235C262.261 27.4235 262.508 38.4708 253.836 33.3678C245.164 28.2648 255.051 22.9221 255.051 22.9221C255.051 22.9221 245.879 17.7899 252.739 12.7457C259.599 7.7016 261.378 18.342 261.378 18.342Z" fill="#6B7050" stroke="#6B7050" stroke-width="2" stroke-linecap="round" stroke-linejoin="round"/>
        <path d="M264.059 23.1228L262.651 23.2573" stroke="#EAE7DB" stroke-width="2" stroke-linecap="round" stroke-linejoin="round"/>
        <path d="M257.857 26.3502L258.646 25.1765" stroke="#EAE7DB" stroke-width="2" stroke-linecap="round" stroke-linejoin="round"/>
        <path d="M258.281 20.1401L258.903 21.4102" stroke="#EAE7DB" stroke-width="2" stroke-linecap="round" stroke-linejoin="round"/>
    </g>
    <g class="flower">
        <path d="M57.3777 20.342C57.3777 20.342 66.2669 14.9353 67.6829 23.5519C69.0988 32.1684 58.2607 29.4235 58.2607 29.4235C58.2607 29.4235 58.5083 40.4708 49.8359 35.3678C41.1636 30.2648 51.0508 24.9221 51.0508 24.9221C51.0508 24.9221 41.8793 19.7899 48.7391 14.7457C55.5989 9.7016 57.3777 20.342 57.3777 20.342Z" fill="#6B7050" stroke="#6B7050" stroke-width="2" stroke-linecap="round" stroke-linejoin="round"/>
        <path d="M60.0586 25.1228L58.6508 25.2573" stroke="#EAE7DB" stroke-width="2" stroke-linecap="round" stroke-linejoin="round"/>
        <path d="M53.8574 28.3502L54.6464 27.1765" stroke="#EAE7DB" stroke-width="2" stroke-linecap="round" stroke-linejoin="round"/>
        <path d="M54.2812 22.1401L54.9032 23.4102" stroke="#EAE7DB" stroke-width="2" stroke-linecap="round" stroke-linejoin="round"/>
    </g>
    <g class="flower">
        <path d="M30.172 146.19C30.172 146.19 36.9413 131.306 46.4257 140.876C55.9101 150.446 39.3754 156.83 39.3754 156.83C39.3754 156.83 49.4957 170.523 33.6872 171.969C17.8786 173.415 26.0031 157.706 26.0031 157.706C26.0031 157.706 9.51921 159.568 13.9698 146.984C18.4205 134.4 30.172 146.19 30.172 146.19Z" fill="#6B7050" stroke="#6B7050" stroke-width="2" stroke-linecap="round" stroke-linejoin="round"/>
        <path d="M37.9004 149.779L36.1882 151.227" stroke="#EAE7DB" stroke-width="2" stroke-linecap="round" stroke-linejoin="round"/>
        <path d="M32.6953 159.476L32.6807 157.281" stroke="#EAE7DB" stroke-width="2" stroke-linecap="round" stroke-linejoin="round"/>
        <path d="M27.7383 151.267L29.674 152.302" stroke="#EAE7DB" stroke-width="2" stroke-linecap="round" stroke-linejoin="round"/>
    </g>
    <g class="flower">
        <path d="M143.561 228.5C143.561 228.5 150.33 213.616 159.814 223.186C169.299 232.756 152.764 239.139 152.764 239.139C152.764 239.139 162.884 252.833 147.076 254.279C131.267 255.725 139.392 240.015 139.392 240.015C139.392 240.015 122.908 241.878 127.359 229.294C131.809 216.709 143.561 228.5 143.561 228.5Z" fill="#6B7050" stroke="#6B7050" stroke-width="2" stroke-linecap="round" stroke-linejoin="round"/>
        <path d="M151.289 232.089L149.577 233.536" stroke="#EAE7DB" stroke-width="2" stroke-linecap="round" stroke-linejoin="round"/>
        <path d="M146.084 241.786L146.069 239.591" stroke="#EAE7DB" stroke-width="2" stroke-linecap="round" stroke-linejoin="round"/>
        <path d="M141.127 233.577L143.063 234.612" stroke="#EAE7DB" stroke-width="2" stroke-linecap="round" stroke-linejoin="round"/>
    </g>
    <g class="flower">
        <path d="M282.561 101.5C282.561 101.5 289.33 86.616 298.814 96.186C308.299 105.756 291.764 112.139 291.764 112.139C291.764 112.139 301.884 125.833 286.076 127.279C270.267 128.725 278.392 113.015 278.392 113.015C278.392 113.015 261.908 114.878 266.359 102.294C270.809 89.7095 282.561 101.5 282.561 101.5Z" fill="#6B7050" stroke="#6B7050" stroke-width="2" stroke-linecap="round" stroke-linejoin="round"/>
        <path d="M290.289 105.089L288.577 106.536" stroke="#EAE7DB" stroke-width="2" stroke-linecap="round" stroke-linejoin="round"/>
        <path d="M285.084 114.786L285.069 112.591" stroke="#EAE7DB" stroke-width="2" stroke-linecap="round" stroke-linejoin="round"/>
        <path d="M280.127 106.577L282.063 107.612" stroke="#EAE7DB" stroke-width="2" stroke-linecap="round" stroke-linejoin="round"/>
    </g>
    <g class="flower">
        <path d="M324.561 17.4997C324.561 17.4997 331.33 2.61598 340.814 12.186C350.299 21.756 333.764 28.1394 333.764 28.1394C333.764 28.1394 343.884 41.8329 328.076 43.2788C312.267 44.7247 320.392 29.0153 320.392 29.0153C320.392 29.0153 303.908 30.8777 308.359 18.2936C312.809 5.70945 324.561 17.4997 324.561 17.4997Z" fill="#6B7050" stroke="#6B7050" stroke-width="2" stroke-linecap="round" stroke-linejoin="round"/>
        <path d="M332.289 21.0885L330.577 22.5364" stroke="#EAE7DB" stroke-width="2" stroke-linecap="round" stroke-linejoin="round"/>
        <path d="M327.084 30.7857L327.069 28.5906" stroke="#EAE7DB" stroke-width="2" stroke-linecap="round" stroke-linejoin="round"/>
        <path d="M322.127 22.5769L324.063 23.6123" stroke="#EAE7DB" stroke-width="2" stroke-linecap="round" stroke-linejoin="round"/>
    </g>
    <g class="flower">
        <path d="M247.561 322.5C247.561 322.5 254.33 307.616 263.814 317.186C273.299 326.756 256.764 333.139 256.764 333.139C256.764 333.139 266.884 346.833 251.076 348.279C235.267 349.725 243.392 334.015 243.392 334.015C243.392 334.015 226.908 335.878 231.359 323.294C235.809 310.709 247.561 322.5 247.561 322.5Z" fill="#6B7050" stroke="#6B7050" stroke-width="2" stroke-linecap="round" stroke-linejoin="round"/>
        <path d="M255.289 326.089L253.577 327.536" stroke="#EAE7DB" stroke-width="2" stroke-linecap="round" stroke-linejoin="round"/>
        <path d="M250.084 335.786L250.069 333.591" stroke="#EAE7DB" stroke-width="2" stroke-linecap="round" stroke-linejoin="round"/>
        <path d="M245.127 327.577L247.063 328.612" stroke="#EAE7DB" stroke-width="2" stroke-linecap="round" stroke-linejoin="round"/>
    </g>
    <g class="flower">
        <path d="M283.561 258.5C283.561 258.5 290.33 243.616 299.814 253.186C309.299 262.756 292.764 269.139 292.764 269.139C292.764 269.139 302.884 282.833 287.076 284.279C271.267 285.725 279.392 270.015 279.392 270.015C279.392 270.015 262.908 271.878 267.359 259.294C271.809 246.709 283.561 258.5 283.561 258.5Z" fill="#6B7050" stroke="#6B7050" stroke-width="2" stroke-linecap="round" stroke-linejoin="round"/>
        <path d="M291.289 262.089L289.577 263.536" stroke="#EAE7DB" stroke-width="2" stroke-linecap="round" stroke-linejoin="round"/>
        <path d="M286.084 271.786L286.069 269.591" stroke="#EAE7DB" stroke-width="2" stroke-linecap="round" stroke-linejoin="round"/>
        <path d="M281.127 263.577L283.063 264.612" stroke="#EAE7DB" stroke-width="2" stroke-linecap="round" stroke-linejoin="round"/>
    </g>
    <g class="flower">
        <path d="M347.396 186.747C347.396 186.747 363.1 191.299 354.998 202.064C346.896 212.829 338.194 197.388 338.194 197.388C338.194 197.388 326.103 209.377 322.393 193.942C318.683 178.508 335.399 184.282 335.399 184.282C335.399 184.282 331.179 168.239 344.274 170.828C357.368 173.418 347.396 186.747 347.396 186.747Z" fill="#6B7050" stroke="#6B7050" stroke-width="2" stroke-linecap="round" stroke-linejoin="round"/>
        <path d="M344.959 194.911L343.279 193.426" stroke="#EAE7DB" stroke-width="2" stroke-linecap="round" stroke-linejoin="round"/>
        <path d="M334.613 191.159L336.783 190.828" stroke="#EAE7DB" stroke-width="2" stroke-linecap="round" stroke-linejoin="round"/>
        <path d="M342.021 185.07L341.276 187.135" stroke="#EAE7DB" stroke-width="2" stroke-linecap="round" stroke-linejoin="round"/>
    </g>
    <g class="flower">
        <path d="M212.099 172.266C212.099 172.266 227.803 176.818 219.701 187.583C211.599 198.349 202.898 182.907 202.898 182.907C202.898 182.907 190.807 194.896 187.096 179.462C183.386 164.027 200.103 169.801 200.103 169.801C200.103 169.801 195.883 153.758 208.977 156.347C222.071 158.937 212.099 172.266 212.099 172.266Z" fill="#6B7050" stroke="#6B7050" stroke-width="2" stroke-linecap="round" stroke-linejoin="round"/>
        <path d="M209.662 180.431L207.982 178.945" stroke="#EAE7DB" stroke-width="2" stroke-linecap="round" stroke-linejoin="round"/>
        <path d="M199.316 176.678L201.486 176.347" stroke="#EAE7DB" stroke-width="2" stroke-linecap="round" stroke-linejoin="round"/>
        <path d="M206.725 170.59L205.979 172.654" stroke="#EAE7DB" stroke-width="2" stroke-linecap="round" stroke-linejoin="round"/>
    </g>
    <g class="flower">
        <path d="M38.0989 68.2658C38.0989 68.2658 53.8032 72.8181 45.7009 83.5834C37.5986 94.3486 28.8976 78.9073 28.8976 78.9073C28.8976 78.9073 16.8066 90.8964 13.0962 75.4616C9.38579 60.0268 26.1025 65.801 26.1025 65.801C26.1025 65.801 21.8826 49.758 34.977 52.3474C48.0714 54.9369 38.0989 68.2658 38.0989 68.2658Z" fill="#6B7050" stroke="#6B7050" stroke-width="2" stroke-linecap="round" stroke-linejoin="round"/>
        <path d="M35.6621 76.4305L33.9825 74.945" stroke="#EAE7DB" stroke-width="2" stroke-linecap="round" stroke-linejoin="round"/>
        <path d="M25.3164 72.6782L27.4865 72.3472" stroke="#EAE7DB" stroke-width="2" stroke-linecap="round" stroke-linejoin="round"/>
        <path d="M32.7246 66.5897L31.9792 68.6545" stroke="#EAE7DB" stroke-width="2" stroke-linecap="round" stroke-linejoin="round"/>
    </g>
    <g class="flower">
        <path d="M220.099 26.2658C220.099 26.2658 235.803 30.8181 227.701 41.5834C219.599 52.3486 210.898 36.9073 210.898 36.9073C210.898 36.9073 198.807 48.8964 195.096 33.4616C191.386 18.0268 208.103 23.801 208.103 23.801C208.103 23.801 203.883 7.75795 216.977 10.3474C230.071 12.9369 220.099 26.2658 220.099 26.2658Z" fill="#6B7050" stroke="#6B7050" stroke-width="2" stroke-linecap="round" stroke-linejoin="round"/>
        <path d="M217.662 34.4305L215.982 32.945" stroke="#EAE7DB" stroke-width="2" stroke-linecap="round" stroke-linejoin="round"/>
        <path d="M207.316 30.6782L209.486 30.3472" stroke="#EAE7DB" stroke-width="2" stroke-linecap="round" stroke-linejoin="round"/>
        <path d="M214.725 24.5897L213.979 26.6545" stroke="#EAE7DB" stroke-width="2" stroke-linecap="round" stroke-linejoin="round"/>
    </g>
    <g class="flower">
        <path d="M104.099 217.266C104.099 217.266 119.803 221.818 111.701 232.583C103.599 243.349 94.8976 227.907 94.8976 227.907C94.8976 227.907 82.8066 239.896 79.0962 224.462C75.3858 209.027 92.1025 214.801 92.1025 214.801C92.1025 214.801 87.8826 198.758 100.977 201.347C114.071 203.937 104.099 217.266 104.099 217.266Z" fill="#6B7050" stroke="#6B7050" stroke-width="2" stroke-linecap="round" stroke-linejoin="round"/>
        <path d="M101.662 225.431L99.9825 223.945" stroke="#EAE7DB" stroke-width="2" stroke-linecap="round" stroke-linejoin="round"/>
        <path d="M91.3164 221.678L93.4865 221.347" stroke="#EAE7DB" stroke-width="2" stroke-linecap="round" stroke-linejoin="round"/>
        <path d="M98.7246 215.59L97.9792 217.654" stroke="#EAE7DB" stroke-width="2" stroke-linecap="round" stroke-linejoin="round"/>
    </g>
</svg>
