<svg width="175" height="386" viewBox="0 0 175 386" fill="none" xmlns="http://www.w3.org/2000/svg">
<path fill-rule="evenodd" clip-rule="evenodd" d="M160.034 142.098C163.122 148.507 165.423 155.16 166.957 161.922C171.612 175.303 174.194 190.086 174.194 205.627C174.194 262.049 140.155 308.467 96.5097 314.132V376.074C96.5097 381.045 92.4802 385.074 87.5097 385.074C82.5391 385.074 78.5097 381.045 78.5097 376.074V314.132C34.8642 308.467 0.825195 262.049 0.825195 205.627C0.825195 188.944 3.80106 173.136 9.12123 158.997C10.6264 153.196 12.7038 147.491 15.3657 141.966L82.4149 2.818C83.5329 0.497911 85.9515 -0.393467 88.0639 0.158341C89.98 -0.0407705 91.9935 0.893175 92.9846 2.9501L160.034 142.098Z" fill="#EE9575"/>
</svg>
