<svg width="294" height="118" viewBox="0 0 294 118" fill="none" xmlns="http://www.w3.org/2000/svg">
<path d="M0.585748 16.8484C0.262249 12.442 3.5673 8.54878 7.96779 8.15269L28.8246 6.27534C67.3289 2.80954 100.837 31.2559 103.668 69.8121L105.968 101.135C106.291 105.541 102.986 109.434 98.5856 109.831L77.7287 111.708C39.2245 115.174 5.71595 86.7274 2.88533 48.1712L0.585748 16.8484Z" fill="#564842"/>
<path d="M293.414 16.8484C293.738 12.442 290.433 8.54878 286.032 8.15269L265.175 6.27534C226.671 2.80954 193.163 31.2559 190.332 69.8121L188.032 101.135C187.709 105.541 191.014 109.434 195.414 109.831L216.271 111.708C254.776 115.174 288.284 86.7274 291.115 48.1712L293.414 16.8484Z" fill="#564842"/>
</svg>
