<svg width="37" height="79" viewBox="0 0 37 79" fill="none" xmlns="http://www.w3.org/2000/svg">
<mask id="path-1-outside-1_331_72" maskUnits="userSpaceOnUse" x="0" y="0" width="37" height="50" fill="black">
<rect fill="white" width="37" height="50"/>
<path fill-rule="evenodd" clip-rule="evenodd" d="M13 41H16H21H24L28 9H21H16H9L13 41Z"/>
</mask>
<path fill-rule="evenodd" clip-rule="evenodd" d="M13 41H16H21H24L28 9H21H16H9L13 41Z" fill="#EAE7DB"/>
<path d="M13 41L4.0695 42.1163C4.63248 46.6202 8.46109 50 13 50V41ZM24 41V50C28.5389 50 32.3675 46.6202 32.9305 42.1163L24 41ZM28 9L36.9305 10.1163C37.2507 7.55477 36.4555 4.97906 34.7471 3.04378C33.0387 1.1085 30.5815 0 28 0L28 9ZM9 9V0C6.41852 0 3.96133 1.1085 2.2529 3.04378C0.544467 4.97906 -0.250694 7.55477 0.0694991 10.1163L9 9ZM16 32H13V50H16V32ZM16 50H21V32H16V50ZM21 50H24V32H21V50ZM32.9305 42.1163L36.9305 10.1163L19.0695 7.88369L15.0695 39.8837L32.9305 42.1163ZM28 0H21V18H28V0ZM21 0H16V18H21V0ZM9 18H16V0H9V18ZM21.9305 39.8837L17.9305 7.88369L0.0694991 10.1163L4.0695 42.1163L21.9305 39.8837Z" fill="#564842" mask="url(#path-1-outside-1_331_72)"/>
<mask id="path-3-outside-2_331_72" maskUnits="userSpaceOnUse" x="3" y="51" width="31" height="28" fill="black">
<rect fill="white" x="3" y="51" width="31" height="28"/>
<path fill-rule="evenodd" clip-rule="evenodd" d="M12 70H15H21.5H24.5L23.5 60H21.5H15H13L12 70Z"/>
</mask>
<path fill-rule="evenodd" clip-rule="evenodd" d="M12 70H15H21.5H24.5L23.5 60H21.5H15H13L12 70Z" fill="#EAE7DB"/>
<path d="M12 70L3.04467 69.1045C2.79165 71.6346 3.62072 74.1537 5.32693 76.039C7.03313 77.9244 9.45724 79 12 79V70ZM24.5 70V79C27.0428 79 29.4669 77.9244 31.1731 76.039C32.8793 74.1537 33.7083 71.6346 33.4553 69.1045L24.5 70ZM23.5 60L32.4553 59.1045C31.9953 54.5037 28.1238 51 23.5 51V60ZM13 60V51C8.37624 51 4.50475 54.5037 4.04467 59.1045L13 60ZM15 61H12V79H15V61ZM15 79H21.5V61H15V79ZM21.5 79H24.5V61H21.5V79ZM33.4553 69.1045L32.4553 59.1045L14.5447 60.8955L15.5447 70.8955L33.4553 69.1045ZM23.5 51H21.5V69H23.5V51ZM21.5 51H15V69H21.5V51ZM13 69H15V51H13V69ZM20.9553 70.8955L21.9553 60.8955L4.04467 59.1045L3.04467 69.1045L20.9553 70.8955Z" fill="#564842" mask="url(#path-3-outside-2_331_72)"/>
</svg>
