<svg width="92" height="78" viewBox="0 0 92 78" fill="none" xmlns="http://www.w3.org/2000/svg">
<path fill-rule="evenodd" clip-rule="evenodd" d="M9.81587 52.801C10.3567 54.2273 11.8817 55.0207 13.36 54.6449L16.8867 53.7485C16.9066 54.0785 16.982 54.4114 17.1184 54.7348L19.2697 59.8328C19.8972 61.3196 21.5884 62.0437 23.0974 61.4715L45.7335 52.8879L41.927 56.2114C40.8711 57.1334 40.5944 58.6637 41.2606 59.8971L43.9119 64.8051C44.6994 66.2629 46.5195 66.8063 47.9773 66.0188L70.9389 53.6151L70.901 53.559L71.5426 53.2306L86.9007 41.9947L80.3966 24.8423L80.3955 24.8419L73.0264 5.40848L56.1892 5.60787L43.7679 10.318L43.7677 10.3175L15.8167 20.9165C14.2675 21.504 13.4878 23.2361 14.0753 24.7853L15.5364 28.6385C15.6842 29.0282 15.9044 29.3692 16.1759 29.652L12.5223 32.3365C11.4365 33.1342 11.0158 34.558 11.4935 35.8178L13.5751 41.3072C13.6553 41.5188 13.7579 41.7176 13.8796 41.9012L9.3592 44.5582C8.0986 45.2991 7.55583 46.841 8.07428 48.2082L9.81587 52.801Z" fill="#EAE7DB"/>
<path d="M13.36 54.6449L14.4686 59.0062L14.4686 59.0062L13.36 54.6449ZM16.8867 53.7485L21.3785 53.4777C21.2978 52.1388 20.6241 50.9057 19.5409 50.1145C18.4577 49.3234 17.0781 49.0567 15.7781 49.3871L16.8867 53.7485ZM17.1184 54.7348L21.2644 52.9852L21.2644 52.9852L17.1184 54.7348ZM19.2697 59.8328L15.1238 61.5823L15.1238 61.5823L19.2697 59.8328ZM45.7335 52.8879L48.6932 56.2777C50.3342 54.8448 50.7132 52.4423 49.5929 50.5739C48.4727 48.7055 46.1749 47.9078 44.138 48.6803L45.7335 52.8879ZM41.927 56.2114L38.9674 52.8216L38.9674 52.8217L41.927 56.2114ZM41.2606 59.8971L37.3014 62.0358L37.3014 62.0358L41.2606 59.8971ZM43.9119 64.8051L47.8712 62.6664L47.8712 62.6664L43.9119 64.8051ZM47.9773 66.0188L45.8385 62.0595L45.8385 62.0595L47.9773 66.0188ZM70.9389 53.6151L73.0777 57.5743C74.1957 56.9704 75.0063 55.9219 75.3092 54.6878C75.6121 53.4537 75.3792 52.1491 74.6679 51.0961L70.9389 53.6151ZM70.901 53.559L68.8506 49.5532C67.704 50.1402 66.8639 51.1903 66.543 52.4378C66.222 53.6853 66.4511 55.0105 67.1721 56.0779L70.901 53.559ZM71.5426 53.2306L73.593 57.2363C73.8048 57.1279 74.0076 57.0029 74.1996 56.8624L71.5426 53.2306ZM86.9007 41.9947L89.5578 45.6265C91.1916 44.4312 91.8262 42.292 91.1084 40.3991L86.9007 41.9947ZM80.3966 24.8423L84.6042 23.2467C84.1108 21.9455 83.0431 20.9458 81.7123 20.5389L80.3966 24.8423ZM80.3955 24.8419L76.1879 26.4375C76.6813 27.7387 77.749 28.7384 79.0798 29.1453L80.3955 24.8419ZM73.0264 5.40848L77.234 3.81295C76.5642 2.04643 74.8622 0.886425 72.9731 0.908797L73.0264 5.40848ZM56.1892 5.60787L56.1359 1.10819C55.6087 1.11443 55.0867 1.21328 54.5937 1.40023L56.1892 5.60787ZM43.7679 10.318L39.5602 11.9136C40.4414 14.2374 43.0396 15.4069 45.3634 14.5257L43.7679 10.318ZM43.7677 10.3175L47.9753 8.72199C47.0941 6.39817 44.496 5.22869 42.1721 6.10988L43.7677 10.3175ZM14.0753 24.7853L18.2829 23.1898L14.0753 24.7853ZM15.5364 28.6385L11.3288 30.2341L15.5364 28.6385ZM16.1759 29.652L18.8403 33.2784C19.8849 32.5109 20.5478 31.3302 20.6592 30.0388C20.7706 28.7474 20.3198 27.4706 19.4221 26.5356L16.1759 29.652ZM12.5223 32.3365L9.85778 28.7101L9.85778 28.7101L12.5223 32.3365ZM13.8796 41.9012L16.1599 45.7807C17.2251 45.1546 17.986 44.118 18.2642 42.9141C18.5423 41.7101 18.3131 40.4448 17.6304 39.4149L13.8796 41.9012ZM9.3592 44.5582L11.6395 48.4377L11.6395 48.4377L9.3592 44.5582ZM12.2514 50.2836C12.9906 50.0957 13.7531 50.4924 14.0235 51.2055L5.60822 54.3966C6.96031 57.9622 10.7728 59.9456 14.4686 59.0062L12.2514 50.2836ZM15.7781 49.3871L12.2514 50.2836L14.4686 59.0062L17.9953 58.1098L15.7781 49.3871ZM21.2644 52.9852C21.3287 53.1376 21.3682 53.3053 21.3785 53.4777L12.3949 54.0192C12.445 54.8518 12.6352 55.6853 12.9725 56.4844L21.2644 52.9852ZM23.4157 58.0832L21.2644 52.9852L12.9725 56.4844L15.1238 61.5823L23.4157 58.0832ZM21.5019 57.2638C22.2564 56.9777 23.102 57.3398 23.4157 58.0832L15.1238 61.5823C16.6924 65.2995 20.9205 67.1096 24.6929 65.6791L21.5019 57.2638ZM44.138 48.6803L21.5019 57.2638L24.6929 65.6791L47.329 57.0955L44.138 48.6803ZM44.8867 59.6012L48.6932 56.2777L42.7738 49.4981L38.9674 52.8216L44.8867 59.6012ZM45.2199 57.7583C45.553 58.375 45.4147 59.1402 44.8867 59.6012L38.9674 52.8217C36.3275 55.1266 35.6357 58.9524 37.3014 62.0358L45.2199 57.7583ZM47.8712 62.6664L45.2199 57.7583L37.3014 62.0358L39.9527 66.9439L47.8712 62.6664ZM45.8385 62.0595C46.5674 61.6658 47.4774 61.9375 47.8712 62.6664L39.9527 66.9439C41.9213 70.5883 46.4716 71.9467 50.116 69.978L45.8385 62.0595ZM68.8002 49.6558L45.8385 62.0595L50.116 69.978L73.0777 57.5743L68.8002 49.6558ZM67.1721 56.0779L67.21 56.134L74.6679 51.0961L74.63 51.04L67.1721 56.0779ZM69.4921 49.2249L68.8506 49.5532L72.9515 57.5647L73.593 57.2363L69.4921 49.2249ZM84.2437 38.3628L68.8855 49.5987L74.1996 56.8624L89.5578 45.6265L84.2437 38.3628ZM76.1889 26.4378L82.6931 43.5902L91.1084 40.3991L84.6042 23.2467L76.1889 26.4378ZM79.0798 29.1453L79.0808 29.1456L81.7123 20.5389L81.7113 20.5386L79.0798 29.1453ZM68.8187 7.00402L76.1879 26.4375L84.6032 23.2464L77.234 3.81295L68.8187 7.00402ZM56.2425 10.1076L73.0797 9.90817L72.9731 0.908797L56.1359 1.10819L56.2425 10.1076ZM45.3634 14.5257L57.7848 9.81552L54.5937 1.40023L42.1723 6.11039L45.3634 14.5257ZM39.56 11.9131L39.5602 11.9136L47.9755 8.7225L47.9753 8.72199L39.56 11.9131ZM17.4122 25.1242L45.3632 14.5252L42.1721 6.10988L14.2212 16.7089L17.4122 25.1242ZM18.2829 23.1898C18.5767 23.9644 18.1868 24.8304 17.4122 25.1242L14.2212 16.7089C10.3481 18.1775 8.39899 22.5078 9.86764 26.3808L18.2829 23.1898ZM19.7441 27.043L18.2829 23.1898L9.86764 26.3808L11.3288 30.2341L19.7441 27.043ZM19.4221 26.5356C19.5625 26.6819 19.6731 26.8559 19.7441 27.043L11.3288 30.2341C11.6953 31.2005 12.2462 32.0565 12.9297 32.7684L19.4221 26.5356ZM15.1867 35.9628L18.8403 33.2784L13.5114 26.0256L9.85778 28.7101L15.1867 35.9628ZM15.7011 34.2222C15.94 34.8521 15.7296 35.564 15.1867 35.9628L9.85778 28.7101C7.14342 30.7045 6.09157 34.2638 7.28584 37.4133L15.7011 34.2222ZM17.7827 39.7116L15.7011 34.2222L7.28584 37.4133L9.36742 42.9027L17.7827 39.7116ZM17.6304 39.4149C17.6919 39.5078 17.7432 39.6074 17.7827 39.7116L9.36742 42.9027C9.56745 43.4302 9.8239 43.9275 10.1288 44.3875L17.6304 39.4149ZM11.6395 48.4377L16.1599 45.7807L11.5994 38.0217L7.07893 40.6787L11.6395 48.4377ZM12.2819 46.6127C12.5411 47.2963 12.2698 48.0672 11.6395 48.4377L7.07894 40.6787C3.92744 42.5311 2.57051 46.3857 3.86663 49.8038L12.2819 46.6127ZM14.0235 51.2055L12.2819 46.6127L3.86663 49.8038L5.60822 54.3966L14.0235 51.2055Z" fill="#564842"/>
</svg>
