<svg width="88" height="62" viewBox="0 0 88 62" fill="none" xmlns="http://www.w3.org/2000/svg">
<path fill-rule="evenodd" clip-rule="evenodd" d="M43.2307 36.7941L38.6748 57.2164L82.997 39.9527L50.3235 5L46.2238 23.3772C42.5263 21.7472 31.0492 17.439 20.8193 21.5311C7.29798 26.9399 5 50.7671 5 50.7671L22.1751 54.5C22.1751 54.5 22.8962 39.86 28.6751 36.5C32.2637 34.4135 40.1738 36.0469 43.2307 36.7941Z" fill="#EAE7DB"/>
<path d="M38.6748 57.2164L34.2827 56.2366C33.9209 57.8587 34.4825 59.5481 35.7434 60.6307C37.0044 61.7133 38.7594 62.0128 40.308 61.4096L38.6748 57.2164ZM43.2307 36.7941L47.6227 37.7739C48.1561 35.3829 46.6789 33.0045 44.2992 32.4228L43.2307 36.7941ZM82.997 39.9527L84.6303 44.1459C86.0215 43.604 87.0534 42.4073 87.3848 40.9516C87.7162 39.4958 87.304 37.9704 86.2844 36.8797L82.997 39.9527ZM50.3235 5L53.6109 1.92701C52.4712 0.707804 50.7503 0.219496 49.1401 0.658392C47.5299 1.09729 46.2949 2.3913 45.9315 4.0202L50.3235 5ZM46.2238 23.3772L44.4086 27.4949C45.641 28.0382 47.052 28.0009 48.254 27.3932C49.456 26.7856 50.3226 25.6715 50.6159 24.357L46.2238 23.3772ZM20.8193 21.5311L19.148 17.353L19.148 17.353L20.8193 21.5311ZM5 50.7671L0.520783 50.3351C0.301852 52.6051 1.81571 54.6801 4.04426 55.1644L5 50.7671ZM22.1751 54.5L21.2193 58.8973C22.5117 59.1782 23.8621 58.8764 24.9119 58.0721C25.9617 57.2677 26.6046 56.0423 26.6696 54.7214L22.1751 54.5ZM28.6751 36.5L30.937 40.3902L30.937 40.3902L28.6751 36.5ZM43.0668 58.1962L47.6227 37.7739L38.8387 35.8143L34.2827 56.2366L43.0668 58.1962ZM81.3638 35.7596L37.0415 53.0233L40.308 61.4096L84.6303 44.1459L81.3638 35.7596ZM47.0362 8.07299L79.7097 43.0257L86.2844 36.8797L53.6109 1.92701L47.0362 8.07299ZM50.6159 24.357L54.7156 5.9798L45.9315 4.0202L41.8318 22.3974L50.6159 24.357ZM22.4906 25.7092C26.5732 24.0761 31.0922 24.0565 35.2305 24.747C39.345 25.4336 42.763 26.7694 44.4086 27.4949L48.039 19.2596C45.9871 18.355 41.8178 16.7218 36.7119 15.8697C31.6298 15.0217 25.2953 14.894 19.148 17.353L22.4906 25.7092ZM5 50.7671C9.47922 51.1991 9.47911 51.2002 9.47901 51.2012C9.47899 51.2014 9.4789 51.2023 9.47886 51.2027C9.47878 51.2036 9.47873 51.2041 9.47871 51.2043C9.47868 51.2046 9.47879 51.2035 9.47904 51.201C9.47955 51.196 9.48062 51.1854 9.4823 51.1694C9.48567 51.1375 9.49144 51.0839 9.4999 51.01C9.51682 50.8623 9.54443 50.6335 9.58482 50.3338C9.66568 49.7339 9.79726 48.8538 9.99599 47.7742C10.3954 45.6039 11.0562 42.6819 12.0978 39.6314C14.2934 33.2006 17.6911 27.6291 22.4906 25.7092L19.148 17.353C10.4262 20.8419 5.9142 29.8884 3.58054 36.7234C2.35741 40.3058 1.59863 43.6786 1.14467 46.145C0.91669 47.3836 0.763107 48.4073 0.665481 49.1316C0.616625 49.494 0.581658 49.7824 0.558316 49.9863C0.546642 50.0883 0.537866 50.1692 0.531706 50.2277C0.528626 50.257 0.526199 50.2807 0.524391 50.2986C0.523486 50.3076 0.522736 50.3151 0.522137 50.3212C0.521837 50.3243 0.521574 50.3269 0.521349 50.3293C0.521237 50.3304 0.521095 50.3319 0.521039 50.3325C0.520906 50.3338 0.520783 50.3351 5 50.7671ZM23.1308 50.1027L5.95574 46.3697L4.04426 55.1644L21.2193 58.8973L23.1308 50.1027ZM26.4132 32.6098C23.833 34.11 22.2065 36.5989 21.1601 38.7923C20.0768 41.0627 19.3547 43.5711 18.8642 45.788C18.368 48.0308 18.075 50.1336 17.9054 51.6644C17.8201 52.4345 17.7648 53.0711 17.7304 53.5225C17.7131 53.7484 17.7011 53.9285 17.6932 54.0566C17.6892 54.1206 17.6863 54.1716 17.6842 54.2089C17.6832 54.2275 17.6824 54.2427 17.6818 54.2544C17.6815 54.2602 17.6812 54.2651 17.681 54.2692C17.6809 54.2712 17.6808 54.273 17.6807 54.2746C17.6807 54.2754 17.6806 54.2764 17.6806 54.2768C17.6806 54.2777 17.6805 54.2786 22.1751 54.5C26.6696 54.7214 26.6696 54.7222 26.6696 54.7229C26.6695 54.7231 26.6695 54.7237 26.6695 54.7241C26.6695 54.7248 26.6694 54.7252 26.6694 54.7255C26.6694 54.726 26.6694 54.7256 26.6695 54.7244C26.6696 54.7219 26.6699 54.7161 26.6704 54.7069C26.6714 54.6886 26.6733 54.657 26.676 54.613C26.6814 54.5249 26.6906 54.3873 26.7043 54.2063C26.732 53.8439 26.7781 53.3106 26.8507 52.6556C26.9969 51.3364 27.2453 49.5692 27.6518 47.7321C28.0639 45.8689 28.6056 44.0873 29.2829 42.6677C29.997 41.1711 30.6277 40.57 30.937 40.3902L26.4132 32.6098ZM44.2992 32.4228C42.6715 32.0249 39.676 31.3702 36.537 31.1009C34.9666 30.9661 33.2497 30.9176 31.5884 31.0827C29.9777 31.2428 28.0926 31.6333 26.4132 32.6098L30.937 40.3902C31.0519 40.3234 31.5012 40.1357 32.4785 40.0386C33.4052 39.9465 34.5297 39.9617 35.7676 40.0679C38.245 40.2805 40.733 40.816 42.1622 41.1654L44.2992 32.4228Z" fill="#564842"/>
</svg>
