<svg width="92" height="103" viewBox="0 0 92 103" fill="none" xmlns="http://www.w3.org/2000/svg">
<path fill-rule="evenodd" clip-rule="evenodd" d="M26.2997 19.0586C24.9775 19.8192 24.4366 21.4508 25.0424 22.8507L26.4879 26.1901C26.1651 26.2622 25.8484 26.3895 25.5509 26.5756L20.8595 29.5097C19.4912 30.3654 19.0451 32.1502 19.8498 33.5491L31.921 54.5337L28.0349 51.3037C26.9568 50.4076 25.402 50.3776 24.2902 51.2314L19.8657 54.6288C18.5516 55.6379 18.3043 57.5213 19.3134 58.8354L35.208 79.5345L35.2574 79.4882L35.6835 80.0694L49.217 93.4471L65.118 84.3002L65.1182 84.2991L83.1338 73.9358L80.2617 57.3442L73.6377 45.8291L73.6382 45.8288L58.7327 19.917C57.9065 18.4808 56.0725 17.9863 54.6363 18.8124L51.0642 20.8672C50.703 21.0751 50.4013 21.3466 50.1652 21.6596L46.9343 18.479C45.9742 17.5338 44.5017 17.3446 43.3338 18.0164L38.2449 20.9438C38.0487 21.0566 37.8687 21.1895 37.7068 21.3388L34.3653 17.298C33.4335 16.1712 31.825 15.8803 30.5575 16.6094L26.2997 19.0586Z" fill="#EAE7DB"/>
<path d="M25.0424 22.8507L20.9127 24.6382L20.9127 24.6382L25.0424 22.8507ZM26.4879 26.1901L27.4689 30.5819C28.778 30.2895 29.8883 29.4283 30.4973 28.2332C31.1063 27.0381 31.1504 25.6336 30.6176 24.4027L26.4879 26.1901ZM25.5509 26.5756L27.937 30.3909L27.937 30.3909L25.5509 26.5756ZM20.8595 29.5097L18.4734 25.6944L18.4734 25.6944L20.8595 29.5097ZM31.921 54.5337L29.0446 57.9944C30.7199 59.3869 33.1522 59.3794 34.8188 57.9765C36.4855 56.5736 36.9079 54.1783 35.8217 52.2899L31.921 54.5337ZM28.0349 51.3037L25.1585 54.7644L25.1585 54.7644L28.0349 51.3037ZM24.2902 51.2314L21.5495 47.6623L21.5495 47.6623L24.2902 51.2314ZM19.8657 54.6288L22.6064 58.198L22.6064 58.198L19.8657 54.6288ZM19.3134 58.8354L22.8826 56.0947L22.8826 56.0947L19.3134 58.8354ZM35.208 79.5345L31.6389 82.2752C32.4128 83.283 33.5767 83.9167 34.8433 84.0197C36.1098 84.1227 37.3608 83.6854 38.2874 82.8158L35.208 79.5345ZM35.2574 79.4882L38.8864 76.8273C38.1247 75.7885 36.9545 75.1259 35.6718 75.0073C34.3892 74.8887 33.1172 75.3254 32.178 76.2068L35.2574 79.4882ZM35.6835 80.0694L32.0545 82.7302C32.1952 82.9221 32.3508 83.1025 32.52 83.2697L35.6835 80.0694ZM49.217 93.4471L46.0534 96.6475C47.4932 98.0706 49.706 98.3572 51.4608 97.3478L49.217 93.4471ZM65.118 84.3002L67.3618 88.2009C68.5621 87.5104 69.3777 86.3058 69.573 84.935L65.118 84.3002ZM65.1182 84.2991L62.8743 80.3985C61.6741 81.0889 60.8585 82.2935 60.6632 83.6643L65.1182 84.2991ZM83.1338 73.9358L85.3777 77.8365C87.0153 76.8944 87.8902 75.0298 87.5679 73.1682L83.1338 73.9358ZM80.2617 57.3442L84.6958 56.5766C84.6058 56.0571 84.4253 55.5574 84.1624 55.1004L80.2617 57.3442ZM73.6377 45.8291L71.3939 41.9284C70.3594 42.5235 69.6036 43.5052 69.2929 44.6575C68.9822 45.8098 69.142 47.0384 69.7371 48.0729L73.6377 45.8291ZM73.6382 45.8288L75.882 49.7295C78.0363 48.4902 78.7781 45.7393 77.5389 43.585L73.6382 45.8288ZM50.1652 21.6596L47.0083 24.8664C47.932 25.7758 49.203 26.2426 50.4957 26.1475C51.7884 26.0523 52.9773 25.4043 53.7579 24.3694L50.1652 21.6596ZM46.9343 18.479L50.0913 15.2721L50.0913 15.2721L46.9343 18.479ZM37.7068 21.3388L34.2389 24.2065C35.0263 25.1588 36.1707 25.7453 37.4035 25.8286C38.6363 25.9119 39.8491 25.4846 40.7574 24.6469L37.7068 21.3388ZM34.3653 17.298L37.8332 14.4303L37.8332 14.4303L34.3653 17.298ZM29.1722 21.0632C29.4752 21.7631 29.2047 22.579 28.5436 22.9593L24.0559 15.1579C20.7504 17.0594 19.3979 21.1385 20.9127 24.6382L29.1722 21.0632ZM30.6176 24.4027L29.1722 21.0632L20.9127 24.6382L22.3581 27.9776L30.6176 24.4027ZM27.937 30.3909C27.7967 30.4786 27.6375 30.5442 27.4689 30.5819L25.5068 21.7984C24.6928 21.9802 23.9001 22.3004 23.1648 22.7603L27.937 30.3909ZM23.2456 33.325L27.937 30.3909L23.1648 22.7603L18.4734 25.6944L23.2456 33.325ZM23.7504 31.3052C24.1528 32.0047 23.9297 32.8971 23.2456 33.325L18.4734 25.6944C15.0527 27.8337 13.9374 32.2957 15.9491 35.7929L23.7504 31.3052ZM35.8217 52.2899L23.7504 31.3052L15.9491 35.7929L28.0203 56.7776L35.8217 52.2899ZM25.1585 54.7644L29.0446 57.9944L34.7974 51.0731L30.9113 47.843L25.1585 54.7644ZM27.0308 54.8005C26.4749 55.2274 25.6975 55.2124 25.1585 54.7644L30.9113 47.843C28.2162 45.6029 24.3291 45.5279 21.5495 47.6623L27.0308 54.8005ZM22.6064 58.198L27.0308 54.8005L21.5495 47.6623L17.125 51.0597L22.6064 58.198ZM22.8826 56.0947C23.3871 56.7517 23.2635 57.6934 22.6064 58.198L17.125 51.0597C13.8398 53.5824 13.2216 58.2908 15.7443 61.5761L22.8826 56.0947ZM38.7771 76.7938L22.8826 56.0947L15.7443 61.5761L31.6389 82.2752L38.7771 76.7938ZM32.178 76.2068L32.1286 76.2532L38.2874 82.8158L38.3368 82.7695L32.178 76.2068ZM39.3125 77.4085L38.8864 76.8273L31.6283 82.149L32.0545 82.7302L39.3125 77.4085ZM52.3805 90.2468L38.847 76.869L32.52 83.2697L46.0534 96.6475L52.3805 90.2468ZM62.8742 80.3995L46.9731 89.5465L51.4608 97.3478L67.3618 88.2009L62.8742 80.3995ZM60.6632 83.6643L60.663 83.6654L69.573 84.935L69.5732 84.934L60.6632 83.6643ZM80.89 70.0351L62.8743 80.3985L67.362 88.1998L85.3777 77.8365L80.89 70.0351ZM75.8276 58.1118L78.6998 74.7034L87.5679 73.1682L84.6958 56.5766L75.8276 58.1118ZM69.7371 48.0729L76.361 59.588L84.1624 55.1004L77.5384 43.5853L69.7371 48.0729ZM71.3944 41.9281L71.3939 41.9284L75.8815 49.7297L75.882 49.7295L71.3944 41.9281ZM54.832 22.1608L69.7375 48.0726L77.5389 43.585L62.6333 17.6732L54.832 22.1608ZM56.8802 22.7131C56.1621 23.1262 55.2451 22.8789 54.832 22.1608L62.6333 17.6732C60.568 14.0827 55.983 12.8464 52.3925 14.9118L56.8802 22.7131ZM53.3081 24.7679L56.8802 22.7131L52.3925 14.9118L48.8204 16.9666L53.3081 24.7679ZM53.7579 24.3694C53.6358 24.5313 53.4815 24.6682 53.3081 24.7679L48.8204 16.9666C47.9245 17.482 47.1669 18.162 46.5726 18.9498L53.7579 24.3694ZM43.7774 21.6858L47.0083 24.8664L53.3222 18.4528L50.0913 15.2721L43.7774 21.6858ZM45.5776 21.9171C44.9937 22.253 44.2575 22.1584 43.7774 21.6858L50.0913 15.2721C47.6909 12.9091 44.0097 12.4362 41.09 14.1157L45.5776 21.9171ZM40.4887 24.8444L45.5776 21.9171L41.09 14.1157L36.0011 17.0431L40.4887 24.8444ZM40.7574 24.6469C40.6756 24.7224 40.5853 24.7889 40.4887 24.8444L36.0011 17.0431C35.5121 17.3244 35.0619 17.6566 34.6561 18.0307L40.7574 24.6469ZM30.8974 20.1657L34.2389 24.2065L41.1747 18.4711L37.8332 14.4303L30.8974 20.1657ZM32.8013 20.51C32.1676 20.8746 31.3633 20.7291 30.8974 20.1657L37.8332 14.4303C35.5036 11.6132 31.4824 10.8859 28.3137 12.7087L32.8013 20.51ZM28.5436 22.9593L32.8013 20.51L28.3137 12.7087L24.0559 15.1579L28.5436 22.9593Z" fill="#564842"/>
</svg>
