<svg width="67" height="71" viewBox="0 0 67 71" fill="none" xmlns="http://www.w3.org/2000/svg">
<mask id="path-1-inside-1_331_12" fill="white">
<path fill-rule="evenodd" clip-rule="evenodd" d="M26.5 53C41.1355 53 53 41.1355 53 26.5C53 11.8645 41.1355 0 26.5 0C11.8645 0 0 11.8645 0 26.5C0 41.1355 11.8645 53 26.5 53ZM26.5 41C34.5081 41 41 34.5081 41 26.5C41 18.4919 34.5081 12 26.5 12C18.4919 12 12 18.4919 12 26.5C12 34.5081 18.4919 41 26.5 41Z"/>
</mask>
<path fill-rule="evenodd" clip-rule="evenodd" d="M26.5 53C41.1355 53 53 41.1355 53 26.5C53 11.8645 41.1355 0 26.5 0C11.8645 0 0 11.8645 0 26.5C0 41.1355 11.8645 53 26.5 53ZM26.5 41C34.5081 41 41 34.5081 41 26.5C41 18.4919 34.5081 12 26.5 12C18.4919 12 12 18.4919 12 26.5C12 34.5081 18.4919 41 26.5 41Z" fill="#EAE7DB"/>
<path d="M45 26.5C45 36.7173 36.7173 45 26.5 45V61C45.5538 61 61 45.5538 61 26.5H45ZM26.5 8C36.7173 8 45 16.2827 45 26.5H61C61 7.44618 45.5538 -8 26.5 -8V8ZM8 26.5C8 16.2827 16.2827 8 26.5 8V-8C7.44618 -8 -8 7.44618 -8 26.5H8ZM26.5 45C16.2827 45 8 36.7173 8 26.5H-8C-8 45.5538 7.44618 61 26.5 61V45ZM33 26.5C33 30.0899 30.0899 33 26.5 33V49C38.9264 49 49 38.9264 49 26.5H33ZM26.5 20C30.0899 20 33 22.9101 33 26.5H49C49 14.0736 38.9264 4 26.5 4V20ZM20 26.5C20 22.9101 22.9101 20 26.5 20V4C14.0736 4 4 14.0736 4 26.5H20ZM26.5 33C22.9101 33 20 30.0899 20 26.5H4C4 38.9264 14.0736 49 26.5 49V33Z" fill="#564842" mask="url(#path-1-inside-1_331_12)"/>
<circle cx="27" cy="26" r="12" fill="#EAE7DB" stroke="#EAE7DB" stroke-width="8"/>
<path d="M58.5 66.5L40 45.5L42.5 43L62 63L58.5 66.5Z" fill="#EAE7DB" stroke="#564842" stroke-width="9" stroke-linejoin="round"/>
</svg>
